<?xml version="1.0" encoding="UTF-8" ?>
<!DOCTYPE svg PUBLIC "-//W3C//DTD SVG 1.1//EN" "http://www.w3.org/Graphics/SVG/1.1/DTD/svg11.dtd">
<svg width="1096pt" height="1096pt" viewBox="0 0 1096 1096" version="1.1" xmlns="http://www.w3.org/2000/svg">
<path fill="#000000" stroke="#000000" stroke-width="0.09375" opacity="1.00" d=" M 784.77 256.79 C 790.25 255.97 796.00 256.67 801.58 256.45 C 802.74 257.58 803.74 258.90 805.06 259.88 C 805.73 259.94 807.08 260.06 807.75 260.12 C 810.87 264.24 817.57 266.92 816.15 273.00 C 812.38 394.58 808.15 515.53 804.16 636.93 C 889.72 675.87 975.10 715.30 1060.65 754.36 C 1063.07 756.64 1065.34 759.08 1067.77 761.37 C 1068.48 769.86 1067.25 777.95 1066.21 786.09 C 1063.86 788.75 1061.22 791.14 1058.76 793.71 C 929.91 799.54 800.43 803.40 672.13 809.48 C 463.24 816.06 255.39 826.36 46.27 832.69 C 43.76 830.12 41.19 827.61 38.70 825.03 C 38.60 823.47 38.70 821.93 38.63 820.40 C 37.78 819.54 36.86 818.76 36.06 817.87 C 35.93 812.25 36.01 806.62 36.02 801.00 C 40.54 794.88 47.12 790.58 53.24 786.25 C 296.97 609.75 540.86 433.25 784.77 256.79 M 787.86 270.83 C 541.40 449.27 295.08 627.47 48.78 805.79 C 47.25 807.32 48.22 809.91 48.06 811.88 C 48.87 812.76 49.78 813.54 50.63 814.40 C 50.70 815.94 50.60 817.49 50.69 819.05 C 51.07 819.46 51.83 820.29 52.21 820.70 C 386.23 807.89 719.13 795.18 1052.78 781.72 C 1054.75 777.55 1055.49 772.18 1055.79 767.28 C 967.85 726.15 879.20 686.16 790.97 645.56 C 796.65 525.03 799.04 404.58 803.85 283.94 C 803.96 280.04 805.67 274.66 801.74 272.09 C 800.51 272.01 799.28 271.95 798.06 271.91 C 797.47 270.60 796.66 269.41 795.62 268.43 C 792.83 268.19 789.66 268.39 787.86 270.83 Z" />
<path fill="#00b9b9" stroke="#00b9b9" stroke-width="0.09375" opacity="1.00" d=" M 791.42 272.44 C 792.06 272.34 793.35 272.15 793.99 272.05 C 794.55 273.14 794.93 274.39 795.99 275.15 C 801.56 273.39 801.65 279.64 800.24 283.28 C 800.10 310.65 798.35 337.76 798.04 365.10 L 797.68 365.29 C 797.09 383.18 796.02 401.83 796.27 420.11 L 795.69 420.95 C 795.20 429.70 795.43 438.53 794.81 447.30 L 794.76 447.93 C 794.24 456.97 794.53 466.05 794.01 475.11 C 792.19 532.89 790.72 590.68 787.81 648.34 C 787.40 648.26 786.59 648.11 786.18 648.03 C 784.69 649.22 783.49 650.78 783.10 652.68 C 555.15 703.25 327.12 753.46 99.14 803.98 C 96.55 804.53 93.91 805.06 91.54 806.31 C 85.88 806.44 80.27 807.45 74.59 807.26 C 77.40 805.60 80.71 805.41 83.81 804.69 C 316.41 753.27 549.02 701.86 781.62 650.42 C 787.29 528.25 789.71 405.33 794.74 282.93 C 793.45 283.42 792.26 284.10 791.13 284.86 C 561.87 450.88 332.54 616.90 103.19 782.76 C 92.27 790.90 80.44 797.97 70.51 807.34 C 65.09 807.92 59.57 807.45 54.18 808.07 C 53.66 809.28 53.42 810.55 53.47 811.88 C 52.12 811.36 50.51 809.88 51.29 808.31 C 298.16 629.85 545.03 451.56 791.42 272.44 Z" />
<path fill="#337e58" stroke="#337e58" stroke-width="0.09375" opacity="1.00" d=" M 791.13 284.86 C 792.26 284.10 793.45 283.42 794.74 282.93 C 789.71 405.33 787.29 528.25 781.62 650.42 C 549.02 701.86 316.41 753.27 83.81 804.69 C 80.71 805.41 77.40 805.60 74.59 807.26 C 73.24 807.38 71.87 807.41 70.51 807.34 C 80.44 797.97 92.27 790.90 103.19 782.76 C 112.65 781.04 120.33 774.34 129.36 771.24 C 280.02 699.19 430.75 627.35 581.43 555.36 C 582.32 556.32 583.06 557.40 583.88 558.45 C 584.39 557.42 584.92 556.40 585.46 555.39 C 650.16 584.22 714.25 615.36 779.09 643.24 C 783.75 523.59 786.96 404.74 791.13 284.86 M 94.70 798.07 C 116.12 795.50 136.82 788.68 158.06 784.88 C 361.65 739.77 565.34 694.87 768.92 649.79 C 708.00 621.00 645.24 593.18 583.73 564.43 C 420.79 642.37 257.58 720.04 94.70 798.07 Z" />
<path fill="#005858" stroke="#005858" stroke-width="0.09375" opacity="0.47" d=" M 103.19 782.76 C 332.54 616.90 561.87 450.88 791.13 284.86 C 786.96 404.74 783.75 523.59 779.09 643.24 C 714.25 615.36 650.16 584.22 585.46 555.39 C 584.92 556.40 584.39 557.42 583.88 558.45 C 583.06 557.40 582.32 556.32 581.43 555.36 C 430.75 627.35 280.02 699.19 129.36 771.24 C 120.33 774.34 112.65 781.04 103.19 782.76 Z" />
<path fill="#000000" stroke="#000000" stroke-width="0.09375" opacity="1.00" d=" M 796.27 420.11 C 796.02 401.83 797.09 383.18 797.68 365.29 C 798.95 383.77 795.97 401.67 796.27 420.11 Z" />
<path fill="#005858" stroke="#005858" stroke-width="0.09375" opacity="0.47" d=" M 794.81 447.30 C 795.43 438.53 795.20 429.70 795.69 420.95 C 795.09 429.49 797.15 439.94 794.81 447.30 Z" />
<path fill="#327c58" stroke="#327c58" stroke-width="0.09375" opacity="0.75" d=" M 794.01 475.11 C 794.53 466.05 794.24 456.97 794.76 447.93 C 794.34 456.80 795.58 467.10 794.01 475.11 Z" />
<path fill="#327c58" stroke="#327c58" stroke-width="0.09375" opacity="0.75" d=" M 94.70 798.07 C 257.58 720.04 420.79 642.37 583.73 564.43 C 645.24 593.18 708.00 621.00 768.92 649.79 C 565.34 694.87 361.65 739.77 158.06 784.88 C 136.82 788.68 116.12 795.50 94.70 798.07 Z" />
<path fill="#b88700" stroke="#b88700" stroke-width="0.09375" opacity="1.00" d=" M 786.18 648.03 C 786.59 648.11 787.40 648.26 787.81 648.34 C 876.31 688.26 964.35 729.39 1052.83 769.44 C 1050.93 772.19 1051.25 775.51 1050.97 778.71 C 1049.41 778.69 1047.87 778.64 1046.34 778.82 C 1038.52 779.53 1030.65 779.10 1022.83 779.69 L 1022.17 779.76 C 1014.40 780.32 1006.60 780.11 998.84 780.59 C 911.54 784.47 823.89 787.92 736.16 790.83 C 720.13 791.64 704.01 791.82 688.03 792.78 C 593.35 796.63 497.44 800.72 402.10 803.76 C 386.37 804.60 370.60 804.85 354.89 805.68 C 254.81 809.74 153.79 814.26 53.66 817.18 C 53.65 815.40 53.84 813.61 53.47 811.88 C 53.42 810.55 53.66 809.28 54.18 808.07 C 59.57 807.45 65.09 807.92 70.51 807.34 C 71.87 807.41 73.24 807.38 74.59 807.26 C 80.27 807.45 85.88 806.44 91.54 806.31 C 96.87 807.07 102.19 805.79 107.53 805.85 C 414.50 793.98 721.27 781.80 1028.21 770.21 C 1028.62 769.91 1029.43 769.31 1029.84 769.01 C 947.98 730.81 865.44 693.75 783.38 655.64 C 783.31 654.90 783.17 653.42 783.10 652.68 C 783.49 650.78 784.69 649.22 786.18 648.03 Z" />
<path fill="#337e58" stroke="#337e58" stroke-width="0.09375" opacity="1.00" d=" M 99.14 803.98 C 327.12 753.46 555.15 703.25 783.10 652.68 C 783.17 653.42 783.31 654.90 783.38 655.64 C 558.54 705.42 333.70 755.26 108.78 804.71 C 108.47 805.00 107.84 805.57 107.53 805.85 C 102.19 805.79 96.87 807.07 91.54 806.31 C 93.91 805.06 96.55 804.53 99.14 803.98 Z" />
<path fill="#614700" stroke="#614700" stroke-width="0.09375" opacity="0.53" d=" M 108.78 804.71 C 333.70 755.26 558.54 705.42 783.38 655.64 C 865.44 693.75 947.98 730.81 1029.84 769.01 C 1029.43 769.31 1028.62 769.91 1028.21 770.21 C 721.27 781.80 414.50 793.98 107.53 805.85 C 107.84 805.57 108.47 805.00 108.78 804.71 Z" />
<path fill="#614700" stroke="#614700" stroke-width="0.09375" opacity="0.53" d=" M 1022.83 779.69 C 1030.65 779.10 1038.52 779.53 1046.34 778.82 C 1039.83 781.10 1030.45 779.07 1022.83 779.69 Z" />
<path fill="#614700" stroke="#614700" stroke-width="0.09375" opacity="0.53" d=" M 998.84 780.59 C 1006.60 780.11 1014.40 780.32 1022.17 779.76 C 1015.81 782.07 1006.38 780.03 998.84 780.59 Z" />
<path fill="#614700" stroke="#614700" stroke-width="0.09375" opacity="0.53" d=" M 688.03 792.78 C 704.01 791.82 720.13 791.64 736.16 790.83 C 721.86 792.50 703.90 792.68 688.03 792.78 Z" />
<path fill="#614700" stroke="#614700" stroke-width="0.09375" opacity="0.53" d=" M 354.89 805.68 C 370.60 804.85 386.37 804.60 402.10 803.76 C 387.95 805.47 370.47 805.69 354.89 805.68 Z" />
</svg>
