<?xml version="1.0" encoding="UTF-8" ?>
<!DOCTYPE svg PUBLIC "-//W3C//DTD SVG 1.1//EN" "http://www.w3.org/Graphics/SVG/1.1/DTD/svg11.dtd">
<svg width="565pt" height="565pt" viewBox="0 0 565 565" version="1.1" xmlns="http://www.w3.org/2000/svg">
<g id="#2a2d30fe">
<path fill="#2a2d30" stroke="#2a2d30" stroke-width="0.09375" opacity="1.00" d=" M 238.38 0.00 L 241.07 0.00 C 240.26 1.42 239.21 1.64 237.92 0.65 L 238.38 0.00 Z" />
<path fill="#2a2d30" stroke="#2a2d30" stroke-width="0.09375" opacity="1.00" d=" M 244.83 0.00 L 247.50 0.00 L 247.97 0.65 C 246.68 1.64 245.63 1.42 244.83 0.00 Z" />
<path fill="#2a2d30" stroke="#2a2d30" stroke-width="0.09375" opacity="1.00" d=" M 222.62 23.96 C 221.65 21.75 221.64 19.25 222.61 17.04 C 223.70 19.21 223.70 21.79 222.62 23.96 Z" />
<path fill="#2a2d30" stroke="#2a2d30" stroke-width="0.09375" opacity="1.00" d=" M 232.28 53.28 C 232.76 49.09 233.38 44.91 233.78 40.72 C 233.87 44.96 233.07 49.13 232.28 53.28 Z" />
<path fill="#2a2d30" stroke="#2a2d30" stroke-width="0.09375" opacity="1.00" d=" M 253.02 42.71 C 253.35 45.53 253.67 48.36 254.03 51.18 C 253.64 48.36 253.31 45.54 253.02 42.71 Z" />
<path fill="#2a2d30" stroke="#2a2d30" stroke-width="0.09375" opacity="1.00" d=" M 230.20 69.19 C 229.58 67.68 229.88 66.02 230.98 64.82 C 231.69 66.31 231.39 68.03 230.20 69.19 Z" />
<path fill="#2a2d30" stroke="#2a2d30" stroke-width="0.09375" opacity="1.00" d=" M 228.28 84.19 C 227.65 82.70 227.93 81.04 229.01 79.82 C 229.75 81.31 229.47 83.03 228.28 84.19 Z" />
<path fill="#2a2d30" stroke="#2a2d30" stroke-width="0.09375" opacity="1.00" d=" M 226.27 100.18 C 225.66 98.68 225.95 97.02 227.04 95.82 C 227.76 97.31 227.48 99.03 226.27 100.18 Z" />
<path fill="#2a2d30" stroke="#2a2d30" stroke-width="0.09375" opacity="1.00" d=" M 224.23 116.20 C 223.64 114.69 223.95 113.04 225.04 111.84 C 225.75 113.34 225.45 115.06 224.23 116.20 Z" />
<path fill="#2a2d30" stroke="#2a2d30" stroke-width="0.09375" opacity="1.00" d=" M 262.00 114.81 C 263.10 116.02 263.38 117.68 262.73 119.18 C 261.56 118.01 261.28 116.30 262.00 114.81 Z" />
<path fill="#2a2d30" stroke="#2a2d30" stroke-width="0.09375" opacity="1.00" d=" M 223.20 124.19 C 222.62 122.66 222.97 121.00 224.12 119.84 C 224.76 121.36 224.42 123.06 223.20 124.19 Z" />
<path fill="#2a2d30" stroke="#2a2d30" stroke-width="0.09375" opacity="1.00" d=" M 222.17 131.95 C 221.26 130.62 222.25 129.09 223.11 128.04 C 223.50 129.33 223.84 131.40 222.17 131.95 Z" />
<path fill="#2a2d30" stroke="#2a2d30" stroke-width="0.09375" opacity="1.00" d=" M 354.07 230.85 C 355.09 232.43 355.38 234.36 354.75 236.16 C 353.46 234.67 353.22 232.61 354.07 230.85 Z" />
<path fill="#2a2d30" stroke="#2a2d30" stroke-width="0.09375" opacity="1.00" d=" M 288.97 309.02 C 293.80 308.84 298.63 308.84 303.46 309.08 C 301.11 311.82 298.70 314.51 296.29 317.20 C 293.88 314.45 291.43 311.73 288.97 309.02 Z" />
<path fill="#2a2d30" stroke="#2a2d30" stroke-width="0.09375" opacity="1.00" d=" M 432.06 318.75 C 432.99 326.13 432.53 333.58 432.60 341.00 C 432.48 350.79 433.01 360.60 432.09 370.37 C 431.95 353.16 431.98 335.95 432.06 318.75 Z" />
<path fill="#2a2d30" stroke="#2a2d30" stroke-width="0.09375" opacity="1.00" d=" M 431.16 376.23 C 430.50 374.90 430.76 373.78 431.94 372.89 C 432.45 374.18 432.19 375.29 431.16 376.23 Z" />
<path fill="#2a2d30" stroke="#2a2d30" stroke-width="0.09375" opacity="1.00" d=" M 296.39 382.34 C 298.92 385.22 301.51 388.06 304.11 390.87 C 299.04 391.06 293.97 391.07 288.90 390.91 C 291.41 388.07 293.93 385.23 296.39 382.34 Z" />
<path fill="#2a2d30" stroke="#2a2d30" stroke-width="0.09375" opacity="1.00" d=" M 397.82 409.01 C 398.87 407.69 400.60 407.30 402.13 408.03 C 400.95 409.12 399.34 409.49 397.82 409.01 Z" />
<path fill="#2a2d30" stroke="#2a2d30" stroke-width="0.09375" opacity="1.00" d=" M 345.82 440.77 C 346.76 439.65 347.88 439.43 349.18 440.09 C 348.22 441.13 347.10 441.36 345.82 440.77 Z" />
<path fill="#2a2d30" stroke="#2a2d30" stroke-width="0.09375" opacity="1.00" d=" M 202.87 560.00 C 204.20 559.41 205.31 559.69 206.19 560.85 C 204.88 561.37 203.77 561.09 202.87 560.00 Z" />
<path fill="#2a2d30" stroke="#2a2d30" stroke-width="0.09375" opacity="1.00" d=" M 295.80 561.78 C 296.93 560.55 298.65 560.25 300.15 560.98 C 298.95 562.06 297.30 562.37 295.80 561.78 Z" />
<path fill="#2a2d30" stroke="#2a2d30" stroke-width="0.09375" opacity="1.00" d=" M 215.81 562.05 C 217.11 561.40 218.23 561.63 219.17 562.75 C 217.88 563.33 216.76 563.10 215.81 562.05 Z" />
<path fill="#2a2d30" stroke="#2a2d30" stroke-width="0.09375" opacity="1.00" d=" M 236.92 564.07 C 248.06 564.59 259.23 563.80 270.35 564.71 L 268.91 565.00 L 236.75 565.00 L 236.92 564.07 Z" />
</g>
<g id="#030305ff">
<path fill="#030305" stroke="#030305" stroke-width="0.09375" opacity="1.00" d=" M 241.07 0.00 L 244.83 0.00 C 245.63 1.42 246.68 1.64 247.97 0.65 C 257.17 3.27 264.10 12.33 263.15 22.03 C 262.93 29.18 257.92 34.80 252.63 39.03 C 252.75 40.26 252.88 41.48 253.02 42.71 C 253.31 45.54 253.64 48.36 254.03 51.18 C 256.85 72.37 259.64 93.57 262.00 114.81 C 261.28 116.30 261.56 118.01 262.73 119.18 C 263.27 123.24 263.30 127.45 264.68 131.35 C 267.34 134.15 271.31 135.25 274.24 137.77 C 279.06 141.47 281.20 147.38 283.18 152.91 C 302.95 157.98 322.19 167.71 335.09 183.93 C 345.87 197.25 352.11 213.90 354.07 230.85 C 353.22 232.61 353.46 234.67 354.75 236.16 C 355.77 247.99 354.52 259.86 355.15 271.71 C 372.64 277.93 390.17 284.03 407.57 290.50 C 419.70 295.05 430.65 305.32 432.06 318.75 C 431.98 335.95 431.95 353.16 432.09 370.37 C 432.05 371.00 431.98 372.26 431.94 372.89 C 430.76 373.78 430.50 374.90 431.16 376.23 C 428.93 391.47 417.29 404.68 402.13 408.03 C 400.60 407.30 398.87 407.69 397.82 409.01 C 389.61 410.22 381.29 409.82 373.03 409.90 C 372.73 417.44 373.72 425.08 372.46 432.55 C 365.64 437.18 357.05 438.17 349.18 440.09 C 347.88 439.43 346.76 439.65 345.82 440.77 C 342.90 441.28 339.98 441.77 337.05 442.24 C 336.76 462.58 336.73 482.93 337.07 503.27 C 343.54 503.85 349.90 505.38 355.84 508.05 C 356.09 518.72 356.19 529.41 355.97 540.09 C 356.43 543.92 352.52 545.41 349.75 546.83 C 334.08 554.07 317.22 558.60 300.15 560.98 C 298.65 560.25 296.93 560.55 295.80 561.78 C 287.37 563.25 278.79 563.38 270.35 564.71 C 259.23 563.80 248.06 564.59 236.92 564.07 C 230.98 563.98 225.06 563.45 219.17 562.75 C 218.23 561.63 217.11 561.40 215.81 562.05 C 212.60 561.71 209.39 561.30 206.19 560.85 C 205.31 559.69 204.20 559.41 202.87 560.00 C 179.65 555.92 156.69 547.62 137.89 533.10 C 135.03 530.80 131.39 528.22 131.61 524.08 C 131.50 434.72 131.71 345.35 131.52 255.98 C 130.44 233.37 135.37 210.07 147.99 191.04 C 160.49 171.49 181.24 158.32 203.57 152.85 C 205.15 148.32 206.74 143.62 210.01 140.00 C 213.27 136.27 217.87 134.20 222.17 131.95 C 223.84 131.40 223.50 129.33 223.11 128.04 C 223.13 126.75 223.16 125.47 223.20 124.19 C 224.42 123.06 224.76 121.36 224.12 119.84 C 224.15 118.62 224.19 117.41 224.23 116.20 C 225.45 115.06 225.75 113.34 225.04 111.84 C 225.34 107.94 225.78 104.06 226.27 100.18 C 227.48 99.03 227.76 97.31 227.04 95.82 C 227.35 91.93 227.79 88.06 228.28 84.19 C 229.47 83.03 229.75 81.31 229.01 79.82 C 229.32 76.27 229.74 72.72 230.20 69.19 C 231.39 68.03 231.69 66.31 230.98 64.82 C 231.29 60.96 231.70 57.11 232.28 53.28 C 233.07 49.13 233.87 44.96 233.78 40.72 C 233.32 38.21 230.51 36.90 228.91 35.05 C 225.50 32.26 223.83 28.08 222.62 23.96 C 223.70 21.79 223.70 19.21 222.61 17.04 C 224.22 9.14 230.20 2.85 237.92 0.65 C 239.21 1.64 240.26 1.42 241.07 0.00 M 228.51 15.12 C 227.07 20.20 228.11 25.42 230.55 30.00 L 231.08 29.76 C 233.12 31.56 235.31 33.17 237.67 34.52 L 237.67 35.10 C 241.31 35.48 245.00 35.52 248.58 34.66 C 250.32 33.51 252.06 32.36 253.82 31.24 L 253.80 30.75 C 260.03 24.46 258.76 13.57 251.89 8.28 C 248.68 5.87 244.54 5.54 240.68 5.27 C 235.40 6.70 230.82 10.08 228.51 15.12 M 239.09 40.97 C 235.33 71.71 231.24 102.41 227.53 133.15 C 229.88 133.93 232.23 134.70 234.59 135.46 C 242.77 137.04 251.32 136.43 259.03 133.17 C 258.95 131.22 258.86 129.27 258.80 127.32 L 258.08 126.59 C 257.87 123.84 257.61 121.09 257.30 118.35 C 257.01 116.18 256.73 114.02 256.44 111.85 C 253.53 89.78 251.10 67.63 247.87 45.60 C 247.96 43.48 248.15 40.26 245.08 40.60 C 243.09 40.77 241.09 40.88 239.09 40.97 M 220.62 138.62 C 214.43 141.22 210.63 147.24 208.99 153.53 C 211.17 154.44 213.35 155.36 215.54 156.26 C 218.43 157.19 221.34 158.09 224.27 158.93 L 224.52 159.47 C 227.77 159.96 231.02 160.44 234.27 160.97 C 236.53 161.13 238.80 161.30 241.07 161.48 C 248.98 161.63 256.84 160.52 264.52 158.64 C 267.01 157.75 269.47 156.78 271.88 155.67 C 272.15 155.94 272.71 156.49 272.99 156.77 L 272.66 155.61 C 274.29 154.92 275.91 154.25 277.54 153.58 C 276.51 148.96 274.11 144.81 270.80 141.46 C 268.71 140.14 266.62 138.82 264.53 137.52 C 262.59 137.91 260.67 138.35 258.77 138.85 C 255.51 140.01 252.14 140.83 248.78 141.63 C 247.45 141.69 246.12 141.75 244.79 141.83 C 240.63 141.81 236.48 141.37 232.41 140.51 C 228.63 139.40 224.55 136.45 220.62 138.62 M 203.61 158.49 C 183.53 163.25 165.11 175.32 153.45 192.44 C 142.97 207.51 137.66 225.79 136.89 244.03 C 137.06 336.70 136.93 429.39 136.97 522.07 C 137.09 523.64 136.98 525.55 138.43 526.60 C 142.42 530.31 147.12 533.16 151.63 536.18 C 152.78 536.92 153.93 537.66 155.08 538.41 C 157.73 539.62 160.34 540.89 162.92 542.23 C 165.36 543.19 167.82 544.10 170.30 544.95 L 170.52 545.60 C 203.44 557.91 239.19 561.00 274.07 558.76 C 296.02 557.17 318.01 553.56 338.68 545.79 C 342.01 544.57 345.20 542.99 348.20 541.11 C 348.81 541.02 350.02 540.84 350.63 540.75 C 350.69 530.96 350.96 521.18 350.65 511.39 C 346.26 510.04 341.76 509.11 337.18 508.74 C 337.12 511.97 337.08 515.20 337.03 518.43 C 339.79 518.08 342.56 517.76 345.34 517.56 C 345.25 518.93 345.16 520.32 345.06 521.70 C 340.73 524.23 335.58 524.62 330.80 525.81 C 312.65 529.78 294.10 531.38 275.58 532.31 C 249.19 532.27 222.73 529.81 196.92 524.08 C 186.46 522.34 176.88 517.54 168.35 511.36 C 166.91 508.41 164.31 506.25 162.52 503.52 C 155.88 493.84 154.14 481.42 156.05 470.00 C 156.62 466.08 158.12 462.34 158.43 458.39 C 162.15 450.10 167.31 442.10 175.19 437.22 C 184.82 430.98 196.90 430.14 207.94 432.19 C 231.81 435.69 255.87 437.88 279.97 438.89 C 307.21 439.83 334.88 439.10 361.32 431.84 L 362.21 432.21 L 362.24 431.27 C 364.04 430.69 365.85 430.12 367.66 429.56 C 367.69 425.73 367.70 421.90 367.69 418.08 C 367.71 415.41 367.74 412.74 367.78 410.08 C 326.52 409.90 285.26 409.91 244.01 409.98 C 229.14 410.21 213.92 408.77 200.13 402.85 C 192.30 399.76 185.45 394.79 178.05 390.85 C 176.85 389.38 175.16 388.43 173.62 387.37 L 173.64 387.04 C 164.69 379.90 161.37 368.09 161.07 357.07 C 160.84 345.05 161.07 333.02 160.95 321.00 C 160.54 306.62 168.03 292.60 179.50 284.11 L 179.45 283.62 C 186.95 279.09 195.68 275.89 204.53 277.79 C 215.06 279.65 225.72 281.88 236.41 282.02 C 242.91 283.32 249.57 283.28 256.17 283.62 C 285.58 284.57 315.41 282.30 343.66 273.67 C 345.66 272.99 347.67 272.30 349.68 271.62 C 349.53 262.40 349.94 253.18 349.86 243.96 C 349.20 225.90 345.29 207.03 334.31 192.30 C 330.60 185.26 324.19 180.00 318.31 174.78 C 316.84 173.73 315.38 172.69 313.91 171.65 C 311.04 169.99 308.17 168.33 305.29 166.69 C 302.89 165.60 300.47 164.57 298.00 163.65 L 297.86 163.11 C 296.11 162.60 294.37 162.06 292.63 161.54 L 292.64 161.09 C 291.27 160.71 289.90 160.32 288.54 159.93 C 285.15 159.22 281.48 157.20 278.14 159.15 C 272.99 161.60 267.54 163.24 262.12 164.92 C 250.91 167.21 239.40 167.39 228.10 165.68 C 221.71 164.02 215.24 162.40 209.33 159.38 C 207.47 158.87 205.56 158.00 203.61 158.49 M 350.21 277.17 C 309.21 291.11 264.93 291.10 222.33 286.55 C 213.26 285.33 204.24 282.12 195.04 283.01 C 178.10 286.52 165.99 304.04 166.41 320.98 C 166.53 332.85 166.33 344.73 166.49 356.60 C 166.79 366.14 169.27 376.64 177.07 382.89 C 187.71 390.94 199.52 397.72 212.44 401.31 C 220.69 403.42 229.18 404.30 237.67 404.50 C 287.46 404.34 337.25 404.48 387.03 404.59 C 397.53 404.55 408.70 401.96 416.39 394.39 C 420.12 390.49 423.30 385.75 424.54 380.45 C 427.75 371.67 427.20 362.18 427.23 353.00 C 427.06 342.32 427.54 331.63 427.00 320.96 C 426.33 309.63 417.68 300.26 407.38 296.38 L 407.12 296.00 C 403.31 294.58 399.58 292.69 395.51 292.15 C 383.93 287.04 371.70 283.59 359.92 278.97 C 356.79 278.04 353.54 275.92 350.21 277.17 M 195.89 436.56 C 195.90 439.63 195.91 442.71 195.89 445.79 C 195.86 450.98 195.86 456.18 195.85 461.37 C 213.55 465.07 231.51 467.58 249.57 468.48 C 249.52 463.03 249.56 457.58 249.54 452.13 C 249.53 448.88 249.55 445.64 249.60 442.40 C 231.60 441.32 213.82 438.10 195.89 436.56 M 171.39 447.59 C 169.76 449.65 168.16 451.74 166.64 453.88 C 174.48 456.25 182.42 458.29 190.39 460.18 C 190.40 455.36 190.42 450.53 190.40 445.71 C 190.42 442.81 190.41 439.90 190.39 437.01 C 183.16 438.52 176.34 442.01 171.39 447.59 M 255.03 442.90 C 255.02 446.24 255.02 449.59 255.02 452.94 C 255.02 458.23 254.99 463.53 255.05 468.83 C 272.73 469.43 290.45 468.93 308.03 466.97 C 308.07 462.36 308.05 457.76 308.02 453.16 C 308.02 450.30 308.03 447.44 308.06 444.58 C 290.37 445.00 272.67 444.28 255.03 442.90 M 313.56 444.32 C 313.52 447.25 313.50 450.18 313.50 453.12 C 313.51 457.52 313.49 461.93 313.51 466.33 C 319.58 465.58 325.62 464.64 331.65 463.66 C 331.66 459.73 331.68 455.81 331.69 451.89 C 331.67 448.92 331.66 445.96 331.67 443.00 C 325.64 443.59 319.61 444.08 313.56 444.32 M 164.42 458.97 C 161.57 467.20 160.18 475.94 161.07 484.63 C 170.74 487.61 180.51 490.25 190.40 492.43 C 190.42 483.56 190.36 474.69 190.42 465.81 C 181.69 463.75 173.03 461.45 164.42 458.97 M 195.87 466.97 C 195.85 472.18 195.90 477.38 195.78 482.59 C 195.87 486.28 195.88 489.97 195.91 493.66 C 213.60 497.19 231.53 499.58 249.54 500.50 C 249.55 497.47 249.55 494.45 249.55 491.44 C 249.55 485.61 249.57 479.79 249.55 473.97 C 231.51 473.01 213.56 470.58 195.87 466.97 M 327.79 470.01 C 323.01 470.35 318.30 471.21 313.56 471.83 C 313.54 473.32 313.52 474.80 313.51 476.30 C 313.54 483.60 313.48 490.90 313.52 498.20 C 319.58 497.41 325.62 496.49 331.65 495.47 C 331.65 486.63 331.74 477.80 331.57 468.96 C 330.30 469.30 329.04 469.65 327.79 470.01 M 255.02 474.26 C 255.01 478.29 255.01 482.33 254.98 486.37 C 255.02 491.17 255.00 495.98 255.04 500.78 C 272.73 501.41 290.47 500.78 308.06 498.83 C 308.04 493.40 308.05 487.97 308.07 482.54 C 308.03 479.19 308.02 475.85 308.01 472.50 C 290.42 474.30 272.70 474.96 255.02 474.26 M 162.37 490.86 C 166.20 503.88 177.67 513.12 190.36 516.89 C 190.41 510.59 190.41 504.29 190.38 498.00 C 180.92 496.08 171.69 493.31 162.37 490.86 M 195.89 499.16 C 195.85 505.52 195.87 511.88 195.86 518.24 C 213.53 522.14 231.48 524.91 249.56 526.01 C 249.52 519.33 249.52 512.65 249.57 505.98 C 231.55 505.00 213.58 502.76 195.89 499.16 M 313.52 503.68 C 313.55 510.25 313.47 516.82 313.53 523.39 C 319.60 522.46 325.65 521.35 331.66 520.06 C 331.66 513.71 331.67 507.37 331.65 501.03 C 325.62 501.99 319.58 502.93 313.52 503.68 M 255.03 506.24 C 255.01 512.94 255.02 519.64 255.01 526.34 C 272.70 527.18 290.47 526.44 308.04 524.17 C 308.07 517.55 308.08 510.93 308.01 504.31 C 290.43 506.28 272.70 506.82 255.03 506.24 Z" />
<path fill="#030305" stroke="#030305" stroke-width="0.09375" opacity="1.00" d=" M 233.96 304.14 C 239.93 303.28 245.98 303.42 252.00 303.41 C 294.99 303.47 337.99 303.32 380.98 303.49 C 399.61 303.69 416.37 319.51 417.71 338.07 C 418.05 346.35 418.19 354.67 417.57 362.94 C 415.62 381.38 398.51 396.51 379.99 396.32 C 332.58 396.22 285.14 396.61 237.74 396.13 C 229.00 394.90 220.80 390.66 214.63 384.36 C 207.34 376.55 203.65 365.85 204.17 355.22 C 204.38 347.08 203.45 338.72 205.79 330.80 C 209.56 317.60 220.89 307.68 233.96 304.14 M 210.07 340.42 C 209.20 346.54 209.80 352.80 209.70 358.98 C 209.81 371.81 218.46 383.64 230.17 388.55 C 233.97 389.82 237.90 390.86 241.94 390.87 C 253.30 390.98 264.68 390.85 276.05 390.95 C 277.74 390.83 279.66 391.15 281.14 390.08 C 301.49 375.49 307.49 344.62 293.65 323.64 C 293.04 322.27 292.15 321.03 291.36 319.76 C 287.00 315.38 283.12 308.27 276.03 308.86 C 264.34 308.95 252.65 308.79 240.96 308.97 C 224.66 309.22 209.60 323.92 210.07 340.42 M 288.97 309.02 C 291.43 311.73 293.88 314.45 296.29 317.20 C 298.70 314.51 301.11 311.82 303.46 309.08 C 298.63 308.84 293.80 308.84 288.97 309.02 M 300.78 320.62 C 300.56 321.23 300.11 322.45 299.89 323.06 C 308.88 339.62 308.77 360.41 299.79 376.94 C 302.09 381.13 305.36 384.64 309.03 387.67 L 309.57 387.63 C 312.99 389.76 316.86 391.25 320.96 390.94 C 331.52 390.68 342.15 391.34 352.68 390.59 C 373.90 380.13 383.35 351.64 372.75 330.50 C 371.33 326.55 368.63 323.23 366.17 319.89 C 361.17 314.97 355.77 308.32 348.02 308.85 C 338.33 308.94 328.64 308.83 318.96 308.90 C 311.18 308.83 305.08 314.75 300.78 320.62 M 362.97 309.10 C 367.76 313.33 372.24 318.02 375.36 323.65 C 385.53 340.51 384.65 363.29 373.33 379.39 C 370.38 383.63 366.63 387.22 362.96 390.81 C 369.90 390.77 376.87 391.21 383.79 390.54 C 398.94 388.89 411.79 375.21 412.30 359.95 C 412.51 352.98 412.60 345.99 412.23 339.02 C 411.38 324.13 398.83 310.83 383.98 309.24 C 376.99 308.59 369.97 309.05 362.97 309.10 M 296.39 382.34 C 293.93 385.23 291.41 388.07 288.90 390.91 C 293.97 391.07 299.04 391.06 304.11 390.87 C 301.51 388.06 298.92 385.22 296.39 382.34 Z" />
<path fill="#030305" stroke="#030305" stroke-width="0.09375" opacity="1.00" d=" M 221.06 343.66 C 225.62 343.63 230.19 343.63 234.75 343.66 C 234.74 348.18 234.73 352.71 234.74 357.24 C 230.19 357.22 225.65 357.22 221.10 357.26 C 221.10 352.72 221.08 348.19 221.06 343.66 Z" />
<path fill="#030305" stroke="#030305" stroke-width="0.09375" opacity="1.00" d=" M 327.58 343.63 C 332.12 343.63 336.66 343.63 341.20 343.63 C 341.16 348.17 341.15 352.71 341.16 357.25 C 336.64 357.22 332.11 357.23 327.59 357.24 C 327.56 352.70 327.54 348.16 327.58 343.63 Z" />
</g>
<g id="#a9c5daff">
<path fill="#a9c5da" stroke="#a9c5da" stroke-width="0.09375" opacity="1.00" d=" M 228.51 15.12 C 230.82 10.08 235.40 6.70 240.68 5.27 C 244.51 8.87 249.10 12.50 250.10 17.98 C 251.04 23.57 249.25 29.13 248.58 34.66 C 245.00 35.52 241.31 35.48 237.67 35.10 L 237.67 34.52 C 237.87 32.03 237.72 29.41 235.82 27.53 C 234.64 26.07 233.37 24.68 232.28 23.15 C 233.98 22.90 235.69 22.64 237.40 22.37 C 237.68 20.53 237.96 18.68 238.24 16.83 C 236.63 16.66 235.04 16.50 233.44 16.33 C 232.40 17.27 231.36 18.22 230.33 19.17 C 229.72 17.82 229.11 16.47 228.51 15.12 Z" />
<path fill="#a9c5da" stroke="#a9c5da" stroke-width="0.09375" opacity="1.00" d=" M 245.08 40.60 C 248.15 40.26 247.96 43.48 247.87 45.60 C 246.61 56.70 247.33 67.86 246.96 78.99 C 246.60 90.51 249.18 101.81 250.30 113.21 C 250.35 114.44 250.38 115.66 250.39 116.89 C 250.40 119.73 250.38 122.57 250.69 125.40 C 251.00 127.01 251.38 128.61 251.76 130.21 C 254.10 129.23 256.45 128.28 258.80 127.32 C 258.86 129.27 258.95 131.22 259.03 133.17 C 251.32 136.43 242.77 137.04 234.59 135.46 C 234.58 126.55 235.12 117.62 236.72 108.84 C 240.22 86.19 243.20 63.45 245.08 40.60 Z" />
<path fill="#a9c5da" stroke="#a9c5da" stroke-width="0.09375" opacity="1.00" d=" M 228.05 153.68 C 229.19 149.19 230.58 144.76 232.41 140.51 C 236.48 141.37 240.63 141.81 244.79 141.83 C 244.00 148.46 242.80 155.03 241.07 161.48 C 238.80 161.30 236.53 161.13 234.27 160.97 C 234.49 158.80 234.70 156.62 234.91 154.45 C 233.18 154.25 231.46 154.05 229.75 153.87 C 229.32 153.82 228.47 153.73 228.05 153.68 Z" />
<path fill="#a9c5da" stroke="#a9c5da" stroke-width="0.09375" opacity="1.00" d=" M 228.10 165.68 C 239.40 167.39 250.91 167.21 262.12 164.92 C 261.12 165.28 260.12 165.63 259.13 166.00 C 265.25 189.49 263.52 213.99 263.74 238.01 C 263.86 249.76 261.96 261.84 255.29 271.78 C 256.90 272.10 258.53 272.42 260.15 272.74 C 258.33 273.01 256.52 273.28 254.71 273.54 C 254.36 274.96 254.01 276.39 253.68 277.82 C 253.30 276.52 252.94 275.23 252.58 273.93 C 251.68 274.72 250.79 275.51 249.88 276.30 C 248.39 274.80 246.92 273.29 245.42 271.80 C 244.29 273.18 243.17 274.56 242.04 275.94 C 242.69 276.97 243.34 278.01 243.98 279.05 C 241.38 279.84 238.91 280.99 236.41 282.02 C 225.72 281.88 215.06 279.65 204.53 277.79 C 208.05 257.72 205.24 237.06 209.99 217.17 C 211.94 208.49 212.32 199.52 214.83 190.97 C 217.34 182.13 221.35 173.84 224.97 165.42 C 225.75 165.49 227.32 165.62 228.10 165.68 Z" />
<path fill="#a9c5da" stroke="#a9c5da" stroke-width="0.09375" opacity="1.00" d=" M 350.21 277.17 C 353.54 275.92 356.79 278.04 359.92 278.97 C 371.70 283.59 383.93 287.04 395.51 292.15 C 379.98 292.49 364.45 291.92 348.92 291.55 C 325.26 291.91 301.62 293.13 277.95 293.10 C 262.91 294.28 247.25 296.56 233.96 304.14 C 220.89 307.68 209.56 317.60 205.79 330.80 C 203.45 338.72 204.38 347.08 204.17 355.22 C 199.06 349.45 192.13 345.67 186.77 340.32 C 184.97 328.25 184.30 314.21 191.75 303.75 C 199.31 294.34 211.31 290.33 222.33 286.55 C 264.93 291.10 309.21 291.11 350.21 277.17 Z" />
<path fill="#a9c5da" stroke="#a9c5da" stroke-width="0.09375" opacity="1.00" d=" M 212.44 401.31 C 212.90 395.63 213.29 389.92 214.63 384.36 C 220.80 390.66 229.00 394.90 237.74 396.13 C 239.81 396.50 241.87 396.90 243.94 397.30 C 241.84 399.69 239.75 402.09 237.67 404.50 C 229.18 404.30 220.69 403.42 212.44 401.31 Z" />
<path fill="#a9c5da" stroke="#a9c5da" stroke-width="0.09375" opacity="1.00" d=" M 345.06 521.70 C 346.75 520.65 348.38 519.50 350.04 518.41 C 350.11 520.89 350.18 523.37 350.24 525.85 C 339.25 528.10 328.49 531.69 317.20 532.30 C 303.38 533.13 289.29 535.26 275.58 532.31 C 294.10 531.38 312.65 529.78 330.80 525.81 C 335.58 524.62 340.73 524.23 345.06 521.70 Z" />
</g>
<g id="#b7d6ebff">
<path fill="#b7d6eb" stroke="#b7d6eb" stroke-width="0.09375" opacity="1.00" d=" M 240.68 5.27 C 244.54 5.54 248.68 5.87 251.89 8.28 C 254.49 15.49 253.28 23.26 253.80 30.75 L 253.82 31.24 C 252.06 32.36 250.32 33.51 248.58 34.66 C 249.25 29.13 251.04 23.57 250.10 17.98 C 249.10 12.50 244.51 8.87 240.68 5.27 Z" />
<path fill="#b7d6eb" stroke="#b7d6eb" stroke-width="0.09375" opacity="1.00" d=" M 246.96 78.99 C 247.33 67.86 246.61 56.70 247.87 45.60 C 251.10 67.63 253.53 89.78 256.44 111.85 C 254.39 112.30 252.34 112.76 250.30 113.21 C 249.18 101.81 246.60 90.51 246.96 78.99 Z" />
<path fill="#b7d6eb" stroke="#b7d6eb" stroke-width="0.09375" opacity="1.00" d=" M 250.69 125.40 C 250.38 122.57 250.40 119.73 250.39 116.89 C 252.69 117.38 254.99 117.87 257.30 118.35 C 257.61 121.09 257.87 123.84 258.08 126.59 C 256.82 125.31 255.55 124.03 254.28 122.76 C 253.08 123.64 251.88 124.51 250.69 125.40 Z" />
<path fill="#b7d6eb" stroke="#b7d6eb" stroke-width="0.09375" opacity="1.00" d=" M 258.77 138.85 C 260.67 138.35 262.59 137.91 264.53 137.52 C 264.04 139.77 263.54 142.02 263.04 144.28 C 265.11 144.85 267.20 145.40 269.28 145.94 C 270.67 149.07 271.81 152.29 272.66 155.61 L 272.99 156.77 C 272.71 156.49 272.15 155.94 271.88 155.67 C 269.82 154.23 268.16 151.08 265.40 151.36 C 262.28 152.65 264.23 156.28 264.52 158.64 C 256.84 160.52 248.98 161.63 241.07 161.48 C 242.80 155.03 244.00 148.46 244.79 141.83 C 246.12 141.75 247.45 141.69 248.78 141.63 C 251.20 143.63 253.96 145.16 256.92 146.20 C 257.55 143.75 258.15 141.30 258.77 138.85 Z" />
<path fill="#b7d6eb" stroke="#b7d6eb" stroke-width="0.09375" opacity="1.00" d=" M 278.14 159.15 C 281.48 157.20 285.15 159.22 288.54 159.93 C 287.59 162.16 286.59 164.39 285.92 166.73 C 288.06 167.38 290.27 167.78 292.47 168.25 C 292.52 166.01 292.58 163.77 292.63 161.54 C 294.37 162.06 296.11 162.60 297.86 163.11 L 298.00 163.65 C 298.39 165.15 298.77 166.64 299.17 168.14 C 301.21 167.66 303.25 167.17 305.29 166.69 C 308.17 168.33 311.04 169.99 313.91 171.65 C 310.97 173.90 309.74 177.21 310.60 180.85 C 314.09 180.15 316.82 178.01 318.31 174.78 C 324.19 180.00 330.60 185.26 334.31 192.30 C 336.06 201.28 340.39 209.58 341.16 218.78 C 343.42 236.98 343.43 255.36 343.66 273.67 C 315.41 282.30 285.58 284.57 256.17 283.62 C 249.57 283.28 242.91 283.32 236.41 282.02 C 238.91 280.99 241.38 279.84 243.98 279.05 C 245.17 278.78 246.36 278.53 247.55 278.31 C 248.33 277.64 249.11 276.97 249.88 276.30 C 250.79 275.51 251.68 274.72 252.58 273.93 C 252.94 275.23 253.30 276.52 253.68 277.82 C 256.13 278.12 258.58 278.40 261.03 278.67 C 260.73 276.69 260.44 274.72 260.15 272.74 C 258.53 272.42 256.90 272.10 255.29 271.78 C 261.96 261.84 263.86 249.76 263.74 238.01 C 263.52 213.99 265.25 189.49 259.13 166.00 C 260.12 165.63 261.12 165.28 262.12 164.92 C 267.54 163.24 272.99 161.60 278.14 159.15 M 275.85 160.66 C 275.34 163.00 274.88 165.35 274.49 167.72 C 276.39 167.81 278.29 167.89 280.20 167.99 C 280.48 166.37 280.75 164.76 281.03 163.15 C 279.31 162.30 277.57 161.49 275.85 160.66 M 300.44 173.45 C 297.84 174.27 297.76 177.25 298.56 179.40 C 300.28 179.73 302.66 180.60 303.84 178.77 C 306.26 176.55 303.44 172.21 300.44 173.45 M 309.41 188.18 C 309.52 191.09 312.94 193.16 315.32 191.27 C 317.67 189.47 315.51 186.59 314.98 184.45 C 313.08 185.55 310.48 186.06 309.41 188.18 M 336.36 251.54 C 333.40 252.67 333.35 257.55 336.61 258.30 C 339.70 259.42 340.41 254.87 341.55 252.96 C 339.84 252.42 338.15 251.72 336.36 251.54 M 336.31 263.46 C 334.28 264.37 333.96 266.70 334.22 268.68 C 335.94 269.65 337.95 269.84 339.85 270.26 C 340.25 268.43 340.65 266.61 341.05 264.78 C 339.47 264.32 337.93 263.74 336.31 263.46 Z" />
</g>
<g id="#dcf1fdff">
<path fill="#dcf1fd" stroke="#dcf1fd" stroke-width="0.09375" opacity="1.00" d=" M 253.80 30.75 C 253.28 23.26 254.49 15.49 251.89 8.28 C 258.76 13.57 260.03 24.46 253.80 30.75 Z" />
<path fill="#dcf1fd" stroke="#dcf1fd" stroke-width="0.09375" opacity="1.00" d=" M 233.44 16.33 C 235.04 16.50 236.63 16.66 238.24 16.83 C 237.96 18.68 237.68 20.53 237.40 22.37 C 235.69 22.64 233.98 22.90 232.28 23.15 C 231.57 21.85 230.94 20.51 230.33 19.17 C 231.36 18.22 232.40 17.27 233.44 16.33 Z" />
<path fill="#dcf1fd" stroke="#dcf1fd" stroke-width="0.09375" opacity="1.00" d=" M 269.28 145.94 C 269.78 144.44 270.29 142.95 270.80 141.46 C 274.11 144.81 276.51 148.96 277.54 153.58 C 275.91 154.25 274.29 154.92 272.66 155.61 C 271.81 152.29 270.67 149.07 269.28 145.94 Z" />
<path fill="#dcf1fd" stroke="#dcf1fd" stroke-width="0.09375" opacity="1.00" d=" M 341.16 218.78 C 340.39 209.58 336.06 201.28 334.31 192.30 C 345.29 207.03 349.20 225.90 349.86 243.96 C 349.94 253.18 349.53 262.40 349.68 271.62 C 347.67 272.30 345.66 272.99 343.66 273.67 C 343.43 255.36 343.42 236.98 341.16 218.78 Z" />
<path fill="#dcf1fd" stroke="#dcf1fd" stroke-width="0.09375" opacity="1.00" d=" M 187.25 207.59 C 189.67 207.54 192.10 207.52 194.54 207.54 C 193.75 209.53 194.26 212.85 191.79 213.70 C 190.27 213.71 188.76 213.47 187.26 213.29 C 187.26 211.39 187.25 209.49 187.25 207.59 Z" />
<path fill="#dcf1fd" stroke="#dcf1fd" stroke-width="0.09375" opacity="1.00" d=" M 175.51 231.68 C 177.57 231.33 179.64 231.02 181.69 230.62 C 182.13 233.46 181.80 236.33 180.92 239.06 C 177.59 237.85 175.45 235.30 175.51 231.68 Z" />
<path fill="#dcf1fd" stroke="#dcf1fd" stroke-width="0.09375" opacity="1.00" d=" M 186.81 234.01 C 186.61 231.52 188.81 230.66 190.93 230.67 C 194.09 231.51 193.19 235.18 193.60 237.62 C 191.11 237.19 186.20 237.95 186.81 234.01 Z" />
<path fill="#dcf1fd" stroke="#dcf1fd" stroke-width="0.09375" opacity="1.00" d=" M 175.09 243.26 C 177.20 242.94 179.33 242.64 181.45 242.34 C 181.79 244.31 182.17 246.27 182.54 248.23 C 180.93 248.58 179.32 248.93 177.71 249.27 C 176.69 247.33 175.90 245.28 175.09 243.26 Z" />
<path fill="#dcf1fd" stroke="#dcf1fd" stroke-width="0.09375" opacity="1.00" d=" M 418.34 309.74 C 415.18 304.88 410.27 301.45 407.38 296.38 C 417.68 300.26 426.33 309.63 427.00 320.96 C 427.54 331.63 427.06 342.32 427.23 353.00 C 427.20 362.18 427.75 371.67 424.54 380.45 C 423.40 365.27 424.90 350.03 423.55 334.86 C 423.20 326.32 423.13 317.19 418.34 309.74 Z" />
<path fill="#dcf1fd" stroke="#dcf1fd" stroke-width="0.09375" opacity="1.00" d=" M 175.63 416.06 C 175.79 413.17 179.45 413.25 181.43 412.31 C 181.69 414.40 182.37 416.56 181.83 418.67 C 179.65 421.06 175.21 419.42 175.63 416.06 Z" />
<path fill="#dcf1fd" stroke="#dcf1fd" stroke-width="0.09375" opacity="1.00" d=" M 175.69 424.90 C 177.94 424.89 180.19 424.91 182.44 424.95 C 182.26 426.54 182.17 428.16 181.79 429.73 C 180.99 431.98 177.10 432.03 176.25 429.76 C 175.91 428.16 175.84 426.52 175.69 424.90 Z" />
</g>
<g id="#88a4b9ff">
<path fill="#88a4b9" stroke="#88a4b9" stroke-width="0.09375" opacity="1.00" d=" M 230.55 30.00 C 228.11 25.42 227.07 20.20 228.51 15.12 C 229.11 16.47 229.72 17.82 230.33 19.17 C 230.94 20.51 231.57 21.85 232.28 23.15 C 233.37 24.68 234.64 26.07 235.82 27.53 C 234.24 28.27 232.65 29.01 231.08 29.76 L 230.55 30.00 Z" />
<path fill="#88a4b9" stroke="#88a4b9" stroke-width="0.09375" opacity="1.00" d=" M 239.09 40.97 C 241.09 40.88 243.09 40.77 245.08 40.60 C 243.20 63.45 240.22 86.19 236.72 108.84 C 235.12 117.62 234.58 126.55 234.59 135.46 C 232.23 134.70 229.88 133.93 227.53 133.15 C 231.24 102.41 235.33 71.71 239.09 40.97 Z" />
<path fill="#88a4b9" stroke="#88a4b9" stroke-width="0.09375" opacity="1.00" d=" M 250.30 113.21 C 252.34 112.76 254.39 112.30 256.44 111.85 C 256.73 114.02 257.01 116.18 257.30 118.35 C 254.99 117.87 252.69 117.38 250.39 116.89 C 250.38 115.66 250.35 114.44 250.30 113.21 Z" />
<path fill="#88a4b9" stroke="#88a4b9" stroke-width="0.09375" opacity="1.00" d=" M 250.69 125.40 C 251.88 124.51 253.08 123.64 254.28 122.76 C 255.55 124.03 256.82 125.31 258.08 126.59 L 258.80 127.32 C 256.45 128.28 254.10 129.23 251.76 130.21 C 251.38 128.61 251.00 127.01 250.69 125.40 Z" />
<path fill="#88a4b9" stroke="#88a4b9" stroke-width="0.09375" opacity="1.00" d=" M 220.62 138.62 C 224.55 136.45 228.63 139.40 232.41 140.51 C 230.58 144.76 229.19 149.19 228.05 153.68 C 228.47 153.73 229.32 153.82 229.75 153.87 C 229.07 155.60 228.41 157.34 227.75 159.09 C 226.94 159.18 225.32 159.38 224.52 159.47 L 224.27 158.93 C 223.42 157.10 222.57 155.26 221.72 153.43 C 219.65 154.36 217.59 155.30 215.54 156.26 C 213.35 155.36 211.17 154.44 208.99 153.53 C 210.63 147.24 214.43 141.22 220.62 138.62 M 216.52 142.86 C 216.81 144.76 216.95 146.70 217.44 148.57 C 219.04 149.48 220.95 149.36 222.58 148.61 C 222.98 146.74 223.12 144.83 223.37 142.95 C 221.08 142.90 218.80 142.87 216.52 142.86 Z" />
<path fill="#88a4b9" stroke="#88a4b9" stroke-width="0.09375" opacity="1.00" d=" M 264.53 137.52 C 266.62 138.82 268.71 140.14 270.80 141.46 C 270.29 142.95 269.78 144.44 269.28 145.94 C 267.20 145.40 265.11 144.85 263.04 144.28 C 263.54 142.02 264.04 139.77 264.53 137.52 Z" />
<path fill="#88a4b9" stroke="#88a4b9" stroke-width="0.09375" opacity="1.00" d=" M 248.78 141.63 C 252.14 140.83 255.51 140.01 258.77 138.85 C 258.15 141.30 257.55 143.75 256.92 146.20 C 253.96 145.16 251.20 143.63 248.78 141.63 Z" />
<path fill="#88a4b9" stroke="#88a4b9" stroke-width="0.09375" opacity="1.00" d=" M 265.40 151.36 C 268.16 151.08 269.82 154.23 271.88 155.67 C 269.47 156.78 267.01 157.75 264.52 158.64 C 264.23 156.28 262.28 152.65 265.40 151.36 Z" />
<path fill="#88a4b9" stroke="#88a4b9" stroke-width="0.09375" opacity="1.00" d=" M 209.33 159.38 C 215.24 162.40 221.71 164.02 228.10 165.68 C 227.32 165.62 225.75 165.49 224.97 165.42 C 221.35 173.84 217.34 182.13 214.83 190.97 C 212.32 199.52 211.94 208.49 209.99 217.17 C 205.24 237.06 208.05 257.72 204.53 277.79 C 195.68 275.89 186.95 279.09 179.45 283.62 C 179.19 280.52 178.91 277.43 178.58 274.35 C 181.13 272.02 182.98 269.09 180.82 265.83 C 178.82 261.11 179.37 255.91 179.57 250.93 C 179.10 250.52 178.17 249.69 177.71 249.27 C 179.32 248.93 180.93 248.58 182.54 248.23 C 182.17 246.27 181.79 244.31 181.45 242.34 C 181.26 241.25 181.09 240.15 180.92 239.06 C 181.80 236.33 182.13 233.46 181.69 230.62 C 181.79 230.60 181.97 230.55 182.07 230.53 C 183.30 212.02 186.29 193.17 194.19 176.24 C 197.28 169.12 202.81 163.46 209.33 159.38 M 187.25 207.59 C 187.25 209.49 187.26 211.39 187.26 213.29 C 188.76 213.47 190.27 213.71 191.79 213.70 C 194.26 212.85 193.75 209.53 194.54 207.54 C 192.10 207.52 189.67 207.54 187.25 207.59 M 186.81 234.01 C 186.20 237.95 191.11 237.19 193.60 237.62 C 193.19 235.18 194.09 231.51 190.93 230.67 C 188.81 230.66 186.61 231.52 186.81 234.01 Z" />
<path fill="#88a4b9" stroke="#88a4b9" stroke-width="0.09375" opacity="1.00" d=" M 288.54 159.93 C 289.90 160.32 291.27 160.71 292.64 161.09 L 292.63 161.54 C 292.58 163.77 292.52 166.01 292.47 168.25 C 290.27 167.78 288.06 167.38 285.92 166.73 C 286.59 164.39 287.59 162.16 288.54 159.93 Z" />
<path fill="#88a4b9" stroke="#88a4b9" stroke-width="0.09375" opacity="1.00" d=" M 275.85 160.66 C 277.57 161.49 279.31 162.30 281.03 163.15 C 280.75 164.76 280.48 166.37 280.20 167.99 C 278.29 167.89 276.39 167.81 274.49 167.72 C 274.88 165.35 275.34 163.00 275.85 160.66 Z" />
<path fill="#88a4b9" stroke="#88a4b9" stroke-width="0.09375" opacity="1.00" d=" M 298.00 163.65 C 300.47 164.57 302.89 165.60 305.29 166.69 C 303.25 167.17 301.21 167.66 299.17 168.14 C 298.77 166.64 298.39 165.15 298.00 163.65 Z" />
<path fill="#88a4b9" stroke="#88a4b9" stroke-width="0.09375" opacity="1.00" d=" M 313.91 171.65 C 315.38 172.69 316.84 173.73 318.31 174.78 C 316.82 178.01 314.09 180.15 310.60 180.85 C 309.74 177.21 310.97 173.90 313.91 171.65 Z" />
<path fill="#88a4b9" stroke="#88a4b9" stroke-width="0.09375" opacity="1.00" d=" M 300.44 173.45 C 303.44 172.21 306.26 176.55 303.84 178.77 C 302.66 180.60 300.28 179.73 298.56 179.40 C 297.76 177.25 297.84 174.27 300.44 173.45 Z" />
<path fill="#88a4b9" stroke="#88a4b9" stroke-width="0.09375" opacity="1.00" d=" M 309.41 188.18 C 310.48 186.06 313.08 185.55 314.98 184.45 C 315.51 186.59 317.67 189.47 315.32 191.27 C 312.94 193.16 309.52 191.09 309.41 188.18 Z" />
<path fill="#88a4b9" stroke="#88a4b9" stroke-width="0.09375" opacity="1.00" d=" M 336.36 251.54 C 338.15 251.72 339.84 252.42 341.55 252.96 C 340.41 254.87 339.70 259.42 336.61 258.30 C 333.35 257.55 333.40 252.67 336.36 251.54 Z" />
<path fill="#88a4b9" stroke="#88a4b9" stroke-width="0.09375" opacity="1.00" d=" M 336.31 263.46 C 337.93 263.74 339.47 264.32 341.05 264.78 C 340.65 266.61 340.25 268.43 339.85 270.26 C 337.95 269.84 335.94 269.65 334.22 268.68 C 333.96 266.70 334.28 264.37 336.31 263.46 Z" />
<path fill="#88a4b9" stroke="#88a4b9" stroke-width="0.09375" opacity="1.00" d=" M 245.42 271.80 C 246.92 273.29 248.39 274.80 249.88 276.30 C 249.11 276.97 248.33 277.64 247.55 278.31 C 246.36 278.53 245.17 278.78 243.98 279.05 C 243.34 278.01 242.69 276.97 242.04 275.94 C 243.17 274.56 244.29 273.18 245.42 271.80 Z" />
<path fill="#88a4b9" stroke="#88a4b9" stroke-width="0.09375" opacity="1.00" d=" M 254.71 273.54 C 256.52 273.28 258.33 273.01 260.15 272.74 C 260.44 274.72 260.73 276.69 261.03 278.67 C 258.58 278.40 256.13 278.12 253.68 277.82 C 254.01 276.39 254.36 274.96 254.71 273.54 Z" />
<path fill="#88a4b9" stroke="#88a4b9" stroke-width="0.09375" opacity="1.00" d=" M 170.30 424.16 C 174.46 412.30 172.73 399.65 173.62 387.37 C 175.16 388.43 176.85 389.38 178.05 390.85 C 183.30 399.46 190.63 406.77 199.75 411.20 C 217.07 420.17 237.10 418.83 255.98 419.92 C 282.29 420.20 308.61 420.12 334.90 419.22 C 336.81 419.18 338.72 419.15 340.64 419.14 C 342.49 419.13 344.35 419.15 346.21 419.17 C 347.20 419.18 349.20 419.19 350.19 419.20 C 352.42 419.20 354.65 419.21 356.89 419.14 C 358.23 419.08 359.58 419.01 360.93 418.90 C 363.18 418.67 365.44 418.37 367.69 418.08 C 367.70 421.90 367.69 425.73 367.66 429.56 C 365.85 430.12 364.04 430.69 362.24 431.27 C 362.31 428.89 362.35 426.52 362.37 424.14 C 360.33 424.22 358.29 424.31 356.25 424.41 C 356.25 426.18 356.26 427.95 356.27 429.72 C 357.95 430.43 359.63 431.13 361.32 431.84 C 334.88 439.10 307.21 439.83 279.97 438.89 C 255.87 437.88 231.81 435.69 207.94 432.19 C 196.90 430.14 184.82 430.98 175.19 437.22 C 167.31 442.10 162.15 450.10 158.43 458.39 C 157.30 445.52 167.49 436.05 170.30 424.16 M 175.63 416.06 C 175.21 419.42 179.65 421.06 181.83 418.67 C 182.37 416.56 181.69 414.40 181.43 412.31 C 179.45 413.25 175.79 413.17 175.63 416.06 M 175.69 424.90 C 175.84 426.52 175.91 428.16 176.25 429.76 C 177.10 432.03 180.99 431.98 181.79 429.73 C 182.17 428.16 182.26 426.54 182.44 424.95 C 180.19 424.91 177.94 424.89 175.69 424.90 Z" />
<path fill="#88a4b9" stroke="#88a4b9" stroke-width="0.09375" opacity="1.00" d=" M 337.18 508.74 C 341.76 509.11 346.26 510.04 350.65 511.39 C 350.96 521.18 350.69 530.96 350.63 540.75 C 350.02 540.84 348.81 541.02 348.20 541.11 C 333.16 543.14 318.27 546.92 303.00 546.73 C 287.35 546.62 271.69 547.03 256.06 546.45 C 234.46 544.79 212.49 542.04 192.38 533.53 C 182.44 528.94 171.41 522.73 168.35 511.36 C 176.88 517.54 186.46 522.34 196.92 524.08 C 222.73 529.81 249.19 532.27 275.58 532.31 C 289.29 535.26 303.38 533.13 317.20 532.30 C 328.49 531.69 339.25 528.10 350.24 525.85 C 350.18 523.37 350.11 520.89 350.04 518.41 C 348.38 519.50 346.75 520.65 345.06 521.70 C 345.16 520.32 345.25 518.93 345.34 517.56 C 342.56 517.76 339.79 518.08 337.03 518.43 C 337.08 515.20 337.12 511.97 337.18 508.74 Z" />
</g>
<g id="#586e7eff">
<path fill="#586e7e" stroke="#586e7e" stroke-width="0.09375" opacity="1.00" d=" M 231.08 29.76 C 232.65 29.01 234.24 28.27 235.82 27.53 C 237.72 29.41 237.87 32.03 237.67 34.52 C 235.31 33.17 233.12 31.56 231.08 29.76 Z" />
<path fill="#586e7e" stroke="#586e7e" stroke-width="0.09375" opacity="1.00" d=" M 216.52 142.86 C 218.80 142.87 221.08 142.90 223.37 142.95 C 223.12 144.83 222.98 146.74 222.58 148.61 C 220.95 149.36 219.04 149.48 217.44 148.57 C 216.95 146.70 216.81 144.76 216.52 142.86 Z" />
<path fill="#586e7e" stroke="#586e7e" stroke-width="0.09375" opacity="1.00" d=" M 215.54 156.26 C 217.59 155.30 219.65 154.36 221.72 153.43 C 222.57 155.26 223.42 157.10 224.27 158.93 C 221.34 158.09 218.43 157.19 215.54 156.26 Z" />
<path fill="#586e7e" stroke="#586e7e" stroke-width="0.09375" opacity="1.00" d=" M 229.75 153.87 C 231.46 154.05 233.18 154.25 234.91 154.45 C 234.70 156.62 234.49 158.80 234.27 160.97 C 231.02 160.44 227.77 159.96 224.52 159.47 C 225.32 159.38 226.94 159.18 227.75 159.09 C 228.41 157.34 229.07 155.60 229.75 153.87 Z" />
<path fill="#586e7e" stroke="#586e7e" stroke-width="0.09375" opacity="1.00" d=" M 167.17 265.41 C 170.59 265.21 172.02 269.70 169.94 272.08 C 167.85 272.44 165.72 272.32 163.61 272.32 C 164.24 269.88 163.62 265.54 167.17 265.41 Z" />
<path fill="#586e7e" stroke="#586e7e" stroke-width="0.09375" opacity="1.00" d=" M 175.30 266.37 C 177.14 266.18 178.98 266.00 180.82 265.83 C 182.98 269.09 181.13 272.02 178.58 274.35 C 177.21 271.81 176.15 269.13 175.30 266.37 Z" />
<path fill="#586e7e" stroke="#586e7e" stroke-width="0.09375" opacity="1.00" d=" M 151.51 277.69 C 153.81 277.44 156.15 277.10 158.45 277.54 C 159.12 279.84 158.64 282.25 158.43 284.58 C 156.52 284.18 154.56 283.96 152.72 283.28 C 152.09 281.47 151.90 279.55 151.51 277.69 Z" />
<path fill="#586e7e" stroke="#586e7e" stroke-width="0.09375" opacity="1.00" d=" M 164.70 277.79 C 166.54 277.21 168.46 276.94 170.36 276.58 C 170.41 279.04 170.43 281.49 170.43 283.95 C 168.48 284.00 166.54 284.06 164.59 284.13 C 164.51 282.05 163.43 279.69 164.70 277.79 Z" />
<path fill="#586e7e" stroke="#586e7e" stroke-width="0.09375" opacity="1.00" d=" M 151.44 289.79 C 153.98 289.50 156.53 289.25 159.08 289.03 C 158.59 291.41 159.58 296.14 155.97 296.13 C 152.38 296.58 152.10 292.24 151.44 289.79 Z" />
<path fill="#586e7e" stroke="#586e7e" stroke-width="0.09375" opacity="1.00" d=" M 151.59 301.69 C 153.87 301.43 156.21 300.97 158.50 301.50 C 159.06 303.82 158.62 306.20 158.37 308.53 C 156.49 308.10 154.57 307.84 152.74 307.24 C 152.08 305.46 151.91 303.55 151.59 301.69 Z" />
<path fill="#586e7e" stroke="#586e7e" stroke-width="0.09375" opacity="1.00" d=" M 178.05 390.85 C 185.45 394.79 192.30 399.76 200.13 402.85 C 213.92 408.77 229.14 410.21 244.01 409.98 C 285.26 409.91 326.52 409.90 367.78 410.08 C 367.74 412.74 367.71 415.41 367.69 418.08 C 365.44 418.37 363.18 418.67 360.93 418.90 C 361.78 417.80 362.63 416.70 363.49 415.61 C 361.52 414.07 359.52 412.57 357.51 411.09 C 357.24 413.76 357.02 416.45 356.89 419.14 C 354.65 419.21 352.42 419.20 350.19 419.20 C 350.77 418.11 351.34 417.01 351.92 415.93 C 351.15 414.31 350.38 412.69 349.61 411.08 C 346.74 412.96 344.96 415.73 346.21 419.17 C 344.35 419.15 342.49 419.13 340.64 419.14 C 340.17 417.16 341.00 414.30 339.10 413.01 C 337.33 412.88 335.56 413.16 333.80 413.31 C 334.16 415.27 334.53 417.25 334.90 419.22 C 308.61 420.12 282.29 420.20 255.98 419.92 C 237.10 418.83 217.07 420.17 199.75 411.20 C 190.63 406.77 183.30 399.46 178.05 390.85 M 267.31 416.67 C 268.63 419.12 271.77 418.65 274.09 419.18 C 273.67 417.21 274.08 414.80 272.77 413.17 C 270.62 410.80 267.14 414.18 267.31 416.67 M 281.05 411.29 C 280.27 413.33 278.90 415.35 279.19 417.64 C 280.83 419.18 283.30 418.90 285.34 419.40 C 286.16 415.74 284.37 412.80 281.05 411.29 Z" />
<path fill="#586e7e" stroke="#586e7e" stroke-width="0.09375" opacity="1.00" d=" M 141.55 393.45 C 143.56 391.69 147.34 393.16 147.10 396.01 C 147.40 399.55 143.14 399.66 140.77 400.51 C 140.70 398.19 139.12 395.08 141.55 393.45 Z" />
<path fill="#586e7e" stroke="#586e7e" stroke-width="0.09375" opacity="1.00" d=" M 139.62 438.59 C 142.38 438.33 147.52 437.68 147.02 441.98 C 147.40 444.83 144.36 445.50 142.13 445.19 C 139.40 444.24 140.18 440.79 139.62 438.59 Z" />
<path fill="#586e7e" stroke="#586e7e" stroke-width="0.09375" opacity="1.00" d=" M 141.27 450.12 C 143.06 449.45 145.89 449.36 146.61 451.57 C 148.57 454.38 144.47 458.49 141.67 456.40 C 139.17 455.16 139.53 451.84 141.27 450.12 Z" />
<path fill="#586e7e" stroke="#586e7e" stroke-width="0.09375" opacity="1.00" d=" M 140.78 485.61 C 141.97 483.31 146.06 483.68 146.66 486.28 C 146.79 487.98 146.56 489.69 146.45 491.40 C 144.04 491.03 141.64 490.65 139.24 490.25 C 139.72 488.69 140.10 487.09 140.78 485.61 Z" />
<path fill="#586e7e" stroke="#586e7e" stroke-width="0.09375" opacity="1.00" d=" M 141.30 496.10 C 143.59 494.81 147.37 495.90 147.16 498.97 C 147.48 502.61 142.82 503.27 140.48 501.55 C 139.76 499.82 139.14 497.05 141.30 496.10 Z" />
<path fill="#586e7e" stroke="#586e7e" stroke-width="0.09375" opacity="1.00" d=" M 151.66 507.37 C 154.27 507.11 158.73 506.14 158.77 510.10 C 159.23 513.96 154.54 513.61 151.99 513.59 C 151.88 511.51 151.77 509.44 151.66 507.37 Z" />
</g>
<g id="#7691a6ff">
<path fill="#7691a6" stroke="#7691a6" stroke-width="0.09375" opacity="1.00" d=" M 203.61 158.49 C 205.56 158.00 207.47 158.87 209.33 159.38 C 202.81 163.46 197.28 169.12 194.19 176.24 C 186.29 193.17 183.30 212.02 182.07 230.53 C 181.97 230.55 181.79 230.60 181.69 230.62 C 179.64 231.02 177.57 231.33 175.51 231.68 C 175.45 235.30 177.59 237.85 180.92 239.06 C 181.09 240.15 181.26 241.25 181.45 242.34 C 179.33 242.64 177.20 242.94 175.09 243.26 C 175.90 245.28 176.69 247.33 177.71 249.27 C 178.17 249.69 179.10 250.52 179.57 250.93 C 179.37 255.91 178.82 261.11 180.82 265.83 C 178.98 266.00 177.14 266.18 175.30 266.37 C 176.15 269.13 177.21 271.81 178.58 274.35 C 178.91 277.43 179.19 280.52 179.45 283.62 L 179.50 284.11 C 168.03 292.60 160.54 306.62 160.95 321.00 C 161.07 333.02 160.84 345.05 161.07 357.07 C 161.37 368.09 164.69 379.90 173.64 387.04 L 173.62 387.37 C 172.73 399.65 174.46 412.30 170.30 424.16 C 167.49 436.05 157.30 445.52 158.43 458.39 C 158.12 462.34 156.62 466.08 156.05 470.00 C 154.14 481.42 155.88 493.84 162.52 503.52 C 164.31 506.25 166.91 508.41 168.35 511.36 C 171.41 522.73 182.44 528.94 192.38 533.53 C 212.49 542.04 234.46 544.79 256.06 546.45 C 271.69 547.03 287.35 546.62 303.00 546.73 C 318.27 546.92 333.16 543.14 348.20 541.11 C 345.20 542.99 342.01 544.57 338.68 545.79 C 318.01 553.56 296.02 557.17 274.07 558.76 C 239.19 561.00 203.44 557.91 170.52 545.60 L 170.30 544.95 C 169.85 543.60 169.40 542.26 168.95 540.92 C 166.94 541.35 164.93 541.79 162.92 542.23 C 160.34 540.89 157.73 539.62 155.08 538.41 C 156.27 536.68 158.29 535.23 158.64 533.11 C 158.47 530.09 154.68 530.45 152.58 529.74 C 152.26 531.88 151.94 534.03 151.63 536.18 C 147.12 533.16 142.42 530.31 138.43 526.60 C 136.98 525.55 137.09 523.64 136.97 522.07 C 136.93 429.39 137.06 336.70 136.89 244.03 C 137.66 225.79 142.97 207.51 153.45 192.44 C 165.11 175.32 183.53 163.25 203.61 158.49 M 167.17 265.41 C 163.62 265.54 164.24 269.88 163.61 272.32 C 165.72 272.32 167.85 272.44 169.94 272.08 C 172.02 269.70 170.59 265.21 167.17 265.41 M 151.51 277.69 C 151.90 279.55 152.09 281.47 152.72 283.28 C 154.56 283.96 156.52 284.18 158.43 284.58 C 158.64 282.25 159.12 279.84 158.45 277.54 C 156.15 277.10 153.81 277.44 151.51 277.69 M 164.70 277.79 C 163.43 279.69 164.51 282.05 164.59 284.13 C 166.54 284.06 168.48 284.00 170.43 283.95 C 170.43 281.49 170.41 279.04 170.36 276.58 C 168.46 276.94 166.54 277.21 164.70 277.79 M 151.44 289.79 C 152.10 292.24 152.38 296.58 155.97 296.13 C 159.58 296.14 158.59 291.41 159.08 289.03 C 156.53 289.25 153.98 289.50 151.44 289.79 M 151.59 301.69 C 151.91 303.55 152.08 305.46 152.74 307.24 C 154.57 307.84 156.49 308.10 158.37 308.53 C 158.62 306.20 159.06 303.82 158.50 301.50 C 156.21 300.97 153.87 301.43 151.59 301.69 M 141.55 393.45 C 139.12 395.08 140.70 398.19 140.77 400.51 C 143.14 399.66 147.40 399.55 147.10 396.01 C 147.34 393.16 143.56 391.69 141.55 393.45 M 139.62 438.59 C 140.18 440.79 139.40 444.24 142.13 445.19 C 144.36 445.50 147.40 444.83 147.02 441.98 C 147.52 437.68 142.38 438.33 139.62 438.59 M 141.27 450.12 C 139.53 451.84 139.17 455.16 141.67 456.40 C 144.47 458.49 148.57 454.38 146.61 451.57 C 145.89 449.36 143.06 449.45 141.27 450.12 M 140.78 485.61 C 140.10 487.09 139.72 488.69 139.24 490.25 C 141.64 490.65 144.04 491.03 146.45 491.40 C 146.56 489.69 146.79 487.98 146.66 486.28 C 146.06 483.68 141.97 483.31 140.78 485.61 M 141.30 496.10 C 139.14 497.05 139.76 499.82 140.48 501.55 C 142.82 503.27 147.48 502.61 147.16 498.97 C 147.37 495.90 143.59 494.81 141.30 496.10 M 140.34 509.23 C 140.30 510.75 140.51 512.27 140.67 513.79 C 142.56 513.78 144.46 513.78 146.35 513.80 C 146.41 512.09 146.69 510.36 146.30 508.69 C 145.10 506.41 141.10 506.74 140.34 509.23 M 151.66 507.37 C 151.77 509.44 151.88 511.51 151.99 513.59 C 154.54 513.61 159.23 513.96 158.77 510.10 C 158.73 506.14 154.27 507.11 151.66 507.37 M 139.46 524.30 C 141.91 524.50 144.37 524.67 146.83 524.80 C 146.65 522.57 147.10 518.79 143.95 518.58 C 140.43 517.80 140.09 521.94 139.46 524.30 M 152.22 518.53 C 152.07 520.50 151.94 522.48 151.80 524.47 C 154.15 524.57 156.49 524.64 158.85 524.70 C 158.66 523.04 158.60 521.36 158.17 519.75 C 156.56 518.39 154.17 518.87 152.22 518.53 M 163.73 533.88 C 164.30 537.00 168.35 535.79 170.60 536.35 C 170.13 533.58 169.29 530.89 168.00 528.39 C 166.47 530.05 163.04 531.11 163.73 533.88 Z" />
</g>
<g id="#9db9cfff">
<path fill="#9db9cf" stroke="#9db9cf" stroke-width="0.09375" opacity="1.00" d=" M 166.41 320.98 C 165.99 304.04 178.10 286.52 195.04 283.01 C 204.24 282.12 213.26 285.33 222.33 286.55 C 211.31 290.33 199.31 294.34 191.75 303.75 C 184.30 314.21 184.97 328.25 186.77 340.32 C 192.13 345.67 199.06 349.45 204.17 355.22 C 203.65 365.85 207.34 376.55 214.63 384.36 C 213.29 389.92 212.90 395.63 212.44 401.31 C 199.52 397.72 187.71 390.94 177.07 382.89 C 169.27 376.64 166.79 366.14 166.49 356.60 C 166.33 344.73 166.53 332.85 166.41 320.98 Z" />
</g>
<g id="#c0e0f6ff">
<path fill="#c0e0f6" stroke="#c0e0f6" stroke-width="0.09375" opacity="1.00" d=" M 277.95 293.10 C 301.62 293.13 325.26 291.91 348.92 291.55 C 364.45 291.92 379.98 292.49 395.51 292.15 C 399.58 292.69 403.31 294.58 407.12 296.00 L 407.38 296.38 C 410.27 301.45 415.18 304.88 418.34 309.74 C 423.13 317.19 423.20 326.32 423.55 334.86 C 424.90 350.03 423.40 365.27 424.54 380.45 C 423.30 385.75 420.12 390.49 416.39 394.39 C 408.70 401.96 397.53 404.55 387.03 404.59 C 337.25 404.48 287.46 404.34 237.67 404.50 C 239.75 402.09 241.84 399.69 243.94 397.30 C 241.87 396.90 239.81 396.50 237.74 396.13 C 285.14 396.61 332.58 396.22 379.99 396.32 C 398.51 396.51 415.62 381.38 417.57 362.94 C 418.19 354.67 418.05 346.35 417.71 338.07 C 416.37 319.51 399.61 303.69 380.98 303.49 C 337.99 303.32 294.99 303.47 252.00 303.41 C 245.98 303.42 239.93 303.28 233.96 304.14 C 247.25 296.56 262.91 294.28 277.95 293.10 Z" />
</g>
<g id="#d0c79fff">
<path fill="#d0c79f" stroke="#d0c79f" stroke-width="0.09375" opacity="1.00" d=" M 210.07 340.42 C 209.60 323.92 224.66 309.22 240.96 308.97 C 252.65 308.79 264.34 308.95 276.03 308.86 C 283.12 308.27 287.00 315.38 291.36 319.76 C 273.56 320.50 255.73 319.68 237.92 320.32 C 231.00 320.76 223.70 321.91 217.91 325.98 C 213.90 329.84 212.30 335.45 210.07 340.42 Z" />
<path fill="#d0c79f" stroke="#d0c79f" stroke-width="0.09375" opacity="1.00" d=" M 300.78 320.62 C 305.08 314.75 311.18 308.83 318.96 308.90 C 328.64 308.83 338.33 308.94 348.02 308.85 C 355.77 308.32 361.17 314.97 366.17 319.89 C 344.38 320.35 322.52 318.46 300.78 320.62 Z" />
<path fill="#d0c79f" stroke="#d0c79f" stroke-width="0.09375" opacity="1.00" d=" M 195.89 436.56 C 213.82 438.10 231.60 441.32 249.60 442.40 C 249.55 445.64 249.53 448.88 249.54 452.13 C 231.70 449.70 213.92 446.47 195.89 445.79 C 195.91 442.71 195.90 439.63 195.89 436.56 Z" />
<path fill="#d0c79f" stroke="#d0c79f" stroke-width="0.09375" opacity="1.00" d=" M 171.39 447.59 C 176.34 442.01 183.16 438.52 190.39 437.01 C 190.41 439.90 190.42 442.81 190.40 445.71 C 184.06 446.28 177.74 447.09 171.39 447.59 Z" />
<path fill="#d0c79f" stroke="#d0c79f" stroke-width="0.09375" opacity="1.00" d=" M 255.03 442.90 C 272.67 444.28 290.37 445.00 308.06 444.58 C 308.03 447.44 308.02 450.30 308.02 453.16 C 290.36 453.54 272.68 453.55 255.02 452.94 C 255.02 449.59 255.02 446.24 255.03 442.90 Z" />
<path fill="#d0c79f" stroke="#d0c79f" stroke-width="0.09375" opacity="1.00" d=" M 313.56 444.32 C 319.61 444.08 325.64 443.59 331.67 443.00 C 331.66 445.96 331.67 448.92 331.69 451.89 C 325.63 452.43 319.57 452.86 313.50 453.12 C 313.50 450.18 313.52 447.25 313.56 444.32 Z" />
</g>
<g id="#4d4d4dff">
<path fill="#4d4d4d" stroke="#4d4d4d" stroke-width="0.09375" opacity="1.00" d=" M 362.97 309.10 C 369.97 309.05 376.99 308.59 383.98 309.24 C 398.83 310.83 411.38 324.13 412.23 339.02 C 412.60 345.99 412.51 352.98 412.30 359.95 C 411.79 375.21 398.94 388.89 383.79 390.54 C 376.87 391.21 369.90 390.77 362.96 390.81 C 366.63 387.22 370.38 383.63 373.33 379.39 C 384.65 363.29 385.53 340.51 375.36 323.65 C 372.24 318.02 367.76 313.33 362.97 309.10 Z" />
<path fill="#4d4d4d" stroke="#4d4d4d" stroke-width="0.09375" opacity="1.00" d=" M 267.31 416.67 C 267.14 414.18 270.62 410.80 272.77 413.17 C 274.08 414.80 273.67 417.21 274.09 419.18 C 271.77 418.65 268.63 419.12 267.31 416.67 Z" />
<path fill="#4d4d4d" stroke="#4d4d4d" stroke-width="0.09375" opacity="1.00" d=" M 281.05 411.29 C 284.37 412.80 286.16 415.74 285.34 419.40 C 283.30 418.90 280.83 419.18 279.19 417.64 C 278.90 415.35 280.27 413.33 281.05 411.29 Z" />
<path fill="#4d4d4d" stroke="#4d4d4d" stroke-width="0.09375" opacity="1.00" d=" M 333.80 413.31 C 335.56 413.16 337.33 412.88 339.10 413.01 C 341.00 414.30 340.17 417.16 340.64 419.14 C 338.72 419.15 336.81 419.18 334.90 419.22 C 334.53 417.25 334.16 415.27 333.80 413.31 Z" />
<path fill="#4d4d4d" stroke="#4d4d4d" stroke-width="0.09375" opacity="1.00" d=" M 346.21 419.17 C 344.96 415.73 346.74 412.96 349.61 411.08 C 350.38 412.69 351.15 414.31 351.92 415.93 C 351.34 417.01 350.77 418.11 350.19 419.20 C 349.20 419.19 347.20 419.18 346.21 419.17 Z" />
<path fill="#4d4d4d" stroke="#4d4d4d" stroke-width="0.09375" opacity="1.00" d=" M 357.51 411.09 C 359.52 412.57 361.52 414.07 363.49 415.61 C 362.63 416.70 361.78 417.80 360.93 418.90 C 359.58 419.01 358.23 419.08 356.89 419.14 C 357.02 416.45 357.24 413.76 357.51 411.09 Z" />
<path fill="#4d4d4d" stroke="#4d4d4d" stroke-width="0.09375" opacity="1.00" d=" M 356.25 424.41 C 358.29 424.31 360.33 424.22 362.37 424.14 C 362.35 426.52 362.31 428.89 362.24 431.27 L 362.21 432.21 L 361.32 431.84 C 359.63 431.13 357.95 430.43 356.27 429.72 C 356.26 427.95 356.25 426.18 356.25 424.41 Z" />
<path fill="#4d4d4d" stroke="#4d4d4d" stroke-width="0.09375" opacity="1.00" d=" M 140.34 509.23 C 141.10 506.74 145.10 506.41 146.30 508.69 C 146.69 510.36 146.41 512.09 146.35 513.80 C 144.46 513.78 142.56 513.78 140.67 513.79 C 140.51 512.27 140.30 510.75 140.34 509.23 Z" />
<path fill="#4d4d4d" stroke="#4d4d4d" stroke-width="0.09375" opacity="1.00" d=" M 139.46 524.30 C 140.09 521.94 140.43 517.80 143.95 518.58 C 147.10 518.79 146.65 522.57 146.83 524.80 C 144.37 524.67 141.91 524.50 139.46 524.30 Z" />
<path fill="#4d4d4d" stroke="#4d4d4d" stroke-width="0.09375" opacity="1.00" d=" M 152.22 518.53 C 154.17 518.87 156.56 518.39 158.17 519.75 C 158.60 521.36 158.66 523.04 158.85 524.70 C 156.49 524.64 154.15 524.57 151.80 524.47 C 151.94 522.48 152.07 520.50 152.22 518.53 Z" />
<path fill="#4d4d4d" stroke="#4d4d4d" stroke-width="0.09375" opacity="1.00" d=" M 163.73 533.88 C 163.04 531.11 166.47 530.05 168.00 528.39 C 169.29 530.89 170.13 533.58 170.60 536.35 C 168.35 535.79 164.30 537.00 163.73 533.88 Z" />
<path fill="#4d4d4d" stroke="#4d4d4d" stroke-width="0.09375" opacity="1.00" d=" M 152.58 529.74 C 154.68 530.45 158.47 530.09 158.64 533.11 C 158.29 535.23 156.27 536.68 155.08 538.41 C 153.93 537.66 152.78 536.92 151.63 536.18 C 151.94 534.03 152.26 531.88 152.58 529.74 Z" />
<path fill="#4d4d4d" stroke="#4d4d4d" stroke-width="0.09375" opacity="1.00" d=" M 162.92 542.23 C 164.93 541.79 166.94 541.35 168.95 540.92 C 169.40 542.26 169.85 543.60 170.30 544.95 C 167.82 544.10 165.36 543.19 162.92 542.23 Z" />
</g>
<g id="#fefac2ff">
<path fill="#fefac2" stroke="#fefac2" stroke-width="0.09375" opacity="1.00" d=" M 217.91 325.98 C 223.70 321.91 231.00 320.76 237.92 320.32 C 255.73 319.68 273.56 320.50 291.36 319.76 C 292.15 321.03 293.04 322.27 293.65 323.64 C 293.74 331.72 291.32 339.51 289.18 347.21 C 287.22 354.19 284.58 361.20 279.78 366.76 C 275.33 372.02 269.31 375.57 264.43 380.37 C 262.97 381.94 261.63 383.61 260.28 385.27 C 259.51 384.81 258.75 384.36 257.98 383.93 C 255.66 382.64 253.23 381.55 250.79 380.52 C 250.26 382.49 249.73 384.46 249.20 386.44 C 242.83 386.82 236.49 387.62 230.17 388.55 C 218.46 383.64 209.81 371.81 209.70 358.98 C 209.80 352.80 209.20 346.54 210.07 340.42 C 212.30 335.45 213.90 329.84 217.91 325.98 M 221.06 343.66 C 221.08 348.19 221.10 352.72 221.10 357.26 C 225.65 357.22 230.19 357.22 234.74 357.24 C 234.73 352.71 234.74 348.18 234.75 343.66 C 230.19 343.63 225.62 343.63 221.06 343.66 Z" />
<path fill="#fefac2" stroke="#fefac2" stroke-width="0.09375" opacity="1.00" d=" M 300.78 320.62 C 322.52 318.46 344.38 320.35 366.17 319.89 C 368.63 323.23 371.33 326.55 372.75 330.50 C 370.37 343.55 365.19 356.26 356.07 366.06 C 347.11 374.43 335.56 378.99 324.90 384.69 C 320.17 387.14 314.76 387.27 309.57 387.63 L 309.03 387.67 C 305.36 384.64 302.09 381.13 299.79 376.94 C 308.77 360.41 308.88 339.62 299.89 323.06 C 300.11 322.45 300.56 321.23 300.78 320.62 M 327.58 343.63 C 327.54 348.16 327.56 352.70 327.59 357.24 C 332.11 357.23 336.64 357.22 341.16 357.25 C 341.15 352.71 341.16 348.17 341.20 343.63 C 336.66 343.63 332.12 343.63 327.58 343.63 Z" />
<path fill="#fefac2" stroke="#fefac2" stroke-width="0.09375" opacity="1.00" d=" M 171.39 447.59 C 177.74 447.09 184.06 446.28 190.40 445.71 C 190.42 450.53 190.40 455.36 190.39 460.18 C 182.42 458.29 174.48 456.25 166.64 453.88 C 168.16 451.74 169.76 449.65 171.39 447.59 Z" />
<path fill="#fefac2" stroke="#fefac2" stroke-width="0.09375" opacity="1.00" d=" M 195.89 445.79 C 213.92 446.47 231.70 449.70 249.54 452.13 C 249.56 457.58 249.52 463.03 249.57 468.48 C 231.51 467.58 213.55 465.07 195.85 461.37 C 195.86 456.18 195.86 450.98 195.89 445.79 Z" />
<path fill="#fefac2" stroke="#fefac2" stroke-width="0.09375" opacity="1.00" d=" M 313.50 453.12 C 319.57 452.86 325.63 452.43 331.69 451.89 C 331.68 455.81 331.66 459.73 331.65 463.66 C 325.62 464.64 319.58 465.58 313.51 466.33 C 313.49 461.93 313.51 457.52 313.50 453.12 Z" />
<path fill="#fefac2" stroke="#fefac2" stroke-width="0.09375" opacity="1.00" d=" M 255.02 452.94 C 272.68 453.55 290.36 453.54 308.02 453.16 C 308.05 457.76 308.07 462.36 308.03 466.97 C 290.45 468.93 272.73 469.43 255.05 468.83 C 254.99 463.53 255.02 458.23 255.02 452.94 Z" />
<path fill="#fefac2" stroke="#fefac2" stroke-width="0.09375" opacity="1.00" d=" M 164.42 458.97 C 173.03 461.45 181.69 463.75 190.42 465.81 C 190.36 474.69 190.42 483.56 190.40 492.43 C 180.51 490.25 170.74 487.61 161.07 484.63 C 160.18 475.94 161.57 467.20 164.42 458.97 Z" />
<path fill="#fefac2" stroke="#fefac2" stroke-width="0.09375" opacity="1.00" d=" M 195.87 466.97 C 213.56 470.58 231.51 473.01 249.55 473.97 C 249.57 479.79 249.55 485.61 249.55 491.44 C 238.74 492.51 227.66 492.71 217.06 489.98 C 209.81 488.07 202.01 487.13 195.78 482.59 C 195.90 477.38 195.85 472.18 195.87 466.97 Z" />
<path fill="#fefac2" stroke="#fefac2" stroke-width="0.09375" opacity="1.00" d=" M 313.56 471.83 C 318.30 471.21 323.01 470.35 327.79 470.01 C 328.58 469.97 330.16 469.88 330.94 469.83 C 330.89 471.85 330.83 473.87 330.79 475.89 C 325.23 478.02 319.15 478.30 313.51 476.30 C 313.52 474.80 313.54 473.32 313.56 471.83 Z" />
<path fill="#fefac2" stroke="#fefac2" stroke-width="0.09375" opacity="1.00" d=" M 255.02 474.26 C 272.70 474.96 290.42 474.30 308.01 472.50 C 308.02 475.85 308.03 479.19 308.07 482.54 C 290.88 488.26 272.60 484.03 254.98 486.37 C 255.01 482.33 255.01 478.29 255.02 474.26 Z" />
</g>
<g id="#fefee2ff">
<path fill="#fefee2" stroke="#fefee2" stroke-width="0.09375" opacity="1.00" d=" M 289.18 347.21 C 291.32 339.51 293.74 331.72 293.65 323.64 C 307.49 344.62 301.49 375.49 281.14 390.08 C 279.66 391.15 277.74 390.83 276.05 390.95 C 264.68 390.85 253.30 390.98 241.94 390.87 C 237.90 390.86 233.97 389.82 230.17 388.55 C 236.49 387.62 242.83 386.82 249.20 386.44 C 252.67 388.09 255.96 387.28 257.98 383.93 C 258.75 384.36 259.51 384.81 260.28 385.27 C 262.10 385.99 264.01 388.21 266.07 387.26 C 267.22 385.83 268.00 384.15 268.93 382.58 C 267.42 381.84 265.92 381.10 264.43 380.37 C 269.31 375.57 275.33 372.02 279.78 366.76 C 284.58 361.20 287.22 354.19 289.18 347.21 M 274.68 381.80 C 271.50 383.41 274.42 389.30 277.64 387.62 C 280.37 386.61 279.51 383.12 280.09 380.89 C 278.28 381.14 276.44 381.28 274.68 381.80 Z" />
<path fill="#fefee2" stroke="#fefee2" stroke-width="0.09375" opacity="1.00" d=" M 356.07 366.06 C 365.19 356.26 370.37 343.55 372.75 330.50 C 383.35 351.64 373.90 380.13 352.68 390.59 C 342.15 391.34 331.52 390.68 320.96 390.94 C 316.86 391.25 312.99 389.76 309.57 387.63 C 314.76 387.27 320.17 387.14 324.90 384.69 C 335.56 378.99 347.11 374.43 356.07 366.06 M 335.47 387.54 C 337.09 388.89 339.49 388.22 341.44 388.45 C 340.71 386.33 341.59 382.69 338.86 381.94 C 335.83 380.77 332.78 385.52 335.47 387.54 M 348.33 382.23 C 346.53 383.25 345.60 386.10 347.37 387.61 C 349.37 389.75 352.85 388.46 353.94 386.03 C 353.36 383.61 351.07 380.59 348.33 382.23 Z" />
<path fill="#fefee2" stroke="#fefee2" stroke-width="0.09375" opacity="1.00" d=" M 327.79 470.01 C 329.04 469.65 330.30 469.30 331.57 468.96 C 331.74 477.80 331.65 486.63 331.65 495.47 C 325.62 496.49 319.58 497.41 313.52 498.20 C 313.48 490.90 313.54 483.60 313.51 476.30 C 319.15 478.30 325.23 478.02 330.79 475.89 C 330.83 473.87 330.89 471.85 330.94 469.83 C 330.16 469.88 328.58 469.97 327.79 470.01 Z" />
<path fill="#fefee2" stroke="#fefee2" stroke-width="0.09375" opacity="1.00" d=" M 195.78 482.59 C 202.01 487.13 209.81 488.07 217.06 489.98 C 227.66 492.71 238.74 492.51 249.55 491.44 C 249.55 494.45 249.55 497.47 249.54 500.50 C 231.53 499.58 213.60 497.19 195.91 493.66 C 195.88 489.97 195.87 486.28 195.78 482.59 Z" />
<path fill="#fefee2" stroke="#fefee2" stroke-width="0.09375" opacity="1.00" d=" M 254.98 486.37 C 272.60 484.03 290.88 488.26 308.07 482.54 C 308.05 487.97 308.04 493.40 308.06 498.83 C 290.47 500.78 272.73 501.41 255.04 500.78 C 255.00 495.98 255.02 491.17 254.98 486.37 Z" />
<path fill="#fefee2" stroke="#fefee2" stroke-width="0.09375" opacity="1.00" d=" M 162.37 490.86 C 171.69 493.31 180.92 496.08 190.38 498.00 C 190.41 504.29 190.41 510.59 190.36 516.89 C 177.67 513.12 166.20 503.88 162.37 490.86 Z" />
<path fill="#fefee2" stroke="#fefee2" stroke-width="0.09375" opacity="1.00" d=" M 195.89 499.16 C 213.58 502.76 231.55 505.00 249.57 505.98 C 249.52 512.65 249.52 519.33 249.56 526.01 C 231.48 524.91 213.53 522.14 195.86 518.24 C 195.87 511.88 195.85 505.52 195.89 499.16 Z" />
<path fill="#fefee2" stroke="#fefee2" stroke-width="0.09375" opacity="1.00" d=" M 313.52 503.68 C 319.58 502.93 325.62 501.99 331.65 501.03 C 331.67 507.37 331.66 513.71 331.66 520.06 C 325.65 521.35 319.60 522.46 313.53 523.39 C 313.47 516.82 313.55 510.25 313.52 503.68 Z" />
<path fill="#fefee2" stroke="#fefee2" stroke-width="0.09375" opacity="1.00" d=" M 255.03 506.24 C 272.70 506.82 290.43 506.28 308.01 504.31 C 308.08 510.93 308.07 517.55 308.04 524.17 C 290.47 526.44 272.70 527.18 255.01 526.34 C 255.02 519.64 255.01 512.94 255.03 506.24 Z" />
</g>
<g id="#e4debbff">
<path fill="#e4debb" stroke="#e4debb" stroke-width="0.09375" opacity="1.00" d=" M 250.79 380.52 C 253.23 381.55 255.66 382.64 257.98 383.93 C 255.96 387.28 252.67 388.09 249.20 386.44 C 249.73 384.46 250.26 382.49 250.79 380.52 Z" />
<path fill="#e4debb" stroke="#e4debb" stroke-width="0.09375" opacity="1.00" d=" M 260.28 385.27 C 261.63 383.61 262.97 381.94 264.43 380.37 C 265.92 381.10 267.42 381.84 268.93 382.58 C 268.00 384.15 267.22 385.83 266.07 387.26 C 264.01 388.21 262.10 385.99 260.28 385.27 Z" />
<path fill="#e4debb" stroke="#e4debb" stroke-width="0.09375" opacity="1.00" d=" M 274.68 381.80 C 276.44 381.28 278.28 381.14 280.09 380.89 C 279.51 383.12 280.37 386.61 277.64 387.62 C 274.42 389.30 271.50 383.41 274.68 381.80 Z" />
<path fill="#e4debb" stroke="#e4debb" stroke-width="0.09375" opacity="1.00" d=" M 335.47 387.54 C 332.78 385.52 335.83 380.77 338.86 381.94 C 341.59 382.69 340.71 386.33 341.44 388.45 C 339.49 388.22 337.09 388.89 335.47 387.54 Z" />
<path fill="#e4debb" stroke="#e4debb" stroke-width="0.09375" opacity="1.00" d=" M 348.33 382.23 C 351.07 380.59 353.36 383.61 353.94 386.03 C 352.85 388.46 349.37 389.75 347.37 387.61 C 345.60 386.10 346.53 383.25 348.33 382.23 Z" />
</g>
</svg>
