<?xml version="1.0" encoding="UTF-8" ?>
<!DOCTYPE svg PUBLIC "-//W3C//DTD SVG 1.1//EN" "http://www.w3.org/Graphics/SVG/1.1/DTD/svg11.dtd">
<svg width="157pt" height="157pt" viewBox="0 0 157 157" version="1.1" xmlns="http://www.w3.org/2000/svg">
<path fill="#d0a67a" opacity="0.97" d=" M 63.27 0.00 L 64.86 0.00 C 66.54 1.10 68.00 2.48 69.36 3.95 C 67.19 3.72 65.10 3.06 63.15 2.09 C 63.18 1.56 63.24 0.52 63.27 0.00 Z" />
<path fill="#d58439" opacity="1.00" d=" M 83.85 0.00 L 84.99 0.00 C 85.21 0.59 85.65 1.76 85.87 2.34 C 85.48 2.81 84.70 3.76 84.31 4.23 L 84.02 4.60 L 83.71 5.04 C 83.11 6.51 82.67 8.03 82.22 9.55 C 81.02 9.56 79.82 9.58 78.63 9.60 C 78.55 9.37 78.38 8.91 78.30 8.69 C 79.91 5.64 81.74 2.72 83.85 0.00 Z" />
<path fill="#9e5b29" opacity="1.00" d=" M 49.55 13.02 C 52.96 9.39 54.31 3.64 59.39 1.87 C 60.22 3.41 61.06 4.95 61.92 6.47 C 62.35 5.02 62.79 3.56 63.15 2.09 C 65.10 3.06 67.19 3.72 69.36 3.95 C 70.59 3.99 71.82 3.93 73.05 3.89 C 73.89 6.40 75.71 8.10 78.30 8.69 C 78.38 8.91 78.55 9.37 78.63 9.60 C 79.82 9.58 81.02 9.56 82.22 9.55 C 85.59 9.55 89.16 9.68 92.20 7.97 C 94.22 6.26 96.08 4.38 98.12 2.70 C 98.00 4.54 97.86 6.37 97.72 8.20 C 99.39 8.47 101.07 8.75 102.73 9.14 C 103.05 9.32 103.69 9.69 104.01 9.88 C 104.24 10.43 104.68 11.54 104.90 12.10 C 105.20 12.38 105.78 12.96 106.07 13.25 C 105.62 13.07 104.70 12.72 104.25 12.54 C 96.10 8.92 86.95 11.19 78.35 11.10 C 75.71 10.46 73.17 9.46 70.71 8.33 C 69.38 6.96 67.99 5.65 66.58 4.36 C 66.55 5.86 66.52 7.36 66.49 8.86 C 65.05 8.76 63.62 8.66 62.18 8.50 C 60.61 8.17 59.05 7.73 57.50 7.29 C 57.41 7.95 57.23 9.25 57.14 9.90 C 54.45 12.59 51.81 15.33 49.27 18.17 C 48.02 18.01 46.77 17.80 45.51 17.67 C 44.88 17.66 43.62 17.64 42.99 17.62 C 44.45 16.87 45.87 16.03 47.29 15.20 C 46.58 14.05 45.87 12.89 45.16 11.73 C 46.62 12.16 48.08 12.59 49.55 13.02 Z" />
<path fill="#d0a67a" opacity="0.97" d=" M 88.33 6.06 C 89.05 5.12 89.75 4.17 90.45 3.22 C 91.02 4.81 91.60 6.39 92.20 7.97 C 89.16 9.68 85.59 9.55 82.22 9.55 C 82.67 8.03 83.11 6.51 83.71 5.04 L 84.02 4.60 C 84.14 6.83 87.03 8.28 88.33 6.06 Z" />
<path fill="#f7f6f6" opacity="1.00" d=" M 98.12 2.70 C 99.29 5.13 99.98 8.04 102.73 9.14 C 101.07 8.75 99.39 8.47 97.72 8.20 C 97.86 6.37 98.00 4.54 98.12 2.70 Z" />
<path fill="#443733" opacity="0.45" d=" M 84.02 4.60 L 84.31 4.23 C 85.71 4.69 87.04 5.33 88.33 6.06 C 87.03 8.28 84.14 6.83 84.02 4.60 Z" />
<path fill="#63402b" opacity="1.00" d=" M 66.58 4.36 C 67.99 5.65 69.38 6.96 70.71 8.33 C 73.17 9.46 75.71 10.46 78.35 11.10 C 73.21 11.44 68.06 10.41 62.94 11.29 C 62.75 10.59 62.37 9.20 62.18 8.50 C 63.62 8.66 65.05 8.76 66.49 8.86 C 66.52 7.36 66.55 5.86 66.58 4.36 Z" />
<path fill="#131d1e" opacity="1.00" d=" M 57.50 7.29 C 59.05 7.73 60.61 8.17 62.18 8.50 C 62.37 9.20 62.75 10.59 62.94 11.29 C 60.84 13.32 58.68 15.27 56.48 17.18 C 56.36 16.80 56.12 16.04 56.00 15.67 C 54.10 17.28 51.96 19.05 49.27 18.17 C 51.81 15.33 54.45 12.59 57.14 9.90 C 57.23 9.25 57.41 7.95 57.50 7.29 Z" />
<path fill="#030d0e" opacity="1.00" d=" M 62.94 11.29 C 68.06 10.41 73.21 11.44 78.35 11.10 C 86.95 11.19 96.10 8.92 104.25 12.54 C 104.30 14.03 104.36 15.51 104.42 16.99 C 108.65 18.73 111.67 22.28 114.10 26.02 C 115.43 29.54 117.87 32.43 121.74 33.03 C 121.88 34.42 122.02 35.80 122.15 37.19 C 123.24 37.50 124.34 37.82 125.43 38.15 C 125.93 38.30 126.94 38.61 127.44 38.77 C 127.40 42.34 125.31 47.06 128.90 49.55 L 129.58 50.01 C 130.47 50.64 131.36 51.29 132.25 51.93 C 131.45 55.23 131.31 58.70 132.40 61.96 C 132.53 62.37 132.78 63.20 132.90 63.61 C 132.39 64.02 131.35 64.84 130.84 65.26 C 130.88 66.67 130.94 68.08 131.00 69.50 C 131.40 69.28 132.19 68.84 132.59 68.62 C 132.39 68.90 132.01 69.46 131.82 69.74 C 131.67 69.98 131.36 70.47 131.21 70.71 C 130.85 71.78 130.53 72.86 130.18 73.93 C 128.69 73.52 127.21 73.09 125.73 72.66 C 127.36 74.48 129.18 76.21 130.34 78.39 C 130.32 81.19 129.07 83.81 128.49 86.52 C 127.24 90.90 128.67 95.49 127.77 99.91 C 126.71 102.80 123.74 104.47 122.51 107.28 C 121.73 109.39 121.40 111.64 120.82 113.82 C 120.66 114.09 120.33 114.65 120.17 114.93 C 115.23 117.31 113.51 123.43 107.86 124.78 C 108.08 122.42 108.30 120.06 108.50 117.69 C 107.56 118.94 106.62 120.20 105.68 121.46 C 102.98 121.06 100.27 120.73 97.62 120.12 C 99.38 113.46 101.94 106.93 102.28 99.98 C 102.39 103.56 104.96 107.14 108.84 105.42 C 109.81 103.77 110.73 102.09 111.70 100.44 C 110.22 100.56 108.72 100.79 107.30 100.22 C 105.66 98.01 105.28 95.27 105.01 92.62 C 104.13 92.75 103.25 92.88 102.37 93.02 C 100.07 89.05 97.22 84.88 98.03 80.03 C 99.01 73.39 96.74 66.98 95.20 60.62 C 94.62 58.33 93.83 55.73 91.42 54.75 C 83.41 51.17 76.57 43.80 67.17 44.36 C 61.07 45.74 54.70 47.67 49.91 51.89 C 49.66 52.15 49.15 52.69 48.89 52.96 C 42.45 61.44 43.37 72.89 41.53 82.89 C 39.98 89.59 41.10 96.45 40.31 103.22 C 36.25 100.81 34.61 96.52 34.36 91.99 C 33.54 92.62 32.72 93.25 31.90 93.87 C 30.36 92.84 28.82 91.81 27.28 90.78 C 28.08 90.06 28.88 89.34 29.69 88.62 C 29.76 87.50 29.83 86.39 29.90 85.27 C 28.33 84.87 26.77 84.47 25.19 84.07 C 26.63 82.33 27.83 80.42 28.77 78.36 C 27.30 74.33 26.49 70.10 25.40 65.96 C 26.46 65.21 27.52 64.48 28.58 63.74 C 28.45 61.75 28.32 59.77 28.18 57.78 C 27.20 57.42 26.22 57.06 25.24 56.70 C 25.49 56.32 26.00 55.57 26.26 55.19 C 26.72 54.87 27.65 54.23 28.11 53.91 C 28.37 53.72 28.89 53.32 29.15 53.13 C 29.33 52.56 29.69 51.44 29.87 50.88 C 33.00 48.12 34.88 44.36 35.29 40.21 C 35.80 40.19 36.82 40.15 37.33 40.13 C 37.85 41.58 38.39 43.03 38.93 44.47 C 41.34 39.51 37.80 33.86 40.39 28.76 C 42.03 28.40 43.67 28.04 45.31 27.67 C 45.36 24.34 45.44 21.00 45.51 17.67 C 46.77 17.80 48.02 18.01 49.27 18.17 C 51.96 19.05 54.10 17.28 56.00 15.67 C 56.12 16.04 56.36 16.80 56.48 17.18 C 58.68 15.27 60.84 13.32 62.94 11.29 M 54.15 21.17 C 53.62 22.79 54.17 23.35 55.80 22.84 C 56.33 21.21 55.78 20.66 54.15 21.17 M 103.16 22.39 C 102.28 26.38 107.15 21.54 103.16 22.39 M 104.51 25.30 C 103.41 26.12 104.64 28.23 105.86 27.40 C 106.96 26.58 105.73 24.48 104.51 25.30 M 111.92 36.45 C 111.49 37.71 111.06 38.96 110.64 40.22 C 114.47 39.55 114.97 36.09 113.98 32.86 C 111.39 32.14 112.12 34.84 111.92 36.45 M 116.76 32.42 C 116.39 34.14 116.02 35.86 115.66 37.59 C 117.12 36.80 118.57 36.02 120.02 35.22 C 118.93 34.29 117.85 33.35 116.76 32.42 M 94.20 40.82 C 95.83 41.26 97.46 41.67 99.11 42.05 C 99.09 40.59 99.07 39.14 99.05 37.69 C 97.26 38.45 95.60 39.47 94.20 40.82 M 118.25 47.89 C 119.26 48.00 121.28 48.21 122.29 48.32 C 122.14 46.57 121.98 44.82 121.80 43.08 C 120.42 44.53 119.23 46.15 118.25 47.89 M 127.12 51.30 C 125.31 51.61 126.04 54.52 127.76 54.11 C 129.55 53.80 128.83 50.90 127.12 51.30 M 30.03 58.17 C 29.53 59.80 30.09 60.35 31.71 59.81 C 32.21 58.18 31.65 57.63 30.03 58.17 M 114.76 68.88 C 116.19 69.97 117.61 71.07 119.04 72.17 C 119.50 71.08 119.97 69.98 120.44 68.89 C 118.54 68.88 116.65 68.88 114.76 68.88 M 119.64 71.34 C 119.70 74.68 120.06 78.33 123.07 80.39 C 122.60 77.28 123.44 72.55 119.64 71.34 Z" />
<path fill="#443733" opacity="0.45" d=" M 104.01 9.88 C 104.24 10.43 104.68 11.54 104.90 12.10 C 104.68 11.54 104.24 10.43 104.01 9.88 Z" />
<path fill="#d0a67a" opacity="0.97" d=" M 36.00 16.65 C 38.33 14.80 40.66 12.96 42.97 11.09 C 43.52 11.25 44.61 11.57 45.16 11.73 C 45.87 12.89 46.58 14.05 47.29 15.20 C 45.87 16.03 44.45 16.87 42.99 17.62 L 42.27 17.94 C 41.93 17.52 41.26 16.68 40.92 16.26 C 39.76 16.51 38.59 16.73 37.43 16.94 C 37.07 16.87 36.35 16.72 36.00 16.65 Z" />
<path fill="#d0a67a" opacity="0.97" d=" M 104.25 12.54 C 104.70 12.72 105.62 13.07 106.07 13.25 C 108.99 16.03 111.46 19.23 114.07 22.30 C 115.02 23.57 116.19 24.75 117.73 25.26 C 119.67 26.18 121.77 26.61 123.90 26.84 C 124.74 29.01 125.56 31.19 126.58 33.28 C 126.93 33.48 127.63 33.87 127.98 34.07 C 128.37 34.30 129.16 34.76 129.56 34.99 C 129.48 35.84 129.40 36.69 129.32 37.53 C 128.69 37.95 128.07 38.36 127.44 38.77 C 126.94 38.61 125.93 38.30 125.43 38.15 C 125.06 35.36 125.91 31.68 123.49 29.65 C 121.32 29.22 119.09 29.35 116.89 29.32 C 116.60 28.07 116.31 26.83 116.03 25.58 C 115.54 25.69 114.58 25.91 114.10 26.02 C 111.67 22.28 108.65 18.73 104.42 16.99 C 104.36 15.51 104.30 14.03 104.25 12.54 Z" />
<path fill="#d58439" opacity="1.00" d=" M 37.43 16.94 C 38.59 16.73 39.76 16.51 40.92 16.26 C 41.26 16.68 41.93 17.52 42.27 17.94 C 41.67 18.21 40.45 18.75 39.85 19.02 C 38.32 23.74 38.06 28.71 37.77 33.63 C 36.59 33.16 35.41 32.68 34.24 32.21 C 33.60 33.11 32.95 34.01 32.34 34.93 L 32.41 33.95 C 32.57 32.54 32.78 31.14 32.81 29.73 C 33.99 30.07 35.17 30.42 36.35 30.76 C 36.41 29.69 36.46 28.62 36.52 27.56 C 36.60 26.16 36.69 24.76 36.77 23.36 L 36.02 23.22 L 35.29 23.08 C 34.69 22.96 33.49 22.71 32.89 22.59 C 32.61 22.00 32.04 20.83 31.75 20.25 C 33.66 20.40 35.59 20.43 37.51 20.50 C 37.49 19.31 37.47 18.13 37.43 16.94 Z" />
<path fill="#63402b" opacity="1.00" d=" M 39.85 19.02 C 40.45 18.75 41.67 18.21 42.27 17.94 L 42.99 17.62 C 43.62 17.64 44.88 17.66 45.51 17.67 C 45.44 21.00 45.36 24.34 45.31 27.67 C 43.67 28.04 42.03 28.40 40.39 28.76 C 37.80 33.86 41.34 39.51 38.93 44.47 C 38.39 43.03 37.85 41.58 37.33 40.13 C 36.82 40.15 35.80 40.19 35.29 40.21 C 34.88 44.36 33.00 48.12 29.87 50.88 C 29.69 51.44 29.33 52.56 29.15 53.13 C 28.89 53.32 28.37 53.72 28.11 53.91 C 27.90 53.44 27.46 52.50 27.24 52.04 C 26.85 51.47 26.07 50.35 25.68 49.78 C 26.54 49.11 27.41 48.43 28.27 47.75 C 27.67 47.26 27.07 46.77 26.47 46.28 C 26.08 45.98 25.31 45.38 24.92 45.08 C 27.15 45.33 29.40 45.47 31.64 45.63 C 31.55 43.89 31.45 42.14 31.36 40.40 C 32.00 39.85 32.64 39.30 33.27 38.75 C 32.92 37.95 32.58 37.15 32.26 36.35 C 32.28 35.99 32.32 35.28 32.34 34.93 C 32.95 34.01 33.60 33.11 34.24 32.21 C 35.41 32.68 36.59 33.16 37.77 33.63 C 38.06 28.71 38.32 23.74 39.85 19.02 Z" />
<path fill="#986b58" opacity="0.92" d=" M 30.96 20.15 L 31.75 20.25 C 32.04 20.83 32.61 22.00 32.89 22.59 C 33.49 22.71 34.69 22.96 35.29 23.08 C 33.05 25.85 37.40 26.18 36.02 23.22 L 36.77 23.36 C 36.69 24.76 36.60 26.16 36.52 27.56 C 35.26 27.05 34.00 26.54 32.75 26.03 C 32.16 24.07 31.56 22.11 30.96 20.15 Z" />
<path fill="#63402b" opacity="1.00" d=" M 54.15 21.17 C 55.78 20.66 56.33 21.21 55.80 22.84 C 54.17 23.35 53.62 22.79 54.15 21.17 Z" />
<path fill="#63402b" opacity="1.00" d=" M 103.16 22.39 C 107.15 21.54 102.28 26.38 103.16 22.39 Z" />
<path fill="#d58439" opacity="1.00" d=" M 114.07 22.30 C 116.10 21.49 118.29 23.00 117.73 25.26 C 116.19 24.75 115.02 23.57 114.07 22.30 Z" />
<path fill="#d0a67a" opacity="0.97" d=" M 35.29 23.08 L 36.02 23.22 C 37.40 26.18 33.05 25.85 35.29 23.08 Z" />
<path fill="#131d1e" opacity="1.00" d=" M 104.51 25.30 C 105.73 24.48 106.96 26.58 105.86 27.40 C 104.64 28.23 103.41 26.12 104.51 25.30 Z" />
<path fill="#63402b" opacity="1.00" d=" M 114.10 26.02 C 114.58 25.91 115.54 25.69 116.03 25.58 C 116.31 26.83 116.60 28.07 116.89 29.32 C 119.09 29.35 121.32 29.22 123.49 29.65 C 125.91 31.68 125.06 35.36 125.43 38.15 C 124.34 37.82 123.24 37.50 122.15 37.19 C 122.02 35.80 121.88 34.42 121.74 33.03 C 117.87 32.43 115.43 29.54 114.10 26.02 Z" />
<path fill="#d0a67a" opacity="0.97" d=" M 32.41 33.95 C 30.78 32.95 29.80 28.70 32.81 29.73 C 32.78 31.14 32.57 32.54 32.41 33.95 Z" />
<path fill="#131d1e" opacity="1.00" d=" M 111.92 36.45 C 112.12 34.84 111.39 32.14 113.98 32.86 C 114.97 36.09 114.47 39.55 110.64 40.22 C 111.06 38.96 111.49 37.71 111.92 36.45 Z" />
<path fill="#131d1e" opacity="1.00" d=" M 116.76 32.42 C 117.85 33.35 118.93 34.29 120.02 35.22 C 118.57 36.02 117.12 36.80 115.66 37.59 C 116.02 35.86 116.39 34.14 116.76 32.42 Z" />
<path fill="#443733" opacity="0.45" d=" M 127.98 34.07 C 129.27 34.27 130.57 34.44 131.87 34.59 C 131.79 38.63 131.51 42.65 131.13 46.67 C 135.25 47.21 140.50 49.50 138.93 54.61 C 133.14 59.44 134.79 67.29 134.01 73.96 C 134.08 79.81 131.33 85.13 130.63 90.87 C 130.25 91.08 129.51 91.51 129.13 91.72 C 129.01 84.20 133.91 77.33 131.82 69.74 C 132.01 69.46 132.39 68.90 132.59 68.62 C 132.99 68.24 133.80 67.49 134.21 67.12 C 133.76 65.95 133.33 64.78 132.90 63.61 C 132.78 63.20 132.53 62.37 132.40 61.96 C 132.67 58.95 134.43 56.52 136.93 54.93 C 137.25 54.67 137.88 54.15 138.20 53.89 C 137.77 49.25 133.07 48.24 129.44 46.92 C 129.91 43.04 131.97 38.59 129.56 34.99 C 129.16 34.76 128.37 34.30 127.98 34.07 Z" />
<path fill="#443733" opacity="0.45" d=" M 24.96 35.00 L 26.09 35.07 C 26.53 36.79 26.85 38.54 27.14 40.30 C 26.76 39.98 26.01 39.34 25.64 39.02 C 25.34 37.70 25.16 36.35 24.96 35.00 Z" />
<path fill="#986b58" opacity="0.92" d=" M 26.09 35.07 C 26.80 35.09 28.21 35.15 28.92 35.17 C 28.97 35.51 29.08 36.18 29.13 36.51 C 28.68 37.95 28.20 39.38 27.70 40.80 L 27.14 40.30 C 26.85 38.54 26.53 36.79 26.09 35.07 Z" />
<path fill="#63402b" opacity="1.00" d=" M 129.56 34.99 C 131.97 38.59 129.91 43.04 129.44 46.92 C 129.26 47.80 129.08 48.67 128.90 49.55 C 125.31 47.06 127.40 42.34 127.44 38.77 C 128.07 38.36 128.69 37.95 129.32 37.53 C 129.40 36.69 129.48 35.84 129.56 34.99 Z" />
<path fill="#9e5b29" opacity="1.00" d=" M 27.70 40.80 C 28.20 39.38 28.68 37.95 29.13 36.51 C 29.21 36.96 29.37 37.86 29.46 38.31 C 30.16 37.82 31.56 36.84 32.26 36.35 C 32.58 37.15 32.92 37.95 33.27 38.75 C 32.64 39.30 32.00 39.85 31.36 40.40 C 31.45 42.14 31.55 43.89 31.64 45.63 C 29.40 45.47 27.15 45.33 24.92 45.08 C 24.41 44.94 23.39 44.66 22.88 44.52 L 23.15 43.89 C 25.10 43.27 27.08 42.74 29.05 42.18 C 28.81 41.93 28.33 41.43 28.09 41.18 L 27.70 40.80 Z" />
<path fill="#131d1e" opacity="1.00" d=" M 94.20 40.82 C 95.60 39.47 97.26 38.45 99.05 37.69 C 99.07 39.14 99.09 40.59 99.11 42.05 C 97.46 41.67 95.83 41.26 94.20 40.82 Z" />
<path fill="#f7f6f6" opacity="1.00" d=" M 23.89 41.83 C 25.29 41.61 26.69 41.39 28.09 41.18 C 28.33 41.43 28.81 41.93 29.05 42.18 C 27.08 42.74 25.10 43.27 23.15 43.89 C 23.33 43.38 23.70 42.35 23.89 41.83 Z" />
<path fill="#9e5b29" opacity="1.00" d=" M 49.91 51.89 C 54.70 47.67 61.07 45.74 67.17 44.36 C 76.57 43.80 83.41 51.17 91.42 54.75 C 93.83 55.73 94.62 58.33 95.20 60.62 C 96.74 66.98 99.01 73.39 98.03 80.03 C 97.22 84.88 100.07 89.05 102.37 93.02 C 103.25 92.88 104.13 92.75 105.01 92.62 C 105.28 95.27 105.66 98.01 107.30 100.22 C 106.58 101.58 105.86 102.94 105.14 104.31 C 106.37 104.67 107.60 105.05 108.84 105.42 C 104.96 107.14 102.39 103.56 102.28 99.98 C 102.29 99.61 102.30 98.87 102.31 98.50 C 101.46 98.08 100.61 97.66 99.76 97.24 C 96.07 90.08 96.74 81.94 94.81 74.34 C 93.16 69.43 92.82 64.27 92.62 59.14 C 92.66 57.00 90.11 56.58 88.66 55.66 C 88.24 55.49 87.39 55.14 86.96 54.97 C 83.51 53.51 80.23 51.70 76.97 49.86 C 73.44 47.70 69.39 45.39 65.19 47.22 C 61.68 48.07 58.11 48.71 54.67 49.84 C 53.05 50.43 51.46 51.12 49.91 51.89 Z" />
<path fill="#131d1e" opacity="1.00" d=" M 118.25 47.89 C 119.23 46.15 120.42 44.53 121.80 43.08 C 121.98 44.82 122.14 46.57 122.29 48.32 C 121.28 48.21 119.26 48.00 118.25 47.89 Z" />
<path fill="#d0a67a" opacity="0.97" d=" M 26.47 46.28 C 27.07 46.77 27.67 47.26 28.27 47.75 C 27.41 48.43 26.54 49.11 25.68 49.78 C 24.00 51.09 22.32 52.40 20.63 53.70 C 21.03 54.95 21.43 56.20 21.86 57.44 C 21.05 56.18 20.20 54.94 19.37 53.70 C 21.60 51.10 24.09 48.74 26.47 46.28 Z" />
<path fill="#eabd25" opacity="1.00" d=" M 65.19 47.22 C 69.39 45.39 73.44 47.70 76.97 49.86 C 77.49 53.47 78.39 57.01 79.69 60.42 C 80.35 58.73 80.99 57.05 81.63 55.36 C 82.04 55.77 82.46 56.18 82.88 56.59 C 83.80 57.49 84.72 58.41 85.63 59.33 C 84.79 62.57 84.08 65.85 83.51 69.16 C 80.76 68.89 77.99 68.85 75.24 69.03 C 75.31 68.11 75.37 67.20 75.44 66.28 C 73.61 64.36 71.49 62.61 70.22 60.25 C 70.11 58.02 70.77 55.81 70.64 53.57 C 69.16 51.20 67.05 49.30 65.19 47.22 Z" />
<path fill="#986b58" opacity="0.92" d=" M 128.90 49.55 C 129.08 48.67 129.26 47.80 129.44 46.92 C 133.07 48.24 137.77 49.25 138.20 53.89 C 137.88 54.15 137.25 54.67 136.93 54.93 C 135.21 52.32 132.67 50.57 129.58 50.01 L 128.90 49.55 Z" />
<path fill="#f6f4ac" opacity="1.00" d=" M 54.67 49.84 C 58.11 48.71 61.68 48.07 65.19 47.22 C 67.05 49.30 69.16 51.20 70.64 53.57 C 70.77 55.81 70.11 58.02 70.22 60.25 C 71.49 62.61 73.61 64.36 75.44 66.28 C 75.37 67.20 75.31 68.11 75.24 69.03 C 71.75 69.59 68.38 70.68 65.05 71.84 C 64.68 73.24 64.32 74.65 63.88 76.03 C 62.82 78.90 61.67 81.74 60.47 84.55 C 59.68 86.29 58.80 87.98 57.85 89.64 C 58.07 90.95 58.30 92.26 58.52 93.57 C 58.66 94.36 58.92 95.94 59.06 96.73 C 57.34 96.81 55.62 96.91 53.90 96.85 C 52.77 95.03 51.64 93.21 50.47 91.43 C 53.63 89.21 56.86 86.71 58.09 82.87 C 58.25 82.50 58.57 81.75 58.73 81.38 C 59.59 78.00 59.73 74.51 59.99 71.05 C 60.78 71.33 61.57 71.60 62.37 71.86 C 64.38 70.44 66.49 69.14 68.65 67.94 C 66.78 62.69 65.52 57.21 65.47 51.61 C 61.85 51.18 58.24 50.61 54.67 49.84 Z" />
<path fill="#d58439" opacity="1.00" d=" M 20.63 53.70 C 22.32 52.40 24.00 51.09 25.68 49.78 C 26.07 50.35 26.85 51.47 27.24 52.04 C 26.32 52.33 25.43 52.75 24.56 53.20 C 22.50 51.79 22.54 55.21 24.62 54.06 C 25.03 54.34 25.85 54.91 26.26 55.19 C 26.00 55.57 25.49 56.32 25.24 56.70 C 24.57 57.73 23.92 58.78 23.28 59.82 C 22.80 59.03 22.32 58.23 21.86 57.44 C 21.43 56.20 21.03 54.95 20.63 53.70 Z" />
<path fill="#f7f6f6" opacity="1.00" d=" M 49.91 51.89 C 51.46 51.12 53.05 50.43 54.67 49.84 C 58.24 50.61 61.85 51.18 65.47 51.61 C 65.52 57.21 66.78 62.69 68.65 67.94 C 66.49 69.14 64.38 70.44 62.37 71.86 C 61.57 71.60 60.78 71.33 59.99 71.05 C 58.23 70.27 56.55 69.33 54.82 68.48 C 51.74 66.68 48.22 65.88 44.68 65.98 C 45.57 61.50 47.05 57.14 48.89 52.96 C 49.15 52.69 49.66 52.15 49.91 51.89 Z" />
<path fill="#d58439" opacity="1.00" d=" M 76.97 49.86 C 80.23 51.70 83.51 53.51 86.96 54.97 C 85.58 55.46 84.23 56.02 82.88 56.59 C 82.46 56.18 82.04 55.77 81.63 55.36 C 80.99 57.05 80.35 58.73 79.69 60.42 C 78.39 57.01 77.49 53.47 76.97 49.86 Z" />
<path fill="#63402b" opacity="1.00" d=" M 129.58 50.01 C 132.67 50.57 135.21 52.32 136.93 54.93 C 134.43 56.52 132.67 58.95 132.40 61.96 C 131.31 58.70 131.45 55.23 132.25 51.93 C 131.36 51.29 130.47 50.64 129.58 50.01 Z" />
<path fill="#986b58" opacity="0.92" d=" M 29.15 53.13 C 29.33 52.56 29.69 51.44 29.87 50.88 C 29.69 51.44 29.33 52.56 29.15 53.13 Z" />
<path fill="#63402b" opacity="1.00" d=" M 127.12 51.30 C 128.83 50.90 129.55 53.80 127.76 54.11 C 126.04 54.52 125.31 51.61 127.12 51.30 Z" />
<path fill="#986b58" opacity="0.92" d=" M 24.56 53.20 C 25.43 52.75 26.32 52.33 27.24 52.04 C 27.46 52.50 27.90 53.44 28.11 53.91 C 27.65 54.23 26.72 54.87 26.26 55.19 C 25.85 54.91 25.03 54.34 24.62 54.06 L 24.56 53.20 Z" />
<path fill="#443733" opacity="0.45" d=" M 24.62 54.06 C 22.54 55.21 22.50 51.79 24.56 53.20 L 24.62 54.06 Z" />
<path fill="#9e5b29" opacity="1.00" d=" M 41.53 82.89 C 43.37 72.89 42.45 61.44 48.89 52.96 C 47.05 57.14 45.57 61.50 44.68 65.98 C 44.71 66.54 44.79 67.67 44.82 68.23 C 48.15 68.42 51.49 68.30 54.82 68.48 C 56.55 69.33 58.23 70.27 59.99 71.05 C 59.73 74.51 59.59 78.00 58.73 81.38 C 58.17 79.72 57.62 78.05 57.08 76.39 C 55.36 76.58 53.63 76.78 51.91 76.99 L 50.95 77.10 C 51.20 75.96 51.46 74.82 51.72 73.68 C 49.74 73.66 47.75 73.64 45.77 73.62 C 43.60 77.11 42.29 81.12 43.36 85.24 L 43.23 85.66 L 43.07 86.21 C 42.11 89.10 41.44 92.11 41.53 95.17 C 41.70 96.58 41.91 97.99 42.15 99.39 C 42.29 100.11 42.45 100.82 42.63 101.53 C 41.18 104.54 40.51 107.87 40.69 111.21 C 40.59 110.90 40.39 110.29 40.29 109.98 C 39.94 109.49 39.24 108.51 38.89 108.01 C 38.68 107.72 38.26 107.14 38.05 106.84 C 37.84 106.55 37.43 105.96 37.22 105.66 C 37.92 105.65 39.33 105.61 40.03 105.60 C 40.10 105.00 40.24 103.81 40.31 103.22 C 41.10 96.45 39.98 89.59 41.53 82.89 M 45.57 71.85 C 49.12 72.61 52.75 72.95 56.39 72.94 C 55.80 67.10 48.08 67.78 45.57 71.85 Z" />
<path fill="#f1e859" opacity="1.00" d=" M 82.88 56.59 C 84.23 56.02 85.58 55.46 86.96 54.97 C 87.39 55.14 88.24 55.49 88.66 55.66 C 88.37 58.80 87.62 61.94 85.53 64.38 C 85.84 66.97 86.08 69.58 86.16 72.19 C 85.52 71.37 84.85 70.58 84.15 69.80 L 83.51 69.16 C 84.08 65.85 84.79 62.57 85.63 59.33 C 84.72 58.41 83.80 57.49 82.88 56.59 Z" />
<path fill="#f6f4ac" opacity="1.00" d=" M 88.66 55.66 C 90.11 56.58 92.66 57.00 92.62 59.14 C 92.82 64.27 93.16 69.43 94.81 74.34 C 92.33 81.64 95.19 89.04 96.00 96.34 C 94.65 96.62 93.30 96.91 91.96 97.19 C 91.87 99.00 91.79 100.81 91.70 102.61 C 89.83 102.00 87.97 101.39 86.10 100.79 C 84.52 98.25 82.25 95.55 82.64 92.38 C 84.56 88.64 88.58 86.56 90.84 83.03 C 90.35 81.36 89.82 79.70 89.20 78.07 C 88.38 76.02 87.31 74.07 86.16 72.19 C 86.08 69.58 85.84 66.97 85.53 64.38 C 87.62 61.94 88.37 58.80 88.66 55.66 M 85.32 91.64 C 84.56 95.79 86.48 99.48 90.35 101.15 C 90.28 99.30 89.97 97.40 90.41 95.57 C 91.97 95.00 93.59 94.60 95.20 94.16 C 94.32 91.60 92.96 89.25 91.32 87.11 C 89.36 88.68 87.37 90.20 85.32 91.64 Z" />
<path fill="#63402b" opacity="1.00" d=" M 23.28 59.82 C 23.92 58.78 24.57 57.73 25.24 56.70 C 26.22 57.06 27.20 57.42 28.18 57.78 C 28.32 59.77 28.45 61.75 28.58 63.74 C 27.52 64.48 26.46 65.21 25.40 65.96 C 26.49 70.10 27.30 74.33 28.77 78.36 C 27.83 80.42 26.63 82.33 25.19 84.07 C 26.77 84.47 28.33 84.87 29.90 85.27 C 29.83 86.39 29.76 87.50 29.69 88.62 C 28.88 89.34 28.08 90.06 27.28 90.78 C 28.82 91.81 30.36 92.84 31.90 93.87 C 32.72 93.25 33.54 92.62 34.36 91.99 C 34.61 96.52 36.25 100.81 40.31 103.22 C 40.24 103.81 40.10 105.00 40.03 105.60 C 39.33 105.61 37.92 105.65 37.22 105.66 C 37.43 105.96 37.84 106.55 38.05 106.84 C 36.06 104.26 33.74 101.50 34.35 97.99 C 33.97 98.36 33.20 99.12 32.82 99.49 C 31.55 98.52 30.28 97.53 29.02 96.53 C 28.17 96.67 27.32 96.81 26.47 96.96 C 25.83 96.54 25.19 96.13 24.56 95.72 C 24.79 93.08 25.05 90.45 25.29 87.82 C 23.56 88.21 21.83 88.62 20.10 89.03 C 21.56 86.85 23.28 84.73 23.43 81.99 C 24.05 81.54 24.67 81.10 25.29 80.67 C 26.62 80.09 27.07 79.20 26.66 78.00 C 25.37 76.81 23.11 79.16 24.42 80.38 L 23.47 80.08 C 22.95 79.91 21.91 79.57 21.39 79.40 C 21.68 78.64 22.27 77.12 22.57 76.36 C 23.62 75.83 24.67 75.31 25.72 74.78 C 25.22 72.76 24.72 70.73 24.22 68.71 C 23.42 68.06 22.63 67.42 21.84 66.78 C 22.60 65.85 23.36 64.92 24.16 64.02 C 24.42 63.76 24.95 63.23 25.22 62.97 C 24.57 61.92 23.92 60.87 23.28 59.82 Z" />
<path fill="#63402b" opacity="1.00" d=" M 30.03 58.17 C 31.65 57.63 32.21 58.18 31.71 59.81 C 30.09 60.35 29.53 59.80 30.03 58.17 Z" />
<path fill="#d0a67a" opacity="0.97" d=" M 21.44 64.96 C 22.12 64.72 23.48 64.26 24.16 64.02 C 23.36 64.92 22.60 65.85 21.84 66.78 C 22.63 67.42 23.42 68.06 24.22 68.71 C 24.72 70.73 25.22 72.76 25.72 74.78 C 24.67 75.31 23.62 75.83 22.57 76.36 C 22.27 77.12 21.68 78.64 21.39 79.40 C 21.91 79.57 22.95 79.91 23.47 80.08 C 21.83 81.25 20.26 82.53 18.71 83.82 C 18.04 83.63 16.71 83.25 16.05 83.06 C 18.71 79.44 21.46 75.87 24.53 72.58 C 24.42 71.49 24.31 70.40 24.19 69.32 C 23.24 68.72 22.28 68.12 21.33 67.52 C 21.37 66.66 21.41 65.81 21.44 64.96 Z" />
<path fill="#131d1e" opacity="1.00" d=" M 130.84 65.26 C 131.35 64.84 132.39 64.02 132.90 63.61 C 133.33 64.78 133.76 65.95 134.21 67.12 C 133.80 67.49 132.99 68.24 132.59 68.62 C 132.19 68.84 131.40 69.28 131.00 69.50 C 130.94 68.08 130.88 66.67 130.84 65.26 Z" />
<path fill="#f6f4ac" opacity="1.00" d=" M 44.68 65.98 C 48.22 65.88 51.74 66.68 54.82 68.48 C 51.49 68.30 48.15 68.42 44.82 68.23 C 44.79 67.67 44.71 66.54 44.68 65.98 Z" />
<path fill="#63402b" opacity="1.00" d=" M 45.57 71.85 C 48.08 67.78 55.80 67.10 56.39 72.94 C 52.75 72.95 49.12 72.61 45.57 71.85 Z" />
<path fill="#d58439" opacity="1.00" d=" M 65.05 71.84 C 68.38 70.68 71.75 69.59 75.24 69.03 C 77.99 68.85 80.76 68.89 83.51 69.16 L 84.15 69.80 C 83.05 70.08 81.94 70.34 80.82 70.58 C 77.69 70.76 74.37 69.95 71.38 71.17 C 67.81 73.07 67.43 77.55 66.88 81.11 C 65.99 79.36 64.94 77.69 63.88 76.03 C 64.32 74.65 64.68 73.24 65.05 71.84 Z" />
<path fill="#131d1e" opacity="1.00" d=" M 114.76 68.88 C 116.65 68.88 118.54 68.88 120.44 68.89 C 119.97 69.98 119.50 71.08 119.04 72.17 C 117.61 71.07 116.19 69.97 114.76 68.88 Z" />
<path fill="#63402b" opacity="1.00" d=" M 71.38 71.17 C 74.37 69.95 77.69 70.76 80.82 70.58 C 81.65 71.48 82.47 72.39 83.30 73.29 C 83.29 74.31 83.29 75.33 83.28 76.36 C 82.21 76.16 81.13 75.96 80.06 75.79 C 77.84 75.43 75.61 75.16 73.37 74.90 C 73.37 75.53 73.35 76.77 73.34 77.39 C 74.80 77.65 76.26 77.91 77.70 78.23 C 80.08 78.85 82.39 79.71 84.68 80.62 C 84.26 80.87 83.42 81.39 83.00 81.65 C 80.03 81.22 77.08 80.28 74.05 80.55 C 72.27 81.62 71.22 83.52 69.96 85.10 C 68.94 84.28 67.89 83.50 66.85 82.70 C 66.86 82.31 66.87 81.51 66.88 81.11 C 67.43 77.55 67.81 73.07 71.38 71.17 Z" />
<path fill="#9e5b29" opacity="1.00" d=" M 80.82 70.58 C 81.94 70.34 83.05 70.08 84.15 69.80 C 84.85 70.58 85.52 71.37 86.16 72.19 C 87.31 74.07 88.38 76.02 89.20 78.07 C 88.31 78.77 87.39 79.43 86.47 80.10 C 86.48 80.84 86.49 81.58 86.51 82.32 C 85.34 82.10 84.17 81.87 83.00 81.65 C 83.42 81.39 84.26 80.87 84.68 80.62 C 82.39 79.71 80.08 78.85 77.70 78.23 C 78.49 77.41 79.27 76.60 80.06 75.79 C 81.13 75.96 82.21 76.16 83.28 76.36 C 83.29 75.33 83.29 74.31 83.30 73.29 C 82.47 72.39 81.65 71.48 80.82 70.58 Z" />
<path fill="#63402b" opacity="1.00" d=" M 131.21 70.71 C 131.36 70.47 131.67 69.98 131.82 69.74 C 133.91 77.33 129.01 84.20 129.13 91.72 C 129.51 91.51 130.25 91.08 130.63 90.87 C 129.66 95.29 130.43 100.55 126.99 104.04 C 124.46 106.98 122.70 110.45 120.82 113.82 C 121.40 111.64 121.73 109.39 122.51 107.28 C 123.74 104.47 126.71 102.80 127.77 99.91 C 128.67 95.49 127.24 90.90 128.49 86.52 C 129.07 83.81 130.32 81.19 130.34 78.39 C 129.18 76.21 127.36 74.48 125.73 72.66 C 127.21 73.09 128.69 73.52 130.18 73.93 C 130.53 72.86 130.85 71.78 131.21 70.71 Z" />
<path fill="#131d1e" opacity="1.00" d=" M 119.64 71.34 C 123.44 72.55 122.60 77.28 123.07 80.39 C 120.06 78.33 119.70 74.68 119.64 71.34 Z" />
<path fill="#f1e859" opacity="1.00" d=" M 45.77 73.62 C 47.75 73.64 49.74 73.66 51.72 73.68 C 51.46 74.82 51.20 75.96 50.95 77.10 C 49.21 77.31 47.47 77.51 45.73 77.72 C 45.30 79.25 44.86 80.79 44.37 82.30 C 44.04 83.28 43.69 84.26 43.36 85.24 C 42.29 81.12 43.60 77.11 45.77 73.62 Z" />
<path fill="#f1e859" opacity="1.00" d=" M 73.37 74.90 C 75.61 75.16 77.84 75.43 80.06 75.79 C 79.27 76.60 78.49 77.41 77.70 78.23 C 76.26 77.91 74.80 77.65 73.34 77.39 C 73.35 76.77 73.37 75.53 73.37 74.90 Z" />
<path fill="#f1e859" opacity="1.00" d=" M 96.00 96.34 C 95.19 89.04 92.33 81.64 94.81 74.34 C 96.74 81.94 96.07 90.08 99.76 97.24 C 100.76 104.95 96.41 112.19 96.92 119.93 C 96.94 121.40 96.99 122.87 97.05 124.34 C 101.42 124.51 105.62 125.84 109.32 128.16 C 108.23 133.18 103.84 136.22 101.35 140.46 C 98.63 144.11 95.94 148.65 91.10 149.58 C 90.50 146.95 90.10 144.27 89.30 141.69 C 88.29 138.61 84.98 136.43 85.48 132.88 C 86.50 131.21 87.68 129.64 88.91 128.12 C 90.39 126.31 91.93 124.55 93.47 122.80 C 92.89 124.16 92.32 125.53 91.79 126.91 C 90.23 131.16 88.93 136.42 91.64 140.48 C 93.83 141.61 97.51 142.93 99.14 140.28 C 101.75 136.09 106.75 133.35 107.34 128.09 C 103.66 126.06 99.56 126.30 96.13 128.68 C 96.09 128.32 96.02 127.61 95.99 127.26 C 95.90 125.84 95.82 124.42 95.76 123.00 C 95.28 122.28 94.80 121.55 94.32 120.83 C 94.70 119.97 95.08 119.11 95.46 118.24 C 92.32 112.43 90.20 106.05 86.10 100.79 C 87.97 101.39 89.83 102.00 91.70 102.61 C 91.79 100.81 91.87 99.00 91.96 97.19 C 93.30 96.91 94.65 96.62 96.00 96.34 Z" />
<path fill="#63402b" opacity="1.00" d=" M 51.91 76.99 C 53.63 76.78 55.36 76.58 57.08 76.39 C 57.62 78.05 58.17 79.72 58.73 81.38 C 56.22 81.00 53.78 80.46 51.86 78.70 C 51.87 78.27 51.90 77.41 51.91 76.99 Z" />
<path fill="#131d1e" opacity="1.00" d=" M 45.73 77.72 C 47.47 77.51 49.21 77.31 50.95 77.10 L 51.91 76.99 C 51.90 77.41 51.87 78.27 51.86 78.70 C 51.84 79.20 51.82 80.20 51.80 80.70 C 50.21 80.63 48.62 80.57 47.03 80.51 C 46.37 80.96 45.03 81.85 44.37 82.30 C 44.86 80.79 45.30 79.25 45.73 77.72 Z" />
<path fill="#f1e859" opacity="1.00" d=" M 60.47 84.55 C 61.67 81.74 62.82 78.90 63.88 76.03 C 64.94 77.69 65.99 79.36 66.88 81.11 C 66.87 81.51 66.86 82.31 66.85 82.70 C 66.28 82.89 65.12 83.27 64.54 83.46 C 64.13 86.97 63.67 90.48 63.22 93.99 C 63.09 94.98 62.97 95.98 62.86 96.98 C 61.59 96.89 60.32 96.81 59.06 96.73 C 58.92 95.94 58.66 94.36 58.52 93.57 C 59.18 93.57 60.49 93.57 61.14 93.57 C 61.69 91.47 62.23 89.37 62.78 87.27 C 62.01 86.36 61.24 85.46 60.47 84.55 Z" />
<path fill="#d58439" opacity="1.00" d=" M 24.42 80.38 C 23.11 79.16 25.37 76.81 26.66 78.00 C 27.07 79.20 26.62 80.09 25.29 80.67 L 24.42 80.38 Z" />
<path fill="#d58439" opacity="1.00" d=" M 89.20 78.07 C 89.82 79.70 90.35 81.36 90.84 83.03 C 85.18 86.74 77.63 85.88 72.68 90.91 C 75.86 94.49 79.78 97.35 82.92 100.96 C 84.44 103.58 84.80 107.03 83.82 109.90 C 82.72 112.70 79.36 112.72 76.88 113.31 C 74.28 113.82 71.70 114.45 69.13 115.12 C 69.97 118.05 71.34 120.77 72.90 123.37 C 72.09 124.87 71.28 126.38 70.42 127.85 C 68.71 127.88 67.01 127.93 65.31 127.75 C 67.31 125.43 67.53 122.57 67.32 119.66 C 65.52 120.18 63.72 120.71 61.89 121.13 L 62.02 120.52 C 63.28 119.45 64.59 118.44 65.91 117.44 C 65.44 117.34 64.51 117.14 64.04 117.04 C 63.62 116.68 62.77 115.98 62.35 115.62 C 65.70 114.35 69.16 113.39 72.62 112.49 C 72.70 111.42 72.79 110.36 72.87 109.29 C 66.92 109.80 60.94 109.55 55.02 108.83 C 53.92 108.72 52.82 108.62 51.73 108.53 C 51.23 109.44 50.74 110.36 50.25 111.27 C 50.82 111.53 51.94 112.04 52.50 112.29 C 52.86 112.54 53.58 113.04 53.93 113.29 C 52.70 115.86 51.66 118.55 51.22 121.39 C 50.85 120.97 50.11 120.12 49.74 119.70 C 49.37 120.12 48.65 120.98 48.29 121.40 C 48.10 121.14 47.73 120.60 47.54 120.34 C 47.32 119.79 46.86 118.71 46.64 118.17 C 46.09 116.17 45.74 114.13 45.38 112.10 C 44.83 108.49 43.73 105.00 42.63 101.53 C 42.45 100.82 42.29 100.11 42.15 99.39 C 43.65 99.33 45.16 99.26 46.66 99.19 C 47.43 99.50 48.96 100.13 49.73 100.44 C 50.02 98.51 50.30 96.57 50.62 94.64 C 50.66 94.44 50.76 94.03 50.80 93.82 C 51.82 94.84 52.84 95.87 53.90 96.85 C 55.62 96.91 57.34 96.81 59.06 96.73 C 60.32 96.81 61.59 96.89 62.86 96.98 C 65.76 97.18 68.67 97.39 71.58 97.59 C 71.92 96.25 72.26 94.91 72.60 93.57 C 73.67 98.62 76.78 103.05 77.00 108.30 C 76.22 108.53 74.64 108.98 73.86 109.21 C 73.84 110.10 73.81 111.87 73.79 112.76 C 75.50 112.16 77.25 111.65 78.85 110.79 C 79.55 104.59 79.71 96.18 72.60 93.57 C 72.19 91.94 71.79 90.31 71.36 88.68 C 71.01 87.45 70.54 86.25 69.96 85.10 C 71.22 83.52 72.27 81.62 74.05 80.55 C 77.08 80.28 80.03 81.22 83.00 81.65 C 84.17 81.87 85.34 82.10 86.51 82.32 C 86.49 81.58 86.48 80.84 86.47 80.10 C 87.39 79.43 88.31 78.77 89.20 78.07 M 84.49 83.06 C 83.53 84.26 85.62 85.58 86.43 84.40 C 87.39 83.20 85.30 81.89 84.49 83.06 M 51.06 103.00 C 54.14 102.33 57.15 101.40 60.06 100.22 C 57.73 99.29 55.29 98.70 52.82 98.27 C 52.23 99.85 51.64 101.42 51.06 103.00 M 70.92 106.73 C 72.53 107.14 74.14 107.54 75.75 107.94 C 75.73 106.40 75.71 104.87 75.69 103.33 C 74.96 103.12 73.51 102.69 72.78 102.48 C 72.15 103.89 71.54 105.31 70.92 106.73 M 54.93 106.01 C 57.24 106.53 59.58 106.88 61.94 107.16 C 62.21 106.64 62.76 105.60 63.04 105.08 C 60.30 105.04 57.56 105.24 54.93 106.01 M 49.23 107.25 C 47.63 110.19 52.57 107.46 49.23 107.25 Z" />
<path fill="#d58439" opacity="1.00" d=" M 51.86 78.70 C 53.78 80.46 56.22 81.00 58.73 81.38 C 58.57 81.75 58.25 82.50 58.09 82.87 C 56.86 83.67 55.60 84.42 54.33 85.16 C 52.02 85.43 49.69 85.61 47.37 85.81 C 46.76 84.86 46.15 83.92 45.54 82.97 C 46.15 82.94 47.35 82.88 47.95 82.85 C 49.22 82.78 50.48 82.72 51.75 82.66 C 51.76 82.17 51.79 81.19 51.80 80.70 C 51.82 80.20 51.84 79.20 51.86 78.70 Z" />
<path fill="#eabd25" opacity="1.00" d=" M 44.37 82.30 C 45.03 81.85 46.37 80.96 47.03 80.51 C 47.26 81.09 47.72 82.26 47.95 82.85 C 47.35 82.88 46.15 82.94 45.54 82.97 C 46.15 83.92 46.76 84.86 47.37 85.81 C 49.69 85.61 52.02 85.43 54.33 85.16 C 52.92 86.53 51.59 87.99 50.25 89.42 C 47.90 88.19 45.56 86.94 43.23 85.66 L 43.36 85.24 C 43.69 84.26 44.04 83.28 44.37 82.30 Z" />
<path fill="#d0a67a" opacity="0.97" d=" M 47.03 80.51 C 48.62 80.57 50.21 80.63 51.80 80.70 C 51.79 81.19 51.76 82.17 51.75 82.66 C 50.48 82.72 49.22 82.78 47.95 82.85 C 47.72 82.26 47.26 81.09 47.03 80.51 Z" />
<path fill="#f1e859" opacity="1.00" d=" M 54.33 85.16 C 55.60 84.42 56.86 83.67 58.09 82.87 C 56.86 86.71 53.63 89.21 50.47 91.43 C 51.64 93.21 52.77 95.03 53.90 96.85 C 52.84 95.87 51.82 94.84 50.80 93.82 C 50.76 94.03 50.66 94.44 50.62 94.64 C 49.34 96.19 48.00 97.69 46.66 99.19 C 45.16 99.26 43.65 99.33 42.15 99.39 C 41.91 97.99 41.70 96.58 41.53 95.17 C 43.13 95.04 44.72 94.92 46.32 94.79 C 45.97 91.69 44.92 88.74 43.07 86.21 L 43.23 85.66 C 45.56 86.94 47.90 88.19 50.25 89.42 C 51.59 87.99 52.92 86.53 54.33 85.16 Z" />
<path fill="#f7f6f6" opacity="1.00" d=" M 64.54 83.46 C 65.12 83.27 66.28 82.89 66.85 82.70 C 67.89 83.50 68.94 84.28 69.96 85.10 C 70.54 86.25 71.01 87.45 71.36 88.68 C 68.56 89.94 66.44 92.14 65.07 94.86 C 64.45 94.57 63.83 94.28 63.22 93.99 C 63.67 90.48 64.13 86.97 64.54 83.46 Z" />
<path fill="#f1e859" opacity="1.00" d=" M 84.49 83.06 C 85.30 81.89 87.39 83.20 86.43 84.40 C 85.62 85.58 83.53 84.26 84.49 83.06 Z" />
<path fill="#eabd25" opacity="1.00" d=" M 90.84 83.03 C 88.58 86.56 84.56 88.64 82.64 92.38 C 82.25 95.55 84.52 98.25 86.10 100.79 C 90.20 106.05 92.32 112.43 95.46 118.24 C 95.08 119.11 94.70 119.97 94.32 120.83 C 94.11 121.32 93.68 122.30 93.47 122.80 C 91.61 122.12 89.74 121.45 87.88 120.79 C 87.64 122.33 87.41 123.86 87.19 125.39 C 86.58 125.99 85.96 126.58 85.34 127.16 C 84.57 127.17 83.02 127.19 82.25 127.20 C 81.95 125.07 81.66 122.94 81.37 120.81 C 79.58 121.51 77.78 122.21 76.04 123.03 C 73.71 119.80 74.08 116.10 76.88 113.31 C 79.36 112.72 82.72 112.70 83.82 109.90 C 84.80 107.03 84.44 103.58 82.92 100.96 C 79.78 97.35 75.86 94.49 72.68 90.91 C 77.63 85.88 85.18 86.74 90.84 83.03 M 89.68 118.14 C 89.61 114.73 89.39 111.31 88.76 107.96 C 84.72 110.32 83.76 117.73 89.68 118.14 Z" />
<path fill="#eabd25" opacity="1.00" d=" M 57.85 89.64 C 58.80 87.98 59.68 86.29 60.47 84.55 C 61.24 85.46 62.01 86.36 62.78 87.27 C 62.23 89.37 61.69 91.47 61.14 93.57 C 60.49 93.57 59.18 93.57 58.52 93.57 C 58.30 92.26 58.07 90.95 57.85 89.64 Z" />
<path fill="#f6f4ac" opacity="1.00" d=" M 41.53 95.17 C 41.44 92.11 42.11 89.10 43.07 86.21 C 44.92 88.74 45.97 91.69 46.32 94.79 C 44.72 94.92 43.13 95.04 41.53 95.17 Z" />
<path fill="#f7f6f6" opacity="1.00" d=" M 85.32 91.64 C 87.37 90.20 89.36 88.68 91.32 87.11 C 92.96 89.25 94.32 91.60 95.20 94.16 C 93.59 94.60 91.97 95.00 90.41 95.57 C 89.97 97.40 90.28 99.30 90.35 101.15 C 86.48 99.48 84.56 95.79 85.32 91.64 Z" />
<path fill="#f6f4ac" opacity="1.00" d=" M 65.07 94.86 C 66.44 92.14 68.56 89.94 71.36 88.68 C 71.79 90.31 72.19 91.94 72.60 93.57 C 72.26 94.91 71.92 96.25 71.58 97.59 C 68.67 97.39 65.76 97.18 62.86 96.98 C 62.97 95.98 63.09 94.98 63.22 93.99 C 63.83 94.28 64.45 94.57 65.07 94.86 Z" />
<path fill="#9e5b29" opacity="1.00" d=" M 72.60 93.57 C 79.71 96.18 79.55 104.59 78.85 110.79 C 77.25 111.65 75.50 112.16 73.79 112.76 C 73.81 111.87 73.84 110.10 73.86 109.21 C 74.64 108.98 76.22 108.53 77.00 108.30 C 76.78 103.05 73.67 98.62 72.60 93.57 Z" />
<path fill="#9e5b29" opacity="1.00" d=" M 50.62 94.64 C 50.30 96.57 50.02 98.51 49.73 100.44 C 48.96 100.13 47.43 99.50 46.66 99.19 C 48.00 97.69 49.34 96.19 50.62 94.64 Z" />
<path fill="#d0a67a" opacity="0.97" d=" M 26.47 96.96 C 27.32 96.81 28.17 96.67 29.02 96.53 C 30.28 97.53 31.55 98.52 32.82 99.49 C 32.56 99.75 32.04 100.27 31.77 100.52 C 30.02 99.31 28.25 98.12 26.47 96.96 Z" />
<path fill="#d58439" opacity="1.00" d=" M 99.76 97.24 C 100.61 97.66 101.46 98.08 102.31 98.50 C 102.30 98.87 102.29 99.61 102.28 99.98 C 101.94 106.93 99.38 113.46 97.62 120.12 L 96.92 119.93 C 96.41 112.19 100.76 104.95 99.76 97.24 Z" />
<path fill="#f6f4ac" opacity="1.00" d=" M 51.06 103.00 C 51.64 101.42 52.23 99.85 52.82 98.27 C 55.29 98.70 57.73 99.29 60.06 100.22 C 57.15 101.40 54.14 102.33 51.06 103.00 Z" />
<path fill="#f7f6f6" opacity="1.00" d=" M 105.14 104.31 C 105.86 102.94 106.58 101.58 107.30 100.22 C 108.72 100.79 110.22 100.56 111.70 100.44 C 110.73 102.09 109.81 103.77 108.84 105.42 C 107.60 105.05 106.37 104.67 105.14 104.31 Z" />
<path fill="#63402b" opacity="1.00" d=" M 40.69 111.21 C 40.51 107.87 41.18 104.54 42.63 101.53 C 43.73 105.00 44.83 108.49 45.38 112.10 C 45.72 114.14 46.08 116.18 46.64 118.17 C 46.86 118.71 47.32 119.79 47.54 120.34 C 43.62 118.78 41.60 115.15 40.69 111.21 Z" />
<path fill="#f6f4ac" opacity="1.00" d=" M 70.92 106.73 C 71.54 105.31 72.15 103.89 72.78 102.48 C 73.51 102.69 74.96 103.12 75.69 103.33 C 75.71 104.87 75.73 106.40 75.75 107.94 C 74.14 107.54 72.53 107.14 70.92 106.73 Z" />
<path fill="#f1e859" opacity="1.00" d=" M 54.93 106.01 C 57.56 105.24 60.30 105.04 63.04 105.08 C 62.76 105.60 62.21 106.64 61.94 107.16 C 59.58 106.88 57.24 106.53 54.93 106.01 Z" />
<path fill="#9e5b29" opacity="1.00" d=" M 49.23 107.25 C 52.57 107.46 47.63 110.19 49.23 107.25 Z" />
<path fill="#443733" opacity="0.45" d=" M 38.89 108.01 C 39.24 108.51 39.94 109.49 40.29 109.98 C 39.94 109.49 39.24 108.51 38.89 108.01 Z" />
<path fill="#131d1e" opacity="1.00" d=" M 51.73 108.53 C 52.82 108.62 53.92 108.72 55.02 108.83 C 54.88 109.63 54.60 111.23 54.46 112.04 C 55.69 113.32 56.90 114.61 58.18 115.84 C 56.72 115.06 55.31 114.20 53.93 113.29 C 53.58 113.04 52.86 112.54 52.50 112.29 C 51.94 112.04 50.82 111.53 50.25 111.27 C 50.74 110.36 51.23 109.44 51.73 108.53 Z" />
<path fill="#d58439" opacity="1.00" d=" M 89.68 118.14 C 83.76 117.73 84.72 110.32 88.76 107.96 C 89.39 111.31 89.61 114.73 89.68 118.14 Z" />
<path fill="#f7f6f6" opacity="1.00" d=" M 55.02 108.83 C 60.94 109.55 66.92 109.80 72.87 109.29 C 72.79 110.36 72.70 111.42 72.62 112.49 C 69.16 113.39 65.70 114.35 62.35 115.62 C 62.77 115.98 63.62 116.68 64.04 117.04 C 62.56 116.83 61.07 116.68 59.57 116.57 C 59.22 116.39 58.53 116.02 58.18 115.84 C 56.90 114.61 55.69 113.32 54.46 112.04 C 54.60 111.23 54.88 109.63 55.02 108.83 Z" />
<path fill="#f6f4ac" opacity="1.00" d=" M 46.64 118.17 C 46.08 116.18 45.72 114.14 45.38 112.10 C 45.74 114.13 46.09 116.17 46.64 118.17 Z" />
<path fill="#f1e859" opacity="1.00" d=" M 69.13 115.12 C 71.70 114.45 74.28 113.82 76.88 113.31 C 74.08 116.10 73.71 119.80 76.04 123.03 C 74.06 125.57 72.44 128.36 70.91 131.19 C 70.55 130.72 69.82 129.77 69.46 129.30 C 69.70 128.93 70.18 128.21 70.42 127.85 C 71.28 126.38 72.09 124.87 72.90 123.37 C 71.34 120.77 69.97 118.05 69.13 115.12 Z" />
<path fill="#eabd25" opacity="1.00" d=" M 51.22 121.39 C 51.66 118.55 52.70 115.86 53.93 113.29 C 55.31 114.20 56.72 115.06 58.18 115.84 C 58.53 116.02 59.22 116.39 59.57 116.57 C 59.16 116.78 58.33 117.19 57.92 117.39 C 59.28 118.43 60.67 119.45 62.02 120.52 L 61.89 121.13 C 60.20 121.32 58.50 121.44 56.80 121.57 C 59.56 123.73 62.28 125.97 65.31 127.75 C 67.01 127.93 68.71 127.88 70.42 127.85 C 70.18 128.21 69.70 128.93 69.46 129.30 C 67.06 130.14 64.51 130.45 62.01 130.82 C 62.64 130.16 63.28 129.50 63.92 128.85 C 62.62 127.60 61.17 126.54 59.44 125.98 C 58.05 125.72 56.65 125.54 55.25 125.34 C 54.72 126.21 54.19 127.07 53.67 127.93 C 53.49 127.63 53.13 127.03 52.95 126.73 C 52.27 125.62 51.59 124.52 50.90 123.42 C 50.98 122.91 51.14 121.90 51.22 121.39 Z" />
<path fill="#9e5b29" opacity="1.00" d=" M 107.86 124.78 C 113.51 123.43 115.23 117.31 120.17 114.93 C 117.74 118.91 115.32 123.50 110.47 124.85 C 110.08 125.95 109.70 127.05 109.32 128.16 C 105.62 125.84 101.42 124.51 97.05 124.34 C 96.99 122.87 96.94 121.40 96.92 119.93 L 97.62 120.12 C 100.27 120.73 102.98 121.06 105.68 121.46 C 106.62 120.20 107.56 118.94 108.50 117.69 C 108.30 120.06 108.08 122.42 107.86 124.78 Z" />
<path fill="#f1e859" opacity="1.00" d=" M 57.92 117.39 C 58.33 117.19 59.16 116.78 59.57 116.57 C 61.07 116.68 62.56 116.83 64.04 117.04 C 64.51 117.14 65.44 117.34 65.91 117.44 C 64.59 118.44 63.28 119.45 62.02 120.52 C 60.67 119.45 59.28 118.43 57.92 117.39 Z" />
<path fill="#f7f6f6" opacity="1.00" d=" M 48.29 121.40 C 48.65 120.98 49.37 120.12 49.74 119.70 C 50.11 120.12 50.85 120.97 51.22 121.39 C 51.14 121.90 50.98 122.91 50.90 123.42 C 50.39 123.27 49.37 122.96 48.86 122.81 C 48.72 122.46 48.43 121.76 48.29 121.40 Z" />
<path fill="#9e5b29" opacity="1.00" d=" M 61.89 121.13 C 63.72 120.71 65.52 120.18 67.32 119.66 C 67.53 122.57 67.31 125.43 65.31 127.75 C 62.28 125.97 59.56 123.73 56.80 121.57 C 58.50 121.44 60.20 121.32 61.89 121.13 Z" />
<path fill="#f6f4ac" opacity="1.00" d=" M 76.04 123.03 C 77.78 122.21 79.58 121.51 81.37 120.81 C 81.66 122.94 81.95 125.07 82.25 127.20 C 78.44 128.41 75.19 132.73 70.91 131.19 C 72.44 128.36 74.06 125.57 76.04 123.03 Z" />
<path fill="#d58439" opacity="1.00" d=" M 87.88 120.79 C 89.74 121.45 91.61 122.12 93.47 122.80 C 91.93 124.55 90.39 126.31 88.91 128.12 C 88.33 127.21 87.76 126.30 87.19 125.39 C 87.41 123.86 87.64 122.33 87.88 120.79 Z" />
<path fill="#f6f4ac" opacity="1.00" d=" M 94.32 120.83 C 94.80 121.55 95.28 122.28 95.76 123.00 C 95.82 124.42 95.90 125.84 95.99 127.26 C 94.59 127.12 93.19 127.01 91.79 126.91 C 92.32 125.53 92.89 124.16 93.47 122.80 C 93.68 122.30 94.11 121.32 94.32 120.83 Z" />
<path fill="#986b58" opacity="0.92" d=" M 48.86 122.81 C 49.37 122.96 50.39 123.27 50.90 123.42 C 51.59 124.52 52.27 125.62 52.95 126.73 C 52.26 126.82 50.87 127.00 50.18 127.10 C 49.72 125.67 49.32 124.23 48.86 122.81 Z" />
<path fill="#f1e859" opacity="1.00" d=" M 55.25 125.34 C 56.65 125.54 58.05 125.72 59.44 125.98 C 59.09 126.47 58.38 127.44 58.02 127.93 C 58.50 129.01 58.98 130.10 59.46 131.19 C 58.84 131.29 57.60 131.48 56.98 131.58 C 56.00 130.60 55.02 129.63 54.07 128.62 L 53.67 127.93 C 54.19 127.07 54.72 126.21 55.25 125.34 Z" />
<path fill="#9e5b29" opacity="1.00" d=" M 85.34 127.16 C 85.96 126.58 86.58 125.99 87.19 125.39 C 87.76 126.30 88.33 127.21 88.91 128.12 C 87.68 129.64 86.50 131.21 85.48 132.88 C 84.68 134.22 83.91 135.58 83.19 136.97 C 83.17 134.49 82.91 132.03 82.60 129.57 C 83.55 128.81 84.45 127.99 85.34 127.16 Z" />
<path fill="#f6f4ac" opacity="1.00" d=" M 59.44 125.98 C 61.17 126.54 62.62 127.60 63.92 128.85 C 63.28 129.50 62.64 130.16 62.01 130.82 C 61.37 130.91 60.10 131.09 59.46 131.19 C 58.98 130.10 58.50 129.01 58.02 127.93 C 58.38 127.44 59.09 126.47 59.44 125.98 Z" />
<path fill="#f7f6f6" opacity="1.00" d=" M 96.13 128.68 C 99.56 126.30 103.66 126.06 107.34 128.09 C 106.75 133.35 101.75 136.09 99.14 140.28 C 97.51 142.93 93.83 141.61 91.64 140.48 C 88.93 136.42 90.23 131.16 91.79 126.91 C 93.19 127.01 94.59 127.12 95.99 127.26 C 96.02 127.61 96.09 128.32 96.13 128.68 Z" />
<path fill="#63402b" opacity="1.00" d=" M 50.18 127.10 C 50.87 127.00 52.26 126.82 52.95 126.73 C 53.13 127.03 53.49 127.63 53.67 127.93 L 54.07 128.62 C 54.03 129.17 53.95 130.28 53.91 130.83 C 53.37 130.96 52.28 131.21 51.73 131.34 C 51.18 129.94 50.65 128.53 50.18 127.10 Z" />
<path fill="#d58439" opacity="1.00" d=" M 82.25 127.20 C 83.02 127.19 84.57 127.17 85.34 127.16 C 84.45 127.99 83.55 128.81 82.60 129.57 C 79.34 130.90 76.20 132.57 72.84 133.62 C 69.32 133.53 65.83 132.21 62.32 133.17 C 59.16 134.25 56.17 133.17 53.91 130.83 C 53.95 130.28 54.03 129.17 54.07 128.62 C 55.02 129.63 56.00 130.60 56.98 131.58 C 57.60 131.48 58.84 131.29 59.46 131.19 C 60.10 131.09 61.37 130.91 62.01 130.82 C 64.51 130.45 67.06 130.14 69.46 129.30 C 69.82 129.77 70.55 130.72 70.91 131.19 C 75.19 132.73 78.44 128.41 82.25 127.20 Z" />
<path fill="#63402b" opacity="1.00" d=" M 72.84 133.62 C 76.20 132.57 79.34 130.90 82.60 129.57 C 82.91 132.03 83.17 134.49 83.19 136.97 C 83.02 137.61 82.66 138.87 82.49 139.51 C 81.10 138.06 79.73 136.60 78.41 135.09 C 79.53 138.28 79.39 141.65 77.93 144.70 C 76.45 144.93 74.96 145.17 73.47 145.41 C 72.48 144.86 71.48 144.31 70.49 143.77 C 70.36 145.32 70.23 146.88 70.10 148.43 C 67.88 145.93 64.59 145.14 61.54 144.15 C 61.56 143.73 61.60 142.89 61.62 142.47 C 65.26 141.75 69.00 141.38 72.52 140.18 C 74.49 139.49 76.74 137.55 75.90 135.24 C 71.37 134.52 66.32 136.06 62.32 133.17 C 65.83 132.21 69.32 133.53 72.84 133.62 Z" />
<path fill="#030d0e" opacity="1.00" d=" M 51.73 131.34 C 52.28 131.21 53.37 130.96 53.91 130.83 C 56.17 133.17 59.16 134.25 62.32 133.17 C 66.32 136.06 71.37 134.52 75.90 135.24 C 76.74 137.55 74.49 139.49 72.52 140.18 C 69.00 141.38 65.26 141.75 61.62 142.47 C 61.60 142.89 61.56 143.73 61.54 144.15 C 56.35 141.75 53.70 136.40 51.73 131.34 Z" />
<path fill="#d58439" opacity="1.00" d=" M 83.19 136.97 C 83.91 135.58 84.68 134.22 85.48 132.88 C 84.98 136.43 88.29 138.61 89.30 141.69 C 90.10 144.27 90.50 146.95 91.10 149.58 C 85.04 150.41 78.92 150.66 72.82 150.92 C 72.61 149.76 72.40 148.59 72.19 147.43 C 73.80 147.04 75.42 146.65 77.04 146.25 C 77.18 147.57 77.32 148.89 77.46 150.22 C 80.25 149.90 83.03 149.51 85.79 149.05 C 84.48 147.47 83.15 145.90 81.79 144.36 C 81.98 142.74 82.19 141.11 82.49 139.51 C 82.66 138.87 83.02 137.61 83.19 136.97 Z" />
<path fill="#9e5b29" opacity="1.00" d=" M 78.41 135.09 C 79.73 136.60 81.10 138.06 82.49 139.51 C 82.19 141.11 81.98 142.74 81.79 144.36 C 83.15 145.90 84.48 147.47 85.79 149.05 C 83.03 149.51 80.25 149.90 77.46 150.22 C 77.32 148.89 77.18 147.57 77.04 146.25 C 75.42 146.65 73.80 147.04 72.19 147.43 C 72.40 148.59 72.61 149.76 72.82 150.92 C 71.88 150.12 71.00 149.27 70.10 148.43 C 70.23 146.88 70.36 145.32 70.49 143.77 C 71.48 144.31 72.48 144.86 73.47 145.41 C 74.96 145.17 76.45 144.93 77.93 144.70 C 79.39 141.65 79.53 138.28 78.41 135.09 Z" />
</svg>
