<?xml version="1.0" encoding="UTF-8" ?>
<!DOCTYPE svg PUBLIC "-//W3C//DTD SVG 1.1//EN" "http://www.w3.org/Graphics/SVG/1.1/DTD/svg11.dtd">
<svg width="512pt" height="512pt" viewBox="0 0 512 512" version="1.1" xmlns="http://www.w3.org/2000/svg">
<path fill="#000000" stroke="#000000" stroke-width="0.09375" opacity="1.00" d=" M 212.62 28.63 C 241.71 19.81 273.48 20.41 302.42 29.52 C 335.11 39.79 363.31 62.81 380.77 92.20 C 401.34 126.26 407.86 168.75 397.26 207.21 C 390.09 234.09 374.19 258.10 353.69 276.69 C 335.51 293.80 328.65 319.47 329.10 343.79 C 338.86 343.73 348.61 343.76 358.36 343.77 C 358.43 363.27 358.43 382.77 358.36 402.27 C 290.12 402.30 221.89 402.30 153.65 402.27 C 153.54 382.77 153.59 363.27 153.62 343.78 C 163.39 343.76 173.15 343.74 182.91 343.78 C 182.85 327.34 180.19 310.47 171.99 296.00 C 167.35 287.36 160.59 280.17 153.54 273.47 C 130.89 251.63 115.43 222.26 111.11 191.03 C 106.05 155.48 114.77 118.39 134.38 88.40 C 152.48 60.20 180.53 38.45 212.62 28.63 M 182.88 160.95 C 201.59 179.62 220.22 198.37 239.00 216.98 C 240.32 218.31 241.47 219.97 241.37 221.94 C 241.43 262.07 241.28 302.21 241.44 342.34 C 251.15 342.29 260.86 342.29 270.57 342.34 C 270.68 304.56 270.63 266.78 270.60 229.00 C 270.79 224.96 269.48 219.98 273.00 216.99 C 291.77 198.37 310.42 179.63 329.12 160.95 C 321.84 153.60 314.51 146.30 307.20 138.99 C 290.11 156.02 273.09 173.12 256.00 190.15 C 238.91 173.12 221.88 156.03 204.80 138.98 C 197.48 146.29 190.15 153.59 182.88 160.95 Z" />
<path fill="#000000" stroke="#000000" stroke-width="0.09375" opacity="1.00" d=" M 198.92 431.59 C 237.48 431.52 276.03 431.53 314.59 431.59 C 314.60 451.86 303.32 471.60 285.82 481.83 C 267.02 493.32 241.77 492.63 223.44 480.51 C 207.16 470.20 197.48 450.81 198.92 431.59 Z" />
</svg>
