<?xml version="1.0" encoding="UTF-8" ?>
<!DOCTYPE svg PUBLIC "-//W3C//DTD SVG 1.1//EN" "http://www.w3.org/Graphics/SVG/1.1/DTD/svg11.dtd">
<svg width="512pt" height="512pt" viewBox="0 0 512 512" version="1.1" xmlns="http://www.w3.org/2000/svg">
<path fill="#000000" stroke="#000000" stroke-width="0.09375" opacity="1.00" d=" M 124.72 0.00 L 163.60 0.00 C 157.29 2.66 149.82 6.72 149.73 14.56 C 147.49 55.00 146.33 95.52 145.51 136.01 C 144.19 142.66 140.87 149.55 144.84 156.04 C 112.55 163.53 81.40 180.50 61.95 207.96 C 44.14 232.69 39.37 264.18 40.05 294.00 C 40.17 366.66 40.23 439.35 41.01 512.00 L 15.74 512.00 C 15.53 430.98 14.68 349.96 15.17 268.94 C 15.50 236.21 25.89 202.18 50.35 179.36 C 67.41 160.89 87.82 144.66 112.16 137.14 C 118.91 135.67 120.01 127.81 120.58 122.06 C 121.24 81.36 122.70 40.67 124.72 0.00 Z" />
<path fill="#0000ff" stroke="#0000ff" stroke-width="0.09375" opacity="1.00" d=" M 163.60 0.00 L 338.35 0.00 C 339.53 6.25 337.71 12.26 331.24 14.34 C 338.62 12.95 349.34 9.82 346.44 0.00 L 348.63 0.00 C 356.10 2.81 365.92 6.48 366.04 16.01 C 367.72 56.32 367.41 96.74 368.20 137.08 C 369.04 144.05 372.07 151.33 368.17 157.98 C 360.50 160.83 355.57 167.84 348.30 171.22 C 329.99 177.98 310.36 180.18 291.00 181.48 C 251.16 183.49 210.34 183.16 171.66 172.36 C 160.79 170.22 154.66 160.18 144.84 156.04 C 140.87 149.55 144.19 142.66 145.51 136.01 C 146.33 95.52 147.49 55.00 149.73 14.56 C 149.82 6.72 157.29 2.66 163.60 0.00 Z" />
<path fill="#000000" stroke="#000000" stroke-width="0.09375" opacity="1.00" d=" M 338.35 0.00 L 346.44 0.00 C 349.34 9.82 338.62 12.95 331.24 14.34 C 337.71 12.26 339.53 6.25 338.35 0.00 Z" />
<path fill="#000000" stroke="#000000" stroke-width="0.09375" opacity="1.00" d=" M 348.63 0.00 L 390.75 0.00 C 393.01 41.62 392.10 83.38 393.29 125.04 C 394.02 130.09 393.83 137.54 400.03 139.02 C 423.63 146.91 443.76 162.40 460.43 180.57 C 484.02 202.30 495.22 234.47 496.12 265.99 C 497.97 348.03 493.20 429.99 492.68 512.00 L 466.93 512.00 C 468.23 436.92 471.58 361.81 471.68 286.76 C 470.68 261.92 466.66 236.30 453.01 214.99 C 434.19 185.17 401.85 166.28 368.17 157.98 C 372.07 151.33 369.04 144.05 368.20 137.08 C 367.41 96.74 367.72 56.32 366.04 16.01 C 365.92 6.48 356.10 2.81 348.63 0.00 Z" />
<path fill="#00ff00" stroke="#00ff00" stroke-width="0.09375" opacity="1.00" d=" M 61.95 207.96 C 81.40 180.50 112.55 163.53 144.84 156.04 C 154.66 160.18 160.79 170.22 171.66 172.36 C 210.34 183.16 251.16 183.49 291.00 181.48 C 310.36 180.18 329.99 177.98 348.30 171.22 C 355.57 167.84 360.50 160.83 368.17 157.98 C 401.85 166.28 434.19 185.17 453.01 214.99 C 466.66 236.30 470.68 261.92 471.68 286.76 C 473.60 301.50 459.05 309.55 447.69 314.70 C 412.51 329.75 373.99 333.99 336.29 338.13 C 276.61 342.55 216.37 342.24 157.01 334.21 C 118.26 328.19 76.78 322.76 44.21 299.16 C 42.41 303.18 41.89 307.62 41.71 311.98 C 41.04 378.65 42.93 445.34 42.07 512.00 L 41.01 512.00 C 40.23 439.35 40.17 366.66 40.05 294.00 C 39.37 264.18 44.14 232.69 61.95 207.96 Z" />
<path fill="#ff0000" stroke="#ff0000" stroke-width="0.09375" opacity="1.00" d=" M 471.68 286.76 C 471.58 361.81 468.23 436.92 466.93 512.00 L 42.07 512.00 C 42.93 445.34 41.04 378.65 41.71 311.98 C 41.89 307.62 42.41 303.18 44.21 299.16 C 76.78 322.76 118.26 328.19 157.01 334.21 C 216.37 342.24 276.61 342.55 336.29 338.13 C 373.99 333.99 412.51 329.75 447.69 314.70 C 459.05 309.55 473.60 301.50 471.68 286.76 Z" />
</svg>
