<?xml version="1.0" encoding="UTF-8" ?>
<!DOCTYPE svg PUBLIC "-//W3C//DTD SVG 1.1//EN" "http://www.w3.org/Graphics/SVG/1.1/DTD/svg11.dtd">
<svg width="512pt" height="512pt" viewBox="0 0 512 512" version="1.1" xmlns="http://www.w3.org/2000/svg">
<path fill="#252525" stroke="#252525" stroke-width="0.09375" opacity="1.00" d=" M 120.39 32.44 C 124.90 31.88 129.46 32.00 134.00 32.00 C 207.00 32.01 280.01 31.98 353.01 32.01 C 379.63 32.04 404.93 50.73 412.77 76.16 C 415.53 85.44 407.76 95.92 398.08 95.96 C 329.03 96.08 259.98 95.92 190.94 96.03 C 174.63 96.19 160.19 110.63 160.04 126.94 C 159.98 170.31 159.98 213.69 160.04 257.07 C 160.19 273.37 174.63 287.81 190.93 287.97 C 259.98 288.08 329.03 287.92 398.08 288.04 C 407.76 288.08 415.53 298.55 412.77 307.84 C 404.94 333.27 379.63 351.95 353.01 351.99 C 283.01 352.02 213.00 351.99 143.00 352.00 C 131.85 351.89 120.42 352.84 109.65 349.32 C 83.20 341.73 63.55 315.57 64.00 288.00 C 64.00 229.00 64.00 170.00 64.00 111.00 C 64.13 100.12 63.17 88.97 66.46 78.42 C 73.16 54.16 95.34 35.16 120.39 32.44 Z" />
<path fill="#a1c057" stroke="#a1c057" stroke-width="0.09375" opacity="1.00" d=" M 224.07 112.07 C 288.02 111.95 351.98 111.95 415.93 112.07 C 416.05 165.35 416.05 218.64 415.93 271.93 C 351.98 272.05 288.02 272.05 224.07 271.93 C 223.95 218.65 223.95 165.35 224.07 112.07 Z" />
<path fill="#252525" stroke="#252525" stroke-width="0.09375" opacity="1.00" d=" M 288.03 368.03 C 309.34 367.98 330.66 367.98 351.97 368.03 C 352.07 394.68 351.93 421.32 352.03 447.97 C 364.02 448.05 376.01 447.98 388.00 448.00 C 394.78 437.03 407.90 430.10 420.84 432.36 C 436.43 434.42 448.85 449.35 447.99 465.06 C 447.79 480.66 434.64 494.67 419.08 495.86 C 406.66 497.32 394.50 490.43 388.01 480.00 C 376.08 480.02 364.15 479.95 352.23 480.03 C 351.84 488.10 345.40 495.65 337.08 495.94 C 325.70 496.05 314.31 496.06 302.92 495.94 C 294.60 495.66 288.16 488.10 287.77 480.03 C 275.85 479.95 263.93 480.02 252.01 479.99 C 245.35 490.69 232.71 497.63 220.00 495.76 C 204.44 494.12 191.66 479.66 191.99 464.00 C 191.66 448.35 204.43 433.88 219.99 432.24 C 232.69 430.38 245.36 437.29 251.99 448.00 C 263.98 447.98 275.98 448.04 287.97 447.97 C 288.07 421.32 287.93 394.68 288.03 368.03 Z" />
</svg>
