<?xml version="1.0" encoding="UTF-8" ?>
<!DOCTYPE svg PUBLIC "-//W3C//DTD SVG 1.1//EN" "http://www.w3.org/Graphics/SVG/1.1/DTD/svg11.dtd">
<svg width="760pt" height="760pt" viewBox="0 0 760 760" version="1.1" xmlns="http://www.w3.org/2000/svg">
<path fill="#24696a" stroke="#24696a" stroke-width="0.09375" opacity="1.00" d=" M 368.45 124.36 C 378.93 125.37 389.60 125.63 399.89 122.98 C 409.44 136.53 401.36 153.91 407.62 168.38 C 411.07 176.28 418.69 181.07 426.03 184.93 C 444.72 194.54 465.93 199.88 482.15 213.83 C 489.67 220.65 500.09 223.07 510.01 223.27 C 530.20 223.19 549.36 215.97 568.02 209.01 C 574.65 207.02 582.86 202.88 589.13 207.85 C 595.10 213.80 595.87 223.11 601.85 229.13 C 610.31 238.85 624.01 240.09 635.89 242.27 C 657.09 245.85 679.53 249.55 697.03 262.98 C 702.94 267.70 708.15 273.18 713.43 278.56 C 724.62 288.88 738.49 295.60 752.33 301.56 C 743.72 309.68 731.31 310.81 720.15 312.44 C 718.79 312.25 717.45 312.06 716.11 311.85 C 714.94 308.36 714.64 304.50 712.55 301.39 C 707.57 296.01 701.06 292.25 696.59 286.38 C 678.95 265.52 652.29 254.66 625.91 250.12 C 609.51 246.40 589.44 250.67 576.68 237.31 C 568.59 231.15 558.66 238.70 550.77 241.83 C 540.63 242.48 530.44 241.95 520.32 242.44 C 515.15 245.46 511.43 251.10 505.00 251.94 C 504.00 251.31 503.00 250.69 502.01 250.07 C 501.57 245.82 502.16 241.56 502.64 237.34 C 502.29 237.22 501.61 236.98 501.27 236.86 C 494.61 233.66 487.02 234.67 480.06 236.13 C 475.06 237.34 469.89 235.26 464.95 236.89 C 462.56 235.28 460.03 233.87 457.31 232.90 C 452.35 230.37 448.09 226.75 444.26 222.75 C 431.43 209.33 414.63 200.56 401.44 187.57 C 392.22 178.53 392.58 164.96 388.32 153.71 C 378.68 151.06 368.11 155.29 362.24 163.29 C 354.53 165.92 348.48 172.15 342.23 177.22 C 338.56 181.49 332.83 184.82 331.63 190.65 C 301.59 202.82 270.56 185.65 239.90 186.86 C 259.16 184.06 279.44 182.02 296.25 171.27 C 297.55 170.40 298.20 168.92 299.02 167.63 L 299.39 167.63 C 302.74 168.14 305.12 165.30 307.55 163.50 C 318.06 154.35 327.52 143.93 335.59 132.59 C 343.74 123.29 357.02 122.62 368.45 124.36 Z" />
<path fill="#39a990" stroke="#39a990" stroke-width="0.09375" opacity="1.00" d=" M 299.39 167.63 C 308.00 152.93 321.48 141.78 335.59 132.59 C 327.52 143.93 318.06 154.35 307.55 163.50 C 305.12 165.30 302.74 168.14 299.39 167.63 Z" />
<path fill="#1f5c5a" stroke="#1f5c5a" stroke-width="0.09375" opacity="1.00" d=" M 362.24 163.29 C 368.11 155.29 378.68 151.06 388.32 153.71 C 392.58 164.96 392.22 178.53 401.44 187.57 C 414.63 200.56 431.43 209.33 444.26 222.75 C 448.09 226.75 452.35 230.37 457.31 232.90 C 459.28 235.16 461.98 236.54 464.47 238.14 C 463.70 239.96 462.83 241.74 462.01 243.54 C 444.31 233.15 429.77 218.09 415.19 203.80 C 405.58 193.14 395.24 182.51 382.67 175.34 C 375.10 170.87 370.02 179.90 364.59 183.61 C 342.57 200.37 313.39 200.40 287.00 200.26 C 271.79 199.46 256.90 202.96 241.94 205.06 C 228.91 207.49 214.42 210.76 205.92 221.88 C 201.90 226.33 200.94 232.38 199.07 237.86 C 194.20 247.36 190.51 258.09 189.90 268.74 C 185.22 272.29 179.09 272.48 173.68 274.26 C 172.87 274.40 172.06 274.52 171.24 274.63 C 166.74 283.09 165.39 292.77 163.79 302.11 C 159.07 303.04 154.36 304.12 149.82 305.74 C 133.69 293.37 118.35 279.96 101.53 268.52 C 94.32 263.74 86.65 258.92 77.78 258.25 C 86.17 258.50 94.91 259.13 102.91 256.06 C 102.78 256.54 102.51 257.49 102.37 257.96 C 119.53 256.77 137.79 257.28 153.56 249.44 C 164.40 243.26 162.42 229.53 166.37 219.43 C 170.86 204.67 186.44 199.04 199.95 195.62 C 198.92 195.15 197.91 194.62 196.84 194.24 C 211.60 194.20 225.46 188.74 239.90 186.86 C 270.56 185.65 301.59 202.82 331.63 190.65 C 344.62 185.16 353.74 174.05 362.24 163.29 Z" />
<path fill="#31926f" stroke="#31926f" stroke-width="0.09375" opacity="1.00" d=" M 342.23 177.22 C 348.48 172.15 354.53 165.92 362.24 163.29 C 353.74 174.05 344.62 185.16 331.63 190.65 C 332.83 184.82 338.56 181.49 342.23 177.22 Z" />
<path fill="#1a4147" stroke="#1a4147" stroke-width="0.09375" opacity="1.00" d=" M 364.59 183.61 C 370.02 179.90 375.10 170.87 382.67 175.34 C 395.24 182.51 405.58 193.14 415.19 203.80 C 429.77 218.09 444.31 233.15 462.01 243.54 C 462.83 241.74 463.70 239.96 464.47 238.14 C 464.59 237.83 464.83 237.21 464.95 236.89 C 469.89 235.26 475.06 237.34 480.06 236.13 C 487.02 234.67 494.61 233.66 501.27 236.86 C 486.01 237.19 469.45 239.06 457.42 249.42 C 452.63 252.73 450.17 258.24 445.71 261.86 C 440.25 256.77 432.79 254.02 425.42 253.39 C 411.27 252.14 398.28 245.96 385.42 240.41 C 382.19 238.65 378.71 240.43 375.59 241.47 C 363.63 246.06 351.38 250.13 338.79 252.57 C 313.44 253.58 286.77 251.37 262.95 261.90 C 260.93 263.00 257.55 263.77 257.81 266.68 C 259.77 289.41 264.29 311.78 267.92 334.25 C 254.05 324.85 241.97 312.22 235.28 296.69 C 231.34 289.12 230.49 279.40 223.20 273.98 C 220.16 282.93 219.68 292.50 216.85 301.50 C 203.24 291.21 188.18 283.12 173.68 274.26 C 179.09 272.48 185.22 272.29 189.90 268.74 C 199.17 261.45 197.37 248.28 199.07 237.86 C 200.94 232.38 201.90 226.33 205.92 221.88 C 214.42 210.76 228.91 207.49 241.94 205.06 C 256.90 202.96 271.79 199.46 287.00 200.26 C 313.39 200.40 342.57 200.37 364.59 183.61 Z" />
<path fill="#24696a" stroke="#24696a" stroke-width="0.09375" opacity="1.00" d=" M 155.79 211.69 C 161.57 194.74 182.21 195.58 196.84 194.24 C 197.91 194.62 198.92 195.15 199.95 195.62 C 186.44 199.04 170.86 204.67 166.37 219.43 C 162.69 220.62 162.33 225.47 160.35 228.35 C 157.70 235.16 153.02 241.90 153.56 249.44 C 137.79 257.28 119.53 256.77 102.37 257.96 C 102.51 257.49 102.78 256.54 102.91 256.06 C 118.05 250.28 134.47 245.14 146.02 233.19 C 152.03 227.70 154.72 219.55 155.79 211.69 Z" />
<path fill="#39a990" stroke="#39a990" stroke-width="0.09375" opacity="1.00" d=" M 146.02 233.19 C 148.23 225.67 151.71 218.38 155.79 211.69 C 154.72 219.55 152.03 227.70 146.02 233.19 Z" />
<path fill="#31926f" stroke="#31926f" stroke-width="0.09375" opacity="1.00" d=" M 160.35 228.35 C 162.33 225.47 162.69 220.62 166.37 219.43 C 162.42 229.53 164.40 243.26 153.56 249.44 C 153.02 241.90 157.70 235.16 160.35 228.35 Z" />
<path fill="#1f5c5a" stroke="#1f5c5a" stroke-width="0.09375" opacity="1.00" d=" M 550.77 241.83 C 558.66 238.70 568.59 231.15 576.68 237.31 C 589.44 250.67 609.51 246.40 625.91 250.12 C 652.29 254.66 678.95 265.52 696.59 286.38 C 701.06 292.25 707.57 296.01 712.55 301.39 C 696.84 307.71 679.75 309.37 663.03 310.94 C 648.73 311.42 634.22 312.12 620.15 308.99 C 617.72 299.23 613.74 289.87 615.41 279.67 C 598.64 260.93 576.50 244.53 550.77 241.83 Z" />
<path fill="#27541f" stroke="#27541f" stroke-width="0.09375" opacity="1.00" d=" M 457.42 249.42 C 469.45 239.06 486.01 237.19 501.27 236.86 C 501.61 236.98 502.29 237.22 502.64 237.34 C 502.16 241.56 501.57 245.82 502.01 250.07 C 503.04 254.77 505.11 259.15 506.92 263.58 C 500.91 265.12 494.71 267.96 491.62 273.66 C 483.18 287.58 486.38 304.71 481.71 319.78 C 476.51 335.81 481.35 352.59 480.44 368.97 C 480.25 374.78 481.30 381.45 477.32 386.30 C 473.28 391.56 466.18 392.47 460.00 392.68 C 443.08 392.35 426.34 387.69 409.37 389.42 C 385.87 392.57 365.39 405.44 345.31 417.03 C 340.13 400.46 333.95 382.34 319.13 371.90 C 300.40 358.65 275.29 363.59 255.76 352.25 C 245.28 345.96 243.58 332.88 238.08 322.97 C 233.66 313.53 224.39 308.13 216.85 301.50 C 219.68 292.50 220.16 282.93 223.20 273.98 C 230.49 279.40 231.34 289.12 235.28 296.69 C 241.97 312.22 254.05 324.85 267.92 334.25 C 274.16 338.81 280.69 343.01 287.67 346.35 C 296.29 350.52 304.26 356.75 314.06 357.81 C 327.64 359.56 341.38 359.01 355.02 359.94 C 363.70 359.11 367.36 368.36 372.36 373.66 C 377.19 378.98 380.46 386.88 387.83 389.05 C 391.61 381.20 396.26 373.43 395.15 364.18 C 403.28 364.13 415.75 365.37 418.11 355.04 C 420.97 338.28 415.91 319.95 424.22 304.21 C 430.58 295.25 436.50 285.54 438.88 274.70 C 440.38 270.07 442.38 265.48 445.71 261.86 C 450.17 258.24 452.63 252.73 457.42 249.42 Z" />
<path fill="#2a734a" stroke="#2a734a" stroke-width="0.09375" opacity="1.00" d=" M 189.90 268.74 C 190.51 258.09 194.20 247.36 199.07 237.86 C 197.37 248.28 199.17 261.45 189.90 268.74 Z" />
<path fill="#1c2a40" stroke="#1c2a40" stroke-width="0.09375" opacity="1.00" d=" M 375.59 241.47 C 378.71 240.43 382.19 238.65 385.42 240.41 C 398.28 245.96 411.27 252.14 425.42 253.39 C 432.79 254.02 440.25 256.77 445.71 261.86 C 442.38 265.48 440.38 270.07 438.88 274.70 C 433.44 284.21 428.13 294.87 417.26 299.15 C 415.07 296.70 412.74 294.38 410.23 292.27 C 399.08 300.30 389.20 309.91 378.59 318.62 C 367.57 327.01 355.25 333.44 343.37 340.51 C 312.13 319.23 285.41 292.27 257.81 266.68 C 257.55 263.77 260.93 263.00 262.95 261.90 C 286.77 251.37 313.44 253.58 338.79 252.57 C 351.38 250.13 363.63 246.06 375.59 241.47 Z" />
<path fill="#1a4147" stroke="#1a4147" stroke-width="0.09375" opacity="1.00" d=" M 520.32 242.44 C 530.44 241.95 540.63 242.48 550.77 241.83 C 576.50 244.53 598.64 260.93 615.41 279.67 C 578.22 282.50 544.06 259.69 506.92 263.58 C 505.11 259.15 503.04 254.77 502.01 250.07 C 503.00 250.69 504.00 251.31 505.00 251.94 C 511.43 251.10 515.15 245.46 520.32 242.44 Z" />
<path fill="#31926f" stroke="#31926f" stroke-width="0.09375" opacity="1.00" d=" M 70.80 265.74 C 67.76 260.06 72.12 256.83 77.78 258.25 C 86.65 258.92 94.32 263.74 101.53 268.52 C 118.35 279.96 133.69 293.37 149.82 305.74 C 153.45 308.55 157.13 311.30 160.86 313.99 C 171.34 321.75 182.55 328.69 194.86 333.17 C 214.64 342.62 227.09 362.19 235.15 381.86 C 236.98 385.53 238.27 391.10 243.10 391.64 C 252.08 391.09 260.74 386.35 269.87 388.06 C 274.82 389.03 276.30 394.46 277.55 398.63 C 282.93 424.39 282.96 452.65 297.95 475.29 C 307.64 489.64 325.26 495.62 340.36 502.58 L 340.58 502.74 C 343.23 490.53 351.35 480.55 359.33 471.33 C 373.06 457.63 389.57 446.49 407.87 439.88 C 424.86 433.51 443.32 436.12 460.99 436.90 C 479.11 437.23 497.65 438.19 515.25 432.99 C 531.06 428.51 545.01 417.64 552.31 402.79 C 558.56 391.97 561.47 379.68 566.07 368.15 C 572.10 351.17 565.14 333.32 566.76 315.98 C 567.06 309.76 571.56 303.74 578.02 303.13 C 592.34 301.60 606.15 306.89 620.15 308.99 C 634.22 312.12 648.73 311.42 663.03 310.94 C 679.75 309.37 696.84 307.71 712.55 301.39 C 714.64 304.50 714.94 308.36 716.11 311.85 C 717.45 312.06 718.79 312.25 720.15 312.44 C 695.11 314.90 670.06 311.29 645.01 311.89 C 634.89 311.77 625.33 318.23 621.72 327.69 C 614.00 347.57 617.48 369.74 610.84 389.90 C 607.81 398.96 599.74 404.79 594.34 412.33 C 579.32 431.46 559.94 447.76 536.63 455.62 C 510.18 465.31 481.68 465.42 453.93 467.08 C 428.16 468.56 404.39 484.87 392.50 507.55 C 388.86 513.99 386.79 521.33 382.15 527.18 C 380.27 529.65 376.74 530.73 373.98 529.03 C 350.72 517.17 326.61 507.10 302.98 496.04 C 279.06 483.28 267.57 457.26 255.71 434.32 C 251.44 426.82 248.49 416.69 239.67 413.42 C 227.76 411.74 217.76 421.26 206.16 421.83 C 200.60 419.37 200.18 412.09 197.81 407.15 C 187.09 378.83 170.03 349.62 141.30 336.75 C 116.28 329.39 95.85 312.12 77.54 294.23 C 76.21 284.56 72.31 275.42 70.80 265.74 Z" />
<path fill="#39a990" stroke="#39a990" stroke-width="0.09375" opacity="1.00" d=" M 33.75 262.71 C 40.89 257.67 48.02 265.61 52.92 270.23 C 61.04 278.32 68.89 286.70 77.54 294.23 C 95.85 312.12 116.28 329.39 141.30 336.75 C 170.03 349.62 187.09 378.83 197.81 407.15 C 200.18 412.09 200.60 419.37 206.16 421.83 C 217.76 421.26 227.76 411.74 239.67 413.42 C 248.49 416.69 251.44 426.82 255.71 434.32 C 267.57 457.26 279.06 483.28 302.98 496.04 C 326.61 507.10 350.72 517.17 373.98 529.03 C 376.74 530.73 380.27 529.65 382.15 527.18 C 386.79 521.33 388.86 513.99 392.50 507.55 C 404.39 484.87 428.16 468.56 453.93 467.08 C 481.68 465.42 510.18 465.31 536.63 455.62 C 559.94 447.76 579.32 431.46 594.34 412.33 C 599.74 404.79 607.81 398.96 610.84 389.90 C 617.48 369.74 614.00 347.57 621.72 327.69 C 625.33 318.23 634.89 311.77 645.01 311.89 C 670.06 311.29 695.11 314.90 720.15 312.44 C 731.31 310.81 743.72 309.68 752.33 301.56 C 754.31 305.39 757.20 309.54 755.99 314.06 C 749.49 337.24 748.30 361.45 743.72 385.01 C 742.44 394.01 739.44 403.26 732.70 409.68 C 725.24 417.41 714.40 420.46 704.06 421.90 C 652.46 424.40 607.45 454.68 570.16 488.16 C 562.83 495.36 552.91 498.70 544.85 504.87 C 529.53 515.06 512.33 521.86 495.13 528.12 C 479.59 532.96 468.19 545.08 455.11 554.12 C 436.33 572.62 429.07 599.71 410.08 618.08 C 402.57 625.37 392.38 629.53 381.99 630.19 C 364.01 609.62 346.45 588.12 324.45 571.56 C 302.52 555.14 288.31 531.32 272.65 509.40 C 265.41 498.48 253.09 493.19 241.33 488.67 C 194.74 468.05 144.67 457.50 95.17 446.49 C 80.84 443.20 65.62 435.15 60.57 420.43 C 56.78 406.44 58.78 391.72 58.59 377.41 C 57.73 377.44 56.02 377.50 55.17 377.53 C 38.68 346.67 16.43 318.52 6.25 284.55 C 16.25 278.38 25.06 270.55 33.75 262.71 Z" />
<path fill="#2a734a" stroke="#2a734a" stroke-width="0.09375" opacity="1.00" d=" M 506.92 263.58 C 544.06 259.69 578.22 282.50 615.41 279.67 C 613.74 289.87 617.72 299.23 620.15 308.99 C 606.15 306.89 592.34 301.60 578.02 303.13 C 571.56 303.74 567.06 309.76 566.76 315.98 C 565.14 333.32 572.10 351.17 566.07 368.15 C 561.47 379.68 558.56 391.97 552.31 402.79 C 543.07 406.97 538.19 416.41 531.62 423.58 C 527.07 428.57 520.25 430.03 514.32 432.69 C 514.56 432.77 515.02 432.92 515.25 432.99 C 497.65 438.19 479.11 437.23 460.99 436.90 C 443.32 436.12 424.86 433.51 407.87 439.88 C 389.57 446.49 373.06 457.63 359.33 471.33 C 351.35 480.55 343.23 490.53 340.58 502.74 L 340.36 502.58 C 329.16 486.41 311.15 477.00 297.17 463.56 C 292.47 442.17 290.53 419.58 279.95 399.98 C 279.55 398.95 278.58 398.58 277.55 398.63 C 276.30 394.46 274.82 389.03 269.87 388.06 C 260.74 386.35 252.08 391.09 243.10 391.64 C 238.27 391.10 236.98 385.53 235.15 381.86 C 227.09 362.19 214.64 342.62 194.86 333.17 C 182.55 328.69 171.34 321.75 160.86 313.99 C 162.02 310.08 163.14 306.14 163.79 302.11 C 165.39 292.77 166.74 283.09 171.24 274.63 C 172.06 274.52 172.87 274.40 173.68 274.26 C 188.18 283.12 203.24 291.21 216.85 301.50 C 224.39 308.13 233.66 313.53 238.08 322.97 C 243.58 332.88 245.28 345.96 255.76 352.25 C 275.29 363.59 300.40 358.65 319.13 371.90 C 333.95 382.34 340.13 400.46 345.31 417.03 C 365.39 405.44 385.87 392.57 409.37 389.42 C 426.34 387.69 443.08 392.35 460.00 392.68 C 466.18 392.47 473.28 391.56 477.32 386.30 C 481.30 381.45 480.25 374.78 480.44 368.97 C 481.35 352.59 476.51 335.81 481.71 319.78 C 486.38 304.71 483.18 287.58 491.62 273.66 C 494.71 267.96 500.91 265.12 506.92 263.58 Z" />
<path fill="#24696a" stroke="#24696a" stroke-width="0.09375" opacity="1.00" d=" M 52.92 270.23 C 58.86 268.68 64.74 266.76 70.80 265.74 C 72.31 275.42 76.21 284.56 77.54 294.23 C 68.89 286.70 61.04 278.32 52.92 270.23 Z" />
<path fill="#2c3a15" stroke="#2c3a15" stroke-width="0.09375" opacity="1.00" d=" M 257.81 266.68 C 285.41 292.27 312.13 319.23 343.37 340.51 C 348.69 344.75 354.83 348.75 361.73 349.41 C 384.34 337.58 396.75 313.62 417.26 299.15 C 428.13 294.87 433.44 284.21 438.88 274.70 C 436.50 285.54 430.58 295.25 424.22 304.21 C 415.91 319.95 420.97 338.28 418.11 355.04 C 415.75 365.37 403.28 364.13 395.15 364.18 C 396.26 373.43 391.61 381.20 387.83 389.05 C 380.46 386.88 377.19 378.98 372.36 373.66 C 367.36 368.36 363.70 359.11 355.02 359.94 C 341.38 359.01 327.64 359.56 314.06 357.81 C 304.26 356.75 296.29 350.52 287.67 346.35 C 280.69 343.01 274.16 338.81 267.92 334.25 C 264.29 311.78 259.77 289.41 257.81 266.68 Z" />
<path fill="#1f5c5a" stroke="#1f5c5a" stroke-width="0.09375" opacity="1.00" d=" M 277.55 398.63 C 278.58 398.58 279.55 398.95 279.95 399.98 C 290.53 419.58 292.47 442.17 297.17 463.56 C 297.12 467.48 297.54 471.39 297.95 475.29 C 282.96 452.65 282.93 424.39 277.55 398.63 Z" />
</svg>
