<?xml version="1.0" encoding="utf-8"?>
<!-- Generator: Adobe Illustrator 24.0.1, SVG Export Plug-In . SVG Version: 6.00 Build 0)  -->
<svg version="1.1" xmlns="http://www.w3.org/2000/svg" xmlns:xlink="http://www.w3.org/1999/xlink" x="0px" y="0px" width="283.5px"
	 height="283.5px" viewBox="0 0 283.5 283.5" style="enable-background:new 0 0 283.5 283.5;" xml:space="preserve">
<style type="text/css">
	.st0{fill:#FFFF00;}
	.st1{fill:#29B473;}
	.st2{fill:#0A0A38;}
</style>
<g id="Layer_1_copy">
	<g id="Layer_2_2_">
		<path class="st0" d="M235.5,221.2c-18.1,0-32.8-14.7-32.8-32.8s14.7-32.8,32.8-32.8s32.8,14.7,32.8,32.8S253.7,221.2,235.5,221.2z
			"/>
		<path class="st0" d="M163.6,236.7c-18.1,0-32.8-14.7-32.8-32.8s14.7-32.8,32.8-32.8s32.8,14.7,32.8,32.8S181.7,236.7,163.6,236.7z
			"/>
		<path class="st0" d="M98.8,249.1c-2.5,0-5.1-0.4-7.6-1.3l-0.2-0.1c-2.6-1-4.7-2.3-6.5-3.8c-1.9-1.6-3.4-3.6-4.7-6l-0.1-0.2
			c-1.2-2.6-1.8-5.1-1.8-7.7c0-1.8,0.1-4,0.3-6.8c0.2-3,0.4-5.9,0.6-9.1c0.2-3.8,0.4-6.9,0.6-9.3c0.2-2.5,0.3-4.6,0.3-6.1
			c0-14.7-0.2-23.3-0.6-25.4c-0.1-0.3-0.1-0.6-0.2-0.9c-0.6-0.2-1.6-0.4-2.8-0.6c-6.3-1.2-15.2-1.8-27.4-1.8c-0.2,0-1,0-3.4,0.5
			c-2.3,0.5-4,0.7-5.3,0.7c-7.2,0-19.4-3.1-20.2-24.1c-0.5-11-1-22.8-1.3-36.2c-0.3-10.9-0.4-22.5-0.4-36.3c0-5.7,1.6-10.7,4.7-14.9
			c2.2-3.1,6.5-6.8,14.5-6.8c11.7,0,16.5,6.2,18.5,11.4c1.5,3.8,2.2,9.7,2.2,18.8c0,2.2-0.1,4.8-0.2,7.8l0,1.5
			c-0.1,2.6-0.2,5.6-0.3,8.9l-0.3,7.4c-0.1,3.3-0.3,6.3-0.3,8.9l0,1.4c-0.1,2.9-0.2,5.4-0.2,7.6c0,4.2,0.8,5.3,0.9,5.3l0,0
			c0,0,0.9,0.8,4.3,1l0.2,0l0.2,0c0.7,0.1,1.5,0.2,2.4,0.2h5.3c6.3,0,9-0.5,10.1-0.8c0.1-0.9,0.3-2.8,0.3-6.6c0-6.3-0.3-15.1-1-25.5
			l0-0.1c-0.2-5.7-0.4-10.7-0.6-15c-0.2-4.4-0.3-8.1-0.3-11.1c0.1-13.5,7.4-20.9,20.5-20.9c7.3,0,12.6,2.5,15.7,7.4
			c2.3,3.5,3.5,8.7,3.5,15.7c0,5.3-0.2,12.8-0.5,23.1c-0.1,5-0.2,9.4-0.3,13.2c-0.1,3.7-0.1,6.9-0.1,9.5c0,8.3,1.3,10.7,1.7,11.3
			c1.8,0,3.5-0.3,5.1-0.8c2.4-0.9,4.6-1.3,6.5-1.3c5.9,0,10.7,2.9,13.8,8.4c2.5,4,3.7,8.7,3.7,14.2c0,5.6-2.5,15.2-19.3,17.2l-10,1
			c-0.4,0.1-0.8,0.2-1,0.3c-0.2,2-0.4,6.3-0.4,15.3c0,2.2,0,5,0.1,8.4c0,1.3,0.1,2.7,0.1,4.1c0,2.4,0.1,5.1,0.2,8
			c0.1,4.7,0.2,8.6,0.3,12c0.1,3.5,0.1,6.4,0.1,8.7c0,5.7-1.7,10.6-5.1,14.5C109.3,247,104.4,249.1,98.8,249.1z"/>
		<path class="st0" d="M18,205.9c-9,0-16.3-7.3-16.3-16.3V83.2c0-9,7.3-16.3,16.3-16.3h248.2c9,0,16.3,7.3,16.3,16.3v106.3
			c-0.1,9-7.5,16.3-16.4,16.3H18z"/>
	</g>
</g>
<g id="Layer_1">
	<g id="Layer_3">
		<path class="st1" d="M266.1,201.4H18c-6.5,0-11.8-5.3-11.8-11.8V83.2c0-6.5,5.3-11.8,11.8-11.8h248.2c6.5,0,11.8,5.3,11.8,11.8
			v106.3C277.9,196.1,272.6,201.4,266.1,201.4z"/>
	</g>
	<g id="Layer_1_1_">
		<g>
			<path class="st2" d="M143.4,153.5c0,7.2-5.1,11.5-15.3,12.7l-10.1,1c-2.9,0.6-4.5,1.5-4.6,2.6c-0.5,2.2-0.7,8.1-0.7,17.5
				c0,2.3,0,5.1,0.1,8.5c0.1,3.4,0.1,7.5,0.3,12.2c0.1,4.6,0.2,8.5,0.3,12c0.1,3.4,0.1,6.3,0.1,8.5c0,4.6-1.4,8.5-4,11.5
				c-2.7,3-6.2,4.6-10.6,4.6c-2.1,0-4.1-0.4-6.1-1.1c-2-0.8-3.7-1.8-5.2-3c-1.5-1.3-2.7-2.8-3.6-4.7c-0.9-1.9-1.4-3.7-1.4-5.8
				c0-1.7,0.1-3.8,0.3-6.5c0.2-2.7,0.4-5.6,0.6-9.2c0.2-3.5,0.4-6.7,0.6-9.2c0.2-2.7,0.3-4.8,0.3-6.5c0-14.8-0.2-23.7-0.7-26.2
				c-0.1-0.5-0.2-1-0.3-1.6c-0.1-0.6-0.3-1.2-0.5-1.9c-0.5-0.5-2.4-1-5.8-1.7c-6.7-1.3-16.1-1.9-28.3-1.9c-0.9,0-2.4,0.2-4.3,0.6
				c-2,0.4-3.4,0.6-4.4,0.6c-9.9,0-15.1-6.6-15.6-19.8c-0.6-12.2-1-24.2-1.3-36.2c-0.3-12-0.4-24-0.4-36.2c0-4.8,1.3-8.8,3.8-12.2
				c2.3-3.2,6-4.9,10.8-4.9c7.4,0,12.1,2.8,14.2,8.5c1.3,3.2,1.9,8.9,1.9,17.2c0,2.6-0.1,5.6-0.2,9.1c-0.1,3.5-0.3,7.8-0.5,12.6
				s-0.4,9-0.5,12.6c-0.1,3.5-0.2,6.6-0.2,9.1c0,4,0.7,6.8,2,8.3s3.8,2.4,7.5,2.6c0.7,0.1,1.7,0.2,3,0.2c1.4,0,3.1,0,5.3,0
				c7.9,0,12.5-0.8,13.8-2.4c0.8-0.8,1.2-4,1.2-9.6c0-6-0.3-14.5-1-25.7c-0.2-5.7-0.4-10.7-0.6-15s-0.3-8-0.3-10.9
				c0.1-11,5.4-16.4,15.9-16.4c5.7,0,9.6,1.8,11.9,5.3c1.9,2.8,2.8,7.3,2.8,13.3c0,5.3-0.2,13-0.5,23c-0.1,5-0.2,9.4-0.3,13.3
				c-0.1,3.7-0.1,7-0.1,9.6c0,10.5,2,15.8,6,15.8c2.6,0,4.8-0.4,6.9-1.1c2.1-0.8,3.7-1.1,5-1.1c4.2,0,7.6,2.1,9.9,6.2
				C142.4,145,143.4,148.9,143.4,153.5z"/>
		</g>
	</g>
	<g id="Layer_2_1_">
		<circle class="st2" cx="163.6" cy="108.7" r="28.3"/>
		<circle class="st2" cx="163.6" cy="203.8" r="28.3"/>
		
			<ellipse transform="matrix(0.1735 -0.9848 0.9848 0.1735 73.8877 333.35)" class="st2" cx="235.5" cy="122.7" rx="28.3" ry="28.3"/>
		
			<ellipse transform="matrix(0.1602 -0.9871 0.9871 0.1602 11.8588 390.7236)" class="st2" cx="235.5" cy="188.4" rx="28.3" ry="28.3"/>
	</g>
</g>
</svg>
