<?xml version="1.0" encoding="utf-8"?>
<!-- Generator: Adobe Illustrator 24.0.1, SVG Export Plug-In . SVG Version: 6.00 Build 0)  -->
<svg version="1.1" id="Layer_1" xmlns="http://www.w3.org/2000/svg" xmlns:xlink="http://www.w3.org/1999/xlink" x="0px" y="0px"
	 width="56.7px" height="56.7px" viewBox="0 0 56.7 56.7" style="enable-background:new 0 0 56.7 56.7;" xml:space="preserve">
<style type="text/css">
	.st0{fill:#D0D0D0;}
	.st1{fill:#8C8C8C;}
</style>
<g id="g2383" transform="translate(-28.1959, 3.44715)">
	<path id="path2400" class="st0" d="M66.5-1.5c0.3,0.9,1.4,4.8,2.2,9.9c2.1,14.1,1.5,22.9-1.5,28.7c-1.4,2.8-2.6,7.4-2.6,10.3v5.3
		l-10-0.4l-8.4,0.1L46,45.5c-0.1-2.8-1.4-7.9-2.6-11.8C41.8,28.4,42,25,43,21.4c0.4-1.5,3.9-5.7,6.4-4.4c1.5-3.6,3.8-2,4.6-2.1
		c3.1-1.9,2.7-2,3.1-1.3l0.7-2l1.7-1.1l3.7,5.3L62.4,5.2c0-5.5-0.4-8,2.1-8C65.1-2.8,66.3-2.4,66.5-1.5z M50.2,48.6
		c-1.3,3.1-0.6,2.1,6.3,2.4c6.6,0.3,6.7,0.2,6.7-3c0-2.9,0.6-2.9-3.9-2.9C55.5,45.1,51.6,46.4,50.2,48.6z"/>
	<path id="path2394" class="st1" d="M67.1-1.3c0.3,0.9,2.4,9.7,2.6,14.9c0.6,13.8-0.7,20-2.4,24c-1.2,2.9-2.1,6.7-2.1,9.6l-0.1,5.2
		l-9.3,0.1l-10-0.4l-0.2-5.2c-0.1-2.8-1.1-8.3-2.2-12.1c-1.6-5.3-0.6-9.9,0.4-13.5c0.4-1.5,1.9-3.4,2.9-4.6c1.1-1.1,1.1,0.5,2.3-0.2
		c0.6-0.3,1.5-1.6,2.6-1.8c1.1-0.2,1.7,0.9,2.2,0.4c2.3-2.3,1.9-2,3.7-0.8c-0.4-2.6,0.6-3.9,2.1-3.6c1.1,1.9,3.6,4.7,3.6,4.7
		l-0.6-9.5c0-5.5-0.8-8.6,1.7-8.6C64.9-2.8,66.8-2.2,67.1-1.3z M63.4,0.7c-0.1,4.3-0.6,4.6,1.8,4.4c1.7-0.1,3.1,1.6,3.5,1.6
		c0.7,0-1.3-5.9-1.3-7.4s-0.4-0.5-1.1-0.9C65.4-2,63.7-1.8,63.4,0.7z M64,7.9c0,2.1,0.2,4.5,1.1,4.5c1.9,0.1,4.3,1.5,0.2,0.7
		c-1.3-0.3-1,1.4,0.5,4.3c1.1,2.1,2.8,4.7,3.2,4.7c0.7,0,0.5-8.6-0.2-14.5c-0.2-1.6-3.2-2-3.9-2C64.2,5.6,64,5.7,64,7.9z M55.1,19.8
		c0,3.4,3.6,10.5,5.4,9.3c0.5-0.3,0.2-3.8-0.5-5.2c-0.7-1.4-2.5-6.9-2.5-8.7c0-1.9-1.3-1.3-2.4,0.6C54.5,16.5,55.1,17.9,55.1,19.8z
		 M59.7,20c4.4,6.1,0.6,5.3,4.9,9.9c-3.3-0.1-4.8,1.7-7.2,3.7c-1.9,1.4-1,3.6-1,4.1c-1.9-2.3-1.6-5.6,0.7-6.4
		c-0.8-0.4-3.4,1.8-9.2-1.1c-3.6,1.7-0.5,6.3,0.8,8.7c0.9,4,2.1,4.7,7.9,4.7c5.8,0,6.2-0.2,9.6-5.8c3.6-5.9,5.2-12.8,3.1-12.8
		c-0.7,0-1.2,0.5-1.7-1.7s-3.3-2.7-3.6-3.5c-0.5-1.3-1.8,0.7-1.8,0.1c-0.1-1,2.7-0.8,0.2-5.1c-1.2-2.1-2-3.3-2.5-3.6
		c-0.5-0.2-0.8,0.8-1.2,2.1C58.3,15.7,59.7,20.4,59.7,20z M50.8,17.7c0,1.7,0.8,6.9,1,7.8c1.3,4.9,4.1,4.1,3.8,1.4
		c-0.1-1.4-1.6-6-1.8-8s-0.1-3.6-0.5-3.7C51.2,14.4,50.8,16,50.8,17.7z M47.8,25.8c1.2,2,2.4-0.2,2.2-3c-0.7-8.7-2.3-5.7-2.7-4.2
		C47.1,19.5,47,24.5,47.8,25.8z M48.6,48c-1.2,4,0.9,3.3,8.2,3.3c7.4,0,7.7-0.1,7.7-3.3c0-3.2-0.2-3.3-7.3-2.9
		C50.8,45.5,49,45.5,48.6,48z"/>
	<path id="path2388" d="M67.7-0.4c0.4,1.2,1,4,1.6,8.8C70.8,22.6,71,31.3,68,37.1c-1.3,3.4-2.6,6.8-2.6,9.7v6.1H45.4v-6.1
		c-0.1-2.8-1.1-8.3-2.2-12.1c-1.6-5.3-1.6-7.9-0.6-11.6c0.8-3,2.3-5.5,4-6.9c0.8-0.7,3.4-1.5,3.3-0.1c-0.1,1-0.6-0.4,0.2-1.2
		c1.6-1.6,3-1.1,3.7-0.3c0.2-0.4,0.4-0.8,1.2-1.6c0.8-0.7,2.4-0.2,2.5,0.5c0.1,0.8-1,0.7-0.1-2.2c0.4-1.3,2.8-1.9,3-0.9
		c1.4,2.4,2,3.5,2,3.5l-0.4-7.7c0-5.5-0.9-9.6,3.1-9.4C66.6-2.9,67.4-1.3,67.7-0.4z M62.9,5.4c-0.1,6.7,0.1,10,2.5,13.6
		c3.6,5.2,5.6,10.8,2.9-10.7c-0.7-5.8-1.4-10.1-3.3-10.2C62.5-2.1,62.5-0.5,62.9,5.4z M54.7,14.7c-0.5,0.5-0.6,2.2-1.2,0.7
		c-2.6-1.7-4.2,1.2-3.4,5.1c0,0,0.6,6.2,1.1,7c0.7,2.1-0.2,0.3-0.7,0.9c-0.1,1.7-1.2-3.9-1.3-5.3c-0.5-2.7-0.5-4.7-0.4-5.6
		c0.2-0.9-1.6-0.6-1.8,0.4c-0.9,2.4-1,6.1-0.1,9.4c0.5,1.7,3.4,0.9,4.2,0.2c0.4,1.2,1.1,2.7,2.2,3.1c5.8,1.9,0.8-6,0.2-9.4
		c-0.6-3.5-0.5-5.1-0.2-5.9c0.1-0.4,1-0.6,0.9-0.1c-0.1,0.5-0.4,2.1-0.1,3.2c0.4,2,0.4,3.4,1,5.3c1.2,3.7,0.1,0.6,1.6,4
		c1.3,2.3,0.9,1.6,1.8,2.6c4.5,1.4,1.1-5.2-0.3-8.7c-0.6-2.5-1.5-4.9-1.5-7.5C55.8,13.7,55,14,54.7,14.7z M59.5,21.2
		c1,2,1.3,4,2,5.6c0.5,2.8,0.5,3.3,0,4c-1.1,1.2-3.3,1-5-1.5c0-0.5,1,2.1-1.8,2.1c-0.9-0.1-0.9,0.2-2.6-0.8
		c-0.9-0.8-1.5-1.4-1.6-1.8c-0.7,0-0.9,0.2-1.7,0.2c-2.4,0-2.9-2.1-3.3-3.2c-0.3-1.1-0.6-5.4,0.4-7.7c1-2.3-2,2.6-2.6,5
		s-0.4,6.8,0.7,9.5c0.9,2.3,1.3,5.7,1.9,7.2c0.6,1.4,0.1,3.7,0.8,3.7c2,0,5.1,0.4,9.4,0.3l8.2-0.3l1.7-5.5c1.1-1.6,3.7-8.6,1.7-13.1
		c-1.1-1.9-2.7-3.7-3.6-5.7c-0.8-1.3-1.5-2.1-2.1-3.4c-0.7-1.6-1.1-2.5-2.4-4.6C57,10.6,58.1,19.2,59.5,21.2z M63.1,50.8
		c0-3,0-3.3,0-5.2c-5.3,0-12.2,0-15.8,0c0,2,0,3.5,0,5.2C52.2,50.8,58.1,50.7,63.1,50.8z"/>
</g>
</svg>
