<?xml version="1.0" encoding="UTF-8" ?>
<!DOCTYPE svg PUBLIC "-//W3C//DTD SVG 1.1//EN" "http://www.w3.org/Graphics/SVG/1.1/DTD/svg11.dtd">
<svg width="296pt" height="296pt" viewBox="0 0 296 296" version="1.1" xmlns="http://www.w3.org/2000/svg">
<path fill="#9e0202" stroke="#9e0202" stroke-width="0.09375" opacity="1.00" d=" M 113.48 10.33 C 127.05 5.03 141.83 7.59 156.00 6.94 C 164.43 6.39 172.66 8.44 180.66 10.86 C 190.67 15.71 198.30 23.92 206.14 31.56 C 211.26 37.24 217.01 42.53 220.57 49.39 C 226.05 59.33 227.34 70.89 227.40 82.06 C 227.05 88.61 236.49 90.33 236.01 96.91 C 236.09 104.61 235.94 112.31 236.05 120.01 C 236.36 127.55 232.61 134.39 231.67 141.76 C 230.77 148.08 228.46 154.05 225.77 159.79 C 222.22 164.92 220.47 170.92 220.56 177.16 C 226.59 180.39 231.91 184.70 237.76 188.20 C 245.38 191.82 253.60 194.03 261.23 197.64 C 272.40 203.02 284.59 205.67 296.00 210.45 L 296.00 242.37 C 282.57 235.46 268.01 231.19 253.87 226.03 C 246.02 222.92 238.48 219.06 230.42 216.50 C 223.60 214.33 218.00 209.77 212.07 205.94 C 205.40 201.69 199.84 196.02 193.99 190.77 C 193.14 189.67 192.30 188.56 191.46 187.45 C 193.25 176.62 195.26 165.81 196.00 154.82 C 197.42 150.01 200.56 145.99 202.44 141.38 C 205.42 134.28 205.98 126.50 208.17 119.17 C 209.14 115.29 210.83 111.45 210.59 107.39 C 208.63 103.22 203.94 106.45 201.22 107.92 C 201.30 105.63 201.39 103.34 201.47 101.05 C 202.33 87.22 200.97 72.55 193.50 60.54 C 186.34 49.60 176.50 39.87 163.99 35.39 C 161.77 34.63 159.50 34.03 157.21 33.60 C 148.06 31.52 138.55 32.45 129.56 34.81 C 124.80 36.07 120.28 38.18 116.31 41.09 C 103.24 50.64 93.10 65.19 90.76 81.41 C 89.94 89.51 90.37 97.67 90.55 105.79 C 87.69 104.55 84.72 103.58 81.82 102.45 C 81.31 106.94 81.20 111.49 81.78 115.99 C 82.75 123.23 82.24 130.84 85.31 137.64 C 87.61 142.64 89.44 148.92 95.18 150.95 C 97.24 161.03 96.82 171.55 100.28 181.35 C 99.82 182.38 99.31 183.40 98.79 184.40 C 98.57 184.81 98.14 185.61 97.92 186.02 C 96.47 188.24 94.87 190.37 93.12 192.38 C 88.26 197.78 83.05 202.91 77.03 207.03 C 71.87 210.94 67.15 215.64 60.99 218.00 C 49.70 222.86 38.84 228.64 27.56 233.49 C 18.41 236.81 8.81 238.91 0.00 243.15 L 0.00 211.96 C 13.64 209.16 25.71 201.93 38.37 196.43 C 45.10 192.91 52.54 190.42 58.34 185.34 C 61.95 182.27 66.12 179.82 69.31 176.29 C 71.36 174.22 71.05 170.98 70.45 168.39 C 68.30 164.72 64.27 162.44 62.66 158.40 C 60.67 153.52 58.65 148.59 57.68 143.40 C 55.76 127.06 54.68 110.61 55.47 94.17 C 56.08 88.63 62.27 86.42 64.63 81.83 C 65.38 76.28 64.41 70.57 65.88 65.09 C 68.42 51.80 76.71 40.49 86.24 31.24 C 94.39 23.24 102.20 13.87 113.48 10.33 Z" />
<path fill="#c3ad99" stroke="#c3ad99" stroke-width="0.09375" opacity="1.00" d=" M 129.56 34.81 C 138.55 32.45 148.06 31.52 157.21 33.60 C 152.69 33.72 146.53 33.16 144.10 37.93 C 142.16 41.33 139.48 45.09 140.57 49.22 C 142.62 60.25 146.44 70.90 148.12 82.02 C 148.81 85.89 149.12 90.14 151.74 93.30 C 154.23 96.15 156.24 99.39 157.05 103.13 C 158.02 107.59 160.68 111.33 163.71 114.64 C 162.28 115.51 160.85 116.39 159.43 117.28 C 161.87 118.50 164.33 119.69 166.79 120.88 C 165.28 121.70 163.76 122.53 162.26 123.37 C 164.24 124.88 166.23 126.38 168.21 127.89 C 167.07 129.48 165.94 131.08 164.82 132.68 C 171.49 131.20 177.96 128.04 184.95 128.87 L 185.81 129.32 C 186.10 129.47 186.70 129.78 186.99 129.93 C 182.10 129.52 177.19 130.55 172.92 132.95 C 170.66 134.02 168.46 135.21 166.18 136.22 C 162.21 136.37 157.53 137.52 154.09 134.93 C 151.63 132.05 152.48 127.89 151.83 124.40 C 151.70 121.22 148.81 119.27 146.90 117.08 C 148.27 116.44 149.64 115.80 151.01 115.16 C 148.02 108.57 146.49 101.39 142.92 95.06 C 140.21 90.44 140.39 84.94 138.99 79.90 C 137.85 75.79 137.18 71.56 136.09 67.43 C 134.78 62.80 129.70 60.45 128.45 55.79 C 127.45 52.06 126.58 48.30 125.77 44.52 C 124.83 40.81 127.83 37.78 129.56 34.81 Z" />
<path fill="#ebd3bf" stroke="#ebd3bf" stroke-width="0.09375" opacity="1.00" d=" M 144.10 37.93 C 146.53 33.16 152.69 33.72 157.21 33.60 C 159.50 34.03 161.77 34.63 163.99 35.39 C 161.18 37.19 157.67 38.88 156.78 42.41 C 155.45 46.96 154.32 51.64 154.04 56.38 C 153.91 58.26 156.26 58.69 157.37 59.76 C 155.46 64.05 153.25 68.78 154.70 73.57 C 156.29 78.61 158.52 83.43 159.81 88.57 C 161.37 94.57 166.39 98.89 168.00 104.85 C 169.08 108.97 169.31 113.24 169.72 117.46 C 171.59 118.40 173.44 119.39 175.27 120.41 C 173.21 121.17 171.15 121.91 169.07 122.64 C 174.97 122.84 180.08 125.84 184.95 128.87 C 177.96 128.04 171.49 131.20 164.82 132.68 C 165.94 131.08 167.07 129.48 168.21 127.89 C 166.23 126.38 164.24 124.88 162.26 123.37 C 163.76 122.53 165.28 121.70 166.79 120.88 C 164.33 119.69 161.87 118.50 159.43 117.28 C 160.85 116.39 162.28 115.51 163.71 114.64 C 160.68 111.33 158.02 107.59 157.05 103.13 C 156.24 99.39 154.23 96.15 151.74 93.30 C 149.12 90.14 148.81 85.89 148.12 82.02 C 146.44 70.90 142.62 60.25 140.57 49.22 C 139.48 45.09 142.16 41.33 144.10 37.93 Z" />
<path fill="#62574d" stroke="#62574d" stroke-width="0.09375" opacity="1.00" d=" M 116.31 41.09 C 120.28 38.18 124.80 36.07 129.56 34.81 C 127.83 37.78 124.83 40.81 125.77 44.52 C 126.58 48.30 127.45 52.06 128.45 55.79 C 129.70 60.45 134.78 62.80 136.09 67.43 C 137.18 71.56 137.85 75.79 138.99 79.90 C 140.39 84.94 140.21 90.44 142.92 95.06 C 146.49 101.39 148.02 108.57 151.01 115.16 C 149.64 115.80 148.27 116.44 146.90 117.08 C 148.81 119.27 151.70 121.22 151.83 124.40 C 152.48 127.89 151.63 132.05 154.09 134.93 C 157.53 137.52 162.21 136.37 166.18 136.22 C 161.57 138.65 156.39 139.57 151.22 139.70 C 151.21 141.13 151.19 142.56 151.19 144.00 C 156.30 148.12 162.97 147.76 169.13 147.50 C 171.84 143.31 176.04 140.48 181.19 140.77 C 180.35 142.22 179.52 143.68 178.70 145.14 C 178.32 144.38 177.55 142.86 177.16 142.11 C 176.18 142.77 175.20 143.43 174.22 144.10 C 174.89 144.75 176.22 146.05 176.89 146.70 C 171.70 149.55 165.55 149.36 160.27 151.97 C 156.07 149.85 152.17 147.24 148.33 144.53 C 146.42 149.46 146.31 154.74 146.56 159.95 C 146.87 166.64 144.25 173.68 147.08 180.09 C 148.56 182.94 151.97 181.19 154.02 180.06 C 154.49 179.80 155.43 179.28 155.90 179.02 C 156.53 178.89 157.80 178.64 158.43 178.51 C 154.10 181.86 150.86 186.39 150.92 192.08 C 156.85 192.83 162.95 192.91 168.62 194.99 C 163.21 196.66 157.51 196.38 151.93 195.99 C 154.66 195.35 157.42 194.89 160.19 194.44 C 154.06 194.00 147.91 193.42 141.97 191.80 C 144.16 190.62 146.42 189.60 148.76 188.76 C 149.12 187.13 149.46 185.51 149.80 183.89 C 147.74 183.27 145.67 182.65 143.61 182.04 C 143.11 173.30 145.00 164.69 145.03 155.97 C 144.96 150.10 147.19 144.50 147.06 138.62 C 142.16 139.00 137.09 138.64 132.70 136.21 C 132.23 134.75 131.77 133.28 131.31 131.82 C 132.78 130.79 134.27 129.76 135.75 128.74 C 134.65 127.32 133.56 125.88 132.48 124.45 C 135.57 123.81 138.67 123.18 141.83 122.99 C 140.39 121.35 137.99 119.99 137.96 117.56 C 137.76 115.58 137.85 113.56 137.31 111.62 C 134.53 102.33 132.09 92.74 132.24 82.96 C 132.32 79.33 130.74 75.99 129.38 72.72 C 127.67 68.71 126.61 64.40 124.32 60.65 C 122.11 56.73 118.80 53.33 117.80 48.82 C 117.28 46.25 116.81 43.66 116.31 41.09 Z" />
<path fill="#fcefd9" stroke="#fcefd9" stroke-width="0.09375" opacity="1.00" d=" M 156.78 42.41 C 157.67 38.88 161.18 37.19 163.99 35.39 C 176.50 39.87 186.34 49.60 193.50 60.54 C 200.97 72.55 202.33 87.22 201.47 101.05 C 199.48 103.57 196.79 106.13 196.79 109.59 C 196.59 113.60 196.63 117.63 196.12 121.63 C 194.97 121.20 193.81 120.78 192.65 120.36 C 190.82 123.67 188.54 126.70 185.81 129.32 L 184.95 128.87 C 180.08 125.84 174.97 122.84 169.07 122.64 C 171.15 121.91 173.21 121.17 175.27 120.41 C 173.44 119.39 171.59 118.40 169.72 117.46 C 169.31 113.24 169.08 108.97 168.00 104.85 C 166.39 98.89 161.37 94.57 159.81 88.57 C 158.52 83.43 156.29 78.61 154.70 73.57 C 153.25 68.78 155.46 64.05 157.37 59.76 C 156.26 58.69 153.91 58.26 154.04 56.38 C 154.32 51.64 155.45 46.96 156.78 42.41 Z" />
<path fill="#3b3a36" stroke="#3b3a36" stroke-width="0.09375" opacity="1.00" d=" M 90.76 81.41 C 93.10 65.19 103.24 50.64 116.31 41.09 C 116.81 43.66 117.28 46.25 117.80 48.82 C 118.80 53.33 122.11 56.73 124.32 60.65 C 126.61 64.40 127.67 68.71 129.38 72.72 C 130.74 75.99 132.32 79.33 132.24 82.96 C 132.09 92.74 134.53 102.33 137.31 111.62 C 137.85 113.56 137.76 115.58 137.96 117.56 C 137.99 119.99 140.39 121.35 141.83 122.99 C 138.67 123.18 135.57 123.81 132.48 124.45 C 133.56 125.88 134.65 127.32 135.75 128.74 C 134.27 129.76 132.78 130.79 131.31 131.82 C 131.77 133.28 132.23 134.75 132.70 136.21 C 132.11 135.93 130.92 135.35 130.33 135.07 C 128.81 127.86 130.45 119.85 135.46 114.33 C 132.73 109.19 130.09 103.83 129.56 97.95 C 129.18 93.63 128.02 89.45 126.51 85.41 C 124.58 80.51 126.73 75.18 125.29 70.19 C 123.97 63.92 118.30 60.16 113.84 56.15 C 111.65 54.40 107.97 51.56 105.56 54.47 C 101.39 58.91 97.59 64.00 95.99 69.97 C 94.46 75.48 92.05 81.09 93.04 86.93 C 93.82 91.69 93.54 96.64 94.90 101.29 C 97.38 105.05 102.95 106.01 104.42 110.54 C 106.11 116.28 105.99 122.34 106.76 128.24 L 106.84 129.14 C 105.70 129.92 104.55 130.71 103.41 131.50 C 102.49 128.03 101.61 124.54 100.82 121.03 C 99.60 121.18 98.39 121.32 97.18 121.47 C 97.25 130.46 96.52 139.75 99.56 148.39 C 101.52 154.12 102.93 160.01 104.27 165.91 C 102.89 166.59 101.50 167.27 100.11 167.95 C 100.53 172.40 100.95 176.90 100.28 181.35 C 96.82 171.55 97.24 161.03 95.18 150.95 C 94.26 147.32 92.48 144.01 90.56 140.83 C 92.48 135.02 90.36 128.97 90.66 123.05 C 90.86 117.30 90.94 111.54 90.55 105.79 C 90.37 97.67 89.94 89.51 90.76 81.41 Z" />
<path fill="#272b29" stroke="#272b29" stroke-width="0.09375" opacity="1.00" d=" M 105.56 54.47 C 107.97 51.56 111.65 54.40 113.84 56.15 C 118.30 60.16 123.97 63.92 125.29 70.19 C 126.73 75.18 124.58 80.51 126.51 85.41 C 128.02 89.45 129.18 93.63 129.56 97.95 C 130.09 103.83 132.73 109.19 135.46 114.33 C 130.45 119.85 128.81 127.86 130.33 135.07 C 124.89 132.36 118.96 130.28 114.70 125.74 C 117.56 124.38 120.62 123.50 123.76 123.10 C 124.47 118.66 126.94 114.57 126.94 110.03 C 124.87 97.02 124.89 82.98 117.04 71.74 C 115.37 69.68 111.55 69.74 110.24 72.21 C 105.97 78.90 102.87 87.02 104.75 95.03 C 107.01 105.94 108.61 117.14 106.76 128.24 C 105.99 122.34 106.11 116.28 104.42 110.54 C 102.95 106.01 97.38 105.05 94.90 101.29 C 93.54 96.64 93.82 91.69 93.04 86.93 C 92.05 81.09 94.46 75.48 95.99 69.97 C 97.59 64.00 101.39 58.91 105.56 54.47 Z" />
<path fill="#080807" stroke="#080807" stroke-width="0.09375" opacity="1.00" d=" M 110.24 72.21 C 111.55 69.74 115.37 69.68 117.04 71.74 C 124.89 82.98 124.87 97.02 126.94 110.03 C 126.94 114.57 124.47 118.66 123.76 123.10 C 120.62 123.50 117.56 124.38 114.70 125.74 C 118.96 130.28 124.89 132.36 130.33 135.07 C 130.92 135.35 132.11 135.93 132.70 136.21 C 137.09 138.64 142.16 139.00 147.06 138.62 C 147.19 144.50 144.96 150.10 145.03 155.97 C 145.00 164.69 143.11 173.30 143.61 182.04 C 145.67 182.65 147.74 183.27 149.80 183.89 C 149.46 185.51 149.12 187.13 148.76 188.76 C 146.42 189.60 144.16 190.62 141.97 191.80 C 147.91 193.42 154.06 194.00 160.19 194.44 C 157.42 194.89 154.66 195.35 151.93 195.99 C 150.08 196.45 148.26 197.01 146.44 197.56 C 148.86 199.48 151.30 201.38 153.73 203.29 C 149.20 205.38 144.65 207.41 140.21 209.70 C 144.31 215.80 152.14 218.38 154.90 225.48 C 155.39 226.26 155.89 227.02 156.42 227.78 C 160.06 232.35 162.60 237.61 165.47 242.66 C 165.24 243.44 164.79 244.99 164.56 245.77 C 163.98 245.75 162.81 245.73 162.23 245.71 C 161.52 244.20 160.82 242.68 160.12 241.17 C 157.88 242.69 155.60 244.17 153.30 245.59 C 154.84 239.82 155.99 233.56 153.34 227.91 C 152.66 227.74 151.30 227.41 150.62 227.24 C 147.74 231.43 144.45 235.34 140.46 238.53 C 137.61 240.44 138.30 244.59 139.62 247.24 C 141.86 249.74 144.92 251.39 147.10 253.97 C 147.17 254.53 147.30 255.66 147.37 256.22 C 146.06 256.58 144.76 256.93 143.45 257.28 C 143.60 255.65 143.73 254.03 143.86 252.41 C 143.24 252.36 142.00 252.26 141.37 252.22 C 140.79 254.71 140.18 257.20 139.67 259.72 C 137.23 268.22 138.73 277.89 133.35 285.42 C 133.18 284.74 132.83 283.37 132.66 282.69 C 133.59 273.06 136.35 263.67 136.85 254.00 C 137.25 249.72 135.20 245.86 133.18 242.26 C 130.26 245.48 126.57 247.80 122.49 249.25 C 123.44 247.71 124.33 246.15 125.23 244.59 C 126.34 242.63 127.40 240.65 128.43 238.65 C 129.57 236.41 130.67 234.16 131.81 231.93 C 133.01 229.58 134.25 227.26 135.50 224.94 C 130.64 222.54 126.03 219.63 121.98 216.02 C 116.27 210.97 108.92 207.99 103.93 202.10 C 100.13 197.72 96.74 192.05 97.92 186.02 C 98.14 185.61 98.57 184.81 98.79 184.40 C 99.42 186.43 100.03 188.46 100.62 190.50 C 102.41 190.94 104.20 191.39 106.00 191.83 C 104.27 186.05 102.85 180.18 101.83 174.22 C 102.35 173.92 103.37 173.32 103.88 173.02 C 105.94 175.13 108.01 177.22 110.15 179.26 C 109.49 175.34 108.49 171.51 107.42 167.69 C 105.80 161.96 106.36 155.75 103.75 150.28 C 101.95 146.44 101.70 142.18 101.70 138.01 C 103.78 137.34 105.86 136.65 107.95 135.97 C 107.54 133.70 107.12 131.42 106.84 129.14 L 106.76 128.24 C 108.61 117.14 107.01 105.94 104.75 95.03 C 102.87 87.02 105.97 78.90 110.24 72.21 Z" />
<path fill="#ebd3bf" stroke="#ebd3bf" stroke-width="0.09375" opacity="1.00" d=" M 196.79 109.59 C 196.79 106.13 199.48 103.57 201.47 101.05 C 201.39 103.34 201.30 105.63 201.22 107.92 C 203.94 106.45 208.63 103.22 210.59 107.39 C 210.83 111.45 209.14 115.29 208.17 119.17 C 205.98 126.50 205.42 134.28 202.44 141.38 C 200.56 145.99 197.42 150.01 196.00 154.82 C 193.11 159.88 188.45 163.50 184.05 167.16 C 180.08 161.29 174.19 157.30 168.38 153.47 C 175.23 150.18 180.58 144.70 187.08 140.86 C 189.71 139.13 191.05 136.13 192.63 133.53 C 191.81 132.95 191.00 132.36 190.17 131.79 C 189.14 131.12 188.09 130.47 186.99 129.93 C 186.70 129.78 186.10 129.47 185.81 129.32 C 188.54 126.70 190.82 123.67 192.65 120.36 C 193.81 120.78 194.97 121.20 196.12 121.63 C 196.63 117.63 196.59 113.60 196.79 109.59 Z" />
<path fill="#1e130e" stroke="#1e130e" stroke-width="0.09375" opacity="1.00" d=" M 81.82 102.45 C 84.72 103.58 87.69 104.55 90.55 105.79 C 90.94 111.54 90.86 117.30 90.66 123.05 C 90.36 128.97 92.48 135.02 90.56 140.83 C 92.48 144.01 94.26 147.32 95.18 150.95 C 89.44 148.92 87.61 142.64 85.31 137.64 C 82.24 130.84 82.75 123.23 81.78 115.99 C 81.20 111.49 81.31 106.94 81.82 102.45 Z" />
<path fill="#272b29" stroke="#272b29" stroke-width="0.09375" opacity="1.00" d=" M 97.18 121.47 C 98.39 121.32 99.60 121.18 100.82 121.03 C 101.61 124.54 102.49 128.03 103.41 131.50 C 104.55 130.71 105.70 129.92 106.84 129.14 C 107.12 131.42 107.54 133.70 107.95 135.97 C 105.86 136.65 103.78 137.34 101.70 138.01 C 101.70 142.18 101.95 146.44 103.75 150.28 C 106.36 155.75 105.80 161.96 107.42 167.69 C 108.49 171.51 109.49 175.34 110.15 179.26 C 108.01 177.22 105.94 175.13 103.88 173.02 C 103.37 173.32 102.35 173.92 101.83 174.22 C 102.85 180.18 104.27 186.05 106.00 191.83 C 104.20 191.39 102.41 190.94 100.62 190.50 C 100.03 188.46 99.42 186.43 98.79 184.40 C 99.31 183.40 99.82 182.38 100.28 181.35 C 100.95 176.90 100.53 172.40 100.11 167.95 C 101.50 167.27 102.89 166.59 104.27 165.91 C 102.93 160.01 101.52 154.12 99.56 148.39 C 96.52 139.75 97.25 130.46 97.18 121.47 Z" />
<path fill="#62574d" stroke="#62574d" stroke-width="0.09375" opacity="1.00" d=" M 172.92 132.95 C 177.19 130.55 182.10 129.52 186.99 129.93 C 188.09 130.47 189.14 131.12 190.17 131.79 C 188.82 135.21 187.28 139.03 183.60 140.49 C 184.34 137.43 185.09 134.37 185.83 131.30 C 181.52 131.80 177.19 132.18 172.92 132.95 Z" />
<path fill="#080807" stroke="#080807" stroke-width="0.09375" opacity="1.00" d=" M 172.92 132.95 C 177.19 132.18 181.52 131.80 185.83 131.30 C 185.09 134.37 184.34 137.43 183.60 140.49 C 183.00 140.56 181.79 140.70 181.19 140.77 C 176.04 140.48 171.84 143.31 169.13 147.50 C 162.97 147.76 156.30 148.12 151.19 144.00 C 151.19 142.56 151.21 141.13 151.22 139.70 C 156.39 139.57 161.57 138.65 166.18 136.22 C 168.46 135.21 170.66 134.02 172.92 132.95 Z" />
<path fill="#c3ad99" stroke="#c3ad99" stroke-width="0.09375" opacity="1.00" d=" M 190.17 131.79 C 191.00 132.36 191.81 132.95 192.63 133.53 C 191.05 136.13 189.71 139.13 187.08 140.86 C 180.58 144.70 175.23 150.18 168.38 153.47 C 174.19 157.30 180.08 161.29 184.05 167.16 C 188.45 163.50 193.11 159.88 196.00 154.82 C 195.26 165.81 193.25 176.62 191.46 187.45 C 191.08 191.97 190.25 196.68 187.32 200.30 C 182.95 206.48 175.51 209.12 170.03 214.08 C 165.25 218.38 160.36 222.65 156.42 227.78 C 155.89 227.02 155.39 226.26 154.90 225.48 C 157.28 223.40 159.74 221.39 162.23 219.43 C 159.57 218.62 156.69 218.21 154.34 216.64 C 152.26 214.61 151.43 211.68 150.17 209.13 C 154.02 208.65 157.97 207.66 160.27 204.25 C 157.14 201.89 154.07 199.32 151.93 195.99 C 157.51 196.38 163.21 196.66 168.62 194.99 C 162.95 192.91 156.85 192.83 150.92 192.08 C 150.86 186.39 154.10 181.86 158.43 178.51 C 157.80 178.64 156.53 178.89 155.90 179.02 C 157.22 177.97 158.50 176.87 159.78 175.78 C 159.38 172.34 158.98 168.89 158.69 165.43 C 169.15 168.95 171.29 180.71 176.21 189.15 C 178.01 182.92 178.27 176.31 178.23 169.88 C 175.10 166.45 170.39 165.09 166.95 162.01 C 163.98 159.42 161.32 156.36 157.69 154.66 C 153.92 152.93 151.48 149.47 148.88 146.40 C 147.73 153.66 148.40 161.04 147.66 168.33 C 147.23 172.16 147.86 175.99 148.98 179.65 C 150.65 179.79 152.33 179.93 154.02 180.06 C 151.97 181.19 148.56 182.94 147.08 180.09 C 144.25 173.68 146.87 166.64 146.56 159.95 C 146.31 154.74 146.42 149.46 148.33 144.53 C 152.17 147.24 156.07 149.85 160.27 151.97 C 165.55 149.36 171.70 149.55 176.89 146.70 C 176.22 146.05 174.89 144.75 174.22 144.10 C 175.20 143.43 176.18 142.77 177.16 142.11 C 177.55 142.86 178.32 144.38 178.70 145.14 C 179.52 143.68 180.35 142.22 181.19 140.77 C 181.79 140.70 183.00 140.56 183.60 140.49 C 187.28 139.03 188.82 135.21 190.17 131.79 Z" />
<path fill="#ebd3bf" stroke="#ebd3bf" stroke-width="0.09375" opacity="1.00" d=" M 148.88 146.40 C 151.48 149.47 153.92 152.93 157.69 154.66 C 161.32 156.36 163.98 159.42 166.95 162.01 C 170.39 165.09 175.10 166.45 178.23 169.88 C 178.27 176.31 178.01 182.92 176.21 189.15 C 171.29 180.71 169.15 168.95 158.69 165.43 C 158.98 168.89 159.38 172.34 159.78 175.78 C 158.50 176.87 157.22 177.97 155.90 179.02 C 155.43 179.28 154.49 179.80 154.02 180.06 C 152.33 179.93 150.65 179.79 148.98 179.65 C 147.86 175.99 147.23 172.16 147.66 168.33 C 148.40 161.04 147.73 153.66 148.88 146.40 Z" />
<path fill="#272b29" stroke="#272b29" stroke-width="0.09375" opacity="1.00" d=" M 93.12 192.38 C 94.87 190.37 96.47 188.24 97.92 186.02 C 96.74 192.05 100.13 197.72 103.93 202.10 C 108.92 207.99 116.27 210.97 121.98 216.02 C 126.03 219.63 130.64 222.54 135.50 224.94 C 134.25 227.26 133.01 229.58 131.81 231.93 C 126.99 227.35 121.88 222.64 115.44 220.54 C 108.40 218.47 100.91 220.33 94.54 223.57 C 92.49 213.29 93.44 202.78 93.12 192.38 Z" />
<path fill="#fbfcf9" stroke="#fbfcf9" stroke-width="0.09375" opacity="1.00" d=" M 187.32 200.30 C 190.25 196.68 191.08 191.97 191.46 187.45 C 192.30 188.56 193.14 189.67 193.99 190.77 C 199.38 202.38 197.94 215.79 195.92 228.03 C 195.73 232.63 197.18 237.18 196.56 241.79 C 195.77 247.66 193.28 253.15 192.70 259.06 C 191.85 268.13 190.95 277.19 190.07 286.26 C 190.05 284.32 189.94 282.40 189.85 280.48 C 189.06 283.02 188.30 285.57 187.53 288.13 C 186.36 281.90 186.20 275.52 184.83 269.33 C 183.77 264.50 180.49 260.64 177.08 257.24 C 172.60 252.90 168.70 247.99 165.47 242.66 C 162.60 237.61 160.06 232.35 156.42 227.78 C 160.36 222.65 165.25 218.38 170.03 214.08 C 175.51 209.12 182.95 206.48 187.32 200.30 Z" />
<path fill="#272b29" stroke="#272b29" stroke-width="0.09375" opacity="1.00" d=" M 193.99 190.77 C 199.84 196.02 205.40 201.69 212.07 205.94 C 218.00 209.77 223.60 214.33 230.42 216.50 C 238.48 219.06 246.02 222.92 253.87 226.03 C 268.01 231.19 282.57 235.46 296.00 242.37 L 296.00 296.00 L 188.37 296.00 C 189.16 292.79 189.77 289.54 190.07 286.26 C 190.95 277.19 191.85 268.13 192.70 259.06 C 193.28 253.15 195.77 247.66 196.56 241.79 C 197.18 237.18 195.73 232.63 195.92 228.03 C 197.94 215.79 199.38 202.38 193.99 190.77 Z" />
<path fill="#080807" stroke="#080807" stroke-width="0.09375" opacity="1.00" d=" M 77.03 207.03 C 83.05 202.91 88.26 197.78 93.12 192.38 C 93.44 202.78 92.49 213.29 94.54 223.57 C 98.48 233.36 97.83 243.95 98.70 254.26 C 98.88 257.60 99.30 260.93 99.82 264.24 C 100.06 265.90 100.38 267.55 100.67 269.21 C 102.25 278.19 103.79 287.22 106.31 296.00 L 0.00 296.00 L 0.00 243.15 C 8.81 238.91 18.41 236.81 27.56 233.49 C 38.84 228.64 49.70 222.86 60.99 218.00 C 67.15 215.64 71.87 210.94 77.03 207.03 Z" />
<path fill="#62574d" stroke="#62574d" stroke-width="0.09375" opacity="1.00" d=" M 146.44 197.56 C 148.26 197.01 150.08 196.45 151.93 195.99 C 154.07 199.32 157.14 201.89 160.27 204.25 C 157.97 207.66 154.02 208.65 150.17 209.13 C 151.43 211.68 152.26 214.61 154.34 216.64 C 156.69 218.21 159.57 218.62 162.23 219.43 C 159.74 221.39 157.28 223.40 154.90 225.48 C 152.14 218.38 144.31 215.80 140.21 209.70 C 144.65 207.41 149.20 205.38 153.73 203.29 C 151.30 201.38 148.86 199.48 146.44 197.56 Z" />
<path fill="#3b3a36" stroke="#3b3a36" stroke-width="0.09375" opacity="1.00" d=" M 94.54 223.57 C 100.91 220.33 108.40 218.47 115.44 220.54 C 121.88 222.64 126.99 227.35 131.81 231.93 C 130.67 234.16 129.57 236.41 128.43 238.65 C 124.87 236.62 121.27 234.04 117.01 233.96 C 111.93 234.29 107.45 236.99 102.89 239.00 C 103.27 241.54 103.65 244.08 104.04 246.63 C 102.47 246.40 100.91 246.17 99.35 245.94 C 99.10 248.71 98.82 251.48 98.70 254.26 C 97.83 243.95 98.48 233.36 94.54 223.57 Z" />
<path fill="#1e130e" stroke="#1e130e" stroke-width="0.09375" opacity="1.00" d=" M 140.46 238.53 C 144.45 235.34 147.74 231.43 150.62 227.24 C 151.30 227.41 152.66 227.74 153.34 227.91 C 147.38 234.06 147.53 243.19 145.54 251.01 C 147.61 249.85 149.66 248.65 151.67 247.40 C 151.80 248.37 151.93 249.35 152.05 250.33 C 151.96 250.72 151.79 251.50 151.70 251.88 C 151.45 252.80 151.19 253.71 150.92 254.62 C 149.54 253.69 148.17 252.76 146.80 251.85 C 146.87 252.38 147.02 253.44 147.10 253.97 C 144.92 251.39 141.86 249.74 139.62 247.24 C 138.30 244.59 137.61 240.44 140.46 238.53 Z" />
<path fill="#9e0202" stroke="#9e0202" stroke-width="0.09375" opacity="1.00" d=" M 145.54 251.01 C 147.53 243.19 147.38 234.06 153.34 227.91 C 155.99 233.56 154.84 239.82 153.30 245.59 C 153.21 245.94 153.03 246.64 152.94 246.99 C 152.71 247.83 152.27 249.50 152.05 250.33 C 151.93 249.35 151.80 248.37 151.67 247.40 C 149.66 248.65 147.61 249.85 145.54 251.01 Z" />
<path fill="#62574d" stroke="#62574d" stroke-width="0.09375" opacity="1.00" d=" M 102.89 239.00 C 107.45 236.99 111.93 234.29 117.01 233.96 C 121.27 234.04 124.87 236.62 128.43 238.65 C 127.40 240.65 126.34 242.63 125.23 244.59 C 119.91 246.57 114.59 248.52 109.16 250.17 C 110.18 252.82 111.33 255.43 112.39 258.07 C 111.32 259.68 110.30 261.33 109.31 263.00 C 106.98 259.16 104.26 255.56 100.95 252.52 C 100.26 256.39 99.69 260.30 99.82 264.24 C 99.30 260.93 98.88 257.60 98.70 254.26 C 98.82 251.48 99.10 248.71 99.35 245.94 C 100.91 246.17 102.47 246.40 104.04 246.63 C 103.65 244.08 103.27 241.54 102.89 239.00 Z" />
<path fill="#3b3a36" stroke="#3b3a36" stroke-width="0.09375" opacity="1.00" d=" M 153.30 245.59 C 155.60 244.17 157.88 242.69 160.12 241.17 C 160.82 242.68 161.52 244.20 162.23 245.71 C 162.81 245.73 163.98 245.75 164.56 245.77 C 164.79 244.99 165.24 243.44 165.47 242.66 C 168.70 247.99 172.60 252.90 177.08 257.24 C 177.49 259.29 177.62 261.38 177.76 263.47 C 173.17 261.72 168.68 259.40 165.45 255.58 C 162.08 251.69 158.08 248.20 152.94 246.99 C 153.03 246.64 153.21 245.94 153.30 245.59 Z" />
<path fill="#62574d" stroke="#62574d" stroke-width="0.09375" opacity="1.00" d=" M 122.49 249.25 C 126.57 247.80 130.26 245.48 133.18 242.26 C 135.20 245.86 137.25 249.72 136.85 254.00 C 136.35 263.67 133.59 273.06 132.66 282.69 C 131.94 287.12 131.18 291.54 130.61 296.00 L 127.54 296.00 C 127.72 293.38 127.93 290.76 128.12 288.14 C 129.08 279.63 129.61 271.07 131.17 262.64 C 132.04 256.62 126.37 252.45 121.64 250.04 C 121.85 249.84 122.28 249.44 122.49 249.25 Z" />
<path fill="#c3ad99" stroke="#c3ad99" stroke-width="0.09375" opacity="1.00" d=" M 109.16 250.17 C 114.59 248.52 119.91 246.57 125.23 244.59 C 124.33 246.15 123.44 247.71 122.49 249.25 C 122.28 249.44 121.85 249.84 121.64 250.04 C 126.37 252.45 132.04 256.62 131.17 262.64 C 129.61 271.07 129.08 279.63 128.12 288.14 C 128.29 281.21 127.41 274.27 128.22 267.36 C 128.55 263.16 129.00 257.76 125.07 255.03 C 121.39 253.70 117.37 254.74 113.60 255.13 C 113.74 256.69 113.87 258.25 114.00 259.82 C 112.42 261.30 110.88 262.83 109.34 264.36 C 106.82 263.02 104.14 262.06 101.58 260.82 C 101.23 263.61 100.85 266.40 100.67 269.21 C 100.38 267.55 100.06 265.90 99.82 264.24 C 99.69 260.30 100.26 256.39 100.95 252.52 C 104.26 255.56 106.98 259.16 109.31 263.00 C 110.30 261.33 111.32 259.68 112.39 258.07 C 111.33 255.43 110.18 252.82 109.16 250.17 Z" />
<path fill="#e8eae9" stroke="#e8eae9" stroke-width="0.09375" opacity="1.00" d=" M 152.94 246.99 C 158.08 248.20 162.08 251.69 165.45 255.58 C 168.68 259.40 173.17 261.72 177.76 263.47 C 177.62 261.38 177.49 259.29 177.08 257.24 C 180.49 260.64 183.77 264.50 184.83 269.33 C 186.20 275.52 186.36 281.90 187.53 288.13 C 188.30 285.57 189.06 283.02 189.85 280.48 C 189.94 282.40 190.05 284.32 190.07 286.26 C 189.77 289.54 189.16 292.79 188.37 296.00 L 161.36 296.00 C 160.72 286.57 161.09 276.98 158.63 267.76 C 157.31 267.57 155.99 267.37 154.67 267.17 C 153.35 262.15 152.19 257.06 151.70 251.88 C 151.79 251.50 151.96 250.72 152.05 250.33 C 152.27 249.50 152.71 247.83 152.94 246.99 Z" />
<path fill="#9e0202" stroke="#9e0202" stroke-width="0.09375" opacity="1.00" d=" M 141.37 252.22 C 142.00 252.26 143.24 252.36 143.86 252.41 C 143.73 254.03 143.60 255.65 143.45 257.28 C 142.71 261.96 142.55 266.71 143.51 271.37 C 144.73 271.50 145.96 271.64 147.18 271.77 C 147.55 266.60 147.81 261.39 147.37 256.22 C 147.30 255.66 147.17 254.53 147.10 253.97 C 147.02 253.44 146.87 252.38 146.80 251.85 C 148.17 252.76 149.54 253.69 150.92 254.62 C 151.19 253.71 151.45 252.80 151.70 251.88 C 152.19 257.06 153.35 262.15 154.67 267.17 C 157.37 276.58 159.53 286.18 159.87 296.00 L 143.26 296.00 C 142.52 289.45 144.50 282.68 142.22 276.31 C 140.39 270.98 138.86 265.40 139.67 259.72 C 140.18 257.20 140.79 254.71 141.37 252.22 Z" />
<path fill="#d4d6d5" stroke="#d4d6d5" stroke-width="0.09375" opacity="1.00" d=" M 113.60 255.13 C 117.37 254.74 121.39 253.70 125.07 255.03 C 129.00 257.76 128.55 263.16 128.22 267.36 C 127.41 274.27 128.29 281.21 128.12 288.14 C 127.93 290.76 127.72 293.38 127.54 296.00 L 106.31 296.00 C 103.79 287.22 102.25 278.19 100.67 269.21 C 100.85 266.40 101.23 263.61 101.58 260.82 C 104.14 262.06 106.82 263.02 109.34 264.36 C 110.88 262.83 112.42 261.30 114.00 259.82 C 113.87 258.25 113.74 256.69 113.60 255.13 Z" />
<path fill="#1e130e" stroke="#1e130e" stroke-width="0.09375" opacity="1.00" d=" M 147.37 256.22 C 147.81 261.39 147.55 266.60 147.18 271.77 C 145.96 271.64 144.73 271.50 143.51 271.37 C 142.55 266.71 142.71 261.96 143.45 257.28 C 144.76 256.93 146.06 256.58 147.37 256.22 Z" />
<path fill="#1e130e" stroke="#1e130e" stroke-width="0.09375" opacity="1.00" d=" M 133.35 285.42 C 138.73 277.89 137.23 268.22 139.67 259.72 C 138.86 265.40 140.39 270.98 142.22 276.31 C 144.50 282.68 142.52 289.45 143.26 296.00 L 130.61 296.00 C 131.18 291.54 131.94 287.12 132.66 282.69 C 132.83 283.37 133.18 284.74 133.35 285.42 Z" />
<path fill="#c3ad99" stroke="#c3ad99" stroke-width="0.09375" opacity="1.00" d=" M 154.67 267.17 C 155.99 267.37 157.31 267.57 158.63 267.76 C 161.09 276.98 160.72 286.57 161.36 296.00 L 159.87 296.00 C 159.53 286.18 157.37 276.58 154.67 267.17 Z" />
</svg>
