<?xml version="1.0" encoding="UTF-8" ?>
<!DOCTYPE svg PUBLIC "-//W3C//DTD SVG 1.1//EN" "http://www.w3.org/Graphics/SVG/1.1/DTD/svg11.dtd">
<svg width="217pt" height="279pt" viewBox="0 0 217 279" version="1.1" xmlns="http://www.w3.org/2000/svg">
<path fill="#1e1b1c" opacity="1.00" d=" M 126.37 0.00 L 130.03 0.00 C 132.09 1.73 133.74 3.95 134.53 6.55 C 136.79 13.41 137.46 20.66 137.82 27.84 C 156.07 22.67 174.68 18.57 193.57 16.66 C 193.56 17.91 193.55 19.15 193.54 20.40 C 187.39 20.78 181.27 21.59 175.27 23.01 C 186.79 24.34 198.67 25.04 209.49 29.59 C 209.20 30.22 208.60 31.49 208.30 32.13 C 202.44 31.53 196.58 32.17 190.73 32.39 C 192.68 34.17 194.50 36.10 196.08 38.23 C 194.14 40.05 191.70 41.09 189.20 41.88 C 188.75 49.51 189.32 57.69 193.85 64.15 C 197.19 69.51 203.47 71.80 207.50 76.50 C 212.69 82.17 214.92 90.47 212.76 97.92 C 210.77 105.66 205.16 111.65 199.58 117.06 C 205.48 117.36 212.42 116.56 217.00 121.12 L 217.00 122.02 C 214.21 128.89 206.03 130.53 200.05 133.61 C 202.06 135.83 204.66 137.89 205.22 141.00 C 205.07 144.49 201.32 145.83 199.31 148.14 C 201.57 160.99 204.78 174.87 199.49 187.43 C 197.47 192.71 192.70 196.17 187.53 197.99 C 184.64 209.54 177.35 219.98 166.98 225.98 C 164.72 227.67 161.08 228.40 160.64 231.64 C 158.75 238.99 155.85 246.95 149.06 251.11 C 145.16 253.70 140.34 253.69 135.86 253.23 C 135.03 259.65 135.08 266.45 132.41 272.43 C 125.85 281.41 110.26 280.44 104.34 271.11 C 99.91 276.16 92.49 278.79 86.10 276.01 C 81.42 274.23 79.42 269.11 78.69 264.53 C 77.45 254.96 78.85 245.16 82.04 236.09 C 83.56 232.01 85.64 227.80 89.44 225.41 C 92.11 223.62 95.48 224.23 98.50 224.20 C 99.29 221.11 100.80 217.81 99.24 214.70 C 97.15 209.46 96.77 203.78 96.77 198.20 C 94.17 199.90 91.27 201.97 87.98 201.21 C 84.47 200.33 81.36 198.38 77.94 197.24 C 81.14 200.39 85.16 202.54 88.32 205.74 C 89.60 207.03 90.94 208.97 89.44 210.65 C 85.53 211.46 81.89 209.42 78.35 208.09 C 77.89 209.30 77.42 210.52 76.96 211.74 C 69.77 210.58 63.67 206.29 57.81 202.24 C 55.18 200.19 50.53 197.60 53.49 193.83 C 50.21 191.36 46.53 188.75 45.75 184.42 C 50.86 183.40 55.59 185.81 60.07 187.88 C 57.45 185.76 53.51 183.95 53.49 180.02 C 53.30 173.66 55.87 167.50 59.20 162.19 C 65.45 152.68 72.29 143.39 80.90 135.87 C 87.35 130.30 96.12 125.08 104.90 127.88 C 110.01 129.39 111.96 134.67 114.45 138.80 C 114.70 135.86 113.99 132.98 113.50 130.10 C 109.82 128.88 106.08 127.47 103.15 124.85 C 98.64 121.09 96.51 115.46 93.37 110.66 C 84.52 94.41 81.29 75.94 77.62 58.02 C 77.13 55.12 73.70 54.49 71.63 53.00 C 69.04 56.86 66.86 61.85 62.06 63.34 C 58.54 64.04 56.77 59.96 57.11 57.05 C 56.56 52.84 59.68 48.50 57.36 44.53 C 54.97 48.36 53.24 52.82 49.61 55.72 C 47.79 57.37 44.19 57.38 43.19 54.79 C 40.97 49.60 42.86 43.79 44.23 38.61 C 42.14 37.54 40.05 36.49 37.95 35.43 C 36.00 35.90 34.01 36.86 31.98 36.38 C 30.29 35.37 29.37 33.55 28.24 32.02 C 29.49 29.82 30.84 26.52 34.01 27.10 C 37.49 26.82 38.26 30.68 39.01 33.24 C 41.05 34.16 43.10 35.07 45.15 35.99 C 47.21 31.98 49.14 27.52 53.06 24.97 C 54.87 23.76 57.73 24.19 58.63 26.34 C 61.61 31.85 56.41 38.27 59.71 43.58 C 62.49 39.18 64.43 33.82 69.00 30.89 C 71.13 29.51 74.40 30.18 75.17 32.80 C 76.72 37.90 74.96 43.24 73.61 48.18 C 75.45 48.97 77.30 49.76 79.15 50.54 C 86.92 44.68 95.79 40.52 104.89 37.18 C 107.96 28.52 111.47 20.00 116.05 12.02 C 118.71 7.45 121.33 2.35 126.37 0.00 M 121.29 9.34 C 116.23 18.01 111.69 27.01 108.28 36.47 C 116.97 33.70 125.65 30.85 134.54 28.78 C 134.30 21.81 133.87 14.76 131.95 8.03 C 131.25 5.97 130.45 3.28 127.96 2.87 C 124.75 3.69 122.93 6.72 121.29 9.34 M 155.82 26.79 C 139.43 30.61 123.02 34.49 107.00 39.66 C 104.23 48.08 100.04 55.92 96.73 64.11 C 102.89 65.41 109.02 63.41 115.04 62.28 C 125.77 59.81 136.56 57.53 147.09 54.30 C 154.16 51.87 161.80 49.29 166.68 43.27 C 156.39 43.05 146.14 47.52 135.93 44.95 C 139.84 42.43 144.68 42.75 149.07 41.77 C 163.44 39.69 177.96 36.71 192.53 38.22 C 192.19 37.64 191.52 36.46 191.18 35.88 C 183.74 33.52 175.88 35.17 168.25 34.63 C 169.96 33.47 171.70 32.24 173.77 31.83 C 181.06 30.31 188.48 29.53 195.89 28.95 C 187.71 27.32 179.34 26.91 171.03 26.43 C 165.97 26.33 160.81 25.58 155.82 26.79 M 48.27 37.31 C 50.48 38.33 52.71 39.32 54.98 40.20 C 55.69 35.86 56.94 31.38 55.47 27.05 C 52.20 29.78 50.05 33.50 48.27 37.31 M 31.78 29.79 C 31.67 30.62 31.43 32.28 31.32 33.10 C 32.05 33.51 33.50 34.32 34.23 34.73 C 35.08 33.91 35.91 33.08 36.74 32.23 C 36.33 31.50 35.51 30.05 35.10 29.32 C 34.27 29.44 32.61 29.68 31.78 29.79 M 63.39 44.05 C 65.79 45.01 68.19 45.98 70.61 46.90 C 72.01 42.42 73.59 37.46 71.52 32.92 C 67.69 35.70 65.32 39.84 63.39 44.05 M 46.58 54.22 C 49.70 51.26 51.87 47.51 53.72 43.68 C 51.60 42.49 49.46 41.34 47.30 40.23 C 46.04 44.74 44.59 49.68 46.58 54.22 M 170.50 42.25 C 167.35 49.87 158.95 52.86 151.90 55.73 C 135.86 61.26 119.12 64.51 102.48 67.66 C 113.71 78.12 126.07 88.99 130.81 104.10 C 127.84 105.79 124.46 107.03 121.00 106.22 C 115.68 105.66 110.16 101.84 104.97 104.87 C 100.53 106.69 98.15 112.38 100.38 116.72 C 102.68 121.23 106.92 124.68 111.64 126.43 C 114.11 127.16 117.35 127.36 119.07 125.06 C 121.78 122.04 121.21 117.67 121.99 113.96 C 124.59 115.99 123.74 119.38 123.77 122.21 C 138.92 131.05 157.58 130.64 174.01 125.99 C 180.80 123.99 187.82 121.92 193.45 117.45 C 201.29 111.76 208.80 104.02 210.23 94.03 C 211.38 85.40 205.64 77.61 198.61 73.27 C 188.16 66.49 184.50 52.91 186.28 41.11 C 181.00 41.23 175.72 41.49 170.50 42.25 M 83.98 50.91 C 82.49 52.20 80.48 53.70 80.78 55.93 C 81.55 63.28 83.32 70.49 84.83 77.71 C 92.37 66.37 98.17 53.91 103.30 41.32 C 96.49 43.67 89.76 46.57 83.98 50.91 M 61.85 48.05 C 60.83 52.16 60.01 56.39 60.76 60.62 C 64.32 58.52 66.62 55.02 68.51 51.44 C 66.30 50.29 64.08 49.16 61.85 48.05 M 95.10 66.91 C 92.41 70.70 90.21 74.80 87.74 78.73 C 87.04 80.00 85.94 81.34 86.43 82.90 C 88.64 92.49 91.79 102.01 96.93 110.46 C 98.42 106.23 101.74 103.15 105.76 101.33 C 103.55 100.34 101.37 99.25 99.47 97.74 C 108.16 97.28 115.52 103.41 124.19 103.67 C 115.97 99.46 107.31 95.07 101.40 87.77 C 110.18 90.84 117.74 96.55 126.10 100.54 C 121.34 90.97 113.91 83.07 106.31 75.69 C 102.77 72.54 99.55 68.82 95.10 66.91 M 185.60 125.45 C 174.01 130.05 161.46 132.29 148.99 131.70 C 140.19 131.65 131.31 129.80 123.63 125.38 C 121.50 127.26 119.34 129.09 117.14 130.88 C 118.02 133.12 119.37 135.48 122.01 135.79 C 147.38 141.44 174.61 140.44 198.92 130.85 C 203.78 128.85 208.69 126.76 212.79 123.42 C 212.64 122.73 212.33 121.35 212.17 120.66 C 208.29 119.28 204.11 119.04 200.04 119.56 C 194.82 120.39 190.44 123.55 185.60 125.45 M 97.44 130.63 C 87.14 133.62 79.60 141.88 72.57 149.53 C 66.19 157.54 58.85 165.61 56.76 175.98 C 56.51 178.02 55.83 180.76 57.70 182.25 C 60.98 184.82 64.90 186.36 68.44 188.52 C 66.37 191.02 63.39 192.45 60.68 194.13 C 65.27 197.35 70.23 199.99 75.31 202.34 C 75.52 199.21 75.65 196.04 76.72 193.06 C 80.73 194.14 84.11 196.66 87.94 198.18 C 90.88 198.83 93.94 196.89 95.29 194.32 C 97.20 190.16 97.57 185.52 97.63 181.01 C 97.50 178.24 100.00 176.72 102.22 175.81 C 101.63 173.69 100.72 171.15 102.13 169.15 C 103.53 166.90 106.16 166.04 108.54 165.25 C 108.37 156.16 112.35 147.07 109.85 138.07 C 108.56 132.72 102.84 129.00 97.44 130.63 M 194.17 135.45 C 193.55 139.18 193.43 142.96 193.31 146.72 C 196.44 145.44 199.40 143.76 201.99 141.57 C 201.01 138.93 198.85 137.08 196.69 135.39 C 196.06 135.41 194.80 135.44 194.17 135.45 M 185.86 138.33 C 185.60 144.55 185.81 150.78 185.95 157.01 C 185.94 160.61 186.13 164.63 183.72 167.60 C 179.55 172.92 172.07 174.49 165.68 173.44 C 162.68 172.94 161.17 169.86 161.18 167.08 C 160.77 158.84 162.10 150.64 162.66 142.44 C 159.61 142.59 156.56 142.72 153.51 142.84 C 152.02 151.69 153.87 161.41 149.68 169.61 C 145.86 176.09 137.48 175.43 131.32 173.28 C 129.84 175.90 128.40 178.54 127.02 181.22 C 143.69 193.64 166.02 194.94 185.75 190.66 C 188.25 172.79 189.38 154.75 190.54 136.75 C 188.98 137.27 187.42 137.80 185.86 138.33 M 115.50 141.77 C 125.40 145.98 132.88 154.07 138.69 162.89 C 142.65 158.18 142.93 151.93 143.95 146.15 C 144.93 147.19 146.07 148.27 146.16 149.80 C 146.82 156.47 144.03 163.34 138.65 167.42 C 137.53 166.73 136.43 166.01 135.33 165.28 C 134.70 166.84 134.07 168.40 133.47 169.97 C 137.04 170.76 140.99 172.28 144.48 170.38 C 148.19 168.40 148.87 163.80 149.21 160.02 C 149.51 154.29 149.96 148.58 150.34 142.87 C 139.47 142.70 128.77 140.55 118.16 138.37 C 117.26 139.50 116.38 140.63 115.50 141.77 M 165.63 142.59 C 164.89 151.52 163.72 160.52 164.47 169.49 C 170.58 171.91 179.98 170.58 182.54 163.68 C 183.71 155.62 182.93 147.42 183.15 139.30 C 177.33 140.49 171.52 141.80 165.63 142.59 M 114.51 144.65 C 112.06 152.49 111.82 160.90 112.78 169.01 C 113.00 171.44 114.09 174.17 112.15 176.25 C 110.91 174.02 110.26 171.41 108.58 169.45 C 106.41 168.09 103.36 170.49 104.29 172.94 C 105.17 175.96 107.97 177.87 109.80 180.30 C 106.90 182.77 104.19 178.58 100.96 179.11 C 100.70 180.47 100.46 181.84 100.23 183.22 C 101.50 183.80 102.77 184.39 104.05 184.96 C 105.00 186.74 105.96 188.51 106.95 190.26 C 112.34 192.07 118.10 189.74 121.08 185.00 C 125.73 177.49 129.88 169.66 133.97 161.83 C 129.20 154.50 122.54 148.25 114.51 144.65 M 192.70 149.95 C 191.21 164.67 190.47 179.46 188.37 194.11 C 193.37 192.47 196.83 188.02 197.95 182.99 C 200.54 171.81 198.24 160.27 196.02 149.24 C 194.91 149.47 193.80 149.71 192.70 149.95 M 125.36 183.89 C 123.05 187.69 120.08 191.06 116.33 193.50 C 126.99 203.90 141.68 209.46 156.35 210.80 C 157.66 205.85 158.44 200.79 159.09 195.72 C 147.21 194.01 135.36 190.77 125.36 183.89 M 100.86 186.87 C 100.19 194.19 99.48 201.67 100.91 208.94 C 101.50 212.66 104.47 216.18 103.04 220.04 C 101.90 223.98 100.87 227.96 100.31 232.03 C 99.62 232.17 98.24 232.44 97.54 232.58 C 97.46 231.08 97.37 229.59 97.28 228.11 C 92.90 231.46 89.47 236.11 88.46 241.63 C 86.93 249.02 85.86 257.09 88.75 264.28 C 90.98 270.11 101.22 270.77 103.36 264.57 C 104.55 260.35 105.02 255.97 105.80 251.67 C 104.84 251.14 103.88 250.63 102.92 250.11 C 103.25 249.58 103.91 248.53 104.24 248.01 C 108.94 251.00 115.14 251.20 119.67 247.76 C 126.47 242.11 127.24 232.10 133.98 226.40 C 133.41 231.32 130.38 235.38 128.99 240.01 C 130.07 246.64 137.28 252.17 144.02 249.84 C 152.17 247.29 155.55 238.40 157.58 230.88 C 151.61 233.02 145.29 235.65 138.87 233.75 C 143.58 231.89 148.64 231.24 153.39 229.49 C 161.66 226.49 169.56 221.83 175.15 214.91 C 154.11 215.15 131.45 211.26 115.39 196.62 C 112.81 193.72 108.64 194.27 105.41 192.66 C 103.50 191.08 102.30 188.84 100.86 186.87 M 52.77 188.14 C 54.72 189.95 56.75 192.08 59.65 192.08 C 57.59 190.40 55.19 189.21 52.77 188.14 M 161.93 195.72 C 161.11 200.89 160.18 206.05 159.67 211.26 C 165.67 211.69 171.95 213.09 177.85 211.75 C 182.44 207.11 184.12 200.21 184.89 193.87 C 177.33 195.36 169.63 195.95 161.93 195.72 M 55.60 196.11 C 57.60 198.94 60.70 200.63 63.61 202.38 C 67.48 204.62 71.18 207.28 75.51 208.59 C 75.37 207.98 75.09 206.78 74.95 206.18 C 71.54 204.13 67.75 202.78 64.39 200.62 C 61.50 199.05 58.98 196.56 55.60 196.11 M 82.48 246.34 C 81.36 254.17 80.34 262.76 83.82 270.15 C 87.10 275.59 94.58 274.53 99.45 272.07 C 94.96 271.52 89.34 271.55 86.83 267.00 C 82.42 259.21 83.64 249.63 85.32 241.22 C 86.23 235.74 89.73 231.34 92.83 226.93 C 85.74 230.68 83.96 239.16 82.48 246.34 M 108.13 253.28 C 107.87 255.61 107.25 257.96 107.57 260.32 C 109.50 265.31 114.77 268.50 120.03 268.67 C 123.91 268.88 128.98 268.82 131.13 264.94 C 132.54 260.55 132.40 255.82 132.75 251.26 C 130.54 249.00 128.51 246.57 126.69 243.98 C 123.21 250.86 115.53 253.82 108.13 253.28 M 106.08 264.88 C 107.06 268.16 108.19 271.85 111.40 273.64 C 117.20 277.31 124.85 275.63 129.69 271.15 C 125.16 271.50 120.48 272.34 116.02 271.07 C 112.15 270.06 109.20 267.20 106.08 264.88 Z" />
<path fill="#008539" opacity="1.00" d=" M 121.29 9.34 C 122.93 6.72 124.75 3.69 127.96 2.87 C 130.45 3.28 131.25 5.97 131.95 8.03 C 133.87 14.76 134.30 21.81 134.54 28.78 C 125.65 30.85 116.97 33.70 108.28 36.47 C 111.69 27.01 116.23 18.01 121.29 9.34 Z" />
<path fill="#fee55b" opacity="1.00" d=" M 155.82 26.79 C 160.81 25.58 165.97 26.33 171.03 26.43 C 179.34 26.91 187.71 27.32 195.89 28.95 C 188.48 29.53 181.06 30.31 173.77 31.83 C 171.70 32.24 169.96 33.47 168.25 34.63 C 175.88 35.17 183.74 33.52 191.18 35.88 C 191.52 36.46 192.19 37.64 192.53 38.22 C 177.96 36.71 163.44 39.69 149.07 41.77 C 144.68 42.75 139.84 42.43 135.93 44.95 C 146.14 47.52 156.39 43.05 166.68 43.27 C 161.80 49.29 154.16 51.87 147.09 54.30 C 136.56 57.53 125.77 59.81 115.04 62.28 C 109.02 63.41 102.89 65.41 96.73 64.11 C 100.04 55.92 104.23 48.08 107.00 39.66 C 123.02 34.49 139.43 30.61 155.82 26.79 Z" />
<path fill="#dddedf" opacity="1.00" d=" M 31.78 29.79 C 32.61 29.68 34.27 29.44 35.10 29.32 C 35.51 30.05 36.33 31.50 36.74 32.23 C 35.91 33.08 35.08 33.91 34.23 34.73 C 33.50 34.32 32.05 33.51 31.32 33.10 C 31.43 32.28 31.67 30.62 31.78 29.79 Z" />
<path fill="#fed6b0" opacity="1.00" d=" M 170.50 42.25 C 175.72 41.49 181.00 41.23 186.28 41.11 C 184.50 52.91 188.16 66.49 198.61 73.27 C 205.64 77.61 211.38 85.40 210.23 94.03 C 208.80 104.02 201.29 111.76 193.45 117.45 C 187.82 121.92 180.80 123.99 174.01 125.99 C 157.58 130.64 138.92 131.05 123.77 122.21 C 123.74 119.38 124.59 115.99 121.99 113.96 C 121.21 117.67 121.78 122.04 119.07 125.06 C 117.35 127.36 114.11 127.16 111.64 126.43 C 106.92 124.68 102.68 121.23 100.38 116.72 C 98.15 112.38 100.53 106.69 104.97 104.87 C 110.16 101.84 115.68 105.66 121.00 106.22 C 124.46 107.03 127.84 105.79 130.81 104.10 C 126.07 88.99 113.71 78.12 102.48 67.66 C 119.12 64.51 135.86 61.26 151.90 55.73 C 158.95 52.86 167.35 49.87 170.50 42.25 M 170.39 52.91 C 174.40 52.16 178.44 52.40 182.49 52.45 C 179.59 48.45 172.68 48.18 170.39 52.91 M 139.58 73.43 C 142.87 70.66 145.51 67.16 147.41 63.30 C 141.57 61.83 140.17 69.25 139.58 73.43 M 177.19 67.99 C 176.70 71.19 179.05 73.76 181.99 74.60 C 187.32 73.53 186.77 66.36 183.19 63.62 C 180.23 62.25 176.75 64.74 177.19 67.99 M 151.42 75.55 C 144.55 77.90 151.23 88.72 156.66 84.71 C 161.79 81.63 156.69 73.00 151.42 75.55 M 172.26 78.35 C 168.19 80.08 165.90 84.67 166.79 89.00 C 170.68 87.00 170.22 80.88 175.00 79.94 C 178.25 78.50 180.71 81.18 182.92 83.10 C 183.15 77.51 176.21 76.39 172.26 78.35 M 191.03 91.20 C 187.43 96.79 182.71 102.26 176.13 104.25 C 169.45 105.69 162.43 104.55 156.18 101.95 C 157.10 100.80 158.00 99.64 158.90 98.47 C 154.29 97.55 148.48 102.67 151.84 107.20 C 152.42 105.77 152.99 104.33 153.54 102.89 C 160.59 106.09 168.52 107.61 176.20 106.22 C 183.66 104.56 189.27 98.45 192.93 92.05 C 192.45 91.84 191.50 91.41 191.03 91.20 M 181.06 113.00 C 181.59 113.30 182.64 113.90 183.17 114.20 C 185.50 111.72 187.41 108.81 188.27 105.49 C 185.61 107.73 183.31 110.36 181.06 113.00 Z" />
<path fill="#008539" opacity="1.00" d=" M 83.98 50.91 C 89.76 46.57 96.49 43.67 103.30 41.32 C 98.17 53.91 92.37 66.37 84.83 77.71 C 83.32 70.49 81.55 63.28 80.78 55.93 C 80.48 53.70 82.49 52.20 83.98 50.91 Z" />
<path fill="#1e1b1c" opacity="1.00" d=" M 170.39 52.91 C 172.68 48.18 179.59 48.45 182.49 52.45 C 178.44 52.40 174.40 52.16 170.39 52.91 Z" />
<path fill="#1e1b1c" opacity="1.00" d=" M 139.58 73.43 C 140.17 69.25 141.57 61.83 147.41 63.30 C 145.51 67.16 142.87 70.66 139.58 73.43 Z" />
<path fill="#1e1b1c" opacity="1.00" d=" M 177.19 67.99 C 176.75 64.74 180.23 62.25 183.19 63.62 C 186.77 66.36 187.32 73.53 181.99 74.60 C 179.05 73.76 176.70 71.19 177.19 67.99 Z" />
<path fill="#fee55b" opacity="1.00" d=" M 95.10 66.91 C 99.55 68.82 102.77 72.54 106.31 75.69 C 113.91 83.07 121.34 90.97 126.10 100.54 C 117.74 96.55 110.18 90.84 101.40 87.77 C 107.31 95.07 115.97 99.46 124.19 103.67 C 115.52 103.41 108.16 97.28 99.47 97.74 C 101.37 99.25 103.55 100.34 105.76 101.33 C 101.74 103.15 98.42 106.23 96.93 110.46 C 91.79 102.01 88.64 92.49 86.43 82.90 C 85.94 81.34 87.04 80.00 87.74 78.73 C 90.21 74.80 92.41 70.70 95.10 66.91 Z" />
<path fill="#1e1b1c" opacity="1.00" d=" M 151.42 75.55 C 156.69 73.00 161.79 81.63 156.66 84.71 C 151.23 88.72 144.55 77.90 151.42 75.55 Z" />
<path fill="#1e1b1c" opacity="1.00" d=" M 172.26 78.35 C 176.21 76.39 183.15 77.51 182.92 83.10 C 180.71 81.18 178.25 78.50 175.00 79.94 C 170.22 80.88 170.68 87.00 166.79 89.00 C 165.90 84.67 168.19 80.08 172.26 78.35 Z" />
<path fill="#1e1b1c" opacity="1.00" d=" M 191.03 91.20 C 191.50 91.41 192.45 91.84 192.93 92.05 C 189.27 98.45 183.66 104.56 176.20 106.22 C 168.52 107.61 160.59 106.09 153.54 102.89 C 152.99 104.33 152.42 105.77 151.84 107.20 C 148.48 102.67 154.29 97.55 158.90 98.47 C 158.00 99.64 157.10 100.80 156.18 101.95 C 162.43 104.55 169.45 105.69 176.13 104.25 C 182.71 102.26 187.43 96.79 191.03 91.20 Z" />
<path fill="#1e1b1c" opacity="1.00" d=" M 181.06 113.00 C 183.31 110.36 185.61 107.73 188.27 105.49 C 187.41 108.81 185.50 111.72 183.17 114.20 C 182.64 113.90 181.59 113.30 181.06 113.00 Z" />
<path fill="#f0331f" opacity="1.00" d=" M 185.60 125.45 C 190.44 123.55 194.82 120.39 200.04 119.56 C 204.11 119.04 208.29 119.28 212.17 120.66 C 212.33 121.35 212.64 122.73 212.79 123.42 C 208.69 126.76 203.78 128.85 198.92 130.85 C 174.61 140.44 147.38 141.44 122.01 135.79 C 119.37 135.48 118.02 133.12 117.14 130.88 C 119.34 129.09 121.50 127.26 123.63 125.38 C 131.31 129.80 140.19 131.65 148.99 131.70 C 161.46 132.29 174.01 130.05 185.60 125.45 Z" />
<path fill="#dddedf" opacity="1.00" d=" M 97.44 130.63 C 102.84 129.00 108.56 132.72 109.85 138.07 C 112.35 147.07 108.37 156.16 108.54 165.25 C 106.16 166.04 103.53 166.90 102.13 169.15 C 100.72 171.15 101.63 173.69 102.22 175.81 C 100.00 176.72 97.50 178.24 97.63 181.01 C 97.57 185.52 97.20 190.16 95.29 194.32 C 93.94 196.89 90.88 198.83 87.94 198.18 C 84.11 196.66 80.73 194.14 76.72 193.06 C 75.65 196.04 75.52 199.21 75.31 202.34 C 70.23 199.99 65.27 197.35 60.68 194.13 C 63.39 192.45 66.37 191.02 68.44 188.52 C 64.90 186.36 60.98 184.82 57.70 182.25 C 55.83 180.76 56.51 178.02 56.76 175.98 C 58.85 165.61 66.19 157.54 72.57 149.53 C 79.60 141.88 87.14 133.62 97.44 130.63 Z" />
<path fill="#ffffff" opacity="1.00" d=" M 194.17 135.45 C 194.80 135.44 196.06 135.41 196.69 135.39 C 198.85 137.08 201.01 138.93 201.99 141.57 C 199.40 143.76 196.44 145.44 193.31 146.72 C 193.43 142.96 193.55 139.18 194.17 135.45 Z" />
<path fill="#008539" opacity="1.00" d=" M 185.86 138.33 C 187.42 137.80 188.98 137.27 190.54 136.75 C 189.38 154.75 188.25 172.79 185.75 190.66 C 166.02 194.94 143.69 193.64 127.02 181.22 C 128.40 178.54 129.84 175.90 131.32 173.28 C 137.48 175.43 145.86 176.09 149.68 169.61 C 153.87 161.41 152.02 151.69 153.51 142.84 C 156.56 142.72 159.61 142.59 162.66 142.44 C 162.10 150.64 160.77 158.84 161.18 167.08 C 161.17 169.86 162.68 172.94 165.68 173.44 C 172.07 174.49 179.55 172.92 183.72 167.60 C 186.13 164.63 185.94 160.61 185.95 157.01 C 185.81 150.78 185.60 144.55 185.86 138.33 Z" />
<path fill="#ffffff" opacity="1.00" d=" M 115.50 141.77 C 116.38 140.63 117.26 139.50 118.16 138.37 C 128.77 140.55 139.47 142.70 150.34 142.87 C 149.96 148.58 149.51 154.29 149.21 160.02 C 148.87 163.80 148.19 168.40 144.48 170.38 C 140.99 172.28 137.04 170.76 133.47 169.97 C 134.07 168.40 134.70 166.84 135.33 165.28 C 136.43 166.01 137.53 166.73 138.65 167.42 C 144.03 163.34 146.82 156.47 146.16 149.80 C 146.07 148.27 144.93 147.19 143.95 146.15 C 142.93 151.93 142.65 158.18 138.69 162.89 C 132.88 154.07 125.40 145.98 115.50 141.77 Z" />
<path fill="#ffffff" opacity="1.00" d=" M 165.63 142.59 C 171.52 141.80 177.33 140.49 183.15 139.30 C 182.93 147.42 183.71 155.62 182.54 163.68 C 179.98 170.58 170.58 171.91 164.47 169.49 C 163.72 160.52 164.89 151.52 165.63 142.59 Z" />
<path fill="#fed6b0" opacity="1.00" d=" M 114.51 144.65 C 122.54 148.25 129.20 154.50 133.97 161.83 C 129.88 169.66 125.73 177.49 121.08 185.00 C 118.10 189.74 112.34 192.07 106.95 190.26 C 105.96 188.51 105.00 186.74 104.05 184.96 C 102.77 184.39 101.50 183.80 100.23 183.22 C 100.46 181.84 100.70 180.47 100.96 179.11 C 104.19 178.58 106.90 182.77 109.80 180.30 C 107.97 177.87 105.17 175.96 104.29 172.94 C 103.36 170.49 106.41 168.09 108.58 169.45 C 110.26 171.41 110.91 174.02 112.15 176.25 C 114.09 174.17 113.00 171.44 112.78 169.01 C 111.82 160.90 112.06 152.49 114.51 144.65 Z" />
<path fill="#fed6b0" opacity="1.00" d=" M 192.70 149.95 C 193.80 149.71 194.91 149.47 196.02 149.24 C 198.24 160.27 200.54 171.81 197.95 182.99 C 196.83 188.02 193.37 192.47 188.37 194.11 C 190.47 179.46 191.21 164.67 192.70 149.95 Z" />
<path fill="#008539" opacity="1.00" d=" M 125.36 183.89 C 135.36 190.77 147.21 194.01 159.09 195.72 C 158.44 200.79 157.66 205.85 156.35 210.80 C 141.68 209.46 126.99 203.90 116.33 193.50 C 120.08 191.06 123.05 187.69 125.36 183.89 Z" />
<path fill="#008539" opacity="1.00" d=" M 100.86 186.87 C 102.30 188.84 103.50 191.08 105.41 192.66 C 108.64 194.27 112.81 193.72 115.39 196.62 C 131.45 211.26 154.11 215.15 175.15 214.91 C 169.56 221.83 161.66 226.49 153.39 229.49 C 148.64 231.24 143.58 231.89 138.87 233.75 C 145.29 235.65 151.61 233.02 157.58 230.88 C 155.55 238.40 152.17 247.29 144.02 249.84 C 137.28 252.17 130.07 246.64 128.99 240.01 C 130.38 235.38 133.41 231.32 133.98 226.40 C 127.24 232.10 126.47 242.11 119.67 247.76 C 115.14 251.20 108.94 251.00 104.24 248.01 C 103.91 248.53 103.25 249.58 102.92 250.11 C 103.88 250.63 104.84 251.14 105.80 251.67 C 105.02 255.97 104.55 260.35 103.36 264.57 C 101.22 270.77 90.98 270.11 88.75 264.28 C 85.86 257.09 86.93 249.02 88.46 241.63 C 89.47 236.11 92.90 231.46 97.28 228.11 C 97.37 229.59 97.46 231.08 97.54 232.58 C 98.24 232.44 99.62 232.17 100.31 232.03 C 100.87 227.96 101.90 223.98 103.04 220.04 C 104.47 216.18 101.50 212.66 100.91 208.94 C 99.48 201.67 100.19 194.19 100.86 186.87 Z" />
<path fill="#dddedf" opacity="1.00" d=" M 161.93 195.72 C 169.63 195.95 177.33 195.36 184.89 193.87 C 184.12 200.21 182.44 207.11 177.85 211.75 C 171.95 213.09 165.67 211.69 159.67 211.26 C 160.18 206.05 161.11 200.89 161.93 195.72 Z" />
<path fill="#dddedf" opacity="1.00" d=" M 55.60 196.11 C 58.98 196.56 61.50 199.05 64.39 200.62 C 67.75 202.78 71.54 204.13 74.95 206.18 C 75.09 206.78 75.37 207.98 75.51 208.59 C 71.18 207.28 67.48 204.62 63.61 202.38 C 60.70 200.63 57.60 198.94 55.60 196.11 Z" />
<path fill="#1e1b1c" opacity="1.00" d=" M 40.64 204.59 C 44.61 203.34 48.69 205.14 52.31 206.67 C 59.01 209.86 65.66 213.78 70.47 219.55 C 71.97 221.10 71.64 223.34 71.69 225.31 C 66.71 227.39 61.58 224.91 57.08 222.80 C 50.94 219.69 44.88 215.95 40.51 210.54 C 39.13 208.94 38.51 205.84 40.64 204.59 M 42.39 207.39 C 49.02 215.27 58.57 221.05 68.73 222.89 C 62.10 214.99 52.52 209.31 42.39 207.39 Z" />
<path fill="#1e1b1c" opacity="1.00" d=" M 23.18 216.25 C 26.83 214.86 30.76 216.60 34.27 217.69 C 43.97 221.53 53.24 226.95 60.65 234.36 C 62.62 236.50 65.16 239.17 64.42 242.34 C 62.25 246.36 56.79 244.50 53.33 243.56 C 42.20 239.51 31.46 233.37 23.45 224.52 C 21.39 222.47 19.61 217.69 23.18 216.25 M 24.12 219.29 C 28.17 225.72 34.62 230.11 41.01 233.98 C 47.38 237.51 54.07 241.13 61.51 241.47 C 57.33 234.38 50.11 229.89 43.21 225.77 C 37.28 222.64 31.02 219.16 24.12 219.29 Z" />
<path fill="#008539" opacity="1.00" d=" M 82.48 246.34 C 83.96 239.16 85.74 230.68 92.83 226.93 C 89.73 231.34 86.23 235.74 85.32 241.22 C 83.64 249.63 82.42 259.21 86.83 267.00 C 89.34 271.55 94.96 271.52 99.45 272.07 C 94.58 274.53 87.10 275.59 83.82 270.15 C 80.34 262.76 81.36 254.17 82.48 246.34 Z" />
<path fill="#1e1b1c" opacity="1.00" d=" M 0.00 237.38 C 4.35 233.81 10.25 235.27 15.09 236.86 C 26.27 240.71 36.65 246.78 45.83 254.19 C 49.66 257.52 53.80 261.07 55.47 266.03 C 56.58 268.96 54.09 272.00 51.07 271.86 C 41.37 272.14 32.51 267.18 24.21 262.75 C 15.01 257.17 5.21 251.05 0.00 241.28 L 0.00 237.38 M 3.13 238.76 C 3.96 241.10 5.05 243.39 6.83 245.17 C 14.10 252.91 23.27 258.59 32.73 263.28 C 38.97 266.08 45.61 269.24 52.65 268.29 C 48.97 259.22 39.95 254.01 32.16 248.84 C 23.23 243.92 13.71 238.03 3.13 238.76 Z" />
<path fill="#008539" opacity="1.00" d=" M 108.13 253.28 C 115.53 253.82 123.21 250.86 126.69 243.98 C 128.51 246.57 130.54 249.00 132.75 251.26 C 132.40 255.82 132.54 260.55 131.13 264.94 C 128.98 268.82 123.91 268.88 120.03 268.67 C 114.77 268.50 109.50 265.31 107.57 260.32 C 107.25 257.96 107.87 255.61 108.13 253.28 Z" />
<path fill="#008539" opacity="1.00" d=" M 106.08 264.88 C 109.20 267.20 112.15 270.06 116.02 271.07 C 120.48 272.34 125.16 271.50 129.69 271.15 C 124.85 275.63 117.20 277.31 111.40 273.64 C 108.19 271.85 107.06 268.16 106.08 264.88 Z" />
</svg>
