<?xml version="1.0" encoding="UTF-8" ?>
<!DOCTYPE svg PUBLIC "-//W3C//DTD SVG 1.1//EN" "http://www.w3.org/Graphics/SVG/1.1/DTD/svg11.dtd">
<svg width="225pt" height="225pt" viewBox="0 0 225 225" version="1.1" xmlns="http://www.w3.org/2000/svg">
<path fill="#63a70a" stroke="#63a70a" stroke-width="0.09375" opacity="1.00" d=" M 88.77 21.75 C 93.30 19.94 98.26 21.03 103.00 20.75 C 106.97 20.96 112.21 19.46 114.47 23.80 C 114.34 30.69 114.43 37.57 114.42 44.46 C 113.42 45.44 112.43 46.41 111.43 47.37 C 109.13 47.34 106.83 47.33 104.53 47.36 C 104.57 48.36 104.63 50.36 104.67 51.37 C 110.25 51.47 115.85 51.08 121.42 51.54 C 124.63 52.24 126.02 55.58 126.82 58.43 C 130.37 58.38 133.92 58.36 137.48 58.43 C 138.45 59.46 139.43 60.50 140.39 61.55 C 140.30 70.53 140.24 79.52 140.43 88.50 C 137.45 93.41 131.28 91.34 126.55 91.69 C 126.48 92.90 126.42 94.11 126.37 95.32 C 124.73 97.88 122.39 100.45 119.06 100.25 C 109.21 100.32 99.35 100.23 89.50 100.28 C 89.46 101.76 89.43 103.25 89.40 104.74 C 119.54 105.54 149.89 105.05 180.03 105.02 C 185.73 109.72 182.33 119.17 176.54 122.49 C 161.70 134.75 146.68 146.80 131.97 159.19 C 130.93 163.07 131.80 167.46 131.54 171.54 C 128.52 171.53 125.50 171.52 122.48 171.51 C 122.43 175.33 122.45 179.15 122.43 182.97 C 121.87 183.35 120.76 184.10 120.21 184.48 C 114.45 184.36 108.68 184.54 102.92 184.41 C 101.42 184.65 100.52 183.38 99.59 182.47 C 99.80 178.81 99.75 175.14 99.66 171.48 C 96.66 171.52 93.66 171.54 90.66 171.53 C 90.66 167.51 90.68 163.50 90.68 159.49 C 75.04 146.38 59.10 133.63 43.44 120.56 C 38.81 117.02 38.41 110.49 40.81 105.53 C 48.18 103.57 55.91 106.54 63.33 104.55 C 63.38 99.52 62.87 94.43 63.52 89.43 C 66.42 84.59 73.06 87.51 77.65 86.72 C 77.54 80.29 77.61 73.87 77.57 67.45 C 76.84 67.46 75.38 67.47 74.65 67.48 C 73.54 66.50 72.45 65.52 71.36 64.52 C 71.31 55.17 71.28 45.82 71.38 36.47 C 72.51 35.50 73.65 34.54 74.80 33.59 C 79.10 33.67 83.40 33.65 87.70 33.66 C 87.73 29.67 87.16 25.53 88.77 21.75 M 92.24 33.69 C 96.54 33.67 101.58 32.67 104.56 36.60 C 104.57 38.64 104.59 40.68 104.59 42.72 C 106.51 42.70 108.43 42.66 110.35 42.60 C 109.97 36.59 111.07 30.43 109.67 24.53 C 103.90 24.70 98.12 24.60 92.35 24.59 C 92.21 27.62 92.21 30.66 92.24 33.69 M 75.35 38.38 C 75.39 46.47 75.34 54.55 75.35 62.63 C 75.93 62.69 77.09 62.81 77.67 62.87 C 77.18 58.60 77.59 53.94 81.62 51.48 C 87.57 51.22 93.54 51.49 99.49 51.29 C 100.94 50.57 100.36 48.73 100.67 47.44 C 97.35 47.29 94.02 47.28 90.70 47.42 C 87.32 45.27 87.56 41.18 87.50 37.67 C 83.45 37.85 79.28 37.12 75.35 38.38 M 92.15 42.71 C 94.93 42.72 97.70 42.69 100.48 42.66 C 100.48 41.32 100.50 39.97 100.52 38.63 C 97.96 37.55 95.17 37.60 92.45 37.61 C 92.33 39.31 92.23 41.01 92.15 42.71 M 83.61 55.45 C 83.13 55.85 82.19 56.65 81.71 57.05 C 82.01 59.13 80.29 63.71 83.82 63.37 C 89.36 62.90 95.25 64.43 100.52 62.36 C 100.46 60.05 100.46 57.74 100.48 55.43 C 94.86 55.33 89.23 55.29 83.61 55.45 M 104.57 55.38 C 104.46 59.64 105.85 65.10 101.20 67.50 C 94.69 67.45 88.17 67.39 81.65 67.54 C 81.64 73.89 81.68 80.25 81.60 86.60 C 83.17 86.66 84.75 86.70 86.33 86.72 C 87.41 87.65 88.48 88.61 89.54 89.58 C 89.51 91.61 89.49 93.63 89.47 95.66 C 100.00 95.62 110.54 95.82 121.08 95.56 C 121.50 94.83 122.34 93.37 122.76 92.64 C 117.70 89.95 109.25 94.72 106.72 87.89 C 106.33 80.27 106.66 72.62 106.56 65.00 C 106.27 62.40 107.68 60.15 109.46 58.40 C 113.56 58.39 117.66 58.36 121.77 58.48 C 121.63 57.51 121.49 56.54 121.36 55.57 C 115.78 55.10 110.17 55.41 104.57 55.38 M 111.56 62.47 C 110.02 70.60 110.15 79.50 111.49 87.65 C 115.11 87.59 118.73 87.62 122.35 87.53 C 122.30 79.21 122.33 70.88 122.33 62.56 C 118.74 62.47 115.15 62.51 111.56 62.47 M 126.39 87.63 C 129.48 87.61 132.57 87.60 135.66 87.58 C 135.74 79.22 135.80 70.86 135.62 62.51 C 132.55 62.50 129.48 62.49 126.41 62.47 C 126.39 70.86 126.43 79.24 126.39 87.63 M 67.32 91.29 C 67.37 95.75 67.40 100.22 67.27 104.68 C 73.31 105.25 79.49 105.34 85.51 104.59 C 85.49 103.62 85.46 101.69 85.44 100.72 C 80.70 100.23 76.57 96.30 77.53 91.27 C 74.12 91.23 70.72 91.22 67.32 91.29 M 81.40 91.34 C 81.52 92.67 81.89 93.92 82.52 95.09 L 82.42 95.72 C 83.49 95.60 84.57 95.54 85.65 95.54 C 85.28 94.26 85.33 92.82 85.64 91.53 C 84.25 91.27 82.83 91.20 81.40 91.34 M 43.47 109.49 C 43.27 112.48 44.01 115.61 46.47 117.53 C 62.44 130.88 78.75 143.85 94.66 157.28 C 95.17 160.56 93.57 164.66 95.58 167.39 C 106.20 167.54 116.83 167.40 127.46 167.45 C 127.48 164.06 127.47 160.67 127.48 157.28 C 143.40 143.92 159.71 131.00 175.58 117.57 C 178.32 115.70 179.01 112.54 178.61 109.41 C 133.56 109.39 88.51 109.22 43.47 109.49 Z" />
<path fill="#ffffff" stroke="#ffffff" stroke-width="0.09375" opacity="1.00" d=" M 92.24 33.69 C 92.21 30.66 92.21 27.62 92.35 24.59 C 98.12 24.60 103.90 24.70 109.67 24.53 C 111.07 30.43 109.97 36.59 110.35 42.60 C 108.43 42.66 106.51 42.70 104.59 42.72 C 104.59 40.68 104.57 38.64 104.56 36.60 C 101.58 32.67 96.54 33.67 92.24 33.69 Z" />
<path fill="#63a70a" stroke="#63a70a" stroke-width="0.09375" opacity="1.00" d=" M 132.62 29.54 C 133.63 28.54 134.65 27.55 135.68 26.57 C 142.53 26.64 149.38 26.54 156.23 26.63 C 157.02 27.31 157.82 27.99 158.62 28.67 C 158.72 36.22 158.70 43.77 158.63 51.32 C 157.77 52.00 156.92 52.68 156.08 53.37 C 149.30 53.39 142.52 53.29 135.74 53.43 C 134.69 52.44 133.65 51.45 132.62 50.44 C 132.75 43.47 132.74 36.51 132.62 29.54 M 137.36 49.26 C 143.17 49.02 149.02 49.64 154.79 48.72 C 154.57 42.73 154.84 36.72 154.57 30.73 C 148.84 30.76 143.11 30.77 137.39 30.73 C 137.11 36.90 137.17 43.09 137.36 49.26 Z" />
<path fill="#ffffff" stroke="#ffffff" stroke-width="0.09375" opacity="1.00" d=" M 137.36 49.26 C 137.17 43.09 137.11 36.90 137.39 30.73 C 143.11 30.77 148.84 30.76 154.57 30.73 C 154.84 36.72 154.57 42.73 154.79 48.72 C 149.02 49.64 143.17 49.02 137.36 49.26 Z" />
<path fill="#ffffff" stroke="#ffffff" stroke-width="0.09375" opacity="1.00" d=" M 75.35 38.38 C 79.28 37.12 83.45 37.85 87.50 37.67 C 87.56 41.18 87.32 45.27 90.70 47.42 C 94.02 47.28 97.35 47.29 100.67 47.44 C 100.36 48.73 100.94 50.57 99.49 51.29 C 93.54 51.49 87.57 51.22 81.62 51.48 C 77.59 53.94 77.18 58.60 77.67 62.87 C 77.09 62.81 75.93 62.69 75.35 62.63 C 75.34 54.55 75.39 46.47 75.35 38.38 Z" />
<path fill="#ffffff" stroke="#ffffff" stroke-width="0.09375" opacity="1.00" d=" M 92.15 42.71 C 92.23 41.01 92.33 39.31 92.45 37.61 C 95.17 37.60 97.96 37.55 100.52 38.63 C 100.50 39.97 100.48 41.32 100.48 42.66 C 97.70 42.69 94.93 42.72 92.15 42.71 Z" />
<path fill="#ffffff" stroke="#ffffff" stroke-width="0.09375" opacity="1.00" d=" M 83.61 55.45 C 89.23 55.29 94.86 55.33 100.48 55.43 C 100.46 57.74 100.46 60.05 100.52 62.36 C 95.25 64.43 89.36 62.90 83.82 63.37 C 80.29 63.71 82.01 59.13 81.71 57.05 C 82.19 56.65 83.13 55.85 83.61 55.45 Z" />
<path fill="#ffffff" stroke="#ffffff" stroke-width="0.09375" opacity="1.00" d=" M 104.57 55.38 C 110.17 55.41 115.78 55.10 121.36 55.57 C 121.49 56.54 121.63 57.51 121.77 58.48 C 117.66 58.36 113.56 58.39 109.46 58.40 C 107.68 60.15 106.27 62.40 106.56 65.00 C 106.66 72.62 106.33 80.27 106.72 87.89 C 109.25 94.72 117.70 89.95 122.76 92.64 C 122.34 93.37 121.50 94.83 121.08 95.56 C 110.54 95.82 100.00 95.62 89.47 95.66 C 89.49 93.63 89.51 91.61 89.54 89.58 C 88.48 88.61 87.41 87.65 86.33 86.72 C 84.75 86.70 83.17 86.66 81.60 86.60 C 81.68 80.25 81.64 73.89 81.65 67.54 C 88.17 67.39 94.69 67.45 101.20 67.50 C 105.85 65.10 104.46 59.64 104.57 55.38 Z" />
<path fill="#ffffff" stroke="#ffffff" stroke-width="0.09375" opacity="1.00" d=" M 111.56 62.47 C 115.15 62.51 118.74 62.47 122.33 62.56 C 122.33 70.88 122.30 79.21 122.35 87.53 C 118.73 87.62 115.11 87.59 111.49 87.65 C 110.15 79.50 110.02 70.60 111.56 62.47 Z" />
<path fill="#ffffff" stroke="#ffffff" stroke-width="0.09375" opacity="1.00" d=" M 126.39 87.63 C 126.43 79.24 126.39 70.86 126.41 62.47 C 129.48 62.49 132.55 62.50 135.62 62.51 C 135.80 70.86 135.74 79.22 135.66 87.58 C 132.57 87.60 129.48 87.61 126.39 87.63 Z" />
<path fill="#ffffff" stroke="#ffffff" stroke-width="0.09375" opacity="1.00" d=" M 67.32 91.29 C 70.72 91.22 74.12 91.23 77.53 91.27 C 76.57 96.30 80.70 100.23 85.44 100.72 C 85.46 101.69 85.49 103.62 85.51 104.59 C 79.49 105.34 73.31 105.25 67.27 104.68 C 67.40 100.22 67.37 95.75 67.32 91.29 Z" />
<path fill="#ffffff" stroke="#ffffff" stroke-width="0.09375" opacity="1.00" d=" M 81.40 91.34 C 82.83 91.20 84.25 91.27 85.64 91.53 C 85.33 92.82 85.28 94.26 85.65 95.54 C 84.57 95.54 83.49 95.60 82.42 95.72 L 82.52 95.09 C 81.89 93.92 81.52 92.67 81.40 91.34 Z" />
<path fill="#ffffff" stroke="#ffffff" stroke-width="0.09375" opacity="1.00" d=" M 43.47 109.49 C 88.51 109.22 133.56 109.39 178.61 109.41 C 179.01 112.54 178.32 115.70 175.58 117.57 C 159.71 131.00 143.40 143.92 127.48 157.28 C 127.47 160.67 127.48 164.06 127.46 167.45 C 116.83 167.40 106.20 167.54 95.58 167.39 C 93.57 164.66 95.17 160.56 94.66 157.28 C 78.75 143.85 62.44 130.88 46.47 117.53 C 44.01 115.61 43.27 112.48 43.47 109.49 Z" />
<path fill="#63a70a" stroke="#63a70a" stroke-width="0.09375" opacity="1.00" d=" M 100.60 187.39 C 107.84 187.48 115.11 186.98 122.32 187.68 C 122.37 194.77 122.78 201.93 122.17 208.99 C 115.30 210.84 107.71 209.41 100.56 209.70 C 99.26 202.42 99.17 194.64 100.60 187.39 Z" />
</svg>
