<?xml version="1.0" encoding="utf-8"?>
<!-- Generator: Adobe Illustrator 24.0.1, SVG Export Plug-In . SVG Version: 6.00 Build 0)  -->
<svg version="1.1" xmlns="http://www.w3.org/2000/svg" xmlns:xlink="http://www.w3.org/1999/xlink" x="0px" y="0px" width="56.7px"
	 height="56.7px" viewBox="0 0 56.7 56.7" style="enable-background:new 0 0 56.7 56.7;" xml:space="preserve">
<style type="text/css">
	.st0{fill:#6D6E71;}
	.st1{fill:#231F20;}
	.st2{fill:#2B3990;}
</style>
<g id="Layer_1">
	<g>
		<path class="st0" d="M0.4,39.2h4.3l3.8,11.4c0.1,0.2,0.1,0.5,0.2,0.8c0,0.3,0.1,0.6,0.1,0.9c0,0.3,0.1,0.7,0.1,1h0.3
			c-0.1-0.6-0.1-1.1-0.2-1.5c0-0.4-0.1-0.9-0.1-1.4c0-0.5-0.1-1-0.1-1.4v-9.8h3v17.1H7.6L3.8,45c-0.1-0.3-0.2-0.6-0.2-0.9
			c-0.1-0.3-0.1-0.6-0.1-0.9c0-0.3-0.1-0.6-0.1-1H3.1c0.1,0.5,0.1,1,0.2,1.5c0,0.4,0.1,0.9,0.1,1.4c0,0.5,0.1,1,0.1,1.4v9.8h-3V39.2
			z"/>
		<path class="st0" d="M20.4,56.6c-0.9,0-1.7-0.1-2.5-0.4s-1.4-0.6-1.9-1.1c-0.5-0.5-0.9-1-1.2-1.7c-0.3-0.7-0.4-1.4-0.4-2.1v-3.1
			c0-0.8,0.1-1.5,0.4-2.1c0.3-0.6,0.7-1.2,1.2-1.6s1.2-0.8,1.9-1.1s1.6-0.4,2.5-0.4c0.9,0,1.7,0.1,2.4,0.4s1.4,0.6,1.9,1.1
			c0.5,0.5,0.9,1,1.2,1.7c0.3,0.6,0.4,1.4,0.4,2.1v2.4H18v0.7c0,0.8,0.2,1.4,0.6,1.8s1,0.7,1.8,0.7c0.6,0,1.1-0.1,1.5-0.3
			c0.4-0.2,0.7-0.5,0.8-0.8h3.5c-0.1,0.6-0.4,1.1-0.8,1.6c-0.4,0.5-0.8,0.9-1.3,1.2c-0.5,0.3-1.1,0.6-1.7,0.8
			C21.9,56.5,21.2,56.6,20.4,56.6z M22.9,48.5v-0.2c0-0.8-0.2-1.4-0.7-1.8c-0.4-0.4-1.1-0.7-1.8-0.7c-0.8,0-1.4,0.2-1.8,0.7
			c-0.4,0.4-0.7,1-0.7,1.8v0.3H22.9z"/>
		<path class="st0" d="M28.6,52.7c0-1.3,0.5-2.4,1.5-3.2c1-0.8,2.3-1.2,4-1.2h2.8v-1.2c0-0.5-0.2-0.8-0.6-1.1
			c-0.4-0.3-0.9-0.4-1.6-0.4c-0.6,0-1.1,0.1-1.5,0.3c-0.4,0.2-0.6,0.5-0.8,0.9H29c0.1-0.6,0.3-1.1,0.6-1.6s0.7-0.9,1.2-1.2
			s1.1-0.6,1.7-0.8c0.7-0.2,1.4-0.3,2.1-0.3c0.9,0,1.6,0.1,2.3,0.3c0.7,0.2,1.3,0.5,1.8,0.9c0.5,0.4,0.9,0.8,1.2,1.3
			c0.3,0.5,0.4,1.1,0.4,1.8v9.1H37v-2.6h-0.2c-0.1,0.9-0.5,1.6-1.3,2.1c-0.7,0.5-1.6,0.8-2.8,0.8c-1.3,0-2.3-0.3-3.1-1
			S28.6,53.9,28.6,52.7z M34.2,53.8c0.8,0,1.4-0.2,1.9-0.5c0.5-0.4,0.7-0.8,0.7-1.4v-1.3H34c-0.6,0-1,0.1-1.3,0.4
			c-0.3,0.3-0.5,0.7-0.5,1.2c0,0.5,0.2,0.9,0.5,1.2S33.6,53.8,34.2,53.8z"/>
		<path class="st0" d="M43.8,43.2h3.4v2.3h0.2c0.1-0.8,0.5-1.4,1.1-1.9S50,43,51,43c1.4,0,2.6,0.4,3.4,1.3s1.2,2.1,1.2,3.7v1.1h-3.8
			v-0.8c0-0.7-0.2-1.3-0.6-1.7s-1-0.6-1.7-0.6c-0.6,0-1.1,0.2-1.5,0.6s-0.5,1-0.5,1.7v8.1h-3.6V43.2z"/>
	</g>
</g>
<g id="Layer_2">
	<g>
		<path class="st1" d="M11.9,23.7l3.5-9.8l4.2,1.5c1.1,0.4,2.2,0.9,3.3,1.6c1.1,0.7,2.2,1.4,3.3,2.1c1.1,0.7,2.1,1.5,3,2.2
			c0.9,0.7,1.7,1.4,2.4,2l0.4-0.3c-0.3-0.8-0.7-1.8-1-3c-0.4-1.2-0.7-2.4-1.1-3.7c-0.4-1.3-0.7-2.6-0.9-4c-0.2-1.3-0.4-2.6-0.4-3.8
			V4.3h10.4v4.4c0,1.2-0.1,2.4-0.4,3.8c-0.2,1.3-0.5,2.7-0.9,4c-0.4,1.3-0.7,2.5-1.1,3.7c-0.4,1.2-0.7,2.2-1,3l0.3,0.2
			c0.7-0.6,1.5-1.3,2.4-2c0.9-0.7,1.9-1.5,3-2.2c1.1-0.7,2.2-1.4,3.3-2.1c1.1-0.6,2.2-1.1,3.2-1.5L52,14l3.6,9.8l-4.2,1.5
			c-1,0.4-2.2,0.7-3.4,0.9s-2.6,0.4-3.8,0.5c-1.3,0.1-2.5,0.2-3.7,0.2C39.2,27,38.2,27,37.2,27l-0.2,0.3c0.7,0.5,1.6,1.1,2.6,1.8
			c1,0.7,1.9,1.5,3,2.4c1,0.9,2,1.7,3,2.7c1,0.9,1.8,1.9,2.4,2.8l2.5,3.7L42,46.5l-2.6-3.6c-0.6-1-1.3-2.1-1.8-3.3
			c-0.6-1.2-1.1-2.5-1.6-3.8s-0.9-2.5-1.2-3.7c-0.3-1.2-0.6-2.2-0.8-3h-0.5c-0.2,0.9-0.5,1.9-0.8,3c-0.3,1.2-0.7,2.4-1.2,3.7
			c-0.5,1.3-1,2.5-1.6,3.8c-0.6,1.2-1.2,2.3-1.8,3.3l-2.6,3.6L17,40.6l2.5-3.6c0.6-1,1.4-1.9,2.4-2.8c1-0.9,1.9-1.8,3-2.7
			c1-0.9,2-1.6,3-2.4c1-0.7,1.8-1.3,2.5-1.8L30.2,27c-0.9,0-2,0-3.2-0.1c-1.2-0.1-2.5-0.1-3.8-0.2c-1.3-0.1-2.6-0.3-3.8-0.5
			c-1.3-0.2-2.4-0.5-3.5-0.9L11.9,23.7z"/>
	</g>
</g>
<g id="Layer_2_copy">
	<g>
		<path class="st2" d="M12.9,19.7l3.5-9.8l4.2,1.5c1.1,0.4,2.2,0.9,3.3,1.6c1.1,0.7,2.2,1.4,3.3,2.1c1.1,0.7,2.1,1.5,3,2.2
			c0.9,0.7,1.7,1.4,2.4,2l0.4-0.3c-0.3-0.8-0.7-1.8-1-3c-0.4-1.2-0.7-2.4-1.1-3.7c-0.4-1.3-0.7-2.6-0.9-4c-0.2-1.3-0.4-2.6-0.4-3.8
			V0.3h10.4v4.4c0,1.2-0.1,2.4-0.4,3.8c-0.2,1.3-0.5,2.7-0.9,4c-0.4,1.3-0.7,2.5-1.1,3.7c-0.4,1.2-0.7,2.2-1,3l0.3,0.2
			c0.7-0.6,1.5-1.3,2.4-2c0.9-0.7,1.9-1.5,3-2.2c1.1-0.7,2.2-1.4,3.3-2.1c1.1-0.6,2.2-1.1,3.2-1.5L53,10l3.6,9.8l-4.2,1.5
			c-1,0.4-2.2,0.7-3.4,0.9s-2.6,0.4-3.8,0.5c-1.3,0.1-2.5,0.2-3.7,0.2C40.2,23,39.2,23,38.2,23l-0.2,0.3c0.7,0.5,1.6,1.1,2.6,1.8
			c1,0.7,1.9,1.5,3,2.4c1,0.9,2,1.7,3,2.7c1,0.9,1.8,1.9,2.4,2.8l2.5,3.7L43,42.5l-2.6-3.6c-0.6-1-1.3-2.1-1.8-3.3
			c-0.6-1.2-1.1-2.5-1.6-3.8s-0.9-2.5-1.2-3.7c-0.3-1.2-0.6-2.2-0.8-3h-0.5c-0.2,0.9-0.5,1.9-0.8,3c-0.3,1.2-0.7,2.4-1.2,3.7
			c-0.5,1.3-1,2.5-1.6,3.8c-0.6,1.2-1.2,2.3-1.8,3.3l-2.6,3.6L18,36.6l2.5-3.6c0.6-1,1.4-1.9,2.4-2.8c1-0.9,1.9-1.8,3-2.7
			c1-0.9,2-1.6,3-2.4c1-0.7,1.8-1.3,2.5-1.8L31.2,23c-0.9,0-2,0-3.2-0.1c-1.2-0.1-2.5-0.1-3.8-0.2c-1.3-0.1-2.6-0.3-3.8-0.5
			c-1.3-0.2-2.4-0.5-3.5-0.9L12.9,19.7z"/>
	</g>
	<g>
	</g>
	<g>
	</g>
	<g>
	</g>
	<g>
	</g>
	<g>
	</g>
	<g>
	</g>
</g>
</svg>
