<?xml version="1.0" encoding="UTF-8" ?>
<!DOCTYPE svg PUBLIC "-//W3C//DTD SVG 1.1//EN" "http://www.w3.org/Graphics/SVG/1.1/DTD/svg11.dtd">
<svg width="212pt" height="212pt" viewBox="0 0 212 212" version="1.1" xmlns="http://www.w3.org/2000/svg">
<path fill="#05256f" stroke="#05256f" stroke-width="0.09375" opacity="1.00" d=" M 0.00 0.00 L 17.38 0.00 C 10.66 2.66 4.87 8.23 3.51 15.53 C 1.22 27.30 5.71 39.17 11.48 49.27 C 14.00 53.64 16.72 57.89 19.77 61.91 C 18.94 62.27 18.11 62.64 17.28 63.01 C 21.15 67.57 25.54 71.83 28.13 77.32 C 24.30 75.21 20.88 72.49 17.54 69.70 C 15.35 76.09 15.31 82.95 15.91 89.61 C 10.44 90.38 5.01 91.76 0.00 94.12 L 0.00 0.00 Z" />
<path fill="#b0b2d6" stroke="#b0b2d6" stroke-width="0.09375" opacity="1.00" d=" M 17.38 0.00 L 22.27 0.00 C 24.67 3.08 28.59 3.64 32.26 3.36 C 30.76 3.62 29.27 3.94 27.78 4.24 C 28.91 4.84 30.05 5.43 31.21 5.98 C 26.87 6.07 22.50 5.97 18.19 6.54 C 12.81 7.36 8.43 11.37 6.14 16.18 C 7.15 16.70 8.17 17.22 9.19 17.74 C 9.27 18.73 9.35 19.72 9.43 20.71 C 14.72 15.90 20.89 11.55 28.00 10.09 C 30.24 9.54 31.38 11.99 32.75 13.25 C 32.19 13.43 31.06 13.78 30.49 13.96 C 29.89 12.89 29.29 11.82 28.69 10.75 C 24.76 11.97 20.72 13.86 18.58 17.58 C 16.32 21.71 16.00 26.57 15.69 31.17 C 15.34 27.29 15.75 23.39 15.94 19.50 C 13.00 21.72 12.27 25.31 12.23 28.79 C 12.15 29.67 11.99 31.43 11.92 32.31 C 11.07 29.82 10.25 27.32 9.41 24.83 C 8.65 32.56 9.38 41.17 14.90 47.14 C 16.08 48.64 18.19 47.60 19.77 47.70 C 21.69 51.60 23.98 55.34 25.33 59.51 C 22.11 54.52 15.78 52.96 13.24 47.37 C 12.80 47.84 11.92 48.79 11.48 49.27 C 5.71 39.17 1.22 27.30 3.51 15.53 C 4.87 8.23 10.66 2.66 17.38 0.00 Z" />
<path fill="#8387b2" stroke="#8387b2" stroke-width="0.09375" opacity="1.00" d=" M 22.27 0.00 L 45.40 0.00 C 51.20 1.58 56.55 4.60 62.57 5.40 C 69.43 12.32 79.02 15.10 87.40 19.65 C 88.76 21.71 90.46 23.53 92.44 25.02 C 90.78 24.83 89.13 24.64 87.47 24.45 C 87.52 24.93 87.61 25.89 87.65 26.38 C 83.07 23.71 78.70 20.70 74.49 17.47 C 72.11 13.01 66.77 11.69 62.58 9.51 C 54.35 6.21 45.84 1.82 36.71 2.81 C 35.22 2.93 33.74 3.16 32.26 3.36 C 28.59 3.64 24.67 3.08 22.27 0.00 Z" />
<path fill="#051a52" stroke="#051a52" stroke-width="0.09375" opacity="1.00" d=" M 45.40 0.00 L 55.34 0.00 C 57.81 1.71 60.20 3.55 62.57 5.40 C 56.55 4.60 51.20 1.58 45.40 0.00 Z" />
<path fill="#b0b2d6" stroke="#b0b2d6" stroke-width="0.09375" opacity="1.00" d=" M 55.34 0.00 L 61.44 0.00 C 69.00 6.38 77.86 10.78 86.56 15.35 C 87.86 17.66 90.41 18.57 92.69 19.59 C 92.27 19.99 91.41 20.80 90.98 21.21 C 89.78 20.71 88.59 20.19 87.40 19.65 C 79.02 15.10 69.43 12.32 62.57 5.40 C 60.20 3.55 57.81 1.71 55.34 0.00 Z" />
<path fill="#8387b2" stroke="#8387b2" stroke-width="0.09375" opacity="1.00" d=" M 61.44 0.00 L 64.38 0.00 C 77.91 8.84 92.38 18.14 109.02 18.95 C 113.98 19.43 118.37 16.81 122.54 14.51 C 120.09 17.11 117.32 19.79 113.61 20.32 C 104.29 22.02 95.23 18.26 86.56 15.35 C 77.86 10.78 69.00 6.38 61.44 0.00 Z" />
<path fill="#fae1b8" stroke="#fae1b8" stroke-width="0.09375" opacity="1.00" d=" M 64.38 0.00 L 67.35 0.00 C 72.33 3.48 77.33 7.05 83.07 9.18 C 92.38 13.47 102.88 17.80 113.25 15.13 C 119.67 13.13 122.34 6.25 121.52 0.00 L 122.31 0.00 C 122.29 3.36 122.25 6.72 122.19 10.08 C 122.68 8.66 123.17 7.23 123.66 5.80 C 124.03 7.64 124.42 9.47 124.70 11.32 C 124.73 12.40 124.72 13.47 124.70 14.55 C 124.52 17.68 124.64 20.82 125.18 23.91 C 126.54 23.88 127.90 23.86 129.26 23.84 C 128.17 24.62 127.06 25.35 125.92 26.04 C 114.13 29.15 101.94 25.65 90.98 21.21 C 91.41 20.80 92.27 19.99 92.69 19.59 C 90.41 18.57 87.86 17.66 86.56 15.35 C 95.23 18.26 104.29 22.02 113.61 20.32 C 117.32 19.79 120.09 17.11 122.54 14.51 C 118.37 16.81 113.98 19.43 109.02 18.95 C 92.38 18.14 77.91 8.84 64.38 0.00 Z" />
<path fill="#9a9dc6" stroke="#9a9dc6" stroke-width="0.09375" opacity="1.00" d=" M 67.35 0.00 L 75.41 0.00 C 77.66 2.04 79.80 4.21 81.79 6.51 C 82.23 7.39 82.66 8.28 83.07 9.18 C 77.33 7.05 72.33 3.48 67.35 0.00 Z" />
<path fill="#0c0f28" stroke="#0c0f28" stroke-width="0.09375" opacity="1.00" d=" M 75.41 0.00 L 80.98 0.00 C 82.85 1.84 83.34 4.27 81.79 6.51 C 79.80 4.21 77.66 2.04 75.41 0.00 Z" />
<path fill="#04070b" stroke="#04070b" stroke-width="0.09375" opacity="1.00" d=" M 80.98 0.00 L 121.52 0.00 C 122.34 6.25 119.67 13.13 113.25 15.13 C 102.88 17.80 92.38 13.47 83.07 9.18 C 82.66 8.28 82.23 7.39 81.79 6.51 C 83.34 4.27 82.85 1.84 80.98 0.00 Z" />
<path fill="#b0b2d6" stroke="#b0b2d6" stroke-width="0.09375" opacity="1.00" d=" M 122.31 0.00 L 124.10 0.00 C 124.62 3.75 124.68 7.54 124.70 11.32 C 124.42 9.47 124.03 7.64 123.66 5.80 C 123.17 7.23 122.68 8.66 122.19 10.08 C 122.25 6.72 122.29 3.36 122.31 0.00 Z" />
<path fill="#8387b2" stroke="#8387b2" stroke-width="0.09375" opacity="1.00" d=" M 124.10 0.00 L 131.29 0.00 C 133.51 6.82 135.55 15.65 129.73 21.28 C 129.18 18.32 127.22 16.08 124.70 14.55 C 124.72 13.47 124.73 12.40 124.70 11.32 C 124.68 7.54 124.62 3.75 124.10 0.00 Z" />
<path fill="#9a9dc6" stroke="#9a9dc6" stroke-width="0.09375" opacity="1.00" d=" M 131.29 0.00 L 133.05 0.00 C 135.56 7.81 136.68 18.29 129.26 23.84 C 127.90 23.86 126.54 23.88 125.18 23.91 C 124.64 20.82 124.52 17.68 124.70 14.55 C 127.22 16.08 129.18 18.32 129.73 21.28 C 135.55 15.65 133.51 6.82 131.29 0.00 Z" />
<path fill="#0c0f28" stroke="#0c0f28" stroke-width="0.09375" opacity="1.00" d=" M 133.05 0.00 L 137.74 0.00 C 145.63 10.37 154.08 20.51 164.70 28.21 C 158.66 28.38 153.43 24.72 147.50 24.13 C 140.56 22.41 133.44 23.41 126.81 25.82 L 125.92 26.04 C 127.06 25.35 128.17 24.62 129.26 23.84 C 136.68 18.29 135.56 7.81 133.05 0.00 Z" />
<path fill="#fae1b8" stroke="#fae1b8" stroke-width="0.09375" opacity="1.00" d=" M 137.74 0.00 L 142.28 0.00 C 145.28 3.93 147.93 8.19 151.70 11.47 C 150.62 6.97 147.40 3.48 144.54 0.00 L 147.19 0.00 C 149.06 2.39 150.80 4.89 152.67 7.29 C 160.70 17.40 170.78 25.77 181.69 32.60 C 188.23 36.57 195.28 39.89 202.83 41.34 C 205.88 41.59 208.94 41.50 212.00 41.45 L 212.00 44.70 C 193.42 45.83 178.50 32.75 164.09 22.93 C 172.93 32.34 184.60 38.62 196.54 43.21 C 201.43 45.24 206.77 45.53 212.00 45.29 L 212.00 52.46 C 205.69 50.99 199.29 49.55 193.53 46.44 C 187.05 42.53 179.94 39.67 173.90 35.03 C 170.87 32.71 167.86 30.37 164.70 28.21 C 154.08 20.51 145.63 10.37 137.74 0.00 Z" />
<path fill="#b0b2d6" stroke="#b0b2d6" stroke-width="0.09375" opacity="1.00" d=" M 142.28 0.00 L 144.54 0.00 C 147.40 3.48 150.62 6.97 151.70 11.47 C 147.93 8.19 145.28 3.93 142.28 0.00 Z" />
<path fill="#af0204" stroke="#af0204" stroke-width="0.09375" opacity="1.00" d=" M 147.19 0.00 L 165.12 0.00 C 175.21 7.09 185.59 13.90 194.59 22.39 C 199.28 27.44 202.95 33.37 205.96 39.55 C 204.91 40.15 203.87 40.75 202.83 41.34 C 195.28 39.89 188.23 36.57 181.69 32.60 C 183.19 32.38 184.70 32.16 186.21 31.94 C 184.17 26.14 180.06 21.46 175.36 17.64 C 168.05 11.71 161.46 3.96 151.83 1.93 C 152.08 3.72 152.33 5.51 152.67 7.29 C 150.80 4.89 149.06 2.39 147.19 0.00 Z" />
<path fill="#780108" stroke="#780108" stroke-width="0.09375" opacity="1.00" d=" M 165.12 0.00 L 168.35 0.00 C 175.10 3.63 180.87 10.16 189.08 10.04 C 186.93 6.60 184.74 3.19 182.24 0.00 L 197.42 0.00 C 202.22 6.17 207.50 11.97 212.00 18.38 L 212.00 41.45 C 208.94 41.50 205.88 41.59 202.83 41.34 C 203.87 40.75 204.91 40.15 205.96 39.55 C 202.95 33.37 199.28 27.44 194.59 22.39 C 185.59 13.90 175.21 7.09 165.12 0.00 Z" />
<path fill="#371d02" stroke="#371d02" stroke-width="0.09375" opacity="1.00" d=" M 168.35 0.00 L 182.24 0.00 C 184.74 3.19 186.93 6.60 189.08 10.04 C 180.87 10.16 175.10 3.63 168.35 0.00 Z" />
<path fill="#fae1b8" stroke="#fae1b8" stroke-width="0.09375" opacity="1.00" d=" M 197.42 0.00 L 212.00 0.00 L 212.00 1.00 C 209.34 1.31 209.16 4.72 212.00 4.83 L 212.00 18.38 C 207.50 11.97 202.22 6.17 197.42 0.00 Z" />
<path fill="#0159ce" stroke="#0159ce" stroke-width="0.09375" opacity="1.00" d=" M 212.00 4.83 C 209.16 4.72 209.34 1.31 212.00 1.00 L 212.00 4.83 Z" />
<path fill="#051a52" stroke="#051a52" stroke-width="0.09375" opacity="1.00" d=" M 36.71 2.81 C 45.84 1.82 54.35 6.21 62.58 9.51 C 66.77 11.69 72.11 13.01 74.49 17.47 C 62.81 10.53 49.97 5.69 36.71 2.81 Z" />
<path fill="#da0103" stroke="#da0103" stroke-width="0.09375" opacity="1.00" d=" M 151.83 1.93 C 161.46 3.96 168.05 11.71 175.36 17.64 C 180.06 21.46 184.17 26.14 186.21 31.94 C 184.70 32.16 183.19 32.38 181.69 32.60 C 170.78 25.77 160.70 17.40 152.67 7.29 C 152.33 5.51 152.08 3.72 151.83 1.93 Z" />
<path fill="#9a9dc6" stroke="#9a9dc6" stroke-width="0.09375" opacity="1.00" d=" M 32.26 3.36 C 33.74 3.16 35.22 2.93 36.71 2.81 C 49.97 5.69 62.81 10.53 74.49 17.47 C 78.70 20.70 83.07 23.71 87.65 26.38 C 87.61 25.89 87.52 24.93 87.47 24.45 C 89.13 24.64 90.78 24.83 92.44 25.02 C 93.63 25.93 94.85 26.82 96.04 27.74 C 95.11 28.17 94.18 28.59 93.25 29.02 C 93.65 30.00 94.06 30.98 94.47 31.96 C 93.64 32.29 92.81 32.63 91.97 32.96 C 87.94 29.81 83.29 27.62 79.02 24.83 C 79.73 24.79 81.14 24.72 81.84 24.68 C 68.54 15.93 54.10 7.81 38.01 5.99 C 41.41 7.55 44.76 9.23 48.20 10.72 C 45.61 10.43 43.01 10.26 40.41 10.10 C 38.05 8.00 35.19 6.56 32.04 6.15 L 31.21 5.98 C 30.05 5.43 28.91 4.84 27.78 4.24 C 29.27 3.94 30.76 3.62 32.26 3.36 Z" />
<path fill="#fae1b8" stroke="#fae1b8" stroke-width="0.09375" opacity="1.00" d=" M 6.14 16.18 C 8.43 11.37 12.81 7.36 18.19 6.54 C 22.50 5.97 26.87 6.07 31.21 5.98 L 32.04 6.15 C 32.26 7.37 32.48 8.58 32.70 9.80 C 35.27 9.89 37.84 9.98 40.41 10.10 C 43.01 10.26 45.61 10.43 48.20 10.72 C 59.04 14.03 69.53 18.58 79.02 24.83 C 83.29 27.62 87.94 29.81 91.97 32.96 C 103.27 41.72 114.21 51.94 120.34 65.07 C 118.58 63.85 116.83 62.60 115.10 61.33 C 115.75 63.09 116.40 64.84 117.04 66.60 C 116.49 66.52 115.38 66.36 114.83 66.28 C 106.96 52.68 96.19 40.77 83.61 31.39 C 69.47 19.74 51.30 12.15 32.75 13.25 C 31.38 11.99 30.24 9.54 28.00 10.09 C 20.89 11.55 14.72 15.90 9.43 20.71 C 9.35 19.72 9.27 18.73 9.19 17.74 C 8.17 17.22 7.15 16.70 6.14 16.18 Z" />
<path fill="#b0b2d6" stroke="#b0b2d6" stroke-width="0.09375" opacity="1.00" d=" M 32.04 6.15 C 35.19 6.56 38.05 8.00 40.41 10.10 C 37.84 9.98 35.27 9.89 32.70 9.80 C 32.48 8.58 32.26 7.37 32.04 6.15 Z" />
<path fill="#051a52" stroke="#051a52" stroke-width="0.09375" opacity="1.00" d=" M 38.01 5.99 C 54.10 7.81 68.54 15.93 81.84 24.68 C 81.14 24.72 79.73 24.79 79.02 24.83 C 69.53 18.58 59.04 14.03 48.20 10.72 C 44.76 9.23 41.41 7.55 38.01 5.99 Z" />
<path fill="#fae1b8" stroke="#fae1b8" stroke-width="0.09375" opacity="1.00" d=" M 18.58 17.58 C 20.72 13.86 24.76 11.97 28.69 10.75 C 29.29 11.82 29.89 12.89 30.49 13.96 C 26.39 15.73 22.58 18.48 20.54 22.57 C 19.19 26.33 19.06 30.37 19.19 34.33 C 19.69 38.90 20.83 43.64 23.68 47.34 C 25.97 49.29 29.25 49.21 32.01 50.06 C 38.41 52.32 45.02 54.42 50.60 58.41 C 56.61 62.73 63.45 65.96 68.65 71.35 C 76.17 79.09 82.38 88.01 87.63 97.42 C 89.62 101.44 94.39 101.78 98.34 101.70 C 102.90 101.56 107.83 101.44 111.73 98.77 C 114.67 96.67 117.00 93.86 119.33 91.13 C 120.03 90.17 120.71 89.18 121.24 88.11 C 121.81 83.30 121.33 78.44 121.58 73.61 C 123.71 78.41 124.58 83.64 124.03 88.87 C 122.69 94.61 119.21 99.65 114.44 103.08 C 103.63 107.63 91.38 105.39 80.79 101.35 C 66.97 96.20 55.31 87.00 43.04 79.08 C 48.67 84.36 54.90 88.95 61.27 93.27 C 58.39 92.75 55.47 92.55 52.58 92.14 C 40.07 84.00 28.96 73.67 19.77 61.91 C 16.72 57.89 14.00 53.64 11.48 49.27 C 11.92 48.79 12.80 47.84 13.24 47.37 C 15.78 52.96 22.11 54.52 25.33 59.51 C 23.98 55.34 21.69 51.60 19.77 47.70 C 19.23 44.39 18.63 41.08 17.44 37.93 C 16.71 35.72 15.92 33.50 15.69 31.17 C 16.00 26.57 16.32 21.71 18.58 17.58 Z" />
<path fill="#e8b203" stroke="#e8b203" stroke-width="0.09375" opacity="1.00" d=" M 32.75 13.25 C 51.30 12.15 69.47 19.74 83.61 31.39 C 96.19 40.77 106.96 52.68 114.83 66.28 C 115.68 67.79 116.52 69.30 117.32 70.83 C 118.87 77.48 119.99 84.29 119.33 91.13 C 117.00 93.86 114.67 96.67 111.73 98.77 C 107.83 101.44 102.90 101.56 98.34 101.70 C 99.87 94.91 95.89 88.82 93.17 82.93 C 89.18 74.38 81.67 68.39 75.26 61.74 C 66.08 52.32 55.01 43.97 41.96 40.99 C 36.00 39.62 29.16 39.41 23.88 42.95 C 22.47 47.48 29.12 48.41 32.01 50.06 C 29.25 49.21 25.97 49.29 23.68 47.34 C 20.83 43.64 19.69 38.90 19.19 34.33 C 22.07 33.54 24.99 32.73 28.00 32.70 C 42.19 33.02 56.16 37.34 68.33 44.59 C 81.10 52.43 93.98 60.71 103.29 72.70 C 108.72 78.24 109.84 86.26 114.22 92.47 C 115.03 90.58 115.84 88.49 114.38 86.68 C 111.96 83.28 114.28 79.00 112.62 75.39 C 109.99 69.35 106.34 63.80 102.46 58.50 C 97.33 51.02 89.41 46.27 83.18 39.84 C 72.08 31.53 59.91 24.21 46.46 20.47 C 37.88 19.09 28.50 18.35 20.54 22.57 C 22.58 18.48 26.39 15.73 30.49 13.96 C 31.06 13.78 32.19 13.43 32.75 13.25 Z" />
<path fill="#8387b2" stroke="#8387b2" stroke-width="0.09375" opacity="1.00" d=" M 12.23 28.79 C 12.27 25.31 13.00 21.72 15.94 19.50 C 15.75 23.39 15.34 27.29 15.69 31.17 C 15.92 33.50 16.71 35.72 17.44 37.93 C 16.83 38.10 15.61 38.45 15.00 38.62 C 13.95 35.38 12.89 32.14 12.23 28.79 Z" />
<path fill="#371d02" stroke="#371d02" stroke-width="0.09375" opacity="1.00" d=" M 20.54 22.57 C 28.50 18.35 37.88 19.09 46.46 20.47 C 59.91 24.21 72.08 31.53 83.18 39.84 C 89.41 46.27 97.33 51.02 102.46 58.50 C 106.34 63.80 109.99 69.35 112.62 75.39 C 114.28 79.00 111.96 83.28 114.38 86.68 C 115.84 88.49 115.03 90.58 114.22 92.47 C 109.84 86.26 108.72 78.24 103.29 72.70 C 93.98 60.71 81.10 52.43 68.33 44.59 C 56.16 37.34 42.19 33.02 28.00 32.70 C 24.99 32.73 22.07 33.54 19.19 34.33 C 19.06 30.37 19.19 26.33 20.54 22.57 Z" />
<path fill="#04070b" stroke="#04070b" stroke-width="0.09375" opacity="1.00" d=" M 92.44 25.02 C 90.46 23.53 88.76 21.71 87.40 19.65 C 88.59 20.19 89.78 20.71 90.98 21.21 C 101.94 25.65 114.13 29.15 125.92 26.04 L 126.81 25.82 C 124.32 29.22 121.47 32.69 120.95 37.03 C 119.69 44.16 122.07 51.15 124.51 57.75 C 124.60 58.06 124.80 58.69 124.90 59.01 C 116.58 47.48 107.12 36.70 96.04 27.74 C 94.85 26.82 93.63 25.93 92.44 25.02 Z" />
<path fill="#b0b2d6" stroke="#b0b2d6" stroke-width="0.09375" opacity="1.00" d=" M 126.81 25.82 C 133.44 23.41 140.56 22.41 147.50 24.13 C 144.58 24.69 141.67 25.35 138.76 25.94 C 141.49 26.93 144.27 27.81 147.13 28.36 C 145.73 28.63 144.34 28.97 142.95 29.29 C 146.52 30.58 150.18 31.63 153.69 33.08 C 154.31 33.34 155.57 33.88 156.19 34.15 C 148.93 33.84 141.23 30.75 134.30 34.32 C 130.03 35.95 127.91 40.32 126.91 44.50 C 121.77 43.44 123.71 51.45 125.30 54.26 C 125.72 53.69 126.58 52.54 127.00 51.96 C 127.40 56.55 131.87 61.15 129.68 65.66 C 128.13 62.91 126.32 60.32 124.51 57.75 C 122.07 51.15 119.69 44.16 120.95 37.03 C 121.47 32.69 124.32 29.22 126.81 25.82 Z" />
<path fill="#371d02" stroke="#371d02" stroke-width="0.09375" opacity="1.00" d=" M 164.09 22.93 C 178.50 32.75 193.42 45.83 212.00 44.70 L 212.00 45.29 C 206.77 45.53 201.43 45.24 196.54 43.21 C 184.60 38.62 172.93 32.34 164.09 22.93 Z" />
<path fill="#8387b2" stroke="#8387b2" stroke-width="0.09375" opacity="1.00" d=" M 147.50 24.13 C 153.43 24.72 158.66 28.38 164.70 28.21 C 167.86 30.37 170.87 32.71 173.90 35.03 C 179.94 39.67 187.05 42.53 193.53 46.44 C 194.24 48.09 195.12 49.66 196.27 51.05 C 193.02 51.33 189.75 51.32 186.49 51.29 C 177.33 44.09 166.87 38.72 156.19 34.15 C 155.57 33.88 154.31 33.34 153.69 33.08 C 154.75 32.45 155.81 31.83 156.87 31.21 C 153.72 29.98 150.50 28.85 147.13 28.36 C 144.27 27.81 141.49 26.93 138.76 25.94 C 141.67 25.35 144.58 24.69 147.50 24.13 Z" />
<path fill="#9a9dc6" stroke="#9a9dc6" stroke-width="0.09375" opacity="1.00" d=" M 9.41 24.83 C 10.25 27.32 11.07 29.82 11.92 32.31 C 11.99 31.43 12.15 29.67 12.23 28.79 C 12.89 32.14 13.95 35.38 15.00 38.62 C 15.61 38.45 16.83 38.10 17.44 37.93 C 18.63 41.08 19.23 44.39 19.77 47.70 C 18.19 47.60 16.08 48.64 14.90 47.14 C 9.38 41.17 8.65 32.56 9.41 24.83 Z" />
<path fill="#b0b2d6" stroke="#b0b2d6" stroke-width="0.09375" opacity="1.00" d=" M 93.25 29.02 C 94.18 28.59 95.11 28.17 96.04 27.74 C 107.12 36.70 116.58 47.48 124.90 59.01 C 125.57 62.30 128.75 66.52 125.50 69.32 C 126.07 71.51 126.68 73.68 127.29 75.86 C 126.18 74.94 125.06 74.03 124.00 73.06 C 122.73 71.38 121.48 69.69 120.23 68.00 C 120.68 69.87 121.13 71.74 121.58 73.61 C 121.33 78.44 121.81 83.30 121.24 88.11 C 121.67 82.10 120.72 75.92 117.32 70.83 C 116.52 69.30 115.68 67.79 114.83 66.28 C 115.38 66.36 116.49 66.52 117.04 66.60 C 116.40 64.84 115.75 63.09 115.10 61.33 C 116.83 62.60 118.58 63.85 120.34 65.07 C 114.21 51.94 103.27 41.72 91.97 32.96 C 92.81 32.63 93.64 32.29 94.47 31.96 C 94.06 30.98 93.65 30.00 93.25 29.02 Z" />
<path fill="#9a9dc6" stroke="#9a9dc6" stroke-width="0.09375" opacity="1.00" d=" M 147.13 28.36 C 150.50 28.85 153.72 29.98 156.87 31.21 C 155.81 31.83 154.75 32.45 153.69 33.08 C 150.18 31.63 146.52 30.58 142.95 29.29 C 144.34 28.97 145.73 28.63 147.13 28.36 Z" />
<path fill="#fae1b8" stroke="#fae1b8" stroke-width="0.09375" opacity="1.00" d=" M 134.30 34.32 C 141.23 30.75 148.93 33.84 156.19 34.15 C 166.87 38.72 177.33 44.09 186.49 51.29 C 191.40 55.73 198.31 56.66 204.46 58.48 C 207.00 61.09 209.67 63.58 212.00 66.38 L 212.00 83.30 C 207.86 73.66 200.05 66.22 192.67 59.01 C 182.96 50.68 172.31 43.10 160.24 38.64 C 151.96 35.38 140.47 34.49 134.84 42.83 C 133.79 46.00 133.43 49.34 133.34 52.67 C 132.89 52.42 132.01 51.92 131.56 51.67 C 130.31 46.37 131.18 40.98 134.52 36.62 C 127.80 41.60 127.21 51.48 130.25 58.70 C 135.08 71.11 143.13 82.12 152.48 91.52 C 159.72 99.86 169.00 106.03 178.37 111.71 C 188.53 117.51 200.11 121.90 212.00 120.24 L 212.00 122.94 C 208.71 122.64 205.41 122.42 202.13 122.10 C 196.37 121.87 191.30 118.14 185.47 118.70 C 164.21 107.24 144.53 91.52 131.63 70.85 C 130.97 69.12 130.37 67.37 129.68 65.66 C 131.87 61.15 127.40 56.55 127.00 51.96 C 126.83 49.48 126.87 46.99 126.91 44.50 C 127.91 40.32 130.03 35.95 134.30 34.32 Z" />
<path fill="#051a52" stroke="#051a52" stroke-width="0.09375" opacity="1.00" d=" M 134.84 42.83 C 140.47 34.49 151.96 35.38 160.24 38.64 C 159.97 40.42 159.72 42.21 159.49 44.01 C 151.85 40.39 142.65 38.63 134.84 42.83 Z" />
<path fill="#8387b2" stroke="#8387b2" stroke-width="0.09375" opacity="1.00" d=" M 130.25 58.70 C 127.21 51.48 127.80 41.60 134.52 36.62 C 131.18 40.98 130.31 46.37 131.56 51.67 C 131.36 59.58 134.89 66.93 139.89 72.87 C 146.15 83.63 155.53 92.10 165.12 99.83 C 170.04 103.84 175.39 107.34 181.28 109.76 C 190.75 114.63 201.14 118.58 212.00 117.26 L 212.00 120.24 C 200.11 121.90 188.53 117.51 178.37 111.71 C 169.00 106.03 159.72 99.86 152.48 91.52 C 143.13 82.12 135.08 71.11 130.25 58.70 Z" />
<path fill="#05256f" stroke="#05256f" stroke-width="0.09375" opacity="1.00" d=" M 160.24 38.64 C 172.31 43.10 182.96 50.68 192.67 59.01 C 194.57 63.34 199.02 66.87 198.24 72.03 C 187.05 60.61 174.58 49.85 159.49 44.01 C 159.72 42.21 159.97 40.42 160.24 38.64 Z" />
<path fill="#fbc302" stroke="#fbc302" stroke-width="0.09375" opacity="1.00" d=" M 23.88 42.95 C 29.16 39.41 36.00 39.62 41.96 40.99 C 55.01 43.97 66.08 52.32 75.26 61.74 C 81.67 68.39 89.18 74.38 93.17 82.93 C 95.89 88.82 99.87 94.91 98.34 101.70 C 94.39 101.78 89.62 101.44 87.63 97.42 C 82.38 88.01 76.17 79.09 68.65 71.35 C 63.45 65.96 56.61 62.73 50.60 58.41 C 45.02 54.42 38.41 52.32 32.01 50.06 C 29.12 48.41 22.47 47.48 23.88 42.95 Z" />
<path fill="#0c0f28" stroke="#0c0f28" stroke-width="0.09375" opacity="1.00" d=" M 134.84 42.83 C 142.65 38.63 151.85 40.39 159.49 44.01 C 174.58 49.85 187.05 60.61 198.24 72.03 C 203.70 78.62 208.49 85.84 212.00 93.66 L 212.00 98.80 C 208.39 94.44 205.86 88.59 200.09 86.67 C 196.27 81.36 190.55 78.19 185.09 74.86 C 174.51 67.00 163.01 59.92 150.07 56.77 C 144.74 55.17 138.95 55.61 133.78 53.38 L 133.34 52.67 C 133.43 49.34 133.79 46.00 134.84 42.83 Z" />
<path fill="#8387b2" stroke="#8387b2" stroke-width="0.09375" opacity="1.00" d=" M 125.30 54.26 C 123.71 51.45 121.77 43.44 126.91 44.50 C 126.87 46.99 126.83 49.48 127.00 51.96 C 126.58 52.54 125.72 53.69 125.30 54.26 Z" />
<path fill="#04070b" stroke="#04070b" stroke-width="0.09375" opacity="1.00" d=" M 196.27 51.05 C 195.12 49.66 194.24 48.09 193.53 46.44 C 199.29 49.55 205.69 50.99 212.00 52.46 L 212.00 66.38 C 209.67 63.58 207.00 61.09 204.46 58.48 C 202.00 55.71 199.20 53.29 196.27 51.05 Z" />
<path fill="#b0b2d6" stroke="#b0b2d6" stroke-width="0.09375" opacity="1.00" d=" M 186.49 51.29 C 189.75 51.32 193.02 51.33 196.27 51.05 C 199.20 53.29 202.00 55.71 204.46 58.48 C 198.31 56.66 191.40 55.73 186.49 51.29 Z" />
<path fill="#b0b2d6" stroke="#b0b2d6" stroke-width="0.09375" opacity="1.00" d=" M 131.56 51.67 C 132.01 51.92 132.89 52.42 133.34 52.67 L 133.78 53.38 C 134.55 55.16 135.18 56.99 135.79 58.82 C 136.25 60.20 136.70 61.57 137.21 62.92 C 138.75 69.09 145.74 67.71 150.34 69.69 C 163.64 75.96 172.99 87.69 182.50 98.47 C 185.28 101.61 186.95 105.47 188.65 109.25 C 190.51 113.68 196.16 113.72 200.15 114.90 C 203.38 115.50 206.68 115.53 209.95 115.40 C 210.46 115.39 211.49 115.37 212.00 115.36 L 212.00 117.26 C 201.14 118.58 190.75 114.63 181.28 109.76 C 171.54 102.95 161.82 96.05 153.44 87.56 C 148.47 83.06 145.40 76.81 139.89 72.87 C 134.89 66.93 131.36 59.58 131.56 51.67 Z" />
<path fill="#05256f" stroke="#05256f" stroke-width="0.09375" opacity="1.00" d=" M 133.78 53.38 C 138.95 55.61 144.74 55.17 150.07 56.77 C 163.01 59.92 174.51 67.00 185.09 74.86 C 190.55 78.19 196.27 81.36 200.09 86.67 C 203.91 93.40 208.67 99.57 212.00 106.59 L 212.00 115.36 C 211.49 115.37 210.46 115.39 209.95 115.40 C 207.43 110.61 206.44 105.15 203.61 100.50 C 199.59 92.25 192.46 86.20 185.68 80.27 C 178.26 74.59 171.66 67.51 162.80 64.03 C 154.25 60.65 145.12 57.59 135.79 58.82 C 135.18 56.99 134.55 55.16 133.78 53.38 Z" />
<path fill="#88a2bb" stroke="#88a2bb" stroke-width="0.09375" opacity="1.00" d=" M 124.51 57.75 C 126.32 60.32 128.13 62.91 129.68 65.66 C 130.37 67.37 130.97 69.12 131.63 70.85 C 132.31 72.92 132.89 75.02 133.51 77.10 C 131.76 76.26 130.03 75.39 128.31 74.52 C 129.26 79.52 130.66 84.44 131.39 89.48 C 132.11 94.60 130.60 99.65 129.98 104.70 C 132.58 102.07 133.90 98.62 134.69 95.07 C 134.89 95.62 135.30 96.71 135.50 97.26 C 134.49 100.66 133.16 104.15 130.60 106.70 C 129.26 107.13 127.91 107.50 126.56 107.88 C 126.79 105.04 127.02 102.19 127.18 99.35 C 127.72 99.52 128.78 99.85 129.31 100.02 C 132.21 90.75 129.51 80.78 124.00 73.06 C 125.06 74.03 126.18 74.94 127.29 75.86 C 126.68 73.68 126.07 71.51 125.50 69.32 C 128.75 66.52 125.57 62.30 124.90 59.01 C 124.80 58.69 124.60 58.06 124.51 57.75 Z" />
<path fill="#8387b2" stroke="#8387b2" stroke-width="0.09375" opacity="1.00" d=" M 135.79 58.82 C 145.12 57.59 154.25 60.65 162.80 64.03 C 171.66 67.51 178.26 74.59 185.68 80.27 C 192.46 86.20 199.59 92.25 203.61 100.50 C 206.44 105.15 207.43 110.61 209.95 115.40 C 206.68 115.53 203.38 115.50 200.15 114.90 C 193.61 97.49 181.03 82.78 165.94 72.11 C 157.75 65.92 147.61 61.90 137.21 62.92 C 136.70 61.57 136.25 60.20 135.79 58.82 Z" />
<path fill="#8387b2" stroke="#8387b2" stroke-width="0.09375" opacity="1.00" d=" M 192.67 59.01 C 200.05 66.22 207.86 73.66 212.00 83.30 L 212.00 93.66 C 208.49 85.84 203.70 78.62 198.24 72.03 C 199.02 66.87 194.57 63.34 192.67 59.01 Z" />
<path fill="#051a52" stroke="#051a52" stroke-width="0.09375" opacity="1.00" d=" M 17.28 63.01 C 18.11 62.64 18.94 62.27 19.77 61.91 C 28.96 73.67 40.07 84.00 52.58 92.14 L 53.26 92.59 C 54.68 94.08 56.00 95.66 57.32 97.23 C 44.03 92.66 30.16 88.24 15.91 89.61 C 15.31 82.95 15.35 76.09 17.54 69.70 C 20.88 72.49 24.30 75.21 28.13 77.32 C 25.54 71.83 21.15 67.57 17.28 63.01 Z" />
<path fill="#9a9dc6" stroke="#9a9dc6" stroke-width="0.09375" opacity="1.00" d=" M 137.21 62.92 C 147.61 61.90 157.75 65.92 165.94 72.11 C 181.03 82.78 193.61 97.49 200.15 114.90 C 196.16 113.72 190.51 113.68 188.65 109.25 C 186.95 105.47 185.28 101.61 182.50 98.47 C 172.99 87.69 163.64 75.96 150.34 69.69 C 145.74 67.71 138.75 69.09 137.21 62.92 Z" />
<path fill="#8387b2" stroke="#8387b2" stroke-width="0.09375" opacity="1.00" d=" M 120.23 68.00 C 121.48 69.69 122.73 71.38 124.00 73.06 C 129.51 80.78 132.21 90.75 129.31 100.02 C 128.78 99.85 127.72 99.52 127.18 99.35 C 127.30 97.23 127.43 95.13 127.59 93.02 C 126.68 94.38 125.76 95.73 124.83 97.08 C 124.46 94.35 124.13 91.62 124.03 88.87 C 124.58 83.64 123.71 78.41 121.58 73.61 C 121.13 71.74 120.68 69.87 120.23 68.00 Z" />
<path fill="#8387b2" stroke="#8387b2" stroke-width="0.09375" opacity="1.00" d=" M 117.32 70.83 C 120.72 75.92 121.67 82.10 121.24 88.11 C 120.71 89.18 120.03 90.17 119.33 91.13 C 119.99 84.29 118.87 77.48 117.32 70.83 Z" />
<path fill="#04070b" stroke="#04070b" stroke-width="0.09375" opacity="1.00" d=" M 133.51 77.10 C 132.89 75.02 132.31 72.92 131.63 70.85 C 144.53 91.52 164.21 107.24 185.47 118.70 C 189.70 121.74 194.48 123.94 199.58 125.03 C 203.68 126.09 207.86 126.79 212.00 127.68 L 212.00 141.71 C 198.84 129.40 184.02 118.52 167.11 111.99 C 157.65 108.47 147.28 106.05 137.22 108.12 C 129.70 109.61 123.17 115.06 120.52 122.27 C 118.46 130.42 118.66 139.13 121.10 147.17 C 121.48 148.55 121.98 149.89 122.46 151.25 C 122.59 151.66 122.86 152.49 122.99 152.90 C 114.45 141.15 104.91 130.09 93.85 120.63 C 88.26 115.52 81.63 111.75 75.86 106.88 C 76.44 106.82 77.58 106.69 78.16 106.63 C 79.40 107.24 80.63 107.88 81.89 108.48 C 91.78 112.20 102.39 114.86 113.04 114.22 C 119.48 113.73 126.21 111.72 130.60 106.70 C 133.16 104.15 134.49 100.66 135.50 97.26 C 136.74 90.49 135.63 83.57 133.51 77.10 Z" />
<path fill="#fae1b8" stroke="#fae1b8" stroke-width="0.09375" opacity="1.00" d=" M 139.89 72.87 C 145.40 76.81 148.47 83.06 153.44 87.56 C 161.82 96.05 171.54 102.95 181.28 109.76 C 175.39 107.34 170.04 103.84 165.12 99.83 C 155.53 92.10 146.15 83.63 139.89 72.87 Z" />
<path fill="#8387b2" stroke="#8387b2" stroke-width="0.09375" opacity="1.00" d=" M 128.31 74.52 C 130.03 75.39 131.76 76.26 133.51 77.10 C 135.63 83.57 136.74 90.49 135.50 97.26 C 135.30 96.71 134.89 95.62 134.69 95.07 C 133.90 98.62 132.58 102.07 129.98 104.70 C 130.60 99.65 132.11 94.60 131.39 89.48 C 130.66 84.44 129.26 79.52 128.31 74.52 Z" />
<path fill="#05256f" stroke="#05256f" stroke-width="0.09375" opacity="1.00" d=" M 43.04 79.08 C 55.31 87.00 66.97 96.20 80.79 101.35 C 91.38 105.39 103.63 107.63 114.44 103.08 C 109.71 106.48 103.54 106.60 97.94 106.51 C 84.73 105.64 72.65 99.58 61.27 93.27 C 54.90 88.95 48.67 84.36 43.04 79.08 Z" />
<path fill="#051a52" stroke="#051a52" stroke-width="0.09375" opacity="1.00" d=" M 200.09 86.67 C 205.86 88.59 208.39 94.44 212.00 98.80 L 212.00 106.59 C 208.67 99.57 203.91 93.40 200.09 86.67 Z" />
<path fill="#8387b2" stroke="#8387b2" stroke-width="0.09375" opacity="1.00" d=" M 15.91 89.61 C 30.16 88.24 44.03 92.66 57.32 97.23 C 56.00 95.66 54.68 94.08 53.26 92.59 C 55.11 93.78 57.01 94.88 58.93 95.94 C 61.57 97.62 64.15 99.38 66.78 101.06 C 66.46 101.63 66.13 102.20 65.80 102.78 C 67.67 103.82 69.53 104.86 71.39 105.93 C 71.37 105.27 71.34 103.95 71.32 103.30 C 73.63 104.33 75.92 105.44 78.16 106.63 C 77.58 106.69 76.44 106.82 75.86 106.88 C 81.63 111.75 88.26 115.52 93.85 120.63 C 93.55 121.92 92.29 123.45 93.41 124.66 C 97.73 129.99 103.57 134.05 106.99 140.14 C 101.01 134.05 95.11 127.70 87.85 123.10 C 90.32 126.59 93.05 129.87 95.81 133.12 C 94.29 132.08 92.77 131.05 91.24 130.03 C 84.58 124.55 77.20 120.01 70.01 115.27 C 70.76 115.21 72.27 115.11 73.02 115.05 C 65.36 105.92 53.65 101.58 42.40 98.79 C 42.82 98.59 43.65 98.19 44.07 97.99 L 44.82 97.81 C 55.05 101.39 64.39 106.89 74.29 111.17 C 67.90 104.18 58.53 101.44 50.33 97.27 C 43.44 93.85 35.73 91.85 28.04 91.64 C 18.61 93.02 8.78 93.08 0.00 97.29 L 0.00 94.12 C 5.01 91.76 10.44 90.38 15.91 89.61 Z" />
<path fill="#b0b2d6" stroke="#b0b2d6" stroke-width="0.09375" opacity="1.00" d=" M 114.44 103.08 C 119.21 99.65 122.69 94.61 124.03 88.87 C 124.13 91.62 124.46 94.35 124.83 97.08 C 125.76 95.73 126.68 94.38 127.59 93.02 C 127.43 95.13 127.30 97.23 127.18 99.35 C 127.02 102.19 126.79 105.04 126.56 107.88 C 127.91 107.50 129.26 107.13 130.60 106.70 C 126.21 111.72 119.48 113.73 113.04 114.22 C 102.39 114.86 91.78 112.20 81.89 108.48 C 81.97 107.91 82.14 106.76 82.23 106.19 C 74.48 102.75 67.21 98.07 58.93 95.94 C 57.01 94.88 55.11 93.78 53.26 92.59 L 52.58 92.14 C 55.47 92.55 58.39 92.75 61.27 93.27 C 72.65 99.58 84.73 105.64 97.94 106.51 C 103.54 106.60 109.71 106.48 114.44 103.08 Z" />
<path fill="#05256f" stroke="#05256f" stroke-width="0.09375" opacity="1.00" d=" M 0.00 97.29 C 8.78 93.08 18.61 93.02 28.04 91.64 C 35.73 91.85 43.44 93.85 50.33 97.27 C 48.48 97.20 46.62 97.38 44.82 97.81 L 44.07 97.99 C 29.66 95.07 14.03 91.44 0.00 97.94 L 0.00 97.29 Z" />
<path fill="#fae1b8" stroke="#fae1b8" stroke-width="0.09375" opacity="1.00" d=" M 0.00 97.94 C 14.03 91.44 29.66 95.07 44.07 97.99 C 43.65 98.19 42.82 98.59 42.40 98.79 C 36.49 98.18 30.75 96.28 24.77 96.22 C 18.71 95.99 12.73 97.26 6.87 98.68 C 12.68 98.14 18.51 97.38 24.34 98.09 C 18.50 100.05 12.32 100.48 6.40 102.11 C 4.18 102.80 2.04 103.75 0.00 104.87 L 0.00 97.94 Z" />
<path fill="#051a52" stroke="#051a52" stroke-width="0.09375" opacity="1.00" d=" M 6.87 98.68 C 12.73 97.26 18.71 95.99 24.77 96.22 C 30.75 96.28 36.49 98.18 42.40 98.79 C 53.65 101.58 65.36 105.92 73.02 115.05 C 72.27 115.11 70.76 115.21 70.01 115.27 C 64.79 111.85 59.13 109.18 53.28 107.02 C 45.16 100.59 34.36 99.03 24.34 98.09 C 18.51 97.38 12.68 98.14 6.87 98.68 Z" />
<path fill="#9a9dc6" stroke="#9a9dc6" stroke-width="0.09375" opacity="1.00" d=" M 58.93 95.94 C 67.21 98.07 74.48 102.75 82.23 106.19 C 82.14 106.76 81.97 107.91 81.89 108.48 C 80.63 107.88 79.40 107.24 78.16 106.63 C 75.92 105.44 73.63 104.33 71.32 103.30 C 71.34 103.95 71.37 105.27 71.39 105.93 C 69.53 104.86 67.67 103.82 65.80 102.78 C 66.13 102.20 66.46 101.63 66.78 101.06 C 64.15 99.38 61.57 97.62 58.93 95.94 Z" />
<path fill="#051a52" stroke="#051a52" stroke-width="0.09375" opacity="1.00" d=" M 44.82 97.81 C 46.62 97.38 48.48 97.20 50.33 97.27 C 58.53 101.44 67.90 104.18 74.29 111.17 C 64.39 106.89 55.05 101.39 44.82 97.81 Z" />
<path fill="#8387b2" stroke="#8387b2" stroke-width="0.09375" opacity="1.00" d=" M 24.34 98.09 C 34.36 99.03 45.16 100.59 53.28 107.02 C 47.51 106.49 42.27 103.97 36.77 102.44 C 28.61 100.97 20.13 101.39 12.05 103.20 C 10.15 102.94 8.28 102.53 6.40 102.11 C 12.32 100.48 18.50 100.05 24.34 98.09 Z" />
<path fill="#9a9dc6" stroke="#9a9dc6" stroke-width="0.09375" opacity="1.00" d=" M 0.00 104.87 C 2.04 103.75 4.18 102.80 6.40 102.11 C 8.28 102.53 10.15 102.94 12.05 103.20 C 8.33 104.23 4.87 106.18 2.66 109.44 C 2.52 109.57 2.23 109.83 2.09 109.96 C 1.56 110.33 0.52 111.07 0.00 111.44 L 0.00 104.87 Z" />
<path fill="#b0b2d6" stroke="#b0b2d6" stroke-width="0.09375" opacity="1.00" d=" M 12.05 103.20 C 20.13 101.39 28.61 100.97 36.77 102.44 C 42.27 103.97 47.51 106.49 53.28 107.02 C 59.13 109.18 64.79 111.85 70.01 115.27 C 77.20 120.01 84.58 124.55 91.24 130.03 C 90.58 130.14 89.25 130.37 88.59 130.49 C 79.88 123.48 69.84 118.56 60.63 112.31 C 54.71 108.63 47.55 108.48 40.93 107.03 C 34.59 105.59 28.00 106.01 21.61 106.89 C 13.58 108.79 5.86 114.08 3.13 122.16 C 2.12 123.31 1.06 124.40 0.00 125.50 L 0.00 120.30 C 2.77 115.23 6.26 110.08 11.64 107.52 C 15.95 105.54 20.63 104.64 25.11 103.15 C 20.07 103.57 14.80 103.91 10.28 106.44 C 7.88 107.76 5.33 108.81 2.66 109.44 C 4.87 106.18 8.33 104.23 12.05 103.20 Z" />
<path fill="#8387b2" stroke="#8387b2" stroke-width="0.09375" opacity="1.00" d=" M 10.28 106.44 C 14.80 103.91 20.07 103.57 25.11 103.15 C 20.63 104.64 15.95 105.54 11.64 107.52 C 6.26 110.08 2.77 115.23 0.00 120.30 L 0.00 114.11 C 1.79 113.57 2.63 111.71 2.09 109.96 C 2.23 109.83 2.52 109.57 2.66 109.44 C 5.33 108.81 7.88 107.76 10.28 106.44 Z" />
<path fill="#05256f" stroke="#05256f" stroke-width="0.09375" opacity="1.00" d=" M 21.61 106.89 C 28.00 106.01 34.59 105.59 40.93 107.03 C 47.55 108.48 54.71 108.63 60.63 112.31 C 69.84 118.56 79.88 123.48 88.59 130.49 C 90.84 133.15 93.11 135.80 95.46 138.38 C 98.60 142.43 101.81 146.44 105.02 150.46 C 102.57 152.29 101.67 155.17 101.97 158.13 C 92.04 148.34 84.62 135.96 72.76 128.20 C 68.89 125.44 64.09 124.47 60.19 121.81 C 58.46 119.56 58.35 116.46 56.83 114.08 C 45.69 110.38 33.00 109.07 21.92 113.73 C 19.02 114.92 15.86 115.16 12.89 116.07 C 9.46 118.31 6.62 121.39 2.90 123.20 L 3.13 122.16 C 5.86 114.08 13.58 108.79 21.61 106.89 Z" />
<path fill="#b0b2d6" stroke="#b0b2d6" stroke-width="0.09375" opacity="1.00" d=" M 137.22 108.12 C 147.28 106.05 157.65 108.47 167.11 111.99 C 184.02 118.52 198.84 129.40 212.00 141.71 L 212.00 150.37 C 208.62 147.23 204.70 144.70 201.55 141.30 C 198.45 136.47 193.29 133.74 189.01 130.14 C 189.04 129.52 189.11 128.29 189.15 127.68 C 195.40 131.68 201.11 136.41 206.84 141.11 C 198.39 131.28 187.48 123.83 176.08 117.81 C 163.33 110.67 147.91 106.39 133.55 111.01 C 131.04 111.59 129.20 113.47 127.41 115.19 C 131.26 115.41 135.13 114.99 138.97 115.41 C 142.43 116.11 145.63 117.84 149.19 118.07 C 151.34 118.33 153.51 118.34 155.67 118.49 C 156.08 118.53 156.89 118.60 157.30 118.64 C 152.69 118.92 148.12 119.64 143.50 119.78 C 138.47 117.81 131.51 114.27 127.03 119.03 C 124.99 120.55 123.37 125.03 120.52 122.27 C 123.17 115.06 129.70 109.61 137.22 108.12 Z" />
<path fill="#051a52" stroke="#051a52" stroke-width="0.09375" opacity="1.00" d=" M 133.55 111.01 C 147.91 106.39 163.33 110.67 176.08 117.81 C 187.48 123.83 198.39 131.28 206.84 141.11 C 201.11 136.41 195.40 131.68 189.15 127.68 C 173.12 116.32 153.57 108.00 133.55 111.01 Z" />
<path fill="#fae1b8" stroke="#fae1b8" stroke-width="0.09375" opacity="1.00" d=" M 0.00 111.44 C 0.52 111.07 1.56 110.33 2.09 109.96 C 2.63 111.71 1.79 113.57 0.00 114.11 L 0.00 111.44 Z" />
<path fill="#051a52" stroke="#051a52" stroke-width="0.09375" opacity="1.00" d=" M 21.92 113.73 C 33.00 109.07 45.69 110.38 56.83 114.08 C 58.35 116.46 58.46 119.56 60.19 121.81 C 64.09 124.47 68.89 125.44 72.76 128.20 C 84.62 135.96 92.04 148.34 101.97 158.13 C 102.69 160.83 103.24 163.58 103.94 166.28 C 104.93 172.10 111.71 174.71 112.37 180.70 C 112.60 184.92 112.33 189.15 111.88 193.34 C 105.58 188.62 104.01 180.46 99.68 174.26 C 90.43 161.30 78.15 150.98 65.73 141.19 C 72.60 143.01 77.66 148.23 83.96 151.24 C 89.37 153.86 92.89 159.74 99.28 160.35 C 97.76 156.07 95.06 152.34 91.60 149.42 C 82.35 141.25 75.63 129.56 63.34 125.50 C 51.26 117.37 36.69 111.81 21.92 113.73 Z" />
<path fill="#9a9dc6" stroke="#9a9dc6" stroke-width="0.09375" opacity="1.00" d=" M 127.41 115.19 C 129.20 113.47 131.04 111.59 133.55 111.01 C 153.57 108.00 173.12 116.32 189.15 127.68 C 189.11 128.29 189.04 129.52 189.01 130.14 C 178.53 123.51 167.51 117.55 155.39 114.53 C 150.62 112.94 145.57 112.69 140.59 112.94 C 143.53 114.52 146.34 116.33 149.19 118.07 C 145.63 117.84 142.43 116.11 138.97 115.41 C 135.13 114.99 131.26 115.41 127.41 115.19 Z" />
<path fill="#0c0f28" stroke="#0c0f28" stroke-width="0.09375" opacity="1.00" d=" M 21.92 113.73 C 36.69 111.81 51.26 117.37 63.34 125.50 C 75.63 129.56 82.35 141.25 91.60 149.42 C 95.06 152.34 97.76 156.07 99.28 160.35 C 92.89 159.74 89.37 153.86 83.96 151.24 C 77.66 148.23 72.60 143.01 65.73 141.19 C 58.51 138.20 51.58 134.53 44.21 131.93 C 34.70 129.17 24.67 127.40 14.78 128.79 C 10.44 129.44 6.05 129.86 1.67 129.43 C 2.07 127.35 2.47 125.27 2.90 123.20 C 6.62 121.39 9.46 118.31 12.89 116.07 C 15.86 115.16 19.02 114.92 21.92 113.73 Z" />
<path fill="#8387b2" stroke="#8387b2" stroke-width="0.09375" opacity="1.00" d=" M 140.59 112.94 C 145.57 112.69 150.62 112.94 155.39 114.53 C 155.48 115.85 155.58 117.17 155.67 118.49 C 153.51 118.34 151.34 118.33 149.19 118.07 C 146.34 116.33 143.53 114.52 140.59 112.94 Z" />
<path fill="#05256f" stroke="#05256f" stroke-width="0.09375" opacity="1.00" d=" M 155.39 114.53 C 167.51 117.55 178.53 123.51 189.01 130.14 C 193.29 133.74 198.45 136.47 201.55 141.30 C 188.58 130.94 173.90 121.54 157.30 118.64 C 156.89 118.60 156.08 118.53 155.67 118.49 C 155.58 117.17 155.48 115.85 155.39 114.53 Z" />
<path fill="#fae1b8" stroke="#fae1b8" stroke-width="0.09375" opacity="1.00" d=" M 127.03 119.03 C 131.51 114.27 138.47 117.81 143.50 119.78 C 148.12 119.64 152.69 118.92 157.30 118.64 C 173.90 121.54 188.58 130.94 201.55 141.30 C 204.70 144.70 208.62 147.23 212.00 150.37 L 212.00 157.39 C 207.04 151.60 201.79 146.02 196.48 140.55 C 185.01 130.76 171.06 123.27 155.96 121.36 C 149.23 120.54 142.66 123.65 137.92 128.26 C 137.16 127.33 136.40 126.39 135.64 125.45 C 136.76 123.83 137.87 122.20 138.94 120.55 C 136.70 121.77 134.33 123.14 133.40 125.67 C 127.89 133.81 128.87 144.19 130.82 153.32 C 129.67 152.91 128.29 152.57 127.95 151.21 C 125.44 145.32 125.75 138.75 124.72 132.53 C 122.36 137.06 121.54 142.14 121.10 147.17 C 118.66 139.13 118.46 130.42 120.52 122.27 C 123.37 125.03 124.99 120.55 127.03 119.03 Z" />
<path fill="#05256f" stroke="#05256f" stroke-width="0.09375" opacity="1.00" d=" M 185.47 118.70 C 191.30 118.14 196.37 121.87 202.13 122.10 C 201.27 123.07 200.43 124.05 199.58 125.03 C 194.48 123.94 189.70 121.74 185.47 118.70 Z" />
<path fill="#b0b2d6" stroke="#b0b2d6" stroke-width="0.09375" opacity="1.00" d=" M 93.41 124.66 C 92.29 123.45 93.55 121.92 93.85 120.63 C 104.91 130.09 114.45 141.15 122.99 152.90 C 123.18 153.90 122.97 154.92 122.91 155.93 C 122.89 162.30 128.77 167.07 129.38 173.49 C 126.39 169.59 124.19 165.19 121.90 160.87 C 121.36 160.93 120.28 161.06 119.74 161.13 C 116.46 153.55 112.07 146.63 106.99 140.14 C 103.57 134.05 97.73 129.99 93.41 124.66 Z" />
<path fill="#b0b2d6" stroke="#b0b2d6" stroke-width="0.09375" opacity="1.00" d=" M 133.40 125.67 C 134.33 123.14 136.70 121.77 138.94 120.55 C 137.87 122.20 136.76 123.83 135.64 125.45 C 136.40 126.39 137.16 127.33 137.92 128.26 C 136.36 130.76 135.14 133.45 134.23 136.24 C 133.64 135.57 133.04 134.90 132.46 134.23 C 132.07 137.31 131.48 140.35 130.84 143.38 C 129.10 137.16 132.84 131.68 133.40 125.67 Z" />
<path fill="#04070b" stroke="#04070b" stroke-width="0.09375" opacity="1.00" d=" M 137.92 128.26 C 142.66 123.65 149.23 120.54 155.96 121.36 C 171.06 123.27 185.01 130.76 196.48 140.55 C 201.79 146.02 207.04 151.60 212.00 157.39 L 212.00 186.48 C 203.16 174.62 193.30 163.25 180.60 155.40 C 167.08 146.53 150.21 141.76 134.14 145.04 C 134.02 142.11 134.03 139.17 134.23 136.24 C 135.14 133.45 136.36 130.76 137.92 128.26 Z" />
<path fill="#5d90e7" stroke="#5d90e7" stroke-width="0.09375" opacity="1.00" d=" M 0.00 125.50 C 1.06 124.40 2.12 123.31 3.13 122.16 L 2.90 123.20 C 2.47 125.27 2.07 127.35 1.67 129.43 C 1.42 130.76 1.19 132.09 0.99 133.43 C 1.06 136.14 1.29 138.85 1.72 141.54 C 2.09 143.25 2.55 144.95 3.01 146.65 C 6.80 147.16 10.61 147.63 14.34 148.53 C 11.56 151.96 7.87 155.85 8.65 160.65 C 10.36 165.50 14.83 169.09 15.25 174.48 C 10.29 168.23 5.45 161.56 3.23 153.79 C 2.28 150.59 1.14 147.46 0.00 144.33 L 0.00 125.50 Z" />
<path fill="#b0b2d6" stroke="#b0b2d6" stroke-width="0.09375" opacity="1.00" d=" M 202.13 122.10 C 205.41 122.42 208.71 122.64 212.00 122.94 L 212.00 127.68 C 207.86 126.79 203.68 126.09 199.58 125.03 C 200.43 124.05 201.27 123.07 202.13 122.10 Z" />
<path fill="#fae1b8" stroke="#fae1b8" stroke-width="0.09375" opacity="1.00" d=" M 87.85 123.10 C 95.11 127.70 101.01 134.05 106.99 140.14 C 112.07 146.63 116.46 153.55 119.74 161.13 C 122.52 166.29 125.13 171.64 126.32 177.42 C 121.82 173.43 119.61 167.65 115.99 162.95 C 110.48 155.76 106.07 147.75 99.94 141.04 C 98.79 139.65 97.09 138.98 95.46 138.38 C 93.11 135.80 90.84 133.15 88.59 130.49 C 89.25 130.37 90.58 130.14 91.24 130.03 C 92.77 131.05 94.29 132.08 95.81 133.12 C 93.05 129.87 90.32 126.59 87.85 123.10 Z" />
<path fill="#04070b" stroke="#04070b" stroke-width="0.09375" opacity="1.00" d=" M 133.40 125.67 C 132.84 131.68 129.10 137.16 130.84 143.38 C 131.00 145.45 131.39 147.49 131.80 149.53 C 131.74 151.68 131.62 153.83 131.53 155.99 C 131.28 155.10 131.04 154.21 130.82 153.32 C 128.87 144.19 127.89 133.81 133.40 125.67 Z" />
<path fill="#05256f" stroke="#05256f" stroke-width="0.09375" opacity="1.00" d=" M 14.78 128.79 C 24.67 127.40 34.70 129.17 44.21 131.93 C 51.58 134.53 58.51 138.20 65.73 141.19 C 78.15 150.98 90.43 161.30 99.68 174.26 C 104.01 180.46 105.58 188.62 111.88 193.34 C 112.33 189.15 112.60 184.92 112.37 180.70 C 113.54 187.66 114.34 195.02 111.98 201.83 C 108.68 198.38 107.59 193.64 105.35 189.56 C 100.71 181.13 96.31 172.41 89.84 165.18 C 77.22 150.24 59.89 139.44 41.15 134.04 C 30.60 131.97 19.39 129.83 8.88 133.24 C 6.31 133.87 3.37 135.40 0.99 133.43 C 1.19 132.09 1.42 130.76 1.67 129.43 C 6.05 129.86 10.44 129.44 14.78 128.79 Z" />
<path fill="#0246b5" stroke="#0246b5" stroke-width="0.09375" opacity="1.00" d=" M 8.88 133.24 C 19.39 129.83 30.60 131.97 41.15 134.04 C 59.89 139.44 77.22 150.24 89.84 165.18 C 96.31 172.41 100.71 181.13 105.35 189.56 C 107.59 193.64 108.68 198.38 111.98 201.83 C 114.34 195.02 113.54 187.66 112.37 180.70 C 111.71 174.71 104.93 172.10 103.94 166.28 C 103.24 163.58 102.69 160.83 101.97 158.13 C 101.67 155.17 102.57 152.29 105.02 150.46 C 110.35 157.30 114.75 164.90 118.12 172.89 C 123.36 185.89 121.41 202.93 109.90 212.00 L 103.83 212.00 C 103.74 203.12 103.79 193.71 99.12 185.81 C 85.42 157.19 55.10 136.10 22.98 136.24 C 15.54 136.07 8.41 138.54 1.72 141.54 C 1.29 138.85 1.06 136.14 0.99 133.43 C 3.37 135.40 6.31 133.87 8.88 133.24 Z" />
<path fill="#b0b2d6" stroke="#b0b2d6" stroke-width="0.09375" opacity="1.00" d=" M 121.10 147.17 C 121.54 142.14 122.36 137.06 124.72 132.53 C 125.75 138.75 125.44 145.32 127.95 151.21 C 128.29 152.57 129.67 152.91 130.82 153.32 C 131.04 154.21 131.28 155.10 131.53 155.99 C 131.62 153.83 131.74 151.68 131.80 149.53 C 134.21 155.14 134.21 161.49 137.21 166.89 C 139.71 173.30 144.80 178.11 147.97 184.12 L 148.45 184.94 C 143.33 181.19 140.74 175.15 136.08 170.93 C 130.42 165.43 126.90 158.19 124.71 150.69 C 124.15 150.83 123.02 151.11 122.46 151.25 C 121.98 149.89 121.48 148.55 121.10 147.17 Z" />
<path fill="#fae1b8" stroke="#fae1b8" stroke-width="0.09375" opacity="1.00" d=" M 132.46 134.23 C 133.04 134.90 133.64 135.57 134.23 136.24 C 134.03 139.17 134.02 142.11 134.14 145.04 C 134.40 148.48 135.08 151.87 136.04 155.18 C 145.21 179.38 164.11 199.22 186.36 212.00 L 183.40 212.00 C 175.14 207.47 167.95 201.31 160.71 195.36 C 155.93 192.25 151.77 188.35 147.97 184.12 C 144.80 178.11 139.71 173.30 137.21 166.89 C 134.21 161.49 134.21 155.14 131.80 149.53 C 131.39 147.49 131.00 145.45 130.84 143.38 C 131.48 140.35 132.07 137.31 132.46 134.23 Z" />
<path fill="#0159ce" stroke="#0159ce" stroke-width="0.09375" opacity="1.00" d=" M 1.72 141.54 C 8.41 138.54 15.54 136.07 22.98 136.24 C 55.10 136.10 85.42 157.19 99.12 185.81 C 103.79 193.71 103.74 203.12 103.83 212.00 L 82.25 212.00 C 78.17 198.22 70.45 185.64 60.13 175.66 C 52.75 167.59 43.86 160.74 34.03 155.95 C 27.30 153.91 20.98 150.81 14.34 148.53 C 10.61 147.63 6.80 147.16 3.01 146.65 C 2.55 144.95 2.09 143.25 1.72 141.54 Z" />
<path fill="#b0b2d6" stroke="#b0b2d6" stroke-width="0.09375" opacity="1.00" d=" M 95.46 138.38 C 97.09 138.98 98.79 139.65 99.94 141.04 C 106.07 147.75 110.48 155.76 115.99 162.95 C 119.61 167.65 121.82 173.43 126.32 177.42 C 126.70 179.34 126.91 181.28 127.21 183.21 C 126.33 181.87 125.40 180.58 124.48 179.28 C 121.89 186.48 122.03 194.21 120.67 201.66 C 118.41 205.38 115.92 209.01 112.73 212.00 L 109.90 212.00 C 121.41 202.93 123.36 185.89 118.12 172.89 C 114.75 164.90 110.35 157.30 105.02 150.46 C 101.81 146.44 98.60 142.43 95.46 138.38 Z" />
<path fill="#023406" stroke="#023406" stroke-width="0.09375" opacity="1.00" d=" M 134.14 145.04 C 150.21 141.76 167.08 146.53 180.60 155.40 C 193.30 163.25 203.16 174.62 212.00 186.48 L 212.00 212.00 L 196.67 212.00 C 189.41 192.85 174.65 177.47 158.02 165.99 C 151.28 161.25 143.38 158.77 136.04 155.18 C 135.08 151.87 134.40 148.48 134.14 145.04 Z" />
<path fill="#b0b2d6" stroke="#b0b2d6" stroke-width="0.09375" opacity="1.00" d=" M 0.00 144.33 C 1.14 147.46 2.28 150.59 3.23 153.79 C 5.45 161.56 10.29 168.23 15.25 174.48 C 15.42 174.71 15.76 175.18 15.93 175.41 C 22.49 185.51 31.58 193.58 40.97 200.98 C 31.04 196.20 23.23 188.08 16.21 179.77 C 9.88 171.66 3.99 163.07 0.00 153.53 L 0.00 144.33 Z" />
<path fill="#6b98eb" stroke="#6b98eb" stroke-width="0.09375" opacity="1.00" d=" M 14.34 148.53 C 20.98 150.81 27.30 153.91 34.03 155.95 C 43.86 160.74 52.75 167.59 60.13 175.66 C 61.69 180.51 63.86 185.12 65.63 189.89 C 62.18 189.95 59.24 191.99 55.98 192.66 C 51.59 191.87 47.15 191.49 42.74 190.94 C 32.88 187.56 23.80 182.22 15.93 175.41 C 15.76 175.18 15.42 174.71 15.25 174.48 C 14.83 169.09 10.36 165.50 8.65 160.65 C 7.87 155.85 11.56 151.96 14.34 148.53 Z" />
<path fill="#fae1b8" stroke="#fae1b8" stroke-width="0.09375" opacity="1.00" d=" M 122.46 151.25 C 123.02 151.11 124.15 150.83 124.71 150.69 C 126.90 158.19 130.42 165.43 136.08 170.93 C 140.74 175.15 143.33 181.19 148.45 184.94 C 150.25 187.19 152.12 189.39 154.16 191.42 C 153.65 193.45 153.14 195.49 152.64 197.53 C 145.92 190.86 139.89 183.53 134.52 175.73 C 134.45 175.46 134.32 174.91 134.25 174.64 C 131.82 176.26 131.54 172.71 130.74 171.27 C 128.91 165.79 125.79 160.90 122.91 155.93 C 122.97 154.92 123.18 153.90 122.99 152.90 C 122.86 152.49 122.59 151.66 122.46 151.25 Z" />
<path fill="#8387b2" stroke="#8387b2" stroke-width="0.09375" opacity="1.00" d=" M 0.00 153.53 C 3.99 163.07 9.88 171.66 16.21 179.77 C 23.23 188.08 31.04 196.20 40.97 200.98 C 47.15 204.29 53.24 207.77 58.84 212.00 L 47.50 212.00 C 43.29 209.97 39.08 207.98 34.72 206.31 C 34.42 207.08 34.12 207.84 33.82 208.60 C 32.42 207.35 30.97 206.14 29.50 204.97 C 33.50 202.27 37.58 205.11 41.32 206.73 C 38.24 201.38 31.39 200.96 27.82 196.29 C 17.15 185.24 6.34 173.77 0.00 159.55 L 0.00 153.53 Z" />
<path fill="#88a2bb" stroke="#88a2bb" stroke-width="0.09375" opacity="1.00" d=" M 136.04 155.18 C 143.38 158.77 151.28 161.25 158.02 165.99 C 174.65 177.47 189.41 192.85 196.67 212.00 L 186.36 212.00 C 164.11 199.22 145.21 179.38 136.04 155.18 Z" />
<path fill="#8387b2" stroke="#8387b2" stroke-width="0.09375" opacity="1.00" d=" M 129.38 173.49 C 128.77 167.07 122.89 162.30 122.91 155.93 C 125.79 160.90 128.91 165.79 130.74 171.27 C 131.54 172.71 131.82 176.26 134.25 174.64 C 134.32 174.91 134.45 175.46 134.52 175.73 C 136.96 187.60 139.79 200.28 135.08 212.00 L 130.88 212.00 C 134.03 202.84 133.24 192.83 130.15 183.77 C 130.60 192.25 132.95 201.19 129.30 209.30 C 129.20 208.70 128.99 207.49 128.89 206.89 C 128.89 203.14 128.90 199.39 128.77 195.64 C 128.69 191.45 127.95 187.32 127.21 183.21 C 126.91 181.28 126.70 179.34 126.32 177.42 C 125.13 171.64 122.52 166.29 119.74 161.13 C 120.28 161.06 121.36 160.93 121.90 160.87 C 124.19 165.19 126.39 169.59 129.38 173.49 Z" />
<path fill="#fae1b8" stroke="#fae1b8" stroke-width="0.09375" opacity="1.00" d=" M 0.00 159.55 C 6.34 173.77 17.15 185.24 27.82 196.29 C 27.77 197.67 27.71 199.06 27.64 200.45 C 26.95 200.65 25.57 201.05 24.88 201.25 C 15.67 193.33 6.97 184.64 0.00 174.65 L 0.00 159.55 Z" />
<path fill="#0c0f28" stroke="#0c0f28" stroke-width="0.09375" opacity="1.00" d=" M 0.00 174.65 C 6.97 184.64 15.67 193.33 24.88 201.25 C 26.39 202.53 27.95 203.75 29.50 204.97 C 30.97 206.14 32.42 207.35 33.82 208.60 C 35.05 209.73 36.25 210.89 37.50 212.00 L 0.00 212.00 L 0.00 174.65 Z" />
<path fill="#5d90e7" stroke="#5d90e7" stroke-width="0.09375" opacity="1.00" d=" M 15.93 175.41 C 23.80 182.22 32.88 187.56 42.74 190.94 C 47.15 191.49 51.59 191.87 55.98 192.66 C 59.24 191.99 62.18 189.95 65.63 189.89 C 63.86 185.12 61.69 180.51 60.13 175.66 C 70.45 185.64 78.17 198.22 82.25 212.00 L 58.84 212.00 C 53.24 207.77 47.15 204.29 40.97 200.98 C 31.58 193.58 22.49 185.51 15.93 175.41 Z" />
<path fill="#0c0f28" stroke="#0c0f28" stroke-width="0.09375" opacity="1.00" d=" M 135.08 212.00 C 139.79 200.28 136.96 187.60 134.52 175.73 C 139.89 183.53 145.92 190.86 152.64 197.53 C 155.33 200.37 158.27 202.97 161.22 205.54 C 163.61 207.78 166.04 209.99 168.63 212.00 L 135.08 212.00 Z" />
<path fill="#9a9dc6" stroke="#9a9dc6" stroke-width="0.09375" opacity="1.00" d=" M 124.48 179.28 C 125.40 180.58 126.33 181.87 127.21 183.21 C 127.95 187.32 128.69 191.45 128.77 195.64 C 128.37 198.85 127.73 202.02 127.24 205.21 C 127.47 200.21 127.99 195.01 126.32 190.19 C 125.80 194.14 125.63 198.13 124.92 202.06 C 125.48 198.51 125.33 194.88 124.45 191.39 C 123.34 195.41 122.56 199.52 121.30 203.50 C 121.14 203.04 120.83 202.12 120.67 201.66 C 122.03 194.21 121.89 186.48 124.48 179.28 M 123.31 185.68 C 122.43 187.01 122.46 189.07 123.34 190.41 C 124.81 189.94 124.78 186.15 123.31 185.68 Z" />
<path fill="#9a9dc6" stroke="#9a9dc6" stroke-width="0.09375" opacity="1.00" d=" M 130.15 183.77 C 133.24 192.83 134.03 202.84 130.88 212.00 L 127.73 212.00 C 128.17 210.31 128.57 208.61 128.89 206.89 C 128.99 207.49 129.20 208.70 129.30 209.30 C 132.95 201.19 130.60 192.25 130.15 183.77 Z" />
<path fill="#051a52" stroke="#051a52" stroke-width="0.09375" opacity="1.00" d=" M 147.97 184.12 C 151.77 188.35 155.93 192.25 160.71 195.36 C 167.95 201.31 175.14 207.47 183.40 212.00 L 178.45 212.00 C 174.37 209.29 170.69 206.02 166.48 203.52 C 162.49 199.37 158.32 195.40 154.16 191.42 C 152.12 189.39 150.25 187.19 148.45 184.94 L 147.97 184.12 Z" />
<path fill="#8387b2" stroke="#8387b2" stroke-width="0.09375" opacity="1.00" d=" M 123.31 185.68 C 124.78 186.15 124.81 189.94 123.34 190.41 C 122.46 189.07 122.43 187.01 123.31 185.68 Z" />
<path fill="#8387b2" stroke="#8387b2" stroke-width="0.09375" opacity="1.00" d=" M 126.32 190.19 C 127.99 195.01 127.47 200.21 127.24 205.21 C 126.92 207.50 126.47 209.76 125.90 212.00 L 120.85 212.00 C 122.52 208.83 124.09 205.55 124.92 202.06 C 125.63 198.13 125.80 194.14 126.32 190.19 Z" />
<path fill="#fae1b8" stroke="#fae1b8" stroke-width="0.09375" opacity="1.00" d=" M 124.45 191.39 C 125.33 194.88 125.48 198.51 124.92 202.06 C 124.09 205.55 122.52 208.83 120.85 212.00 L 117.93 212.00 C 119.34 209.29 120.48 206.44 121.30 203.50 C 122.56 199.52 123.34 195.41 124.45 191.39 Z" />
<path fill="#b0b2d6" stroke="#b0b2d6" stroke-width="0.09375" opacity="1.00" d=" M 154.16 191.42 C 158.32 195.40 162.49 199.37 166.48 203.52 C 163.41 202.29 160.50 200.72 157.84 198.77 C 158.94 201.04 159.96 203.35 161.22 205.54 C 158.27 202.97 155.33 200.37 152.64 197.53 C 153.14 195.49 153.65 193.45 154.16 191.42 Z" />
<path fill="#b0b2d6" stroke="#b0b2d6" stroke-width="0.09375" opacity="1.00" d=" M 27.82 196.29 C 31.39 200.96 38.24 201.38 41.32 206.73 C 37.58 205.11 33.50 202.27 29.50 204.97 C 27.95 203.75 26.39 202.53 24.88 201.25 C 25.57 201.05 26.95 200.65 27.64 200.45 C 27.71 199.06 27.77 197.67 27.82 196.29 Z" />
<path fill="#b0b2d6" stroke="#b0b2d6" stroke-width="0.09375" opacity="1.00" d=" M 127.24 205.21 C 127.73 202.02 128.37 198.85 128.77 195.64 C 128.90 199.39 128.89 203.14 128.89 206.89 C 128.57 208.61 128.17 210.31 127.73 212.00 L 125.90 212.00 C 126.47 209.76 126.92 207.50 127.24 205.21 Z" />
<path fill="#9a9dc6" stroke="#9a9dc6" stroke-width="0.09375" opacity="1.00" d=" M 157.84 198.77 C 160.50 200.72 163.41 202.29 166.48 203.52 C 170.69 206.02 174.37 209.29 178.45 212.00 L 175.34 212.00 C 171.07 209.58 167.13 206.65 162.90 204.17 C 165.64 206.89 168.39 209.63 171.44 212.00 L 168.63 212.00 C 166.04 209.99 163.61 207.78 161.22 205.54 C 159.96 203.35 158.94 201.04 157.84 198.77 Z" />
<path fill="#8387b2" stroke="#8387b2" stroke-width="0.09375" opacity="1.00" d=" M 120.67 201.66 C 120.83 202.12 121.14 203.04 121.30 203.50 C 120.48 206.44 119.34 209.29 117.93 212.00 L 112.73 212.00 C 115.92 209.01 118.41 205.38 120.67 201.66 Z" />
<path fill="#05256f" stroke="#05256f" stroke-width="0.09375" opacity="1.00" d=" M 162.90 204.17 C 167.13 206.65 171.07 209.58 175.34 212.00 L 171.44 212.00 C 168.39 209.63 165.64 206.89 162.90 204.17 Z" />
<path fill="#05256f" stroke="#05256f" stroke-width="0.09375" opacity="1.00" d=" M 34.72 206.31 C 39.08 207.98 43.29 209.97 47.50 212.00 L 37.50 212.00 C 36.25 210.89 35.05 209.73 33.82 208.60 C 34.12 207.84 34.42 207.08 34.72 206.31 Z" />
</svg>
