<?xml version="1.0" encoding="UTF-8" ?>
<!DOCTYPE svg PUBLIC "-//W3C//DTD SVG 1.1//EN" "http://www.w3.org/Graphics/SVG/1.1/DTD/svg11.dtd">
<svg width="560pt" height="420pt" viewBox="0 0 560 420" version="1.1" xmlns="http://www.w3.org/2000/svg">
<path fill="#467831" stroke="#467831" stroke-width="0.09375" opacity="1.00" d=" M 297.78 5.54 C 304.69 8.13 311.78 11.31 317.19 16.38 C 314.34 15.57 311.39 15.12 308.44 14.82 C 309.49 19.66 313.45 22.93 315.76 27.13 C 318.63 32.37 326.17 34.27 326.80 40.80 C 329.32 42.01 331.90 43.10 334.52 44.08 C 332.68 39.23 328.37 36.11 325.64 31.86 C 332.49 37.67 338.04 45.15 341.38 53.51 C 341.99 56.15 342.87 58.72 344.12 61.13 C 342.76 61.18 341.40 61.22 340.05 61.27 C 342.59 62.46 345.64 63.51 346.51 66.51 C 349.29 73.40 352.82 79.98 355.16 87.05 C 345.56 82.04 336.40 76.27 326.99 70.95 C 328.36 72.23 329.74 73.49 331.14 74.75 C 329.32 75.20 327.52 75.65 325.72 76.10 C 326.79 78.66 328.07 81.12 329.58 83.45 C 336.12 81.41 341.43 88.56 340.73 94.61 C 343.09 99.56 348.19 102.81 352.55 106.02 C 353.92 107.32 355.11 108.79 356.28 110.27 C 352.05 108.05 348.44 104.86 344.28 102.52 C 336.21 97.83 328.29 92.84 320.72 87.37 C 317.46 86.35 313.92 85.67 311.94 82.53 C 312.39 82.30 313.27 81.83 313.72 81.60 C 312.58 80.58 311.44 79.56 310.33 78.53 C 312.81 77.38 315.47 76.67 318.17 76.20 C 317.02 73.87 315.32 71.91 313.37 70.23 C 313.95 63.44 304.52 62.23 303.74 55.51 C 306.22 56.91 308.59 58.49 310.94 60.09 C 306.58 54.84 300.07 52.19 294.94 47.81 C 295.30 47.29 296.02 46.24 296.39 45.72 C 298.44 46.33 300.57 46.68 302.72 46.52 C 303.89 46.49 305.06 46.45 306.24 46.41 C 307.53 43.98 308.81 41.55 310.10 39.12 C 313.45 39.13 316.81 39.06 320.15 38.83 C 315.48 35.13 307.74 33.88 308.52 26.33 C 307.21 18.57 304.53 10.29 297.78 5.54 Z" />
<path fill="#2b571c" stroke="#2b571c" stroke-width="0.09375" opacity="1.00" d=" M 308.44 14.82 C 311.39 15.12 314.34 15.57 317.19 16.38 C 332.66 26.21 348.27 35.78 364.41 44.46 C 361.83 47.88 360.35 51.92 359.22 56.01 C 358.71 55.47 357.70 54.39 357.20 53.85 C 357.15 52.28 357.13 50.70 357.12 49.13 C 355.47 52.00 353.37 54.57 351.03 56.90 C 352.15 57.81 353.28 58.71 354.41 59.63 C 350.87 71.90 363.34 82.20 362.40 94.06 C 370.28 88.37 373.68 77.08 383.17 73.96 C 384.34 76.51 385.51 79.06 386.57 81.66 C 384.08 81.77 382.78 79.83 381.55 78.04 C 380.08 84.27 381.34 90.46 384.76 95.81 C 385.63 95.37 386.50 94.93 387.39 94.50 C 387.41 93.69 387.44 92.87 387.47 92.06 C 389.10 91.19 390.70 90.25 392.33 89.37 C 392.95 90.53 393.58 91.69 394.20 92.85 C 391.58 97.94 386.48 104.84 392.12 109.81 C 397.28 113.36 400.48 118.76 401.75 124.84 C 399.57 126.76 397.63 128.98 396.63 131.75 C 400.17 130.07 403.03 127.37 406.00 124.89 C 405.82 131.05 398.12 138.53 403.49 143.66 C 403.05 143.76 402.16 143.97 401.71 144.07 C 401.83 153.49 402.45 163.09 405.22 172.15 C 404.31 173.73 403.41 175.31 402.48 176.89 C 403.83 178.27 405.17 179.66 406.51 181.06 C 404.53 181.72 402.56 182.42 400.58 183.08 C 400.17 184.14 399.77 185.21 399.36 186.27 C 396.46 180.95 395.04 174.76 390.67 170.32 C 386.81 167.23 388.97 159.67 382.32 160.15 C 381.98 165.05 385.35 168.62 387.64 172.55 C 388.26 172.82 388.89 173.10 389.53 173.37 C 385.41 174.88 387.49 179.62 388.37 182.65 C 390.04 186.65 389.58 191.03 389.39 195.25 C 388.87 195.36 387.85 195.59 387.34 195.71 C 383.01 189.80 383.96 178.07 375.16 176.96 C 373.61 160.37 369.81 144.25 367.31 127.78 C 365.29 116.10 362.85 104.54 359.91 93.06 C 353.70 79.90 349.75 65.59 341.38 53.51 C 338.04 45.15 332.49 37.67 325.64 31.86 C 328.37 36.11 332.68 39.23 334.52 44.08 C 331.90 43.10 329.32 42.01 326.80 40.80 C 326.17 34.27 318.63 32.37 315.76 27.13 C 313.45 22.93 309.49 19.66 308.44 14.82 Z" />
<path fill="#558a3d" stroke="#558a3d" stroke-width="0.09375" opacity="1.00" d=" M 308.52 26.33 C 307.74 33.88 315.48 35.13 320.15 38.83 C 316.81 39.06 313.45 39.13 310.10 39.12 C 308.81 41.55 307.53 43.98 306.24 46.41 C 305.06 46.45 303.89 46.49 302.72 46.52 C 303.73 45.89 304.75 45.27 305.77 44.65 C 308.39 38.84 307.49 32.43 308.52 26.33 Z" />
<path fill="#63984a" stroke="#63984a" stroke-width="0.09375" opacity="1.00" d=" M 134.25 35.16 C 136.54 35.95 139.01 36.37 141.06 37.70 C 148.52 46.42 159.05 51.65 167.43 59.42 C 163.03 58.19 159.78 54.80 155.72 52.86 C 157.93 56.33 161.10 58.98 164.07 61.77 C 161.16 62.38 157.77 62.31 155.48 64.49 C 152.44 67.03 154.14 71.76 151.64 74.61 C 149.91 76.63 148.07 78.56 146.62 80.79 C 148.79 82.19 150.96 83.57 153.14 84.96 C 152.11 86.33 151.09 87.70 150.06 89.07 C 148.34 91.80 146.26 94.27 143.86 96.42 C 140.23 95.37 136.53 94.53 132.76 94.24 C 136.19 97.33 140.94 98.26 144.37 101.34 C 145.47 101.25 146.57 101.16 147.68 101.08 C 147.60 101.92 147.53 102.75 147.46 103.58 C 150.53 105.70 153.62 107.81 156.72 109.88 C 155.83 110.78 154.94 111.69 154.05 112.59 C 152.78 111.34 151.50 110.09 150.23 108.84 C 151.08 110.43 151.93 112.02 152.79 113.61 C 150.08 118.93 143.11 119.16 140.04 124.33 C 147.98 123.93 152.81 131.42 156.30 137.47 C 156.12 138.21 155.95 138.96 155.77 139.72 C 156.14 140.50 156.50 141.28 156.86 142.07 C 157.12 142.36 157.65 142.93 157.91 143.22 C 158.80 143.69 159.70 144.15 160.61 144.60 C 163.23 150.15 170.15 150.61 173.69 155.28 C 176.86 159.43 183.31 160.15 184.70 165.80 C 183.07 171.33 175.60 171.20 173.00 176.19 C 168.15 174.30 164.63 178.75 161.02 181.16 C 154.94 181.79 149.10 180.12 145.31 175.05 C 143.85 176.59 142.40 178.13 140.96 179.68 C 145.85 181.92 151.66 180.41 155.76 184.75 C 158.00 186.03 160.30 187.21 162.53 188.52 C 160.66 188.77 158.78 188.77 156.90 188.63 C 163.46 194.00 156.48 201.24 158.98 207.83 C 156.98 209.07 154.97 210.29 152.96 211.52 C 151.80 209.13 150.66 206.74 149.51 204.35 C 146.48 205.00 143.64 204.01 141.44 201.90 C 141.69 199.28 141.54 196.64 141.11 194.04 C 138.25 194.65 133.35 192.76 131.99 195.98 C 138.10 201.82 144.77 207.42 149.07 214.90 C 157.83 216.00 166.62 216.64 175.41 217.47 C 178.21 217.76 181.02 217.99 183.84 218.23 C 185.69 218.53 187.51 218.94 189.35 219.32 C 186.48 220.29 183.57 221.15 180.66 221.97 C 180.57 221.52 180.38 220.62 180.29 220.17 C 164.56 217.22 148.46 217.32 132.59 216.60 C 132.37 217.16 131.93 218.28 131.72 218.84 C 130.42 219.24 129.12 219.62 127.82 220.00 C 131.59 219.98 135.83 218.71 138.85 221.73 C 135.95 223.42 132.83 225.50 133.21 229.32 C 134.51 229.53 135.81 229.75 137.11 229.97 C 137.27 229.23 137.44 228.49 137.61 227.75 C 140.25 227.22 142.84 226.50 145.40 225.68 C 145.86 227.86 146.24 230.06 146.62 232.26 C 148.77 232.98 150.87 233.80 152.93 234.75 C 150.51 235.79 148.04 236.98 146.78 239.43 C 148.60 239.62 150.43 239.78 152.26 239.95 C 151.12 241.40 149.97 242.84 148.83 244.29 C 151.02 247.02 154.38 246.66 157.45 246.03 C 157.37 249.39 156.73 252.70 155.61 255.87 C 156.18 257.42 156.60 259.02 156.82 260.67 C 153.32 258.47 149.50 256.92 145.48 255.99 C 146.30 257.78 147.01 259.61 147.65 261.48 C 144.65 260.04 141.57 258.77 138.36 257.91 C 138.35 258.62 138.34 260.04 138.33 260.75 C 139.40 260.48 140.47 260.20 141.55 259.93 C 142.51 263.41 145.33 265.63 148.31 267.38 C 144.09 271.66 139.24 275.24 133.94 278.05 C 137.58 278.17 141.15 277.28 144.78 277.13 C 145.31 276.52 145.85 275.92 146.38 275.33 C 147.40 275.80 148.41 276.30 149.43 276.79 C 149.59 275.35 149.75 273.90 149.91 272.46 C 151.19 274.23 152.48 275.99 153.77 277.76 C 155.21 277.07 156.65 276.38 158.09 275.69 C 160.04 277.25 161.97 278.83 163.89 280.42 C 162.60 280.79 161.29 281.11 159.97 281.39 C 158.59 281.45 157.21 281.47 155.84 281.45 C 155.39 281.10 154.50 280.41 154.06 280.06 C 153.81 280.64 153.31 281.80 153.07 282.39 C 146.99 282.48 140.85 282.06 134.83 283.06 C 132.54 282.36 130.27 281.60 127.96 281.01 C 129.74 276.52 135.81 275.21 138.40 270.77 C 144.33 266.61 135.90 262.87 133.40 259.58 C 136.97 257.91 137.36 254.38 135.11 251.37 C 132.89 253.43 129.10 255.37 130.33 258.99 C 128.97 257.59 127.60 256.22 126.19 254.88 C 120.73 256.56 114.94 255.91 109.45 257.27 C 109.06 251.18 102.24 248.39 101.48 242.28 C 97.37 242.31 93.27 241.96 89.20 241.41 C 81.01 236.87 74.25 228.95 65.04 226.88 C 55.78 220.16 45.42 214.46 36.07 207.64 C 43.59 209.75 50.44 213.72 57.14 217.61 C 62.71 217.48 68.19 215.11 72.92 212.20 C 77.83 214.22 83.21 213.20 88.36 213.53 C 80.20 209.74 70.54 211.98 62.63 207.54 C 63.47 207.29 65.16 206.77 66.01 206.51 C 65.20 205.84 64.40 205.17 63.61 204.49 C 60.46 204.56 57.06 204.64 54.42 202.62 C 48.50 198.18 40.10 201.30 34.36 196.34 C 33.62 197.25 32.88 198.16 32.15 199.07 C 30.52 198.96 28.89 198.86 27.26 198.75 C 28.17 200.37 29.02 202.02 29.98 203.61 C 24.67 199.62 18.91 196.14 14.27 191.31 C 14.41 190.81 14.68 189.82 14.82 189.33 C 18.20 190.24 21.49 191.56 25.00 191.95 C 34.35 193.46 43.80 194.13 53.26 193.95 C 54.13 194.28 55.00 194.61 55.87 194.93 C 69.24 190.17 84.23 188.51 97.93 183.77 C 105.22 181.33 114.10 180.64 119.03 173.99 C 117.28 172.17 115.48 170.39 113.31 169.08 C 114.29 168.47 115.26 167.86 116.22 167.23 C 131.48 171.39 147.35 169.97 162.97 170.53 C 167.73 170.73 172.14 168.80 176.68 167.70 C 177.57 166.13 178.19 164.45 178.95 162.83 C 175.11 158.70 170.58 155.34 166.03 152.07 C 156.95 147.80 153.14 137.38 144.36 132.66 C 137.35 128.56 129.85 125.15 123.54 119.96 C 130.28 119.83 137.42 122.18 143.61 118.47 C 145.11 116.34 146.81 113.68 144.58 111.37 C 139.07 103.66 128.85 99.97 124.80 91.03 C 132.24 91.37 143.53 98.27 146.97 88.01 C 144.75 83.13 140.62 79.36 138.87 74.25 C 141.35 74.59 143.54 76.07 146.03 76.26 C 150.03 75.65 153.02 70.59 151.05 66.87 C 146.92 55.62 140.79 45.16 134.25 35.16 Z" />
<path fill="#467831" stroke="#467831" stroke-width="0.09375" opacity="1.00" d=" M 141.06 37.70 C 148.08 39.26 154.38 42.92 161.22 45.05 C 165.68 53.46 176.90 50.26 182.56 57.28 C 182.49 56.10 182.42 54.92 182.37 53.73 C 185.68 57.03 184.48 61.77 185.09 65.92 C 186.47 70.23 191.73 70.17 195.29 71.59 C 194.49 72.79 193.71 73.99 192.93 75.20 C 196.64 75.98 200.47 75.84 204.21 75.27 C 203.15 76.83 202.12 78.41 201.11 80.00 C 202.72 82.27 204.25 84.62 205.47 87.13 C 202.85 86.45 200.21 85.86 197.52 85.52 C 194.84 83.34 192.33 80.92 189.29 79.22 C 193.73 86.23 201.35 89.92 207.49 95.13 C 203.83 94.77 200.09 94.48 196.48 95.39 C 201.31 97.56 207.31 94.70 211.42 98.65 C 220.30 105.81 229.68 112.38 238.20 119.98 C 237.42 120.57 236.63 121.15 235.85 121.74 C 237.54 122.14 239.37 122.22 240.93 123.06 C 250.95 130.75 261.54 137.72 271.11 146.01 C 263.94 146.40 256.84 145.02 249.68 145.25 C 253.11 146.43 256.71 146.86 260.31 147.11 C 252.97 150.87 243.38 148.04 237.22 153.80 C 238.56 156.07 239.90 158.33 241.31 160.55 C 245.17 161.14 247.60 164.16 248.84 167.65 C 242.21 168.11 239.79 161.27 236.85 156.71 C 236.60 157.62 236.10 159.44 235.86 160.35 C 232.66 152.74 223.45 152.37 216.54 150.59 C 211.31 146.86 205.43 143.99 201.19 139.05 C 191.27 135.04 180.53 133.18 169.88 132.32 C 172.86 133.85 175.85 135.36 178.86 136.83 C 178.32 137.87 177.78 138.92 177.24 139.97 C 185.84 139.33 191.59 146.64 198.10 150.80 C 204.57 150.99 212.27 154.41 213.32 161.47 C 203.71 160.52 195.87 154.76 186.70 152.31 C 177.71 147.05 165.05 148.71 158.65 139.33 C 158.65 140.46 158.64 141.59 158.63 142.73 C 158.19 142.56 157.30 142.24 156.86 142.07 C 156.50 141.28 156.14 140.50 155.77 139.72 C 155.95 138.96 156.12 138.21 156.30 137.47 C 152.81 131.42 147.98 123.93 140.04 124.33 C 143.11 119.16 150.08 118.93 152.79 113.61 C 151.93 112.02 151.08 110.43 150.23 108.84 C 151.50 110.09 152.78 111.34 154.05 112.59 C 154.94 111.69 155.83 110.78 156.72 109.88 C 153.62 107.81 150.53 105.70 147.46 103.58 C 147.53 102.75 147.60 101.92 147.68 101.08 C 146.57 101.16 145.47 101.25 144.37 101.34 C 140.94 98.26 136.19 97.33 132.76 94.24 C 136.53 94.53 140.23 95.37 143.86 96.42 C 146.26 94.27 148.34 91.80 150.06 89.07 C 151.09 87.70 152.11 86.33 153.14 84.96 C 150.96 83.57 148.79 82.19 146.62 80.79 C 148.07 78.56 149.91 76.63 151.64 74.61 C 154.14 71.76 152.44 67.03 155.48 64.49 C 157.77 62.31 161.16 62.38 164.07 61.77 C 161.10 58.98 157.93 56.33 155.72 52.86 C 159.78 54.80 163.03 58.19 167.43 59.42 C 159.05 51.65 148.52 46.42 141.06 37.70 M 172.45 119.36 C 172.14 123.13 170.79 126.77 167.21 128.53 C 179.17 131.65 191.49 133.77 203.60 136.53 C 204.35 135.68 205.11 134.84 205.86 134.01 C 205.11 133.17 204.36 132.35 203.61 131.52 C 201.04 131.49 198.47 131.43 195.91 131.34 C 195.60 130.00 195.30 128.67 195.00 127.33 C 194.03 127.77 193.07 128.21 192.10 128.65 C 188.92 126.21 184.55 124.84 183.36 120.56 C 181.51 119.97 179.61 119.55 177.68 119.31 C 177.30 119.89 176.54 121.06 176.16 121.64 C 174.92 120.88 173.68 120.12 172.45 119.36 Z" />
<path fill="#558a3d" stroke="#558a3d" stroke-width="0.09375" opacity="1.00" d=" M 284.84 40.23 C 288.43 42.59 292.48 44.01 296.39 45.72 C 296.02 46.24 295.30 47.29 294.94 47.81 C 300.07 52.19 306.58 54.84 310.94 60.09 C 308.59 58.49 306.22 56.91 303.74 55.51 C 304.52 62.23 313.95 63.44 313.37 70.23 C 315.32 71.91 317.02 73.87 318.17 76.20 C 315.47 76.67 312.81 77.38 310.33 78.53 C 311.44 79.56 312.58 80.58 313.72 81.60 C 313.27 81.83 312.39 82.30 311.94 82.53 C 313.92 85.67 317.46 86.35 320.72 87.37 C 328.29 92.84 336.21 97.83 344.28 102.52 C 344.89 104.26 345.96 105.76 347.05 107.22 C 346.04 107.64 345.03 108.06 344.02 108.47 C 344.24 115.04 352.43 116.65 355.13 122.09 C 348.02 121.97 344.67 113.47 337.49 114.14 C 337.37 115.36 337.26 116.58 337.14 117.80 C 339.09 118.90 341.03 120.00 342.97 121.12 C 342.93 124.98 342.93 129.17 346.33 131.71 C 347.74 135.09 347.51 139.21 350.29 142.09 C 344.64 139.63 341.05 134.40 337.00 130.01 C 338.36 129.62 339.72 129.23 341.09 128.85 C 336.40 118.97 332.46 108.34 324.08 100.87 C 320.22 97.95 317.96 93.62 314.73 90.16 C 310.27 88.12 304.70 88.44 301.24 84.40 C 300.25 86.15 299.28 87.92 298.13 89.58 C 297.65 89.38 296.69 89.00 296.21 88.80 C 297.81 87.19 298.46 85.04 299.11 82.93 C 295.48 75.52 296.00 67.23 296.29 59.23 C 296.49 58.78 296.89 57.89 297.09 57.44 C 293.00 51.71 289.77 45.32 284.84 40.23 Z" />
<path fill="#63984a" stroke="#63984a" stroke-width="0.09375" opacity="1.00" d=" M 161.22 45.05 C 176.28 51.82 192.67 54.58 208.26 59.88 C 206.98 62.46 204.86 64.38 202.43 65.85 C 205.58 73.06 207.93 80.87 206.20 88.80 C 206.02 88.38 205.65 87.55 205.47 87.13 C 204.25 84.62 202.72 82.27 201.11 80.00 C 202.12 78.41 203.15 76.83 204.21 75.27 C 200.47 75.84 196.64 75.98 192.93 75.20 C 193.71 73.99 194.49 72.79 195.29 71.59 C 191.73 70.17 186.47 70.23 185.09 65.92 C 184.48 61.77 185.68 57.03 182.37 53.73 C 182.42 54.92 182.49 56.10 182.56 57.28 C 176.90 50.26 165.68 53.46 161.22 45.05 Z" />
<path fill="#467831" stroke="#467831" stroke-width="0.09375" opacity="1.00" d=" M 364.41 44.46 C 368.45 46.62 372.63 48.43 377.15 49.30 C 379.58 48.36 381.73 46.86 383.02 44.55 C 385.00 45.82 386.20 47.85 387.14 49.95 C 386.23 53.25 389.52 55.55 390.27 58.50 C 388.27 66.72 399.57 67.75 400.60 75.10 C 403.93 81.66 401.05 88.50 401.32 95.31 C 399.73 96.50 398.16 97.73 396.57 98.91 C 397.95 103.34 399.77 107.96 404.52 109.66 C 404.27 112.69 404.38 115.76 405.36 118.67 C 404.72 119.21 404.09 119.74 403.46 120.28 C 403.62 121.08 403.78 121.89 403.95 122.70 C 405.42 122.39 406.88 122.08 408.36 121.78 C 408.71 128.96 404.76 135.61 405.12 142.90 C 409.16 144.08 412.13 141.11 414.70 138.48 C 414.13 137.26 413.56 136.04 413.00 134.82 C 416.07 133.42 419.43 132.99 422.77 132.84 C 426.49 127.29 434.86 130.59 439.07 124.92 C 438.05 123.66 437.04 122.41 436.03 121.16 C 438.24 120.30 440.43 119.38 442.59 118.37 C 441.26 117.13 439.95 115.89 438.61 114.67 C 439.71 112.20 442.19 111.38 444.67 111.01 C 445.30 116.53 442.30 128.25 450.25 128.70 C 449.18 129.44 448.11 130.20 447.06 130.96 C 447.91 134.59 450.02 137.92 450.53 141.60 C 447.04 147.46 442.41 152.78 437.08 157.08 C 435.43 153.76 433.49 150.57 431.08 147.76 C 432.00 151.83 435.48 156.47 432.42 160.40 C 429.74 164.31 427.31 168.39 424.31 172.06 C 422.10 167.93 418.61 164.76 414.93 161.97 C 416.60 166.63 419.41 170.79 423.21 173.99 C 421.33 175.63 419.42 177.24 417.46 178.78 C 417.78 177.27 418.11 175.75 418.45 174.25 C 417.89 173.26 417.33 172.28 416.79 171.30 C 415.55 171.60 414.30 171.89 413.07 172.19 C 413.80 175.07 415.06 177.78 416.99 180.07 C 415.39 181.64 413.71 183.12 412.00 184.56 C 409.91 190.42 402.75 192.15 399.21 197.14 C 398.01 198.33 396.87 199.58 395.61 200.71 C 391.39 202.79 387.55 205.51 384.06 208.66 C 382.47 205.43 380.61 202.31 378.21 199.61 C 377.45 192.02 375.24 184.61 375.16 176.96 C 383.96 178.07 383.01 189.80 387.34 195.71 C 387.85 195.59 388.87 195.36 389.39 195.25 C 389.58 191.03 390.04 186.65 388.37 182.65 C 387.49 179.62 385.41 174.88 389.53 173.37 C 388.89 173.10 388.26 172.82 387.64 172.55 C 385.35 168.62 381.98 165.05 382.32 160.15 C 388.97 159.67 386.81 167.23 390.67 170.32 C 395.04 174.76 396.46 180.95 399.36 186.27 C 399.77 185.21 400.17 184.14 400.58 183.08 C 402.56 182.42 404.53 181.72 406.51 181.06 C 405.17 179.66 403.83 178.27 402.48 176.89 C 403.41 175.31 404.31 173.73 405.22 172.15 C 402.45 163.09 401.83 153.49 401.71 144.07 C 402.16 143.97 403.05 143.76 403.49 143.66 C 398.12 138.53 405.82 131.05 406.00 124.89 C 403.03 127.37 400.17 130.07 396.63 131.75 C 397.63 128.98 399.57 126.76 401.75 124.84 C 400.48 118.76 397.28 113.36 392.12 109.81 C 386.48 104.84 391.58 97.94 394.20 92.85 C 393.58 91.69 392.95 90.53 392.33 89.37 C 390.70 90.25 389.10 91.19 387.47 92.06 C 387.44 92.87 387.41 93.69 387.39 94.50 C 386.50 94.93 385.63 95.37 384.76 95.81 C 381.34 90.46 380.08 84.27 381.55 78.04 C 382.78 79.83 384.08 81.77 386.57 81.66 C 385.51 79.06 384.34 76.51 383.17 73.96 C 373.68 77.08 370.28 88.37 362.40 94.06 C 363.34 82.20 350.87 71.90 354.41 59.63 C 353.28 58.71 352.15 57.81 351.03 56.90 C 353.37 54.57 355.47 52.00 357.12 49.13 C 357.13 50.70 357.15 52.28 357.20 53.85 C 357.70 54.39 358.71 55.47 359.22 56.01 C 360.35 51.92 361.83 47.88 364.41 44.46 Z" />
<path fill="#63984a" stroke="#63984a" stroke-width="0.09375" opacity="1.00" d=" M 238.09 45.21 C 245.73 47.36 252.35 52.18 257.72 57.93 C 253.56 58.32 251.30 54.11 247.93 52.42 C 248.34 54.23 248.77 56.04 249.32 57.81 C 247.76 64.35 245.72 70.98 245.59 77.65 C 244.58 77.74 243.58 77.83 242.58 77.92 C 242.49 80.10 242.36 82.27 242.18 84.44 C 238.45 80.58 233.86 77.34 231.47 72.40 C 225.57 72.03 224.07 66.58 221.26 62.47 C 229.49 66.02 241.14 63.92 241.75 53.29 C 240.12 50.80 239.38 47.87 238.09 45.21 Z" />
<path fill="#2b571c" stroke="#2b571c" stroke-width="0.09375" opacity="1.00" d=" M 247.93 52.42 C 251.30 54.11 253.56 58.32 257.72 57.93 C 261.21 60.25 264.64 62.83 267.98 65.43 C 269.03 64.69 270.08 63.94 271.13 63.19 C 277.12 73.47 285.39 83.57 296.21 88.80 C 296.69 89.00 297.65 89.38 298.13 89.58 C 302.49 92.27 308.10 93.16 310.77 98.04 C 310.48 96.68 310.21 95.32 309.95 93.97 C 317.38 97.23 324.75 102.39 328.00 110.09 C 330.37 114.30 335.86 118.41 333.31 123.78 C 332.90 123.12 332.09 121.80 331.68 121.14 C 328.69 117.35 327.60 111.97 323.24 109.42 C 324.22 111.89 325.22 114.36 326.14 116.86 C 324.92 116.06 323.69 115.25 322.47 114.46 C 321.39 121.89 331.19 126.83 330.54 134.76 C 329.66 141.69 331.64 148.45 336.50 153.50 C 338.56 161.95 343.58 169.31 348.96 176.04 C 354.31 179.51 361.84 184.00 361.38 191.32 C 361.91 191.53 362.95 191.95 363.47 192.16 C 365.56 193.05 367.32 194.89 367.26 197.28 C 367.11 201.95 370.17 205.76 370.93 210.24 C 363.11 205.20 358.79 196.18 351.06 190.92 C 342.26 182.49 332.90 173.92 328.08 162.47 C 324.55 153.76 320.23 145.42 315.26 137.48 C 314.74 130.61 311.45 121.47 303.38 121.04 C 302.23 118.71 300.87 116.49 299.67 114.19 C 296.90 107.76 293.27 101.25 287.62 96.90 C 291.18 102.38 294.64 107.98 297.07 114.08 C 292.28 110.81 290.02 104.68 284.39 102.60 C 279.95 100.89 279.06 95.62 276.03 92.40 C 272.83 98.76 270.97 107.42 274.22 114.08 C 273.55 115.76 272.89 117.44 272.20 119.11 C 272.98 120.17 273.77 121.23 274.56 122.29 C 272.72 129.01 277.25 134.85 276.68 141.48 C 278.30 144.99 282.15 147.42 282.00 151.68 C 279.12 149.37 276.23 147.08 273.34 144.80 C 273.28 138.65 272.17 132.62 271.00 126.61 C 268.09 102.53 257.36 80.44 249.32 57.81 C 248.77 56.04 248.34 54.23 247.93 52.42 Z" />
<path fill="#558a3d" stroke="#558a3d" stroke-width="0.09375" opacity="1.00" d=" M 344.12 61.13 C 342.87 58.72 341.99 56.15 341.38 53.51 C 349.75 65.59 353.70 79.90 359.91 93.06 C 356.55 95.70 359.24 100.01 359.89 103.27 C 357.17 102.83 354.74 101.55 352.55 99.94 C 352.38 101.96 352.38 104.00 352.55 106.02 C 348.19 102.81 343.09 99.56 340.73 94.61 C 341.43 88.56 336.12 81.41 329.58 83.45 C 328.07 81.12 326.79 78.66 325.72 76.10 C 327.52 75.65 329.32 75.20 331.14 74.75 C 329.74 73.49 328.36 72.23 326.99 70.95 C 336.40 76.27 345.56 82.04 355.16 87.05 C 352.82 79.98 349.29 73.40 346.51 66.51 C 345.64 63.51 342.59 62.46 340.05 61.27 C 341.40 61.22 342.76 61.18 344.12 61.13 Z" />
<path fill="#63984a" stroke="#63984a" stroke-width="0.09375" opacity="1.00" d=" M 409.63 69.53 C 417.09 67.80 422.69 61.42 424.84 54.24 C 430.92 57.21 431.78 65.80 434.64 71.41 C 433.38 76.48 434.69 82.28 430.20 86.08 C 433.31 88.72 436.37 93.06 432.30 96.42 C 436.14 95.97 438.71 99.19 441.43 101.32 C 441.71 103.66 442.73 105.78 443.95 107.76 C 445.32 106.58 446.68 105.40 448.05 104.22 C 451.81 106.22 452.68 110.23 452.75 114.17 C 453.98 114.80 455.22 115.43 456.46 116.07 C 457.31 114.11 458.16 112.15 459.02 110.19 C 457.36 109.16 455.69 108.15 454.03 107.14 C 455.03 106.25 456.03 105.36 457.04 104.48 C 463.41 104.90 467.23 110.90 473.58 111.73 C 473.32 109.96 473.06 108.19 472.82 106.42 C 474.00 107.76 475.18 109.11 476.36 110.45 C 479.69 108.42 483.32 106.89 487.24 106.51 C 486.62 107.82 486.02 109.14 485.41 110.45 C 487.21 110.80 489.02 111.14 490.83 111.50 C 488.98 113.67 487.05 115.77 485.09 117.83 C 488.87 120.68 493.43 119.02 497.42 117.63 C 497.16 123.00 498.75 129.36 505.28 129.55 C 507.94 139.39 519.66 137.54 527.54 138.99 C 522.90 142.91 516.01 142.15 511.24 146.12 C 504.22 150.40 503.26 159.29 500.25 166.24 C 501.94 168.73 503.97 171.51 507.32 171.57 C 514.64 172.00 522.20 173.50 529.40 171.50 C 532.63 171.83 535.73 172.86 538.72 174.09 C 536.34 175.94 534.64 178.41 534.24 181.46 C 530.12 183.32 526.86 186.47 523.52 189.42 C 516.42 192.91 509.66 196.93 503.08 201.30 C 501.00 202.04 498.99 202.96 496.98 203.88 C 495.46 204.67 493.91 205.53 492.18 205.69 C 491.04 205.38 489.92 205.05 488.80 204.72 C 481.07 207.97 473.26 203.11 465.86 201.13 C 467.68 202.82 469.55 204.44 471.45 206.04 C 470.86 207.26 470.28 208.49 469.70 209.73 C 465.36 210.95 460.66 212.28 456.22 210.73 C 453.93 209.70 452.10 206.79 449.32 208.03 C 447.89 206.52 446.34 205.13 444.69 203.87 C 444.47 204.68 444.01 206.29 443.78 207.09 C 438.77 207.61 434.39 204.72 429.82 203.19 C 440.26 202.40 450.33 198.79 460.86 199.04 C 460.77 199.93 460.69 200.83 460.60 201.74 C 460.86 202.09 461.38 202.80 461.64 203.15 C 461.75 201.12 461.86 199.10 461.98 197.08 C 461.18 197.00 459.58 196.84 458.77 196.77 C 470.08 193.32 481.80 191.44 492.94 187.44 C 492.51 188.44 492.08 189.45 491.65 190.46 C 488.16 191.15 484.71 192.03 481.37 193.22 C 489.89 198.37 502.53 203.74 510.13 194.08 C 508.89 193.25 507.66 192.42 506.42 191.60 C 509.19 191.15 510.41 188.93 510.75 186.34 C 511.54 186.58 512.33 186.83 513.14 187.07 C 514.09 186.27 515.06 185.49 516.05 184.71 C 513.68 183.85 511.24 183.21 508.78 182.67 C 513.55 180.54 518.97 179.90 523.26 176.78 C 512.74 176.28 498.47 175.34 493.75 164.22 C 491.40 163.46 489.39 165.68 487.45 166.69 C 490.38 168.19 494.49 168.90 495.25 172.68 C 490.26 172.08 485.24 172.00 480.22 172.01 C 480.38 173.42 480.53 174.82 480.69 176.23 C 478.34 174.49 476.10 172.60 473.98 170.58 C 473.46 170.99 472.41 171.79 471.88 172.20 C 474.42 174.04 476.19 176.62 477.02 179.65 C 472.64 179.86 468.23 179.64 463.94 178.69 C 461.73 180.47 459.54 182.27 457.34 184.06 C 456.95 183.30 456.57 182.54 456.19 181.79 C 457.82 181.17 459.45 180.54 461.08 179.92 C 456.35 178.43 447.60 178.27 449.56 185.62 C 448.57 185.33 447.58 185.05 446.61 184.77 C 447.28 186.55 447.97 188.33 448.67 190.11 C 441.69 184.64 434.13 192.44 430.14 198.03 C 428.76 199.00 427.33 199.92 426.03 200.99 C 417.44 200.77 408.85 201.55 400.28 200.95 C 400.24 199.60 400.22 198.19 399.21 197.14 C 402.75 192.15 409.91 190.42 412.00 184.56 C 413.71 183.12 415.39 181.64 416.99 180.07 C 415.06 177.78 413.80 175.07 413.07 172.19 C 414.30 171.89 415.55 171.60 416.79 171.30 C 417.33 172.28 417.89 173.26 418.45 174.25 C 418.11 175.75 417.78 177.27 417.46 178.78 C 419.42 177.24 421.33 175.63 423.21 173.99 C 419.41 170.79 416.60 166.63 414.93 161.97 C 418.61 164.76 422.10 167.93 424.31 172.06 C 427.31 168.39 429.74 164.31 432.42 160.40 C 435.48 156.47 432.00 151.83 431.08 147.76 C 433.49 150.57 435.43 153.76 437.08 157.08 C 442.41 152.78 447.04 147.46 450.53 141.60 C 450.02 137.92 447.91 134.59 447.06 130.96 C 448.11 130.20 449.18 129.44 450.25 128.70 C 442.30 128.25 445.30 116.53 444.67 111.01 C 442.19 111.38 439.71 112.20 438.61 114.67 C 439.95 115.89 441.26 117.13 442.59 118.37 C 440.43 119.38 438.24 120.30 436.03 121.16 C 437.04 122.41 438.05 123.66 439.07 124.92 C 434.86 130.59 426.49 127.29 422.77 132.84 C 419.43 132.99 416.07 133.42 413.00 134.82 C 413.56 136.04 414.13 137.26 414.70 138.48 C 412.13 141.11 409.16 144.08 405.12 142.90 C 404.76 135.61 408.71 128.96 408.36 121.78 C 406.88 122.08 405.42 122.39 403.95 122.70 C 403.78 121.89 403.62 121.08 403.46 120.28 C 404.09 119.74 404.72 119.21 405.36 118.67 C 404.38 115.76 404.27 112.69 404.52 109.66 C 399.77 107.96 397.95 103.34 396.57 98.91 C 398.16 97.73 399.73 96.50 401.32 95.31 C 401.05 88.50 403.93 81.66 400.60 75.10 C 399.57 67.75 388.27 66.72 390.27 58.50 C 395.98 63.19 401.73 69.32 409.63 69.53 Z" />
<path fill="#558a3d" stroke="#558a3d" stroke-width="0.09375" opacity="1.00" d=" M 249.32 57.81 C 257.36 80.44 268.09 102.53 271.00 126.61 C 270.72 127.25 270.16 128.54 269.88 129.19 C 267.38 118.12 266.38 106.48 261.20 96.21 C 259.50 100.45 256.40 104.00 256.71 108.85 C 254.26 114.79 259.27 119.54 259.92 125.13 C 253.89 120.36 243.64 116.99 244.82 107.70 C 243.19 102.50 244.20 95.69 238.99 92.44 C 238.87 93.15 238.61 94.58 238.49 95.30 C 237.35 92.03 235.74 88.96 234.05 85.96 C 235.12 89.46 236.45 92.92 236.77 96.60 C 235.76 95.80 234.77 95.00 233.79 94.17 C 231.55 94.50 229.30 94.77 227.07 95.12 C 227.66 91.42 227.62 87.66 226.98 83.97 C 227.96 82.34 228.90 80.68 229.91 79.06 C 227.44 75.74 225.31 71.74 221.53 69.76 C 216.90 68.59 212.15 67.76 207.75 65.82 C 206.54 71.64 211.42 76.42 210.87 82.28 C 210.35 89.89 218.93 91.33 222.28 96.83 C 223.89 96.52 225.49 96.20 227.10 95.89 C 227.19 97.38 227.29 98.87 227.39 100.36 C 230.53 101.70 234.07 103.46 237.26 101.18 C 238.49 104.22 239.57 107.33 240.24 110.55 C 240.53 110.45 241.11 110.27 241.40 110.18 C 241.81 112.92 241.45 115.68 241.14 118.41 C 240.97 117.51 240.64 115.72 240.48 114.82 C 240.36 115.34 240.13 116.40 240.02 116.92 C 235.14 112.50 228.73 109.46 225.54 103.39 C 221.96 96.43 214.67 92.82 208.76 88.17 C 207.91 88.81 207.06 89.44 206.22 90.09 C 206.21 89.76 206.21 89.12 206.20 88.80 C 207.93 80.87 205.58 73.06 202.43 65.85 C 204.86 64.38 206.98 62.46 208.26 59.88 C 212.56 60.89 216.84 62.06 221.26 62.47 C 224.07 66.58 225.57 72.03 231.47 72.40 C 233.86 77.34 238.45 80.58 242.18 84.44 C 242.36 82.27 242.49 80.10 242.58 77.92 C 243.58 77.83 244.58 77.74 245.59 77.65 C 245.72 70.98 247.76 64.35 249.32 57.81 Z" />
<path fill="#63984a" stroke="#63984a" stroke-width="0.09375" opacity="1.00" d=" M 207.75 65.82 C 212.15 67.76 216.90 68.59 221.53 69.76 C 225.31 71.74 227.44 75.74 229.91 79.06 C 228.90 80.68 227.96 82.34 226.98 83.97 C 227.62 87.66 227.66 91.42 227.07 95.12 C 229.30 94.77 231.55 94.50 233.79 94.17 C 234.77 95.00 235.76 95.80 236.77 96.60 C 236.45 92.92 235.12 89.46 234.05 85.96 C 235.74 88.96 237.35 92.03 238.49 95.30 C 238.97 100.34 240.43 105.21 241.40 110.18 C 241.11 110.27 240.53 110.45 240.24 110.55 C 239.57 107.33 238.49 104.22 237.26 101.18 C 234.07 103.46 230.53 101.70 227.39 100.36 C 227.29 98.87 227.19 97.38 227.10 95.89 C 225.49 96.20 223.89 96.52 222.28 96.83 C 218.93 91.33 210.35 89.89 210.87 82.28 C 211.42 76.42 206.54 71.64 207.75 65.82 Z" />
<path fill="#74a959" stroke="#74a959" stroke-width="0.09375" opacity="1.00" d=" M 430.20 86.08 C 434.69 82.28 433.38 76.48 434.64 71.41 C 436.89 79.97 437.82 89.09 441.96 97.01 C 445.74 103.45 454.22 104.15 460.58 101.56 C 477.18 97.00 495.14 95.41 510.07 86.28 C 510.64 86.73 511.79 87.61 512.36 88.06 C 505.75 100.95 506.22 115.50 505.28 129.55 C 498.75 129.36 497.16 123.00 497.42 117.63 C 493.43 119.02 488.87 120.68 485.09 117.83 C 487.05 115.77 488.98 113.67 490.83 111.50 C 489.02 111.14 487.21 110.80 485.41 110.45 C 486.02 109.14 486.62 107.82 487.24 106.51 C 483.32 106.89 479.69 108.42 476.36 110.45 C 475.18 109.11 474.00 107.76 472.82 106.42 C 473.06 108.19 473.32 109.96 473.58 111.73 C 467.23 110.90 463.41 104.90 457.04 104.48 C 456.03 105.36 455.03 106.25 454.03 107.14 C 455.69 108.15 457.36 109.16 459.02 110.19 C 458.16 112.15 457.31 114.11 456.46 116.07 C 455.22 115.43 453.98 114.80 452.75 114.17 C 452.68 110.23 451.81 106.22 448.05 104.22 C 446.68 105.40 445.32 106.58 443.95 107.76 C 442.73 105.78 441.71 103.66 441.43 101.32 C 438.71 99.19 436.14 95.97 432.30 96.42 C 436.37 93.06 433.31 88.72 430.20 86.08 Z" />
<path fill="#74a959" stroke="#74a959" stroke-width="0.09375" opacity="1.00" d=" M 189.29 79.22 C 192.33 80.92 194.84 83.34 197.52 85.52 C 211.85 96.14 225.58 107.57 239.70 118.52 L 240.02 116.92 C 240.13 116.40 240.36 115.34 240.48 114.82 C 240.64 115.72 240.97 117.51 241.14 118.41 C 241.75 122.31 246.04 123.89 248.69 126.29 C 256.36 131.66 263.28 138.25 271.61 142.58 C 271.61 138.06 271.00 133.56 269.88 129.19 C 270.16 128.54 270.72 127.25 271.00 126.61 C 272.17 132.62 273.28 138.65 273.34 144.80 C 276.23 147.08 279.12 149.37 282.00 151.68 C 289.45 158.20 297.59 163.85 305.41 169.90 C 310.35 173.52 314.61 179.29 321.12 179.82 C 320.00 177.95 318.81 176.14 317.63 174.31 C 318.40 170.05 317.96 165.71 317.20 161.49 C 316.01 160.09 314.77 158.74 313.63 157.31 C 314.79 157.42 315.95 157.53 317.11 157.65 C 314.44 147.23 308.99 137.83 304.73 128.02 C 303.62 123.18 299.92 119.21 299.67 114.19 C 300.87 116.49 302.23 118.71 303.38 121.04 C 308.47 132.94 314.63 144.43 318.98 156.62 C 320.44 164.72 322.49 172.76 322.87 181.02 C 322.78 183.23 324.87 184.43 326.31 185.74 C 339.35 196.00 352.74 205.80 365.45 216.45 C 368.93 219.06 372.10 222.68 376.75 222.96 C 376.67 222.36 376.51 221.16 376.43 220.56 C 375.97 220.15 375.05 219.32 374.58 218.90 C 377.95 214.61 377.69 208.03 373.38 204.47 C 378.45 201.58 374.52 196.75 370.60 195.23 C 371.98 195.38 373.37 195.52 374.75 195.67 C 371.78 185.92 374.82 174.15 368.50 165.70 C 369.21 163.93 369.94 162.16 370.68 160.39 C 366.22 156.91 360.77 154.45 357.58 149.58 C 361.63 151.17 365.01 153.95 368.73 156.13 C 367.67 146.70 368.72 135.27 362.40 127.67 C 364.03 127.71 365.67 127.75 367.31 127.78 C 369.81 144.25 373.61 160.37 375.16 176.96 C 375.24 184.61 377.45 192.02 378.21 199.61 C 378.70 203.80 378.58 208.74 382.44 211.43 C 379.46 215.65 381.19 223.16 375.35 224.93 C 375.16 225.94 374.98 226.96 374.81 227.98 C 372.63 227.06 370.37 226.28 368.02 226.02 C 346.48 223.37 324.92 221.35 303.24 220.68 C 300.04 220.04 296.90 219.14 293.75 218.28 C 300.27 214.56 308.15 219.94 314.10 214.87 C 314.56 215.26 315.47 216.03 315.92 216.41 C 318.67 219.20 322.68 218.07 325.98 217.17 C 323.99 215.91 321.96 214.73 319.90 213.59 C 319.69 209.83 322.68 207.98 325.71 206.64 C 329.52 205.13 329.07 200.48 329.29 197.13 C 324.60 196.57 319.63 196.03 315.93 192.79 C 313.89 193.51 311.85 194.27 309.83 195.04 C 310.58 193.62 311.34 192.20 312.10 190.78 C 310.98 190.20 309.86 189.62 308.75 189.04 C 309.60 187.43 310.44 185.81 311.28 184.19 C 307.84 183.44 304.33 183.03 300.80 182.92 C 286.60 182.41 272.86 178.65 258.82 177.10 C 258.54 176.53 257.98 175.38 257.70 174.81 C 275.96 176.83 294.01 181.83 312.44 182.07 C 310.63 178.41 308.20 173.72 303.31 175.57 C 302.65 173.32 302.22 170.96 301.10 168.88 C 293.19 163.20 285.73 156.90 278.02 150.93 C 273.08 146.79 266.25 148.03 260.31 147.11 C 256.71 146.86 253.11 146.43 249.68 145.25 C 256.84 145.02 263.94 146.40 271.11 146.01 C 261.54 137.72 250.95 130.75 240.93 123.06 C 239.37 122.22 237.54 122.14 235.85 121.74 C 236.63 121.15 237.42 120.57 238.20 119.98 C 229.68 112.38 220.30 105.81 211.42 98.65 C 207.31 94.70 201.31 97.56 196.48 95.39 C 200.09 94.48 203.83 94.77 207.49 95.13 C 201.35 89.92 193.73 86.23 189.29 79.22 Z" />
<path fill="#2b571c" stroke="#2b571c" stroke-width="0.09375" opacity="1.00" d=" M 197.52 85.52 C 200.21 85.86 202.85 86.45 205.47 87.13 C 205.65 87.55 206.02 88.38 206.20 88.80 C 206.21 89.12 206.21 89.76 206.22 90.09 C 207.06 89.44 207.91 88.81 208.76 88.17 C 214.67 92.82 221.96 96.43 225.54 103.39 C 228.73 109.46 235.14 112.50 240.02 116.92 L 239.70 118.52 C 225.58 107.57 211.85 96.14 197.52 85.52 Z" />
<path fill="#467831" stroke="#467831" stroke-width="0.09375" opacity="1.00" d=" M 298.13 89.58 C 299.28 87.92 300.25 86.15 301.24 84.40 C 304.70 88.44 310.27 88.12 314.73 90.16 C 317.96 93.62 320.22 97.95 324.08 100.87 C 332.46 108.34 336.40 118.97 341.09 128.85 C 339.72 129.23 338.36 129.62 337.00 130.01 C 335.60 128.04 334.48 125.89 333.31 123.78 C 335.86 118.41 330.37 114.30 328.00 110.09 C 324.75 102.39 317.38 97.23 309.95 93.97 C 310.21 95.32 310.48 96.68 310.77 98.04 C 308.10 93.16 302.49 92.27 298.13 89.58 Z" />
<path fill="#467831" stroke="#467831" stroke-width="0.09375" opacity="1.00" d=" M 238.99 92.44 C 244.20 95.69 243.19 102.50 244.82 107.70 C 243.64 116.99 253.89 120.36 259.92 125.13 C 259.27 119.54 254.26 114.79 256.71 108.85 C 256.40 104.00 259.50 100.45 261.20 96.21 C 266.38 106.48 267.38 118.12 269.88 129.19 C 271.00 133.56 271.61 138.06 271.61 142.58 C 263.28 138.25 256.36 131.66 248.69 126.29 C 246.04 123.89 241.75 122.31 241.14 118.41 C 241.45 115.68 241.81 112.92 241.40 110.18 C 240.43 105.21 238.97 100.34 238.49 95.30 C 238.61 94.58 238.87 93.15 238.99 92.44 Z" />
<path fill="#467831" stroke="#467831" stroke-width="0.09375" opacity="1.00" d=" M 274.22 114.08 C 270.97 107.42 272.83 98.76 276.03 92.40 C 279.06 95.62 279.95 100.89 284.39 102.60 C 290.02 104.68 292.28 110.81 297.07 114.08 C 294.64 107.98 291.18 102.38 287.62 96.90 C 293.27 101.25 296.90 107.76 299.67 114.19 C 299.92 119.21 303.62 123.18 304.73 128.02 C 301.05 128.65 296.89 129.78 295.88 133.92 C 291.88 139.33 298.70 146.97 292.12 151.22 C 292.41 151.65 292.97 152.50 293.25 152.93 C 295.87 151.42 298.77 150.07 301.37 152.40 C 299.64 154.35 298.00 156.39 296.47 158.50 C 299.47 162.17 304.76 164.84 305.41 169.90 C 297.59 163.85 289.45 158.20 282.00 151.68 C 282.15 147.42 278.30 144.99 276.68 141.48 C 277.25 134.85 272.72 129.01 274.56 122.29 C 273.77 121.23 272.98 120.17 272.20 119.11 C 272.89 117.44 273.55 115.76 274.22 114.08 Z" />
<path fill="#63984a" stroke="#63984a" stroke-width="0.09375" opacity="1.00" d=" M 359.89 103.27 C 359.24 100.01 356.55 95.70 359.91 93.06 C 362.85 104.54 365.29 116.10 367.31 127.78 C 365.67 127.75 364.03 127.71 362.40 127.67 C 368.72 135.27 367.67 146.70 368.73 156.13 C 365.01 153.95 361.63 151.17 357.58 149.58 C 360.77 154.45 366.22 156.91 370.68 160.39 C 369.94 162.16 369.21 163.93 368.50 165.70 C 374.82 174.15 371.78 185.92 374.75 195.67 C 373.37 195.52 371.98 195.38 370.60 195.23 C 374.52 196.75 378.45 201.58 373.38 204.47 C 377.69 208.03 377.95 214.61 374.58 218.90 C 375.05 219.32 375.97 220.15 376.43 220.56 C 376.51 221.16 376.67 222.36 376.75 222.96 C 372.10 222.68 368.93 219.06 365.45 216.45 C 352.74 205.80 339.35 196.00 326.31 185.74 C 324.87 184.43 322.78 183.23 322.87 181.02 C 322.49 172.76 320.44 164.72 318.98 156.62 C 319.49 155.47 320.01 154.32 320.54 153.17 C 323.03 156.30 325.18 159.70 328.08 162.47 C 332.90 173.92 342.26 182.49 351.06 190.92 C 358.79 196.18 363.11 205.20 370.93 210.24 C 370.17 205.76 367.11 201.95 367.26 197.28 C 367.32 194.89 365.56 193.05 363.47 192.16 C 364.26 190.74 365.05 189.33 365.84 187.92 C 363.05 185.63 362.30 182.30 362.14 178.88 C 359.68 176.20 356.43 174.37 354.06 171.59 C 355.44 171.91 356.83 172.24 358.22 172.57 C 354.20 168.24 351.98 162.64 348.14 158.22 C 347.35 158.86 346.57 159.50 345.80 160.14 C 342.13 158.84 339.89 155.56 340.40 151.66 C 336.48 150.08 334.60 146.43 334.02 142.42 C 338.28 140.64 342.14 144.79 346.36 142.76 C 343.43 140.66 339.50 139.35 338.34 135.58 C 337.24 135.88 336.13 136.17 335.04 136.47 C 334.57 135.82 333.64 134.51 333.17 133.86 C 334.46 133.36 335.75 132.86 337.04 132.36 C 335.26 131.20 333.26 130.51 331.19 130.11 C 331.53 128.69 331.82 127.27 332.09 125.83 C 331.50 124.33 331.30 122.73 331.68 121.14 C 332.09 121.80 332.90 123.12 333.31 123.78 C 334.48 125.89 335.60 128.04 337.00 130.01 C 341.05 134.40 344.64 139.63 350.29 142.09 C 347.51 139.21 347.74 135.09 346.33 131.71 C 342.93 129.17 342.93 124.98 342.97 121.12 C 341.03 120.00 339.09 118.90 337.14 117.80 C 337.26 116.58 337.37 115.36 337.49 114.14 C 344.67 113.47 348.02 121.97 355.13 122.09 C 352.43 116.65 344.24 115.04 344.02 108.47 C 345.03 108.06 346.04 107.64 347.05 107.22 C 345.96 105.76 344.89 104.26 344.28 102.52 C 348.44 104.86 352.05 108.05 356.28 110.27 C 355.11 108.79 353.92 107.32 352.55 106.02 C 352.38 104.00 352.38 101.96 352.55 99.94 C 354.74 101.55 357.17 102.83 359.89 103.27 Z" />
<path fill="#467831" stroke="#467831" stroke-width="0.09375" opacity="1.00" d=" M 323.24 109.42 C 327.60 111.97 328.69 117.35 331.68 121.14 C 331.30 122.73 331.50 124.33 332.09 125.83 C 331.82 127.27 331.53 128.69 331.19 130.11 C 333.26 130.51 335.26 131.20 337.04 132.36 C 335.75 132.86 334.46 133.36 333.17 133.86 C 333.64 134.51 334.57 135.82 335.04 136.47 C 336.13 136.17 337.24 135.88 338.34 135.58 C 339.50 139.35 343.43 140.66 346.36 142.76 C 342.14 144.79 338.28 140.64 334.02 142.42 C 334.60 146.43 336.48 150.08 340.40 151.66 C 339.89 155.56 342.13 158.84 345.80 160.14 C 346.57 159.50 347.35 158.86 348.14 158.22 C 351.98 162.64 354.20 168.24 358.22 172.57 C 356.83 172.24 355.44 171.91 354.06 171.59 C 356.43 174.37 359.68 176.20 362.14 178.88 C 362.30 182.30 363.05 185.63 365.84 187.92 C 365.05 189.33 364.26 190.74 363.47 192.16 C 362.95 191.95 361.91 191.53 361.38 191.32 C 361.84 184.00 354.31 179.51 348.96 176.04 C 343.58 169.31 338.56 161.95 336.50 153.50 C 331.64 148.45 329.66 141.69 330.54 134.76 C 331.19 126.83 321.39 121.89 322.47 114.46 C 323.69 115.25 324.92 116.06 326.14 116.86 C 325.22 114.36 324.22 111.89 323.24 109.42 Z" />
<path fill="#2b571c" stroke="#2b571c" stroke-width="0.09375" opacity="1.00" d=" M 172.45 119.36 C 173.68 120.12 174.92 120.88 176.16 121.64 C 176.54 121.06 177.30 119.89 177.68 119.31 C 179.61 119.55 181.51 119.97 183.36 120.56 C 184.55 124.84 188.92 126.21 192.10 128.65 C 193.07 128.21 194.03 127.77 195.00 127.33 C 195.30 128.67 195.60 130.00 195.91 131.34 C 198.47 131.43 201.04 131.49 203.61 131.52 C 204.36 132.35 205.11 133.17 205.86 134.01 C 205.11 134.84 204.35 135.68 203.60 136.53 C 191.49 133.77 179.17 131.65 167.21 128.53 C 170.79 126.77 172.14 123.13 172.45 119.36 Z" />
<path fill="#467831" stroke="#467831" stroke-width="0.09375" opacity="1.00" d=" M 303.38 121.04 C 311.45 121.47 314.74 130.61 315.26 137.48 C 320.23 145.42 324.55 153.76 328.08 162.47 C 325.18 159.70 323.03 156.30 320.54 153.17 C 320.01 154.32 319.49 155.47 318.98 156.62 C 314.63 144.43 308.47 132.94 303.38 121.04 Z" />
<path fill="#558a3d" stroke="#558a3d" stroke-width="0.09375" opacity="1.00" d=" M 304.73 128.02 C 308.99 137.83 314.44 147.23 317.11 157.65 C 315.95 157.53 314.79 157.42 313.63 157.31 C 314.77 158.74 316.01 160.09 317.20 161.49 C 317.96 165.71 318.40 170.05 317.63 174.31 C 318.81 176.14 320.00 177.95 321.12 179.82 C 314.61 179.29 310.35 173.52 305.41 169.90 C 304.76 164.84 299.47 162.17 296.47 158.50 C 298.00 156.39 299.64 154.35 301.37 152.40 C 298.77 150.07 295.87 151.42 293.25 152.93 C 292.97 152.50 292.41 151.65 292.12 151.22 C 298.70 146.97 291.88 139.33 295.88 133.92 C 296.89 129.78 301.05 128.65 304.73 128.02 Z" />
<path fill="#2b571c" stroke="#2b571c" stroke-width="0.09375" opacity="1.00" d=" M 169.88 132.32 C 180.53 133.18 191.27 135.04 201.19 139.05 C 205.43 143.99 211.31 146.86 216.54 150.59 C 223.45 152.37 232.66 152.74 235.86 160.35 C 236.10 159.44 236.60 157.62 236.85 156.71 C 239.79 161.27 242.21 168.11 248.84 167.65 C 249.67 169.48 250.40 171.35 251.13 173.22 C 242.88 171.39 235.00 168.19 226.75 166.31 C 222.32 164.56 217.77 163.14 213.32 161.47 C 212.27 154.41 204.57 150.99 198.10 150.80 C 191.59 146.64 185.84 139.33 177.24 139.97 C 177.78 138.92 178.32 137.87 178.86 136.83 C 175.85 135.36 172.86 133.85 169.88 132.32 Z" />
<path fill="#558a3d" stroke="#558a3d" stroke-width="0.09375" opacity="1.00" d=" M 158.63 142.73 C 158.64 141.59 158.65 140.46 158.65 139.33 C 165.05 148.71 177.71 147.05 186.70 152.31 C 195.87 154.76 203.71 160.52 213.32 161.47 C 217.77 163.14 222.32 164.56 226.75 166.31 C 219.31 167.00 212.36 163.50 205.20 162.07 C 204.83 162.92 204.46 163.78 204.09 164.64 C 206.51 164.72 208.92 164.80 211.34 164.89 C 211.02 166.32 210.69 167.75 210.37 169.19 C 212.18 169.16 214.00 169.15 215.81 169.16 C 224.21 174.79 233.42 179.42 240.07 187.20 C 236.14 188.59 232.24 190.03 228.31 191.40 C 228.33 188.59 228.40 185.79 228.51 182.98 C 225.42 183.74 222.40 184.72 219.42 185.81 C 218.89 186.86 218.35 187.90 217.82 188.95 C 218.96 189.62 220.10 190.28 221.24 190.96 C 221.21 188.99 221.71 187.09 222.46 185.28 C 223.44 185.46 225.41 185.80 226.39 185.97 C 225.99 188.47 225.60 190.96 225.22 193.46 C 228.97 195.33 232.89 197.17 235.70 200.40 C 228.47 200.86 221.59 188.48 215.58 197.05 C 221.21 199.07 224.77 204.30 222.26 210.26 C 220.74 208.59 219.82 206.55 219.31 204.38 C 218.52 204.82 217.73 205.27 216.95 205.73 C 219.32 211.39 225.32 210.97 230.01 208.67 C 230.79 209.58 231.56 210.50 232.34 211.42 C 238.24 210.71 243.26 215.23 249.07 214.12 C 249.60 215.30 250.13 216.49 250.66 217.69 C 253.22 217.78 255.82 217.61 258.25 216.72 C 261.15 218.44 264.05 220.20 266.52 222.54 C 253.37 223.50 240.30 221.49 227.20 220.87 C 228.37 221.76 229.56 222.65 230.75 223.53 C 228.12 224.16 225.59 225.12 223.20 226.39 C 223.61 227.99 223.98 229.59 224.36 231.20 C 225.35 229.62 226.24 227.98 227.27 226.43 C 230.11 227.07 232.08 225.60 233.19 223.05 C 233.97 224.45 234.77 225.84 235.57 227.24 C 236.40 225.91 237.24 224.59 238.09 223.27 C 238.43 223.57 239.11 224.17 239.46 224.47 C 240.50 224.51 241.55 224.54 242.60 224.57 C 245.68 231.27 250.40 224.64 255.28 225.18 C 247.83 231.84 237.28 234.30 230.71 241.93 C 231.46 241.92 232.96 241.91 233.70 241.90 C 237.40 239.82 240.88 236.10 245.50 236.84 C 242.72 239.69 238.08 242.22 239.38 246.96 C 240.52 252.89 236.80 258.17 236.75 264.04 C 235.56 264.15 234.38 264.26 233.19 264.38 C 233.41 265.85 233.64 267.34 233.86 268.82 C 232.18 269.48 230.50 270.15 228.81 270.81 C 228.58 271.27 228.10 272.19 227.86 272.66 C 230.00 272.65 232.14 272.61 234.28 272.66 C 233.17 274.13 232.05 275.59 230.93 277.06 C 231.65 278.89 232.36 280.73 233.09 282.56 C 231.13 282.46 229.18 282.36 227.22 282.25 C 226.62 285.81 227.62 289.04 230.86 290.87 C 230.08 291.97 229.30 293.07 228.52 294.18 C 229.15 294.95 229.79 295.72 230.43 296.50 C 228.52 298.20 226.07 298.12 223.73 297.51 C 223.04 298.82 222.37 300.14 221.69 301.46 C 225.09 303.49 227.30 306.81 229.26 310.15 C 224.17 310.72 219.21 309.25 215.00 306.41 C 214.13 306.92 213.25 307.43 212.38 307.95 C 211.78 303.16 208.88 299.22 207.04 294.88 C 205.80 294.26 204.56 293.65 203.33 293.05 C 205.14 291.23 206.81 289.27 208.25 287.14 C 206.18 287.72 204.14 288.35 202.10 289.01 C 202.81 287.66 203.52 286.32 204.23 284.98 C 202.94 283.67 201.65 282.35 200.40 281.01 C 200.26 283.71 199.96 286.40 199.46 289.05 C 197.11 287.62 194.86 286.04 192.70 284.34 C 189.56 287.96 185.32 287.03 181.18 286.42 C 178.07 285.73 175.09 284.48 171.91 284.17 C 167.93 283.20 164.08 281.74 159.97 281.39 C 161.29 281.11 162.60 280.79 163.89 280.42 C 161.97 278.83 160.04 277.25 158.09 275.69 C 156.65 276.38 155.21 277.07 153.77 277.76 C 152.48 275.99 151.19 274.23 149.91 272.46 C 149.75 273.90 149.59 275.35 149.43 276.79 C 148.41 276.30 147.40 275.80 146.38 275.33 C 145.85 275.92 145.31 276.52 144.78 277.13 C 141.15 277.28 137.58 278.17 133.94 278.05 C 139.24 275.24 144.09 271.66 148.31 267.38 C 145.33 265.63 142.51 263.41 141.55 259.93 C 140.47 260.20 139.40 260.48 138.33 260.75 C 138.34 260.04 138.35 258.62 138.36 257.91 C 141.57 258.77 144.65 260.04 147.65 261.48 C 147.01 259.61 146.30 257.78 145.48 255.99 C 149.50 256.92 153.32 258.47 156.82 260.67 C 156.60 259.02 156.18 257.42 155.61 255.87 C 156.73 252.70 157.37 249.39 157.45 246.03 C 154.38 246.66 151.02 247.02 148.83 244.29 C 149.97 242.84 151.12 241.40 152.26 239.95 C 150.43 239.78 148.60 239.62 146.78 239.43 C 148.04 236.98 150.51 235.79 152.93 234.75 C 150.87 233.80 148.77 232.98 146.62 232.26 C 146.24 230.06 145.86 227.86 145.40 225.68 C 142.84 226.50 140.25 227.22 137.61 227.75 C 137.44 228.49 137.27 229.23 137.11 229.97 C 135.81 229.75 134.51 229.53 133.21 229.32 C 132.83 225.50 135.95 223.42 138.85 221.73 C 135.83 218.71 131.59 219.98 127.82 220.00 C 129.12 219.62 130.42 219.24 131.72 218.84 C 131.93 218.28 132.37 217.16 132.59 216.60 C 148.46 217.32 164.56 217.22 180.29 220.17 C 180.38 220.62 180.57 221.52 180.66 221.97 C 183.57 221.15 186.48 220.29 189.35 219.32 C 187.51 218.94 185.69 218.53 183.84 218.23 C 188.73 218.48 193.62 219.16 198.54 218.84 C 195.66 214.28 191.07 211.24 187.91 206.91 C 192.98 210.42 197.65 214.50 202.15 218.70 C 205.20 218.84 208.25 218.91 211.30 218.90 C 206.88 212.60 203.69 205.74 200.85 198.61 C 204.18 197.43 205.98 200.51 207.07 203.14 C 207.94 203.45 208.80 203.77 209.67 204.09 C 209.12 200.77 208.01 197.46 204.96 195.63 C 203.23 196.13 201.48 196.57 199.73 197.00 C 198.88 198.01 198.04 199.02 197.20 200.04 C 189.69 196.66 186.70 188.68 187.39 180.86 C 183.87 179.04 180.15 177.64 176.24 176.93 C 175.42 180.37 173.78 183.52 171.05 185.83 C 169.37 184.59 167.68 183.36 165.98 182.15 C 162.64 183.24 159.23 184.14 155.76 184.75 C 151.66 180.41 145.85 181.92 140.96 179.68 C 142.40 178.13 143.85 176.59 145.31 175.05 C 149.10 180.12 154.94 181.79 161.02 181.16 C 164.63 178.75 168.15 174.30 173.00 176.19 C 175.60 171.20 183.07 171.33 184.70 165.80 C 183.31 160.15 176.86 159.43 173.69 155.28 C 170.15 150.61 163.23 150.15 160.61 144.60 C 159.70 144.15 158.80 143.69 157.91 143.22 C 157.65 142.93 157.12 142.36 156.86 142.07 C 157.30 142.24 158.19 142.56 158.63 142.73 M 192.86 250.35 C 187.09 249.53 182.23 253.95 178.59 257.88 C 178.64 258.74 178.74 260.46 178.80 261.32 C 181.65 261.62 184.37 260.80 186.78 259.30 C 187.04 259.65 187.56 260.36 187.83 260.72 C 187.12 261.21 186.42 261.72 185.73 262.23 C 180.88 262.41 176.90 265.96 171.90 265.94 C 165.70 266.94 170.45 273.72 168.29 277.61 C 173.16 285.59 182.35 280.37 189.48 279.42 C 188.56 276.78 188.25 274.00 188.25 271.21 C 190.99 271.79 193.70 272.61 196.13 274.06 C 197.07 273.43 198.01 272.81 198.95 272.19 C 198.40 274.27 197.78 276.34 197.14 278.40 C 198.37 278.03 200.13 278.23 200.61 276.70 C 204.74 269.92 207.40 262.57 212.74 256.73 C 215.77 254.94 221.13 253.18 221.06 249.07 C 212.99 249.45 206.65 257.96 197.91 256.66 C 200.72 255.59 203.60 254.68 206.22 253.18 C 205.33 250.34 204.24 247.52 202.19 245.31 C 199.75 247.95 196.73 250.61 192.86 250.35 Z" />
<path fill="#558a3d" stroke="#558a3d" stroke-width="0.09375" opacity="1.00" d=" M 260.31 147.11 C 266.25 148.03 273.08 146.79 278.02 150.93 C 285.73 156.90 293.19 163.20 301.10 168.88 C 302.22 170.96 302.65 173.32 303.31 175.57 C 308.20 173.72 310.63 178.41 312.44 182.07 C 294.01 181.83 275.96 176.83 257.70 174.81 C 257.98 175.38 258.54 176.53 258.82 177.10 C 256.56 176.33 254.24 175.77 251.91 175.25 C 251.72 174.74 251.33 173.73 251.13 173.22 C 250.40 171.35 249.67 169.48 248.84 167.65 C 247.60 164.16 245.17 161.14 241.31 160.55 C 239.90 158.33 238.56 156.07 237.22 153.80 C 243.38 148.04 252.97 150.87 260.31 147.11 Z" />
<path fill="#467831" stroke="#467831" stroke-width="0.09375" opacity="1.00" d=" M 205.20 162.07 C 212.36 163.50 219.31 167.00 226.75 166.31 C 235.00 168.19 242.88 171.39 251.13 173.22 C 251.33 173.73 251.72 174.74 251.91 175.25 C 244.86 173.84 238.01 171.63 231.15 169.48 C 230.93 169.80 230.48 170.42 230.26 170.74 C 236.11 179.23 247.94 185.00 258.12 182.20 C 258.89 183.36 259.66 184.53 260.42 185.69 C 263.47 185.76 266.98 185.36 268.07 182.00 C 264.60 181.15 261.68 179.11 258.82 177.10 C 272.86 178.65 286.60 182.41 300.80 182.92 C 299.17 184.20 297.33 185.15 295.46 186.02 C 295.79 187.25 296.12 188.47 296.46 189.70 C 298.06 189.67 299.66 189.64 301.26 189.61 C 303.15 191.86 305.16 194.00 307.27 196.06 C 299.30 204.10 289.80 194.24 282.15 190.83 C 278.16 187.91 275.02 192.94 274.96 196.55 C 276.84 196.93 278.73 197.31 280.62 197.70 C 280.45 199.13 280.29 200.57 280.13 202.01 C 289.08 203.68 298.79 202.34 306.00 209.04 C 305.76 207.87 305.54 206.70 305.31 205.54 C 312.29 204.85 319.31 202.63 326.34 204.21 C 321.46 206.99 315.09 209.63 315.92 216.41 C 315.47 216.03 314.56 215.26 314.10 214.87 C 312.60 213.62 310.95 212.55 309.32 211.48 C 309.27 212.94 309.25 214.42 309.22 215.88 C 303.20 213.15 296.81 214.71 290.79 216.50 C 287.97 214.24 285.00 212.13 281.78 210.45 C 283.12 212.63 284.55 214.74 286.03 216.82 C 281.28 215.31 276.11 214.90 271.80 212.18 C 268.62 213.53 265.18 212.95 261.86 212.72 C 262.12 213.86 262.38 215.01 262.65 216.16 C 256.47 211.26 250.01 206.85 242.69 203.79 C 247.59 208.43 253.02 212.46 258.25 216.72 C 255.82 217.61 253.22 217.78 250.66 217.69 C 250.13 216.49 249.60 215.30 249.07 214.12 C 243.26 215.23 238.24 210.71 232.34 211.42 C 231.56 210.50 230.79 209.58 230.01 208.67 C 225.32 210.97 219.32 211.39 216.95 205.73 C 217.73 205.27 218.52 204.82 219.31 204.38 C 219.82 206.55 220.74 208.59 222.26 210.26 C 224.77 204.30 221.21 199.07 215.58 197.05 C 221.59 188.48 228.47 200.86 235.70 200.40 C 232.89 197.17 228.97 195.33 225.22 193.46 C 225.60 190.96 225.99 188.47 226.39 185.97 C 225.41 185.80 223.44 185.46 222.46 185.28 C 221.71 187.09 221.21 188.99 221.24 190.96 C 220.10 190.28 218.96 189.62 217.82 188.95 C 218.35 187.90 218.89 186.86 219.42 185.81 C 222.40 184.72 225.42 183.74 228.51 182.98 C 228.40 185.79 228.33 188.59 228.31 191.40 C 232.24 190.03 236.14 188.59 240.07 187.20 C 233.42 179.42 224.21 174.79 215.81 169.16 C 214.00 169.15 212.18 169.16 210.37 169.19 C 210.69 167.75 211.02 166.32 211.34 164.89 C 208.92 164.80 206.51 164.72 204.09 164.64 C 204.46 163.78 204.83 162.92 205.20 162.07 Z" />
<path fill="#558a3d" stroke="#558a3d" stroke-width="0.09375" opacity="1.00" d=" M 487.45 166.69 C 489.39 165.68 491.40 163.46 493.75 164.22 C 498.47 175.34 512.74 176.28 523.26 176.78 C 518.97 179.90 513.55 180.54 508.78 182.67 C 511.24 183.21 513.68 183.85 516.05 184.71 C 515.06 185.49 514.09 186.27 513.14 187.07 C 512.33 186.83 511.54 186.58 510.75 186.34 C 510.41 188.93 509.19 191.15 506.42 191.60 C 507.66 192.42 508.89 193.25 510.13 194.08 C 502.53 203.74 489.89 198.37 481.37 193.22 C 484.71 192.03 488.16 191.15 491.65 190.46 C 492.08 189.45 492.51 188.44 492.94 187.44 C 481.80 191.44 470.08 193.32 458.77 196.77 C 447.65 196.69 437.27 202.26 426.03 200.99 C 427.33 199.92 428.76 199.00 430.14 198.03 C 434.13 192.44 441.69 184.64 448.67 190.11 C 447.97 188.33 447.28 186.55 446.61 184.77 C 447.58 185.05 448.57 185.33 449.56 185.62 C 447.60 178.27 456.35 178.43 461.08 179.92 C 459.45 180.54 457.82 181.17 456.19 181.79 C 456.57 182.54 456.95 183.30 457.34 184.06 C 459.54 182.27 461.73 180.47 463.94 178.69 C 468.23 179.64 472.64 179.86 477.02 179.65 C 476.19 176.62 474.42 174.04 471.88 172.20 C 472.41 171.79 473.46 170.99 473.98 170.58 C 476.10 172.60 478.34 174.49 480.69 176.23 C 480.53 174.82 480.38 173.42 480.22 172.01 C 485.24 172.00 490.26 172.08 495.25 172.68 C 494.49 168.90 490.38 168.19 487.45 166.69 Z" />
<path fill="#74a959" stroke="#74a959" stroke-width="0.09375" opacity="1.00" d=" M 529.40 171.50 C 534.09 169.22 539.93 168.79 543.49 164.55 C 544.59 165.40 545.64 166.58 545.07 168.12 C 542.86 178.69 533.07 185.89 523.52 189.42 C 526.86 186.47 530.12 183.32 534.24 181.46 C 534.64 178.41 536.34 175.94 538.72 174.09 C 535.73 172.86 532.63 171.83 529.40 171.50 Z" />
<path fill="#2b571c" stroke="#2b571c" stroke-width="0.09375" opacity="1.00" d=" M 231.15 169.48 C 238.01 171.63 244.86 173.84 251.91 175.25 C 254.24 175.77 256.56 176.33 258.82 177.10 C 261.68 179.11 264.60 181.15 268.07 182.00 C 266.98 185.36 263.47 185.76 260.42 185.69 C 259.66 184.53 258.89 183.36 258.12 182.20 C 247.94 185.00 236.11 179.23 230.26 170.74 C 230.48 170.42 230.93 169.80 231.15 169.48 Z" />
<path fill="#467831" stroke="#467831" stroke-width="0.09375" opacity="1.00" d=" M 176.24 176.93 C 180.15 177.64 183.87 179.04 187.39 180.86 C 186.70 188.68 189.69 196.66 197.20 200.04 C 198.04 199.02 198.88 198.01 199.73 197.00 C 201.48 196.57 203.23 196.13 204.96 195.63 C 208.01 197.46 209.12 200.77 209.67 204.09 C 208.80 203.77 207.94 203.45 207.07 203.14 C 205.98 200.51 204.18 197.43 200.85 198.61 C 203.69 205.74 206.88 212.60 211.30 218.90 C 208.25 218.91 205.20 218.84 202.15 218.70 C 197.65 214.50 192.98 210.42 187.91 206.91 C 191.07 211.24 195.66 214.28 198.54 218.84 C 193.62 219.16 188.73 218.48 183.84 218.23 C 181.02 217.99 178.21 217.76 175.41 217.47 C 176.45 216.47 177.50 215.47 178.56 214.49 C 178.93 210.86 178.65 207.18 176.76 203.98 C 176.31 206.19 176.57 209.08 173.83 209.78 C 174.26 206.57 174.88 203.39 175.41 200.19 C 174.72 200.52 173.32 201.17 172.62 201.50 C 171.12 199.78 170.06 197.76 169.41 195.58 C 174.97 197.26 179.16 201.51 184.30 204.03 C 178.01 197.63 170.16 193.11 162.53 188.52 C 160.30 187.21 158.00 186.03 155.76 184.75 C 159.23 184.14 162.64 183.24 165.98 182.15 C 167.68 183.36 169.37 184.59 171.05 185.83 C 173.78 183.52 175.42 180.37 176.24 176.93 Z" />
<path fill="#63984a" stroke="#63984a" stroke-width="0.09375" opacity="1.00" d=" M 300.80 182.92 C 304.33 183.03 307.84 183.44 311.28 184.19 C 310.44 185.81 309.60 187.43 308.75 189.04 C 309.86 189.62 310.98 190.20 312.10 190.78 C 311.34 192.20 310.58 193.62 309.83 195.04 C 311.85 194.27 313.89 193.51 315.93 192.79 C 319.63 196.03 324.60 196.57 329.29 197.13 C 329.07 200.48 329.52 205.13 325.71 206.64 C 322.68 207.98 319.69 209.83 319.90 213.59 C 321.96 214.73 323.99 215.91 325.98 217.17 C 322.68 218.07 318.67 219.20 315.92 216.41 C 315.09 209.63 321.46 206.99 326.34 204.21 C 319.31 202.63 312.29 204.85 305.31 205.54 C 305.54 206.70 305.76 207.87 306.00 209.04 C 298.79 202.34 289.08 203.68 280.13 202.01 C 280.29 200.57 280.45 199.13 280.62 197.70 C 278.73 197.31 276.84 196.93 274.96 196.55 C 275.02 192.94 278.16 187.91 282.15 190.83 C 289.80 194.24 299.30 204.10 307.27 196.06 C 305.16 194.00 303.15 191.86 301.26 189.61 C 299.66 189.64 298.06 189.67 296.46 189.70 C 296.12 188.47 295.79 187.25 295.46 186.02 C 297.33 185.15 299.17 184.20 300.80 182.92 Z" />
<path fill="#558a3d" stroke="#558a3d" stroke-width="0.09375" opacity="1.00" d=" M 156.90 188.63 C 158.78 188.77 160.66 188.77 162.53 188.52 C 170.16 193.11 178.01 197.63 184.30 204.03 C 179.16 201.51 174.97 197.26 169.41 195.58 C 170.06 197.76 171.12 199.78 172.62 201.50 C 173.32 201.17 174.72 200.52 175.41 200.19 C 174.88 203.39 174.26 206.57 173.83 209.78 C 176.57 209.08 176.31 206.19 176.76 203.98 C 178.65 207.18 178.93 210.86 178.56 214.49 C 177.50 215.47 176.45 216.47 175.41 217.47 C 166.62 216.64 157.83 216.00 149.07 214.90 C 144.77 207.42 138.10 201.82 131.99 195.98 C 133.35 192.76 138.25 194.65 141.11 194.04 C 141.54 196.64 141.69 199.28 141.44 201.90 C 143.64 204.01 146.48 205.00 149.51 204.35 C 150.66 206.74 151.80 209.13 152.96 211.52 C 154.97 210.29 156.98 209.07 158.98 207.83 C 156.48 201.24 163.46 194.00 156.90 188.63 Z" />
<path fill="#558a3d" stroke="#558a3d" stroke-width="0.09375" opacity="1.00" d=" M 34.36 196.34 C 40.10 201.30 48.50 198.18 54.42 202.62 C 57.06 204.64 60.46 204.56 63.61 204.49 C 64.40 205.17 65.20 205.84 66.01 206.51 C 65.16 206.77 63.47 207.29 62.63 207.54 C 70.54 211.98 80.20 209.74 88.36 213.53 C 83.21 213.20 77.83 214.22 72.92 212.20 C 68.19 215.11 62.71 217.48 57.14 217.61 C 50.44 213.72 43.59 209.75 36.07 207.64 C 33.81 206.78 31.50 205.53 29.98 203.61 C 29.02 202.02 28.17 200.37 27.26 198.75 C 28.89 198.86 30.52 198.96 32.15 199.07 C 32.88 198.16 33.62 197.25 34.36 196.34 Z" />
<path fill="#74a959" stroke="#74a959" stroke-width="0.09375" opacity="1.00" d=" M 426.03 200.99 C 437.27 202.26 447.65 196.69 458.77 196.77 C 459.58 196.84 461.18 197.00 461.98 197.08 C 461.86 199.10 461.75 201.12 461.64 203.15 C 461.38 202.80 460.86 202.09 460.60 201.74 C 460.69 200.83 460.77 199.93 460.86 199.04 C 450.33 198.79 440.26 202.40 429.82 203.19 C 434.39 204.72 438.77 207.61 443.78 207.09 C 444.01 206.29 444.47 204.68 444.69 203.87 C 446.34 205.13 447.89 206.52 449.32 208.03 C 452.10 206.79 453.93 209.70 456.22 210.73 C 460.66 212.28 465.36 210.95 469.70 209.73 C 470.28 208.49 470.86 207.26 471.45 206.04 C 469.55 204.44 467.68 202.82 465.86 201.13 C 473.26 203.11 481.07 207.97 488.80 204.72 C 489.92 205.05 491.04 205.38 492.18 205.69 C 481.26 209.83 470.47 214.91 458.92 216.92 C 440.73 216.90 422.54 220.51 404.24 220.51 C 403.63 220.38 402.41 220.13 401.80 220.00 C 403.35 218.94 404.90 217.89 406.46 216.84 C 403.52 216.11 400.52 215.64 397.53 215.25 C 399.73 214.40 401.98 213.67 404.26 213.04 C 404.76 211.55 405.25 210.05 405.75 208.55 C 412.55 205.41 420.32 210.95 426.81 206.22 C 425.21 204.63 423.55 202.69 421.03 203.03 C 412.46 202.91 403.87 203.28 395.31 202.59 C 395.39 202.12 395.53 201.18 395.61 200.71 C 396.87 199.58 398.01 198.33 399.21 197.14 C 400.22 198.19 400.24 199.60 400.28 200.95 C 408.85 201.55 417.44 200.77 426.03 200.99 Z" />
<path fill="#63984a" stroke="#63984a" stroke-width="0.09375" opacity="1.00" d=" M 378.21 199.61 C 380.61 202.31 382.47 205.43 384.06 208.66 C 387.55 205.51 391.39 202.79 395.61 200.71 C 395.53 201.18 395.39 202.12 395.31 202.59 C 403.87 203.28 412.46 202.91 421.03 203.03 C 423.55 202.69 425.21 204.63 426.81 206.22 C 420.32 210.95 412.55 205.41 405.75 208.55 C 405.25 210.05 404.76 211.55 404.26 213.04 C 401.98 213.67 399.73 214.40 397.53 215.25 C 400.52 215.64 403.52 216.11 406.46 216.84 C 404.90 217.89 403.35 218.94 401.80 220.00 C 402.41 220.13 403.63 220.38 404.24 220.51 C 397.21 222.97 385.79 221.38 382.33 228.90 C 382.45 230.11 382.63 231.33 382.83 232.54 C 382.33 232.71 381.33 233.05 380.83 233.23 C 372.14 238.41 370.35 249.71 363.00 256.49 C 364.85 250.79 368.81 245.86 368.60 239.53 C 367.51 239.20 366.42 238.88 365.34 238.56 C 367.46 236.30 369.14 233.68 370.32 230.81 C 363.76 233.49 359.73 239.29 355.64 244.71 C 350.69 249.03 346.67 254.22 343.26 259.81 C 335.56 273.99 334.05 290.66 327.45 305.39 C 326.73 298.23 330.79 291.97 332.34 285.21 C 335.20 275.69 335.68 265.09 341.88 256.90 C 346.03 248.97 354.13 244.15 357.93 235.97 C 352.93 237.82 348.00 239.84 342.97 241.57 C 342.05 240.58 341.14 239.60 340.23 238.63 C 345.53 234.51 351.68 231.57 356.62 226.98 C 360.67 227.49 364.75 227.66 368.83 227.83 C 368.63 227.38 368.22 226.47 368.02 226.02 C 370.37 226.28 372.63 227.06 374.81 227.98 C 374.98 226.96 375.16 225.94 375.35 224.93 C 381.19 223.16 379.46 215.65 382.44 211.43 C 378.58 208.74 378.70 203.80 378.21 199.61 Z" />
<path fill="#63984a" stroke="#63984a" stroke-width="0.09375" opacity="1.00" d=" M 242.69 203.79 C 250.01 206.85 256.47 211.26 262.65 216.16 C 262.38 215.01 262.12 213.86 261.86 212.72 C 265.18 212.95 268.62 213.53 271.80 212.18 C 276.11 214.90 281.28 215.31 286.03 216.82 C 284.55 214.74 283.12 212.63 281.78 210.45 C 285.00 212.13 287.97 214.24 290.79 216.50 C 296.81 214.71 303.20 213.15 309.22 215.88 C 309.25 214.42 309.27 212.94 309.32 211.48 C 310.95 212.55 312.60 213.62 314.10 214.87 C 308.15 219.94 300.27 214.56 293.75 218.28 C 296.90 219.14 300.04 220.04 303.24 220.68 C 299.83 220.49 296.41 220.52 293.02 220.91 C 292.25 220.52 291.48 220.15 290.71 219.77 C 283.18 221.57 275.20 220.97 267.65 219.53 C 269.41 222.39 272.66 222.97 275.79 222.80 C 276.53 223.77 277.28 224.75 278.03 225.73 C 283.24 223.59 288.67 226.33 294.04 225.40 C 293.02 228.87 291.03 232.02 287.75 233.73 C 282.85 236.13 280.66 241.87 275.23 243.44 C 275.23 244.16 275.23 245.59 275.23 246.30 C 282.66 241.64 288.28 234.46 295.70 229.84 C 300.94 228.95 306.36 230.56 311.66 229.17 C 313.37 230.60 315.25 231.82 317.23 232.86 C 317.70 238.66 325.26 240.73 326.95 234.41 C 333.01 231.65 339.70 231.29 346.20 230.47 C 337.88 239.70 324.83 243.17 316.77 252.87 C 312.58 259.58 305.57 263.34 299.50 268.04 C 297.48 270.71 294.81 272.98 291.24 272.70 C 290.99 273.12 290.47 273.96 290.22 274.37 C 287.78 275.22 285.50 276.49 283.65 278.32 C 278.05 277.46 273.67 273.64 268.37 272.18 C 271.74 275.95 275.69 279.54 280.89 280.31 C 278.70 281.95 276.60 283.70 274.59 285.55 C 272.85 285.05 271.12 284.54 269.39 284.00 C 273.08 290.48 262.20 295.65 256.88 292.97 C 257.72 294.02 258.56 295.09 259.41 296.16 C 252.00 302.56 245.00 309.81 236.52 314.74 C 233.32 320.93 227.43 327.34 220.38 328.34 C 220.59 329.20 220.80 330.06 221.01 330.92 C 216.84 334.26 213.58 339.79 207.49 339.30 C 206.00 349.56 194.00 342.90 188.71 339.67 C 190.34 338.98 191.99 338.31 193.64 337.64 C 194.18 335.78 194.75 333.93 195.29 332.07 C 196.89 332.79 198.50 333.49 200.11 334.20 C 200.69 326.57 190.00 324.47 191.33 316.98 C 193.47 312.08 195.74 307.23 197.57 302.19 C 196.42 298.59 195.48 294.94 194.60 291.28 C 192.82 291.14 191.04 291.00 189.26 290.88 C 186.68 289.18 183.79 288.04 181.18 286.42 C 185.32 287.03 189.56 287.96 192.70 284.34 C 194.86 286.04 197.11 287.62 199.46 289.05 C 199.96 286.40 200.26 283.71 200.40 281.01 C 201.65 282.35 202.94 283.67 204.23 284.98 C 203.52 286.32 202.81 287.66 202.10 289.01 C 204.14 288.35 206.18 287.72 208.25 287.14 C 206.81 289.27 205.14 291.23 203.33 293.05 C 204.56 293.65 205.80 294.26 207.04 294.88 C 208.88 299.22 211.78 303.16 212.38 307.95 C 213.25 307.43 214.13 306.92 215.00 306.41 C 219.21 309.25 224.17 310.72 229.26 310.15 C 227.30 306.81 225.09 303.49 221.69 301.46 C 222.37 300.14 223.04 298.82 223.73 297.51 C 226.07 298.12 228.52 298.20 230.43 296.50 C 229.79 295.72 229.15 294.95 228.52 294.18 C 229.30 293.07 230.08 291.97 230.86 290.87 C 227.62 289.04 226.62 285.81 227.22 282.25 C 229.18 282.36 231.13 282.46 233.09 282.56 C 232.36 280.73 231.65 278.89 230.93 277.06 C 232.05 275.59 233.17 274.13 234.28 272.66 C 232.14 272.61 230.00 272.65 227.86 272.66 C 228.10 272.19 228.58 271.27 228.81 270.81 C 230.50 270.15 232.18 269.48 233.86 268.82 C 233.64 267.34 233.41 265.85 233.19 264.38 C 234.38 264.26 235.56 264.15 236.75 264.04 C 236.80 258.17 240.52 252.89 239.38 246.96 C 238.08 242.22 242.72 239.69 245.50 236.84 C 240.88 236.10 237.40 239.82 233.70 241.90 C 232.96 241.91 231.46 241.92 230.71 241.93 C 237.28 234.30 247.83 231.84 255.28 225.18 C 250.40 224.64 245.68 231.27 242.60 224.57 C 241.55 224.54 240.50 224.51 239.46 224.47 C 239.11 224.17 238.43 223.57 238.09 223.27 C 237.24 224.59 236.40 225.91 235.57 227.24 C 234.77 225.84 233.97 224.45 233.19 223.05 C 232.08 225.60 230.11 227.07 227.27 226.43 C 226.24 227.98 225.35 229.62 224.36 231.20 C 223.98 229.59 223.61 227.99 223.20 226.39 C 225.59 225.12 228.12 224.16 230.75 223.53 C 229.56 222.65 228.37 221.76 227.20 220.87 C 240.30 221.49 253.37 223.50 266.52 222.54 C 264.05 220.20 261.15 218.44 258.25 216.72 C 253.02 212.46 247.59 208.43 242.69 203.79 M 274.23 271.60 C 277.06 272.33 279.61 273.84 281.16 276.38 C 284.85 276.54 285.09 272.34 287.46 270.48 C 287.27 265.47 282.94 261.48 284.58 256.36 C 274.71 252.70 273.40 264.86 274.23 271.60 Z" />
<path fill="#467831" stroke="#467831" stroke-width="0.09375" opacity="1.00" d=" M 267.65 219.53 C 275.20 220.97 283.18 221.57 290.71 219.77 C 291.48 220.15 292.25 220.52 293.02 220.91 C 296.41 220.52 299.83 220.49 303.24 220.68 C 324.92 221.35 346.48 223.37 368.02 226.02 C 368.22 226.47 368.63 227.38 368.83 227.83 C 364.75 227.66 360.67 227.49 356.62 226.98 C 329.91 222.33 302.78 223.21 275.79 222.80 C 272.66 222.97 269.41 222.39 267.65 219.53 Z" />
<path fill="#74a959" stroke="#74a959" stroke-width="0.09375" opacity="1.00" d=" M 275.79 222.80 C 302.78 223.21 329.91 222.33 356.62 226.98 C 351.68 231.57 345.53 234.51 340.23 238.63 C 328.31 245.12 318.90 254.94 309.68 264.72 C 305.05 268.80 306.96 275.45 305.85 280.82 C 305.36 282.33 304.80 283.81 304.25 285.30 C 304.03 282.44 303.90 279.59 303.89 276.73 C 303.88 274.32 303.87 271.90 303.84 269.50 C 292.76 273.99 283.03 281.43 273.60 288.66 C 268.31 291.65 272.26 298.30 268.48 302.34 C 268.30 299.72 268.18 297.09 268.07 294.48 C 261.53 296.93 256.46 301.66 251.35 306.24 C 246.67 310.08 241.13 313.44 238.61 319.23 C 228.94 325.72 220.73 334.24 211.67 341.60 C 209.50 343.13 207.99 345.38 207.92 348.11 C 206.97 347.37 206.02 346.65 205.07 345.93 C 202.19 347.46 199.45 349.23 196.89 351.25 C 196.57 350.84 195.92 350.04 195.60 349.63 C 195.25 349.64 194.54 349.65 194.18 349.66 C 194.57 350.76 194.96 351.87 195.36 352.97 C 189.32 357.62 187.00 365.84 179.06 368.01 C 177.99 367.44 176.92 366.87 175.85 366.31 C 174.92 366.49 173.99 366.68 173.06 366.87 C 173.89 368.17 174.71 369.47 175.54 370.78 C 174.23 371.86 172.92 372.95 171.62 374.04 C 170.49 373.52 169.36 373.01 168.23 372.50 C 166.75 373.82 165.28 375.15 163.83 376.50 C 164.10 380.54 161.37 383.66 158.56 386.19 C 158.12 383.98 158.96 381.93 159.79 379.95 C 157.08 380.40 154.75 381.77 153.12 383.99 C 154.08 385.38 155.03 386.80 155.99 388.20 C 155.42 388.60 154.29 389.41 153.73 389.81 C 152.08 388.73 150.42 387.66 148.75 386.64 C 148.34 388.55 149.17 390.20 150.32 391.67 C 148.24 393.42 145.63 393.02 143.20 392.40 C 142.93 392.74 142.39 393.42 142.11 393.76 C 143.49 394.37 144.87 394.98 146.25 395.59 C 146.41 396.38 146.57 397.18 146.73 397.99 C 154.15 396.86 159.39 389.47 167.10 388.91 C 170.49 386.80 171.69 382.11 175.65 380.66 C 178.37 379.66 180.92 378.19 182.17 375.45 C 183.36 375.49 184.56 375.55 185.76 375.61 C 186.40 374.37 187.05 373.14 187.70 371.91 C 188.20 374.05 188.71 376.20 189.16 378.36 C 191.70 373.53 194.19 368.67 195.38 363.31 C 198.88 361.38 201.45 358.44 203.32 354.93 C 202.65 359.75 203.31 364.32 203.64 369.15 C 205.12 367.63 206.66 366.16 208.23 364.74 C 208.42 366.14 208.67 367.54 208.85 368.96 C 208.84 370.17 208.81 371.40 208.77 372.62 C 211.68 374.84 212.68 379.69 216.98 379.55 C 222.68 379.68 226.00 384.85 228.30 389.39 C 229.37 389.30 230.45 389.28 231.54 389.37 C 230.22 391.66 228.89 394.43 225.92 394.78 C 225.78 389.90 223.62 385.44 219.71 382.50 C 218.11 382.40 216.52 382.24 214.98 381.80 C 204.24 383.79 193.24 386.23 183.11 390.33 C 165.60 393.65 150.31 403.26 134.15 410.21 C 130.85 410.95 127.89 412.70 125.08 414.53 C 123.80 414.09 122.53 413.67 121.24 413.26 C 121.24 412.73 121.24 411.65 121.24 411.11 C 134.75 395.27 148.90 379.38 158.76 360.80 C 166.06 351.74 169.51 340.06 177.77 331.77 C 182.64 321.27 190.76 311.92 192.05 300.07 C 193.40 296.69 191.54 293.32 189.26 290.88 C 191.04 291.00 192.82 291.14 194.60 291.28 C 195.48 294.94 196.42 298.59 197.57 302.19 C 195.74 307.23 193.47 312.08 191.33 316.98 C 190.00 324.47 200.69 326.57 200.11 334.20 C 198.50 333.49 196.89 332.79 195.29 332.07 C 194.75 333.93 194.18 335.78 193.64 337.64 C 191.99 338.31 190.34 338.98 188.71 339.67 C 194.00 342.90 206.00 349.56 207.49 339.30 C 213.58 339.79 216.84 334.26 221.01 330.92 C 220.80 330.06 220.59 329.20 220.38 328.34 C 227.43 327.34 233.32 320.93 236.52 314.74 C 245.00 309.81 252.00 302.56 259.41 296.16 C 258.56 295.09 257.72 294.02 256.88 292.97 C 262.20 295.65 273.08 290.48 269.39 284.00 C 271.12 284.54 272.85 285.05 274.59 285.55 C 276.60 283.70 278.70 281.95 280.89 280.31 C 275.69 279.54 271.74 275.95 268.37 272.18 C 273.67 273.64 278.05 277.46 283.65 278.32 C 285.50 276.49 287.78 275.22 290.22 274.37 C 290.47 273.96 290.99 273.12 291.24 272.70 C 294.81 272.98 297.48 270.71 299.50 268.04 C 305.57 263.34 312.58 259.58 316.77 252.87 C 324.83 243.17 337.88 239.70 346.20 230.47 C 339.70 231.29 333.01 231.65 326.95 234.41 C 325.26 240.73 317.70 238.66 317.23 232.86 C 315.25 231.82 313.37 230.60 311.66 229.17 C 306.36 230.56 300.94 228.95 295.70 229.84 C 288.28 234.46 282.66 241.64 275.23 246.30 C 275.23 245.59 275.23 244.16 275.23 243.44 C 280.66 241.87 282.85 236.13 287.75 233.73 C 291.03 232.02 293.02 228.87 294.04 225.40 C 288.67 226.33 283.24 223.59 278.03 225.73 C 277.28 224.75 276.53 223.77 275.79 222.80 Z" />
<path fill="#74a959" stroke="#74a959" stroke-width="0.09375" opacity="1.00" d=" M 65.04 226.88 C 74.25 228.95 81.01 236.87 89.20 241.41 C 93.27 241.96 97.37 242.31 101.48 242.28 C 102.24 248.39 109.06 251.18 109.45 257.27 C 114.94 255.91 120.73 256.56 126.19 254.88 C 127.60 256.22 128.97 257.59 130.33 258.99 C 129.10 255.37 132.89 253.43 135.11 251.37 C 137.36 254.38 136.97 257.91 133.40 259.58 C 135.90 262.87 144.33 266.61 138.40 270.77 C 136.14 264.67 129.15 263.10 123.39 262.50 C 112.61 260.35 101.58 263.87 90.83 262.04 C 90.63 261.58 90.22 260.66 90.02 260.20 C 92.31 258.52 94.30 256.48 96.42 254.60 C 100.49 248.19 91.20 244.47 86.63 242.38 C 79.41 237.26 72.32 231.91 65.04 226.88 Z" />
<path fill="#74a959" stroke="#74a959" stroke-width="0.09375" opacity="1.00" d=" M 382.33 228.90 C 401.18 248.65 421.99 266.46 442.77 284.21 C 442.09 284.17 440.74 284.09 440.06 284.05 C 442.70 286.77 446.19 289.02 447.24 292.88 C 424.97 273.16 403.67 252.20 380.83 233.23 C 381.33 233.05 382.33 232.71 382.83 232.54 C 382.63 231.33 382.45 230.11 382.33 228.90 Z" />
<path fill="#467831" stroke="#467831" stroke-width="0.09375" opacity="1.00" d=" M 355.64 244.71 C 359.73 239.29 363.76 233.49 370.32 230.81 C 369.14 233.68 367.46 236.30 365.34 238.56 C 366.42 238.88 367.51 239.20 368.60 239.53 C 368.81 245.86 364.85 250.79 363.00 256.49 C 361.86 260.74 358.67 264.00 356.77 267.89 C 354.11 275.18 354.66 283.21 352.43 290.57 C 347.79 306.23 347.55 323.44 338.74 337.75 C 334.59 350.29 328.83 362.52 327.57 375.83 C 325.68 376.93 323.76 377.98 321.82 378.99 C 319.28 370.44 308.20 372.34 304.89 379.27 C 303.19 378.58 301.50 377.88 299.82 377.18 C 297.30 382.34 294.68 387.78 290.51 391.82 C 292.73 382.17 292.06 371.98 295.60 362.65 C 295.75 364.76 295.94 366.87 296.13 368.98 C 299.59 365.55 301.43 361.13 300.17 356.24 C 300.79 356.25 302.04 356.27 302.67 356.28 C 304.09 359.30 305.86 362.14 307.96 364.74 C 308.51 363.50 309.06 362.27 309.61 361.04 C 310.72 363.29 311.85 365.53 313.03 367.75 C 314.55 364.85 315.65 361.76 316.27 358.55 C 317.98 360.20 319.65 361.88 321.31 363.59 C 324.61 360.24 323.43 355.45 324.03 351.25 C 325.52 351.43 327.00 351.61 328.50 351.79 C 328.89 345.46 332.03 339.66 331.64 333.24 C 333.47 328.12 334.76 322.74 333.26 317.34 C 336.91 314.60 339.47 310.51 340.28 306.01 C 339.21 301.62 336.35 297.92 335.11 293.57 C 339.32 296.09 340.40 301.39 344.43 304.11 C 345.32 298.65 340.99 293.91 342.35 288.34 C 343.31 287.56 344.26 286.77 345.22 285.98 C 344.47 283.97 343.72 281.96 342.97 279.95 C 345.29 281.33 347.55 285.97 350.34 284.33 C 352.02 275.77 349.22 267.64 345.55 260.03 C 344.98 259.97 343.83 259.87 343.26 259.81 C 346.67 254.22 350.69 249.03 355.64 244.71 Z" />
<path fill="#2b571c" stroke="#2b571c" stroke-width="0.09375" opacity="1.00" d=" M 342.97 241.57 C 348.00 239.84 352.93 237.82 357.93 235.97 C 354.13 244.15 346.03 248.97 341.88 256.90 C 335.68 265.09 335.20 275.69 332.34 285.21 C 330.79 291.97 326.73 298.23 327.45 305.39 C 334.05 290.66 335.56 273.99 343.26 259.81 C 343.83 259.87 344.98 259.97 345.55 260.03 C 349.22 267.64 352.02 275.77 350.34 284.33 C 347.55 285.97 345.29 281.33 342.97 279.95 C 343.72 281.96 344.47 283.97 345.22 285.98 C 344.26 286.77 343.31 287.56 342.35 288.34 C 340.99 293.91 345.32 298.65 344.43 304.11 C 340.40 301.39 339.32 296.09 335.11 293.57 C 336.35 297.92 339.21 301.62 340.28 306.01 C 339.47 310.51 336.91 314.60 333.26 317.34 C 334.76 322.74 333.47 328.12 331.64 333.24 C 332.03 339.66 328.89 345.46 328.50 351.79 C 327.00 351.61 325.52 351.43 324.03 351.25 C 323.43 355.45 324.61 360.24 321.31 363.59 C 319.65 361.88 317.98 360.20 316.27 358.55 C 315.65 361.76 314.55 364.85 313.03 367.75 C 311.85 365.53 310.72 363.29 309.61 361.04 C 309.06 362.27 308.51 363.50 307.96 364.74 C 305.86 362.14 304.09 359.30 302.67 356.28 C 302.04 356.27 300.79 356.25 300.17 356.24 C 301.43 361.13 299.59 365.55 296.13 368.98 C 295.94 366.87 295.75 364.76 295.60 362.65 C 295.75 361.83 296.04 360.20 296.19 359.38 C 299.03 345.70 299.00 331.63 301.51 317.90 C 304.71 305.80 304.28 293.16 305.85 280.82 C 306.96 275.45 305.05 268.80 309.68 264.72 C 318.90 254.94 328.31 245.12 340.23 238.63 C 341.14 239.60 342.05 240.58 342.97 241.57 Z" />
<path fill="#467831" stroke="#467831" stroke-width="0.09375" opacity="1.00" d=" M 192.86 250.35 C 196.73 250.61 199.75 247.95 202.19 245.31 C 204.24 247.52 205.33 250.34 206.22 253.18 C 203.60 254.68 200.72 255.59 197.91 256.66 C 206.65 257.96 212.99 249.45 221.06 249.07 C 221.13 253.18 215.77 254.94 212.74 256.73 C 207.40 262.57 204.74 269.92 200.61 276.70 C 200.13 278.23 198.37 278.03 197.14 278.40 C 197.78 276.34 198.40 274.27 198.95 272.19 C 198.01 272.81 197.07 273.43 196.13 274.06 C 193.70 272.61 190.99 271.79 188.25 271.21 C 188.25 274.00 188.56 276.78 189.48 279.42 C 182.35 280.37 173.16 285.59 168.29 277.61 C 170.45 273.72 165.70 266.94 171.90 265.94 C 176.90 265.96 180.88 262.41 185.73 262.23 C 186.42 261.72 187.12 261.21 187.83 260.72 C 187.56 260.36 187.04 259.65 186.78 259.30 C 184.37 260.80 181.65 261.62 178.80 261.32 C 178.74 260.46 178.64 258.74 178.59 257.88 C 182.23 253.95 187.09 249.53 192.86 250.35 Z" />
<path fill="#74a959" stroke="#74a959" stroke-width="0.09375" opacity="1.00" d=" M 274.23 271.60 C 273.40 264.86 274.71 252.70 284.58 256.36 C 282.94 261.48 287.27 265.47 287.46 270.48 C 285.09 272.34 284.85 276.54 281.16 276.38 C 279.61 273.84 277.06 272.33 274.23 271.60 Z" />
<path fill="#63984a" stroke="#63984a" stroke-width="0.09375" opacity="1.00" d=" M 273.60 288.66 C 283.03 281.43 292.76 273.99 303.84 269.50 C 303.87 271.90 303.88 274.32 303.89 276.73 C 303.44 276.62 302.55 276.40 302.10 276.29 C 300.46 277.90 298.48 279.32 297.44 281.42 C 298.69 290.70 287.39 297.10 290.87 306.85 C 289.48 305.83 288.09 304.83 286.68 303.85 C 287.80 306.70 289.33 309.36 291.14 311.83 C 289.81 312.28 288.48 312.74 287.16 313.21 C 287.29 314.53 287.42 315.85 287.56 317.18 C 285.70 317.70 283.83 318.22 281.97 318.75 C 283.82 321.45 285.60 324.23 286.78 327.30 C 287.62 327.77 288.48 328.24 289.33 328.70 C 289.62 331.55 290.57 334.27 292.64 336.32 C 292.67 337.45 292.67 338.57 292.66 339.71 C 291.16 340.71 289.73 341.81 288.24 342.83 C 286.21 336.57 278.17 334.10 278.10 327.02 C 277.97 322.84 275.59 319.42 272.60 316.71 C 273.01 311.41 272.42 306.10 271.12 300.95 C 267.85 305.85 271.32 311.88 269.34 317.21 C 268.88 316.53 267.96 315.16 267.50 314.48 C 265.41 321.42 267.97 328.78 266.81 335.91 C 265.50 335.90 264.19 335.89 262.89 335.89 C 264.54 329.33 267.24 319.09 259.79 315.21 C 256.06 315.56 253.38 319.33 253.96 323.05 C 254.65 327.89 250.10 330.42 246.42 332.18 C 246.35 327.64 248.34 323.75 251.50 320.62 C 251.69 315.52 252.36 310.47 253.47 305.48 C 252.94 305.67 251.88 306.05 251.35 306.24 C 256.46 301.66 261.53 296.93 268.07 294.48 C 268.18 297.09 268.30 299.72 268.48 302.34 C 272.26 298.30 268.31 291.65 273.60 288.66 Z" />
<path fill="#558a3d" stroke="#558a3d" stroke-width="0.09375" opacity="1.00" d=" M 302.10 276.29 C 302.55 276.40 303.44 276.62 303.89 276.73 C 303.90 279.59 304.03 282.44 304.25 285.30 C 304.80 283.81 305.36 282.33 305.85 280.82 C 304.28 293.16 304.71 305.80 301.51 317.90 C 299.00 331.63 299.03 345.70 296.19 359.38 C 293.12 361.15 291.45 364.31 289.93 367.37 C 289.69 366.42 289.45 365.48 289.22 364.55 C 285.57 363.71 278.05 364.63 279.60 358.66 C 281.81 352.01 277.18 341.78 269.02 344.46 C 268.86 341.54 268.67 338.62 268.64 335.70 C 269.28 329.54 268.28 323.32 269.34 317.21 C 271.32 311.88 267.85 305.85 271.12 300.95 C 272.42 306.10 273.01 311.41 272.60 316.71 C 275.59 319.42 277.97 322.84 278.10 327.02 C 278.17 334.10 286.21 336.57 288.24 342.83 C 289.73 341.81 291.16 340.71 292.66 339.71 C 292.67 338.57 292.67 337.45 292.64 336.32 C 290.57 334.27 289.62 331.55 289.33 328.70 C 288.48 328.24 287.62 327.77 286.78 327.30 C 285.60 324.23 283.82 321.45 281.97 318.75 C 283.83 318.22 285.70 317.70 287.56 317.18 C 287.42 315.85 287.29 314.53 287.16 313.21 C 288.48 312.74 289.81 312.28 291.14 311.83 C 289.33 309.36 287.80 306.70 286.68 303.85 C 288.09 304.83 289.48 305.83 290.87 306.85 C 287.39 297.10 298.69 290.70 297.44 281.42 C 298.48 279.32 300.46 277.90 302.10 276.29 M 295.73 301.85 C 293.71 303.84 292.39 306.35 291.34 308.95 C 293.97 312.63 293.79 317.05 292.32 321.15 C 293.41 322.20 294.51 323.25 295.61 324.30 C 295.04 325.12 294.49 325.95 293.95 326.79 C 294.44 329.50 293.86 332.81 296.67 334.42 C 300.45 315.78 303.66 296.62 302.88 277.56 C 300.44 285.42 293.74 293.28 295.73 301.85 Z" />
<path fill="#467831" stroke="#467831" stroke-width="0.09375" opacity="1.00" d=" M 295.73 301.85 C 293.74 293.28 300.44 285.42 302.88 277.56 C 303.66 296.62 300.45 315.78 296.67 334.42 C 293.86 332.81 294.44 329.50 293.95 326.79 C 294.49 325.95 295.04 325.12 295.61 324.30 C 294.51 323.25 293.41 322.20 292.32 321.15 C 293.79 317.05 293.97 312.63 291.34 308.95 C 292.39 306.35 293.71 303.84 295.73 301.85 Z" />
<path fill="#558a3d" stroke="#558a3d" stroke-width="0.09375" opacity="1.00" d=" M 440.06 284.05 C 440.74 284.09 442.09 284.17 442.77 284.21 C 450.24 288.99 456.44 295.56 464.34 299.75 C 473.38 304.89 482.13 313.10 483.15 323.97 C 481.46 324.88 479.79 325.81 478.08 326.66 C 474.98 325.21 471.63 324.38 468.57 322.83 C 468.62 321.11 469.10 319.46 469.61 317.84 C 464.23 307.89 456.93 298.99 447.27 292.94 L 447.24 292.88 C 446.19 289.02 442.70 286.77 440.06 284.05 Z" />
<path fill="#74a959" stroke="#74a959" stroke-width="0.09375" opacity="1.00" d=" M 338.74 337.75 C 347.55 323.44 347.79 306.23 352.43 290.57 C 352.53 292.10 352.35 293.61 351.88 295.07 C 351.66 297.74 351.44 300.41 350.88 303.04 C 349.25 312.08 347.73 321.20 345.02 329.99 C 339.73 338.21 337.57 347.83 333.50 356.61 C 328.98 366.76 330.81 378.60 325.37 388.46 C 324.45 388.56 323.53 388.66 322.61 388.76 C 321.43 383.11 320.33 374.08 312.72 374.28 C 311.64 375.11 310.56 375.92 309.45 376.69 C 299.69 386.96 295.93 401.33 285.13 410.94 C 284.59 410.73 283.49 410.30 282.95 410.08 C 281.97 408.36 281.05 406.61 280.16 404.86 C 281.88 393.75 280.97 381.81 275.07 371.99 C 272.28 367.71 266.88 366.37 262.06 366.28 C 261.49 366.25 260.36 366.18 259.79 366.14 C 260.87 364.19 261.94 362.24 263.02 360.30 C 261.86 359.94 260.70 359.60 259.55 359.25 C 258.54 360.79 257.51 362.31 256.45 363.82 C 255.81 361.89 256.39 360.09 257.50 358.48 C 255.73 358.37 253.16 358.65 252.72 356.35 C 250.85 350.81 247.96 345.25 248.98 339.22 C 249.93 338.92 250.89 338.62 251.86 338.33 C 250.65 336.90 249.43 335.47 248.18 334.08 C 247.74 333.61 246.86 332.66 246.42 332.18 C 250.10 330.42 254.65 327.89 253.96 323.05 C 253.38 319.33 256.06 315.56 259.79 315.21 C 267.24 319.09 264.54 329.33 262.89 335.89 C 264.19 335.89 265.50 335.90 266.81 335.91 C 267.97 328.78 265.41 321.42 267.50 314.48 C 267.96 315.16 268.88 316.53 269.34 317.21 C 268.28 323.32 269.28 329.54 268.64 335.70 C 268.22 339.69 267.98 343.71 268.00 347.73 C 263.92 350.37 261.11 356.96 265.24 360.77 C 267.81 362.63 271.16 362.85 274.09 363.92 C 275.22 363.39 276.36 362.87 277.50 362.34 C 274.92 374.21 286.03 383.56 284.54 395.35 C 287.28 397.10 287.67 400.15 287.66 403.16 C 295.28 396.80 298.80 386.97 304.89 379.27 C 308.20 372.34 319.28 370.44 321.82 378.99 C 323.76 377.98 325.68 376.93 327.57 375.83 C 328.83 362.52 334.59 350.29 338.74 337.75 Z" />
<path fill="#558a3d" stroke="#558a3d" stroke-width="0.09375" opacity="1.00" d=" M 251.35 306.24 C 251.88 306.05 252.94 305.67 253.47 305.48 C 252.36 310.47 251.69 315.52 251.50 320.62 C 248.34 323.75 246.35 327.64 246.42 332.18 C 246.86 332.66 247.74 333.61 248.18 334.08 C 244.04 342.13 249.18 350.97 248.78 359.46 C 245.05 361.10 243.23 364.43 243.63 368.49 C 234.46 369.61 235.91 381.34 231.11 387.22 C 228.92 374.76 241.13 364.91 241.00 352.30 C 233.14 349.46 229.85 342.19 228.53 334.60 C 228.22 336.31 227.94 338.05 227.67 339.78 C 226.42 339.91 225.17 340.04 223.92 340.18 C 223.75 343.82 224.23 347.45 225.50 350.88 C 221.84 359.05 227.52 366.83 229.08 374.72 C 225.44 374.19 221.79 375.06 218.16 374.82 C 214.80 373.31 211.99 370.84 208.85 368.96 C 208.67 367.54 208.42 366.14 208.23 364.74 C 208.53 359.19 208.63 353.63 207.92 348.11 C 207.99 345.38 209.50 343.13 211.67 341.60 C 220.73 334.24 228.94 325.72 238.61 319.23 C 241.13 313.44 246.67 310.08 251.35 306.24 Z" />
<path fill="#63984a" stroke="#63984a" stroke-width="0.09375" opacity="1.00" d=" M 248.18 334.08 C 249.43 335.47 250.65 336.90 251.86 338.33 C 250.89 338.62 249.93 338.92 248.98 339.22 C 247.96 345.25 250.85 350.81 252.72 356.35 C 253.16 358.65 255.73 358.37 257.50 358.48 C 256.39 360.09 255.81 361.89 256.45 363.82 C 257.51 362.31 258.54 360.79 259.55 359.25 C 260.70 359.60 261.86 359.94 263.02 360.30 C 261.94 362.24 260.87 364.19 259.79 366.14 C 260.36 366.18 261.49 366.25 262.06 366.28 C 249.79 370.78 238.59 378.17 231.54 389.37 C 230.45 389.28 229.37 389.30 228.30 389.39 C 226.00 384.85 222.68 379.68 216.98 379.55 C 212.68 379.69 211.68 374.84 208.77 372.62 C 208.81 371.40 208.84 370.17 208.85 368.96 C 211.99 370.84 214.80 373.31 218.16 374.82 C 221.79 375.06 225.44 374.19 229.08 374.72 C 227.52 366.83 221.84 359.05 225.50 350.88 C 224.23 347.45 223.75 343.82 223.92 340.18 C 225.17 340.04 226.42 339.91 227.67 339.78 C 227.94 338.05 228.22 336.31 228.53 334.60 C 229.85 342.19 233.14 349.46 241.00 352.30 C 241.13 364.91 228.92 374.76 231.11 387.22 C 235.91 381.34 234.46 369.61 243.63 368.49 C 243.23 364.43 245.05 361.10 248.78 359.46 C 249.18 350.97 244.04 342.13 248.18 334.08 Z" />
<path fill="#63984a" stroke="#63984a" stroke-width="0.09375" opacity="1.00" d=" M 268.00 347.73 C 267.98 343.71 268.22 339.69 268.64 335.70 C 268.67 338.62 268.86 341.54 269.02 344.46 C 277.18 341.78 281.81 352.01 279.60 358.66 C 278.05 364.63 285.57 363.71 289.22 364.55 C 289.45 365.48 289.69 366.42 289.93 367.37 C 291.45 364.31 293.12 361.15 296.19 359.38 C 296.04 360.20 295.75 361.83 295.60 362.65 C 292.06 371.98 292.73 382.17 290.51 391.82 C 294.68 387.78 297.30 382.34 299.82 377.18 C 301.50 377.88 303.19 378.58 304.89 379.27 C 298.80 386.97 295.28 396.80 287.66 403.16 C 287.67 400.15 287.28 397.10 284.54 395.35 C 286.03 383.56 274.92 374.21 277.50 362.34 C 276.36 362.87 275.22 363.39 274.09 363.92 C 271.16 362.85 267.81 362.63 265.24 360.77 C 261.11 356.96 263.92 350.37 268.00 347.73 Z" />
<path fill="#63984a" stroke="#63984a" stroke-width="0.09375" opacity="1.00" d=" M 196.89 351.25 C 199.45 349.23 202.19 347.46 205.07 345.93 C 206.02 346.65 206.97 347.37 207.92 348.11 C 208.63 353.63 208.53 359.19 208.23 364.74 C 206.66 366.16 205.12 367.63 203.64 369.15 C 203.31 364.32 202.65 359.75 203.32 354.93 C 201.45 358.44 198.88 361.38 195.38 363.31 C 194.19 368.67 191.70 373.53 189.16 378.36 C 188.71 376.20 188.20 374.05 187.70 371.91 C 187.05 373.14 186.40 374.37 185.76 375.61 C 184.56 375.55 183.36 375.49 182.17 375.45 C 180.92 378.19 178.37 379.66 175.65 380.66 C 171.69 382.11 170.49 386.80 167.10 388.91 C 159.39 389.47 154.15 396.86 146.73 397.99 C 146.57 397.18 146.41 396.38 146.25 395.59 C 144.87 394.98 143.49 394.37 142.11 393.76 C 142.39 393.42 142.93 392.74 143.20 392.40 C 145.63 393.02 148.24 393.42 150.32 391.67 C 149.17 390.20 148.34 388.55 148.75 386.64 C 150.42 387.66 152.08 388.73 153.73 389.81 C 154.29 389.41 155.42 388.60 155.99 388.20 C 155.03 386.80 154.08 385.38 153.12 383.99 C 154.75 381.77 157.08 380.40 159.79 379.95 C 158.96 381.93 158.12 383.98 158.56 386.19 C 161.37 383.66 164.10 380.54 163.83 376.50 C 165.28 375.15 166.75 373.82 168.23 372.50 C 169.36 373.01 170.49 373.52 171.62 374.04 C 172.92 372.95 174.23 371.86 175.54 370.78 C 174.71 369.47 173.89 368.17 173.06 366.87 C 173.99 366.68 174.92 366.49 175.85 366.31 C 176.92 366.87 177.99 367.44 179.06 368.01 C 187.00 365.84 189.32 357.62 195.36 352.97 C 194.96 351.87 194.57 350.76 194.18 349.66 C 194.54 349.65 195.25 349.64 195.60 349.63 C 195.92 350.04 196.57 350.84 196.89 351.25 Z" />
</svg>
