<?xml version="1.0" encoding="UTF-8" ?>
<!DOCTYPE svg PUBLIC "-//W3C//DTD SVG 1.1//EN" "http://www.w3.org/Graphics/SVG/1.1/DTD/svg11.dtd">
<svg width="512pt" height="512pt" viewBox="0 0 512 512" version="1.1" xmlns="http://www.w3.org/2000/svg">
<path fill="#000000" stroke="#000000" stroke-width="0.09375" opacity="1.00" d=" M 367.36 22.49 C 383.15 18.91 400.08 30.90 401.99 46.95 C 404.68 62.46 392.65 78.48 377.01 80.19 C 362.16 82.61 346.89 71.64 344.30 56.86 C 340.90 41.57 351.94 25.13 367.36 22.49 Z" />
<path fill="#000000" stroke="#000000" stroke-width="0.09375" opacity="1.00" d=" M 251.34 34.39 C 261.56 30.43 273.03 40.81 270.33 51.35 C 268.48 62.10 253.68 66.82 246.02 58.97 C 237.88 52.05 241.12 37.36 251.34 34.39 Z" />
<path fill="#000000" stroke="#000000" stroke-width="0.09375" opacity="1.00" d=" M 102.36 37.48 C 118.39 32.85 136.38 44.64 138.62 61.14 C 141.92 78.10 127.28 95.48 110.01 95.06 C 92.84 95.85 77.89 78.91 80.70 61.97 C 82.08 50.41 91.08 40.30 102.36 37.48 Z" />
<path fill="#000000" stroke="#000000" stroke-width="0.09375" opacity="1.00" d=" M 314.36 80.44 C 322.16 80.16 329.37 87.15 329.10 95.00 C 329.41 102.68 322.62 109.70 314.94 109.71 C 306.96 110.21 299.59 102.99 299.92 95.00 C 299.66 87.24 306.66 80.35 314.36 80.44 Z" />
<path fill="#000000" stroke="#000000" stroke-width="0.09375" opacity="1.00" d=" M 165.29 95.37 C 172.03 93.82 179.38 97.87 181.85 104.28 C 184.57 110.86 181.69 119.12 175.40 122.49 C 168.14 126.83 157.74 123.24 154.71 115.35 C 151.02 107.23 156.53 96.89 165.29 95.37 Z" />
<path fill="#000000" stroke="#000000" stroke-width="0.09375" opacity="1.00" d=" M 253.29 95.33 C 260.82 93.70 268.85 99.12 270.33 106.65 C 272.23 114.62 266.19 123.32 258.02 124.20 C 250.24 125.53 242.29 119.40 241.49 111.58 C 240.32 104.14 245.91 96.58 253.29 95.33 Z" />
<path fill="#000000" stroke="#000000" stroke-width="0.09375" opacity="1.00" d=" M 66.46 153.77 C 192.81 153.48 319.20 153.48 445.55 153.77 C 444.49 155.59 443.24 157.29 441.85 158.87 C 394.37 215.44 347.44 272.50 299.83 328.94 C 270.62 329.25 241.37 329.25 212.17 328.95 C 164.26 272.12 116.99 214.72 69.23 157.76 C 68.18 156.52 67.30 155.15 66.46 153.77 Z" />
<path fill="#000000" stroke="#000000" stroke-width="0.09375" opacity="1.00" d=" M 212.25 358.39 C 241.42 358.40 270.59 358.40 299.76 358.39 C 299.93 382.77 300.31 407.28 299.57 431.61 C 270.54 451.20 241.37 470.63 212.12 489.91 C 212.11 446.07 211.85 402.22 212.25 358.39 Z" />
</svg>
