<?xml version="1.0" encoding="UTF-8" ?>
<!DOCTYPE svg PUBLIC "-//W3C//DTD SVG 1.1//EN" "http://www.w3.org/Graphics/SVG/1.1/DTD/svg11.dtd">
<svg width="400pt" height="400pt" viewBox="0 0 400 400" version="1.1" xmlns="http://www.w3.org/2000/svg">
<path fill="#2b2929" stroke="#2b2929" stroke-width="0.09375" opacity="1.00" d=" M 225.76 15.61 C 232.82 11.41 238.37 2.79 246.99 2.39 C 247.47 6.43 251.96 10.92 248.63 14.62 C 228.20 39.41 206.04 62.65 183.62 85.62 C 177.01 92.06 175.73 105.41 182.96 111.71 C 182.57 103.62 179.63 93.76 186.55 87.50 C 209.90 63.91 232.48 39.45 253.96 14.23 C 247.89 29.98 233.47 40.03 223.14 52.75 C 209.77 64.14 198.56 78.51 187.56 92.08 C 186.88 94.05 186.31 96.06 185.71 98.05 C 189.16 100.92 193.68 105.26 198.25 101.86 C 205.43 102.86 209.06 94.69 214.07 90.94 C 214.39 90.62 215.04 89.97 215.37 89.65 C 218.10 86.90 220.89 84.22 223.67 81.52 C 227.03 78.24 230.44 75.01 233.65 71.58 C 237.90 67.25 242.15 62.90 246.61 58.77 C 249.73 56.49 252.49 53.77 254.91 50.75 C 262.50 44.23 268.80 36.32 276.99 30.48 C 278.39 31.48 279.80 32.48 281.21 33.46 C 251.40 61.36 226.57 94.72 199.05 125.06 C 192.59 130.57 194.78 142.08 202.89 144.69 C 202.19 142.89 201.44 141.11 200.67 139.34 C 212.34 148.91 221.31 133.65 229.41 126.88 C 224.88 121.67 218.82 118.26 213.03 114.67 C 228.37 98.54 241.01 79.44 257.58 64.77 C 252.99 70.75 248.04 76.44 243.67 82.58 C 240.97 85.56 238.11 88.38 235.46 91.41 C 232.50 94.80 229.64 98.28 226.95 101.89 C 231.84 106.81 236.89 111.59 241.45 116.83 C 244.66 114.16 247.72 111.33 250.91 108.65 C 253.42 106.46 256.50 104.49 257.58 101.16 C 270.36 90.83 281.61 78.80 293.59 67.58 C 297.66 64.17 300.76 57.62 306.87 58.25 C 304.21 64.71 298.42 68.85 294.08 74.08 C 269.81 100.21 246.75 127.43 223.26 154.24 C 217.52 160.01 221.61 169.62 228.89 171.59 C 227.95 169.68 226.96 167.80 225.95 165.93 C 238.78 175.90 248.59 157.95 257.85 151.18 C 252.66 146.81 247.37 142.53 242.64 137.65 C 245.92 133.68 249.29 129.79 252.65 125.89 C 257.78 131.98 263.62 137.42 269.34 142.94 C 272.92 140.28 275.91 136.97 278.80 133.60 C 282.97 129.46 287.52 125.68 291.20 121.06 C 301.52 111.14 313.04 102.53 322.95 92.17 C 325.88 90.06 328.49 87.56 330.89 84.87 C 332.03 84.18 333.46 85.25 334.67 85.42 C 328.53 95.47 318.54 102.25 311.60 111.69 C 291.40 134.46 271.08 157.16 251.26 180.26 C 246.43 185.36 248.63 193.50 254.65 196.53 C 253.97 191.99 249.95 186.92 253.88 182.83 C 261.33 173.74 269.11 164.89 277.25 156.41 C 275.25 164.43 278.13 171.07 286.12 174.14 C 281.06 183.01 272.36 188.62 265.97 196.31 C 274.62 193.30 279.38 184.75 286.44 179.41 C 298.03 167.29 313.26 157.98 321.85 143.36 C 332.18 134.18 343.09 125.64 352.93 115.91 C 355.62 113.69 359.00 109.66 362.72 112.33 C 336.31 143.36 306.38 171.63 281.72 203.98 C 278.71 216.48 295.30 214.19 302.64 212.23 C 302.35 211.38 302.07 210.54 301.79 209.70 C 309.55 206.93 315.17 200.64 320.05 194.28 C 327.53 185.76 336.89 179.04 343.91 170.06 C 347.65 165.24 352.12 161.07 356.66 157.02 C 359.51 155.02 361.98 152.56 364.12 149.82 C 371.53 146.27 378.93 137.01 387.17 138.48 C 386.77 139.65 386.38 140.82 386.00 141.99 C 386.98 143.38 387.98 144.77 388.97 146.17 C 388.25 147.37 387.52 148.58 386.75 149.75 C 374.58 163.58 362.68 177.67 350.64 191.62 C 338.97 206.13 326.82 221.35 309.54 229.39 C 296.69 233.98 282.92 239.31 269.12 235.79 C 248.79 230.36 232.53 216.48 217.38 202.63 C 195.68 179.35 166.84 159.04 158.13 126.82 C 156.54 120.35 156.74 113.65 156.39 107.06 C 156.08 102.83 158.07 98.96 159.31 95.04 C 171.33 61.33 204.51 42.62 227.82 17.48 C 227.30 17.01 226.27 16.08 225.76 15.61 Z" />
<path fill="#807d7b" stroke="#807d7b" stroke-width="0.09375" opacity="1.00" d=" M 246.99 2.39 C 250.58 5.22 255.63 8.99 253.96 14.23 C 232.48 39.45 209.90 63.91 186.55 87.50 C 179.63 93.76 182.57 103.62 182.96 111.71 C 175.73 105.41 177.01 92.06 183.62 85.62 C 206.04 62.65 228.20 39.41 248.63 14.62 C 251.96 10.92 247.47 6.43 246.99 2.39 Z" />
<path fill="#535150" stroke="#535150" stroke-width="0.09375" opacity="1.00" d=" M 166.35 61.35 C 187.46 47.87 205.99 30.90 225.76 15.61 C 226.27 16.08 227.30 17.01 227.82 17.48 C 204.51 42.62 171.33 61.33 159.31 95.04 C 159.22 94.53 159.04 93.51 158.95 92.99 C 154.24 91.93 149.37 93.03 144.69 91.84 C 151.36 82.54 160.40 75.13 166.19 65.18 C 157.19 69.76 152.02 79.61 142.77 83.49 C 150.25 75.74 157.27 67.31 166.35 61.35 Z" />
<path fill="#807d7b" stroke="#807d7b" stroke-width="0.09375" opacity="1.00" d=" M 199.05 125.06 C 226.57 94.72 251.40 61.36 281.21 33.46 C 275.68 45.38 265.69 54.58 257.58 64.77 C 241.01 79.44 228.37 98.54 213.03 114.67 C 208.20 122.34 194.63 128.88 200.67 139.34 C 201.44 141.11 202.19 142.89 202.89 144.69 C 194.78 142.08 192.59 130.57 199.05 125.06 Z" />
<path fill="#807d7b" stroke="#807d7b" stroke-width="0.09375" opacity="1.00" d=" M 246.61 58.77 C 249.15 55.87 251.88 53.14 254.91 50.75 C 252.49 53.77 249.73 56.49 246.61 58.77 Z" />
<path fill="#807d7b" stroke="#807d7b" stroke-width="0.09375" opacity="1.00" d=" M 187.56 92.08 C 198.56 78.51 209.77 64.14 223.14 52.75 C 224.15 56.62 221.38 59.73 219.71 62.90 C 222.56 61.22 225.36 59.45 228.32 57.95 C 226.38 61.40 223.60 64.43 222.57 68.35 C 225.64 66.11 228.51 63.60 231.67 61.49 C 230.74 64.04 229.83 66.61 229.28 69.27 C 231.24 67.98 233.15 66.60 235.01 65.16 C 234.50 67.29 234.02 69.42 233.65 71.58 C 230.44 75.01 227.03 78.24 223.67 81.52 C 219.26 79.10 216.64 74.35 212.14 72.19 C 209.47 73.83 207.83 76.58 206.02 79.03 C 209.32 82.39 213.39 85.23 215.37 89.65 C 215.04 89.97 214.39 90.62 214.07 90.94 C 205.50 87.03 195.75 87.38 187.56 92.08 Z" />
<path fill="#535150" stroke="#535150" stroke-width="0.09375" opacity="1.00" d=" M 306.87 58.25 C 307.70 59.69 309.71 61.49 308.15 63.14 C 303.32 69.56 297.49 75.19 292.21 81.24 C 293.54 78.78 294.68 76.23 295.77 73.66 C 295.35 73.76 294.50 73.98 294.08 74.08 C 298.42 68.85 304.21 64.71 306.87 58.25 Z" />
<path fill="#807d7b" stroke="#807d7b" stroke-width="0.09375" opacity="1.00" d=" M 142.77 83.49 C 152.02 79.61 157.19 69.76 166.19 65.18 C 160.40 75.13 151.36 82.54 144.69 91.84 C 149.37 93.03 154.24 91.93 158.95 92.99 C 159.04 93.51 159.22 94.53 159.31 95.04 C 158.07 98.96 156.08 102.83 156.39 107.06 C 104.28 161.30 52.72 216.08 0.00 269.73 L 0.00 217.75 C 20.01 198.52 38.36 177.62 57.88 157.88 C 62.05 152.92 67.38 148.81 70.18 142.82 C 82.49 133.44 90.44 119.39 102.22 109.48 C 111.25 105.52 115.94 93.20 127.02 94.43 C 134.46 95.55 137.69 87.30 142.77 83.49 Z" />
<path fill="#535150" stroke="#535150" stroke-width="0.09375" opacity="1.00" d=" M 206.02 79.03 C 207.83 76.58 209.47 73.83 212.14 72.19 C 216.64 74.35 219.26 79.10 223.67 81.52 C 220.89 84.22 218.10 86.90 215.37 89.65 C 213.39 85.23 209.32 82.39 206.02 79.03 Z" />
<path fill="#807d7b" stroke="#807d7b" stroke-width="0.09375" opacity="1.00" d=" M 294.08 74.08 C 294.50 73.98 295.35 73.76 295.77 73.66 C 294.68 76.23 293.54 78.78 292.21 81.24 C 285.10 89.81 277.70 98.15 270.97 107.03 C 271.24 107.50 271.78 108.45 272.05 108.92 C 273.37 107.59 274.69 106.26 276.02 104.94 C 276.22 105.41 276.60 106.36 276.80 106.84 C 275.59 109.12 274.50 111.46 273.61 113.89 C 276.08 112.22 278.48 110.47 280.95 108.81 C 280.11 111.16 279.21 113.49 278.38 115.85 C 280.52 114.89 282.63 113.86 284.75 112.85 C 283.85 115.07 282.96 117.31 282.16 119.57 C 284.41 118.61 286.62 117.59 288.85 116.59 C 287.47 118.87 286.09 121.15 284.83 123.51 C 287.00 122.81 289.15 122.06 291.20 121.06 C 287.52 125.68 282.97 129.46 278.80 133.60 C 271.99 128.83 267.07 121.94 260.41 116.99 C 257.75 119.89 255.18 122.87 252.65 125.89 C 249.29 129.79 245.92 133.68 242.64 137.65 C 237.11 144.41 230.82 150.55 225.50 157.47 C 223.21 160.03 224.36 163.36 225.95 165.93 C 226.96 167.80 227.95 169.68 228.89 171.59 C 221.61 169.62 217.52 160.01 223.26 154.24 C 246.75 127.43 269.81 100.21 294.08 74.08 Z" />
<path fill="#807d7b" stroke="#807d7b" stroke-width="0.09375" opacity="1.00" d=" M 244.02 84.88 C 246.80 81.64 250.20 78.65 253.61 83.13 C 251.00 86.24 247.89 88.91 244.30 90.81 C 245.76 91.27 247.22 91.74 248.68 92.22 C 250.01 90.44 251.43 88.74 252.85 87.04 C 253.19 87.28 253.88 87.74 254.22 87.98 C 257.51 87.16 259.95 89.51 262.04 91.70 C 260.08 94.62 258.63 97.82 257.58 101.16 C 256.50 104.49 253.42 106.46 250.91 108.65 C 245.71 102.99 238.72 98.54 235.46 91.41 C 238.11 88.38 240.97 85.56 243.67 82.58 C 243.76 83.16 243.93 84.30 244.02 84.88 Z" />
<path fill="#535150" stroke="#535150" stroke-width="0.09375" opacity="1.00" d=" M 253.61 83.13 C 254.84 84.56 254.03 85.91 252.85 87.04 C 251.43 88.74 250.01 90.44 248.68 92.22 C 247.22 91.74 245.76 91.27 244.30 90.81 C 247.89 88.91 251.00 86.24 253.61 83.13 Z" />
<path fill="#807d7b" stroke="#807d7b" stroke-width="0.09375" opacity="1.00" d=" M 322.95 92.17 C 325.43 89.57 327.82 86.82 330.89 84.87 C 328.49 87.56 325.88 90.06 322.95 92.17 Z" />
<path fill="#535150" stroke="#535150" stroke-width="0.09375" opacity="1.00" d=" M 334.67 85.42 C 335.57 86.98 337.49 88.93 335.47 90.45 C 327.92 98.41 321.04 106.96 313.85 115.25 C 314.36 113.42 314.73 111.56 315.13 109.72 C 313.95 110.36 312.76 111.00 311.60 111.69 C 318.54 102.25 328.53 95.47 334.67 85.42 Z" />
<path fill="#535150" stroke="#535150" stroke-width="0.09375" opacity="1.00" d=" M 187.56 92.08 C 195.75 87.38 205.50 87.03 214.07 90.94 C 209.06 94.69 205.43 102.86 198.25 101.86 C 193.68 105.26 189.16 100.92 185.71 98.05 C 186.31 96.06 186.88 94.05 187.56 92.08 Z" />
<path fill="#535150" stroke="#535150" stroke-width="0.09375" opacity="1.00" d=" M 226.95 101.89 C 229.64 98.28 232.50 94.80 235.46 91.41 C 238.72 98.54 245.71 102.99 250.91 108.65 C 247.72 111.33 244.66 114.16 241.45 116.83 C 236.89 111.59 231.84 106.81 226.95 101.89 Z" />
<path fill="#535150" stroke="#535150" stroke-width="0.09375" opacity="1.00" d=" M 0.00 269.73 C 52.72 216.08 104.28 161.30 156.39 107.06 C 156.74 113.65 156.54 120.35 158.13 126.82 C 150.81 139.33 138.46 147.52 130.36 159.46 C 116.86 173.91 102.89 187.93 89.16 202.17 C 87.88 205.31 87.74 208.79 86.73 212.03 C 75.05 202.14 67.22 220.58 58.53 226.10 L 58.29 224.98 C 56.87 228.91 57.52 233.36 61.30 235.71 C 42.46 245.10 32.12 264.41 15.68 276.68 C 10.26 282.07 5.60 288.19 0.00 293.43 L 0.00 269.73 Z" />
<path fill="#807d7b" stroke="#807d7b" stroke-width="0.09375" opacity="1.00" d=" M 311.60 111.69 C 312.76 111.00 313.95 110.36 315.13 109.72 C 314.73 111.56 314.36 113.42 313.85 115.25 C 309.73 120.52 304.84 125.14 300.94 130.58 C 303.43 132.20 305.79 133.98 308.12 135.82 C 306.82 137.22 305.52 138.62 304.22 140.01 C 304.64 140.27 305.48 140.78 305.90 141.04 C 307.67 140.04 309.44 139.04 311.23 138.06 C 310.31 140.38 309.35 142.67 308.43 144.99 C 310.62 143.98 312.77 142.92 314.95 141.90 C 314.29 143.59 313.61 145.27 312.93 146.96 C 313.22 147.55 313.81 148.73 314.10 149.32 C 311.35 153.30 307.59 156.37 303.90 159.42 C 298.54 154.84 293.90 149.50 288.66 144.79 C 285.67 147.33 282.77 149.99 280.22 152.97 C 279.22 154.12 278.25 155.28 277.25 156.41 C 269.11 164.89 261.33 173.74 253.88 182.83 C 249.95 186.92 253.97 191.99 254.65 196.53 C 248.63 193.50 246.43 185.36 251.26 180.26 C 271.08 157.16 291.40 134.46 311.60 111.69 Z" />
<path fill="#807d7b" stroke="#807d7b" stroke-width="0.09375" opacity="1.00" d=" M 362.72 112.33 C 364.19 114.50 363.37 116.89 361.67 118.63 C 351.18 130.92 339.93 142.59 329.63 155.00 C 327.68 157.92 325.22 160.45 322.48 162.63 C 322.45 163.04 322.41 163.88 322.38 164.29 C 324.63 163.87 326.87 163.42 329.12 162.99 C 328.36 164.61 327.61 166.24 326.86 167.86 C 327.87 167.58 328.89 167.31 329.90 167.03 C 331.12 166.75 332.34 166.48 333.57 166.23 C 333.98 166.90 334.80 168.25 335.21 168.92 C 333.82 170.30 332.39 171.63 330.97 172.99 C 331.47 173.29 332.46 173.88 332.95 174.18 C 335.24 172.04 337.53 169.90 339.83 167.77 C 341.18 168.54 342.54 169.30 343.91 170.06 C 336.89 179.04 327.53 185.76 320.05 194.28 C 314.88 193.97 310.46 196.66 307.36 200.66 C 309.09 193.69 308.68 186.40 305.94 179.74 C 298.74 190.01 281.81 198.23 286.32 212.68 C 283.18 210.85 282.00 207.43 281.72 203.98 C 306.38 171.63 336.31 143.36 362.72 112.33 M 312.53 173.51 C 308.37 175.88 310.74 181.05 313.92 183.08 C 317.82 187.32 321.31 180.40 323.95 177.96 C 321.16 174.95 316.66 168.99 312.53 173.51 Z" />
<path fill="#1d1b1c" stroke="#1d1b1c" stroke-width="0.09375" opacity="1.00" d=" M 200.67 139.34 C 194.63 128.88 208.20 122.34 213.03 114.67 C 218.82 118.26 224.88 121.67 229.41 126.88 C 221.31 133.65 212.34 148.91 200.67 139.34 Z" />
<path fill="#535150" stroke="#535150" stroke-width="0.09375" opacity="1.00" d=" M 260.41 116.99 C 267.07 121.94 271.99 128.83 278.80 133.60 C 275.91 136.97 272.92 140.28 269.34 142.94 C 263.62 137.42 257.78 131.98 252.65 125.89 C 255.18 122.87 257.75 119.89 260.41 116.99 Z" />
<path fill="#3b3b3a" stroke="#3b3b3a" stroke-width="0.09375" opacity="1.00" d=" M 158.13 126.82 C 166.84 159.04 195.68 179.35 217.38 202.63 C 232.53 216.48 248.79 230.36 269.12 235.79 C 253.45 239.43 247.68 254.92 236.34 264.34 C 225.14 274.82 215.73 287.04 204.23 297.21 C 199.29 301.23 192.25 304.46 191.93 311.75 C 191.55 311.92 190.80 312.25 190.42 312.42 C 186.46 307.15 182.08 302.23 177.89 297.15 C 179.00 297.88 180.15 298.56 181.29 299.24 C 197.09 290.87 206.90 275.59 219.97 263.95 C 230.45 254.59 237.55 241.34 249.70 234.04 C 244.47 230.73 239.19 227.47 234.21 223.79 C 216.29 205.02 197.04 187.63 178.67 169.33 C 172.43 163.33 166.02 157.03 162.85 148.79 C 161.04 143.95 159.37 139.05 157.69 134.17 C 155.68 146.09 145.71 153.66 138.18 162.17 C 127.16 170.23 121.47 183.38 110.80 191.81 C 102.60 197.73 98.64 207.01 92.88 214.89 C 94.55 216.64 96.20 218.40 97.95 220.08 C 94.20 217.40 90.37 214.85 86.73 212.03 C 87.74 208.79 87.88 205.31 89.16 202.17 C 102.89 187.93 116.86 173.91 130.36 159.46 C 138.46 147.52 150.81 139.33 158.13 126.82 Z" />
<path fill="#2b2929" stroke="#2b2929" stroke-width="0.09375" opacity="1.00" d=" M 157.69 134.17 C 159.37 139.05 161.04 143.95 162.85 148.79 C 150.93 168.71 132.12 183.42 117.21 201.11 C 112.79 207.53 105.61 212.83 105.71 221.38 C 104.61 221.41 103.51 221.44 102.42 221.48 C 102.49 222.36 102.55 223.24 102.62 224.12 C 101.06 222.77 99.51 221.42 97.95 220.08 C 96.20 218.40 94.55 216.64 92.88 214.89 C 98.64 207.01 102.60 197.73 110.80 191.81 C 121.47 183.38 127.16 170.23 138.18 162.17 C 145.71 153.66 155.68 146.09 157.69 134.17 Z" />
<path fill="#1d1b1c" stroke="#1d1b1c" stroke-width="0.09375" opacity="1.00" d=" M 225.50 157.47 C 230.82 150.55 237.11 144.41 242.64 137.65 C 247.37 142.53 252.66 146.81 257.85 151.18 C 248.59 157.95 238.78 175.90 225.95 165.93 C 224.36 163.36 223.21 160.03 225.50 157.47 Z" />
<path fill="#535150" stroke="#535150" stroke-width="0.09375" opacity="1.00" d=" M 387.17 138.48 C 389.84 141.14 396.09 143.48 393.44 148.10 C 393.31 147.13 393.04 145.18 392.91 144.21 C 390.65 145.81 388.52 147.60 386.75 149.75 C 387.52 148.58 388.25 147.37 388.97 146.17 C 387.98 144.77 386.98 143.38 386.00 141.99 C 386.38 140.82 386.77 139.65 387.17 138.48 Z" />
<path fill="#535150" stroke="#535150" stroke-width="0.09375" opacity="1.00" d=" M 60.50 149.47 C 63.09 146.43 66.58 144.43 70.18 142.82 C 67.38 148.81 62.05 152.92 57.88 157.88 C 38.36 177.62 20.01 198.52 0.00 217.75 L 0.00 213.51 C 20.02 192.04 40.53 171.00 60.50 149.47 Z" />
<path fill="#3b3b3a" stroke="#3b3b3a" stroke-width="0.09375" opacity="1.00" d=" M 314.10 149.32 C 316.01 146.56 318.99 144.96 321.85 143.36 C 313.26 157.98 298.03 167.29 286.44 179.41 C 279.38 184.75 274.62 193.30 265.97 196.31 C 272.36 188.62 281.06 183.01 286.12 174.14 C 278.13 171.07 275.25 164.43 277.25 156.41 C 278.25 155.28 279.22 154.12 280.22 152.97 C 285.57 157.70 290.22 163.14 295.53 167.91 C 298.22 164.99 300.91 162.05 303.90 159.42 C 307.59 156.37 311.35 153.30 314.10 149.32 Z" />
<path fill="#535150" stroke="#535150" stroke-width="0.09375" opacity="1.00" d=" M 280.22 152.97 C 282.77 149.99 285.67 147.33 288.66 144.79 C 293.90 149.50 298.54 154.84 303.90 159.42 C 300.91 162.05 298.22 164.99 295.53 167.91 C 290.22 163.14 285.57 157.70 280.22 152.97 Z" />
<path fill="#807d7b" stroke="#807d7b" stroke-width="0.09375" opacity="1.00" d=" M 386.75 149.75 C 388.52 147.60 390.65 145.81 392.91 144.21 C 393.04 145.18 393.31 147.13 393.44 148.10 C 393.30 148.40 393.02 149.01 392.88 149.31 C 378.54 163.46 366.38 179.84 352.73 194.73 C 340.56 210.49 326.41 225.62 307.74 233.56 C 308.33 232.16 308.93 230.78 309.54 229.39 C 326.82 221.35 338.97 206.13 350.64 191.62 C 362.68 177.67 374.58 163.58 386.75 149.75 Z" />
<path fill="#1d1b1c" stroke="#1d1b1c" stroke-width="0.09375" opacity="1.00" d=" M 117.21 201.11 C 132.12 183.42 150.93 168.71 162.85 148.79 C 166.02 157.03 172.43 163.33 178.67 169.33 C 197.04 187.63 216.29 205.02 234.21 223.79 C 234.77 224.82 235.31 225.87 235.85 226.91 C 218.80 239.42 207.23 257.45 191.11 271.04 C 184.48 275.94 179.69 283.91 170.76 284.80 C 171.75 285.72 172.74 286.64 173.73 287.57 C 173.08 287.71 171.77 287.98 171.11 288.12 C 171.45 289.04 171.81 289.96 172.18 290.87 C 150.44 267.18 127.55 244.47 102.62 224.12 C 102.55 223.24 102.49 222.36 102.42 221.48 C 103.51 221.44 104.61 221.41 105.71 221.38 C 105.61 212.83 112.79 207.53 117.21 201.11 Z" />
<path fill="#535150" stroke="#535150" stroke-width="0.09375" opacity="1.00" d=" M 352.73 194.73 C 366.38 179.84 378.54 163.46 392.88 149.31 C 377.28 174.47 357.53 196.88 342.40 222.38 C 335.92 233.74 327.04 243.40 317.77 252.54 C 320.06 248.07 323.55 244.30 325.33 239.56 C 316.05 245.69 302.31 254.13 305.42 267.17 C 306.19 274.94 299.19 279.92 294.47 284.94 C 283.23 294.52 273.50 305.94 263.98 317.22 C 260.71 322.33 259.63 328.73 255.06 333.05 C 233.50 355.31 212.08 377.71 190.55 400.00 L 181.44 400.00 C 188.89 392.54 195.59 384.40 202.67 376.61 C 205.29 373.50 203.07 368.80 205.64 365.59 C 209.84 359.77 215.44 355.03 219.05 348.76 C 200.58 364.30 184.63 382.97 167.40 400.00 L 165.70 400.00 C 190.84 373.37 216.26 347.02 241.37 320.37 C 242.79 318.20 241.30 315.44 241.16 313.09 C 242.23 314.29 243.31 315.49 244.40 316.68 C 245.57 315.99 246.74 315.30 247.92 314.62 C 247.00 311.35 244.98 308.27 244.86 304.85 C 250.65 298.59 255.39 291.45 261.05 285.05 C 260.71 284.51 260.02 283.42 259.67 282.88 C 258.61 284.35 257.55 285.82 256.50 287.30 C 255.69 286.55 254.87 285.81 254.06 285.08 C 253.49 286.10 252.93 287.13 252.37 288.16 C 243.01 287.76 241.56 300.73 232.01 300.64 C 217.01 314.16 204.18 330.44 188.63 343.48 C 192.01 337.34 197.97 333.28 201.90 327.55 C 177.13 350.57 155.25 376.66 130.72 400.00 L 120.09 400.00 C 132.46 384.25 147.97 371.23 161.18 356.18 C 166.00 352.35 170.79 348.01 171.83 341.60 C 170.87 341.52 169.91 341.45 168.95 341.38 C 169.25 340.64 169.55 339.90 169.85 339.16 C 170.41 338.98 171.54 338.62 172.10 338.45 C 171.86 338.22 171.39 337.77 171.15 337.55 C 177.41 336.57 180.59 330.72 184.58 326.54 C 188.07 322.70 192.45 318.06 190.42 312.42 C 190.80 312.25 191.55 311.92 191.93 311.75 C 192.25 304.46 199.29 301.23 204.23 297.21 C 215.73 287.04 225.14 274.82 236.34 264.34 C 247.68 254.92 253.45 239.43 269.12 235.79 C 282.92 239.31 296.69 233.98 309.54 229.39 C 308.93 230.78 308.33 232.16 307.74 233.56 C 326.41 225.62 340.56 210.49 352.73 194.73 M 204.47 379.33 C 224.17 362.11 240.00 340.67 260.16 323.93 C 260.15 323.10 260.13 321.45 260.12 320.63 C 241.24 339.76 221.34 358.59 204.47 379.33 Z" />
<path fill="#535150" stroke="#535150" stroke-width="0.09375" opacity="1.00" d=" M 356.66 157.02 C 358.81 154.29 361.20 151.74 364.12 149.82 C 361.98 152.56 359.51 155.02 356.66 157.02 Z" />
<path fill="#535150" stroke="#535150" stroke-width="0.09375" opacity="1.00" d=" M 322.48 162.63 C 325.22 160.45 327.68 157.92 329.63 155.00 C 329.50 157.43 328.99 159.82 328.34 162.16 C 330.38 161.41 332.44 160.71 334.53 160.07 C 333.26 162.56 331.75 164.93 329.90 167.03 C 328.89 167.31 327.87 167.58 326.86 167.86 C 327.61 166.24 328.36 164.61 329.12 162.99 C 326.87 163.42 324.63 163.87 322.38 164.29 C 322.41 163.88 322.45 163.04 322.48 162.63 Z" />
<path fill="#535150" stroke="#535150" stroke-width="0.09375" opacity="1.00" d=" M 333.57 166.23 C 337.10 161.06 339.54 165.91 335.21 168.92 C 334.80 168.25 333.98 166.90 333.57 166.23 Z" />
<path fill="#535150" stroke="#535150" stroke-width="0.09375" opacity="1.00" d=" M 312.53 173.51 C 316.66 168.99 321.16 174.95 323.95 177.96 C 321.31 180.40 317.82 187.32 313.92 183.08 C 310.74 181.05 308.37 175.88 312.53 173.51 Z" />
<path fill="#535150" stroke="#535150" stroke-width="0.09375" opacity="1.00" d=" M 286.32 212.68 C 281.81 198.23 298.74 190.01 305.94 179.74 C 308.68 186.40 309.09 193.69 307.36 200.66 C 310.46 196.66 314.88 193.97 320.05 194.28 C 315.17 200.64 309.55 206.93 301.79 209.70 C 302.07 210.54 302.35 211.38 302.64 212.23 C 295.30 214.19 278.71 216.48 281.72 203.98 C 282.00 207.43 283.18 210.85 286.32 212.68 Z" />
<path fill="#807d7b" stroke="#807d7b" stroke-width="0.09375" opacity="1.00" d=" M 58.53 226.10 C 67.22 220.58 75.05 202.14 86.73 212.03 C 90.37 214.85 94.20 217.40 97.95 220.08 C 99.51 221.42 101.06 222.77 102.62 224.12 C 127.55 244.47 150.44 267.18 172.18 290.87 C 174.02 293.02 175.94 295.10 177.89 297.15 C 182.08 302.23 186.46 307.15 190.42 312.42 C 192.45 318.06 188.07 322.70 184.58 326.54 C 180.59 330.72 177.41 336.57 171.15 337.55 C 163.56 330.50 157.99 321.66 150.85 314.19 C 131.09 289.72 107.79 268.28 83.02 248.98 C 75.51 240.77 61.13 237.77 58.53 226.10 M 69.10 229.55 C 68.51 229.79 67.34 230.27 66.76 230.50 L 65.86 229.94 C 67.36 233.68 70.97 235.69 74.10 237.87 C 109.38 261.09 138.01 292.62 165.62 324.19 C 166.66 326.74 168.49 328.83 170.24 330.90 C 171.73 329.63 173.21 328.36 174.69 327.08 C 174.46 328.49 174.22 329.90 174.01 331.32 C 179.67 327.82 189.28 320.99 186.42 313.70 C 186.15 315.14 185.89 316.58 185.63 318.02 C 184.10 312.82 181.56 307.69 176.76 304.79 C 178.51 307.76 180.47 310.60 182.45 313.43 C 181.94 313.50 180.91 313.65 180.40 313.72 C 161.44 289.27 140.32 265.47 115.97 246.57 C 105.45 235.73 92.45 227.57 80.45 218.51 C 74.71 218.21 70.63 224.53 69.10 229.55 Z" />
<path fill="#535150" stroke="#535150" stroke-width="0.09375" opacity="1.00" d=" M 69.10 229.55 C 70.63 224.53 74.71 218.21 80.45 218.51 C 92.45 227.57 105.45 235.73 115.97 246.57 C 110.18 246.42 103.87 244.31 100.23 250.44 C 100.97 248.11 102.02 245.90 103.25 243.79 C 101.40 241.34 99.59 238.87 97.79 236.39 C 96.57 236.68 95.35 237.01 94.16 237.43 C 94.73 238.78 95.30 240.14 95.86 241.51 C 92.67 242.52 89.46 243.44 86.21 244.24 C 79.94 239.36 73.37 234.90 66.76 230.50 C 67.34 230.27 68.51 229.79 69.10 229.55 Z" />
<path fill="#2b2929" stroke="#2b2929" stroke-width="0.09375" opacity="1.00" d=" M 234.21 223.79 C 239.19 227.47 244.47 230.73 249.70 234.04 C 237.55 241.34 230.45 254.59 219.97 263.95 C 206.90 275.59 197.09 290.87 181.29 299.24 C 180.15 298.56 179.00 297.88 177.89 297.15 C 175.94 295.10 174.02 293.02 172.18 290.87 C 171.81 289.96 171.45 289.04 171.11 288.12 C 171.77 287.98 173.08 287.71 173.73 287.57 C 172.74 286.64 171.75 285.72 170.76 284.80 C 179.69 283.91 184.48 275.94 191.11 271.04 C 207.23 257.45 218.80 239.42 235.85 226.91 C 235.31 225.87 234.77 224.82 234.21 223.79 Z" />
<path fill="#2b2929" stroke="#2b2929" stroke-width="0.09375" opacity="1.00" d=" M 61.30 235.71 C 57.52 233.36 56.87 228.91 58.29 224.98 L 58.53 226.10 C 61.13 237.77 75.51 240.77 83.02 248.98 C 82.61 248.86 81.78 248.62 81.36 248.50 C 81.76 249.69 82.17 250.88 82.59 252.08 C 79.66 250.52 76.67 249.06 73.65 247.70 C 47.23 269.64 22.31 293.46 0.00 319.61 L 0.00 305.53 C 9.52 294.92 18.40 283.44 30.21 275.21 C 39.95 264.81 48.31 252.22 60.65 244.74 C 66.93 243.53 66.77 238.05 61.30 235.71 Z" />
<path fill="#1d1b1c" stroke="#1d1b1c" stroke-width="0.09375" opacity="1.00" d=" M 65.86 229.94 L 66.76 230.50 C 73.37 234.90 79.94 239.36 86.21 244.24 C 115.90 265.41 140.73 292.20 163.95 320.03 C 164.49 321.42 165.04 322.81 165.62 324.19 C 138.01 292.62 109.38 261.09 74.10 237.87 C 70.97 235.69 67.36 233.68 65.86 229.94 Z" />
<path fill="#3b3b3a" stroke="#3b3b3a" stroke-width="0.09375" opacity="1.00" d=" M 61.30 235.71 C 66.77 238.05 66.93 243.53 60.65 244.74 C 48.31 252.22 39.95 264.81 30.21 275.21 C 18.40 283.44 9.52 294.92 0.00 305.53 L 0.00 293.43 C 5.60 288.19 10.26 282.07 15.68 276.68 C 32.12 264.41 42.46 245.10 61.30 235.71 Z" />
<path fill="#3b3b3a" stroke="#3b3b3a" stroke-width="0.09375" opacity="1.00" d=" M 94.16 237.43 C 95.35 237.01 96.57 236.68 97.79 236.39 C 99.59 238.87 101.40 241.34 103.25 243.79 C 102.02 245.90 100.97 248.11 100.23 250.44 C 103.87 244.31 110.18 246.42 115.97 246.57 C 140.32 265.47 161.44 289.27 180.40 313.72 C 174.34 313.27 169.94 324.41 165.53 316.15 C 164.95 316.05 163.80 315.84 163.22 315.74 C 163.45 317.17 163.67 318.60 163.95 320.03 C 140.73 292.20 115.90 265.41 86.21 244.24 C 89.46 243.44 92.67 242.52 95.86 241.51 C 95.30 240.14 94.73 238.78 94.16 237.43 Z" />
<path fill="#807d7b" stroke="#807d7b" stroke-width="0.09375" opacity="1.00" d=" M 305.42 267.17 C 302.31 254.13 316.05 245.69 325.33 239.56 C 323.55 244.30 320.06 248.07 317.77 252.54 C 313.92 257.63 309.49 262.25 305.42 267.17 Z" />
<path fill="#1d1b1c" stroke="#1d1b1c" stroke-width="0.09375" opacity="1.00" d=" M 73.65 247.70 C 76.67 249.06 79.66 250.52 82.59 252.08 C 82.17 250.88 81.76 249.69 81.36 248.50 C 81.78 248.62 82.61 248.86 83.02 248.98 C 107.79 268.28 131.09 289.72 150.85 314.19 C 148.21 313.47 146.05 311.76 144.01 310.02 C 145.62 312.83 147.31 315.58 149.15 318.25 C 146.79 318.37 144.45 318.52 142.10 318.64 C 132.75 328.17 132.23 343.07 120.67 350.68 C 107.81 357.59 101.76 371.50 90.76 380.76 C 83.95 385.61 81.73 393.93 76.44 400.00 L 0.00 400.00 L 0.00 319.61 C 22.31 293.46 47.23 269.64 73.65 247.70 Z" />
<path fill="#807d7b" stroke="#807d7b" stroke-width="0.09375" opacity="1.00" d=" M 256.50 287.30 C 257.55 285.82 258.61 284.35 259.67 282.88 C 260.02 283.42 260.71 284.51 261.05 285.05 C 255.39 291.45 250.65 298.59 244.86 304.85 C 244.98 308.27 247.00 311.35 247.92 314.62 C 246.74 315.30 245.57 315.99 244.40 316.68 C 243.31 315.49 242.23 314.29 241.16 313.09 C 241.30 315.44 242.79 318.20 241.37 320.37 C 216.26 347.02 190.84 373.37 165.70 400.00 L 130.72 400.00 C 155.25 376.66 177.13 350.57 201.90 327.55 C 197.97 333.28 192.01 337.34 188.63 343.48 C 204.18 330.44 217.01 314.16 232.01 300.64 C 241.56 300.73 243.01 287.76 252.37 288.16 C 252.93 287.13 253.49 286.10 254.06 285.08 C 254.87 285.81 255.69 286.55 256.50 287.30 Z" />
<path fill="#807d7b" stroke="#807d7b" stroke-width="0.09375" opacity="1.00" d=" M 263.98 317.22 C 273.50 305.94 283.23 294.52 294.47 284.94 C 291.82 294.65 282.93 300.40 276.49 307.50 C 272.38 310.74 269.57 316.43 263.98 317.22 Z" />
<path fill="#535150" stroke="#535150" stroke-width="0.09375" opacity="1.00" d=" M 176.76 304.79 C 181.56 307.69 184.10 312.82 185.63 318.02 C 185.89 316.58 186.15 315.14 186.42 313.70 C 189.28 320.99 179.67 327.82 174.01 331.32 C 174.22 329.90 174.46 328.49 174.69 327.08 C 173.21 328.36 171.73 329.63 170.24 330.90 C 168.49 328.83 166.66 326.74 165.62 324.19 C 165.04 322.81 164.49 321.42 163.95 320.03 C 163.67 318.60 163.45 317.17 163.22 315.74 C 163.80 315.84 164.95 316.05 165.53 316.15 C 169.94 324.41 174.34 313.27 180.40 313.72 C 180.91 313.65 181.94 313.50 182.45 313.43 C 180.47 310.60 178.51 307.76 176.76 304.79 Z" />
<path fill="#2b2929" stroke="#2b2929" stroke-width="0.09375" opacity="1.00" d=" M 149.15 318.25 C 147.31 315.58 145.62 312.83 144.01 310.02 C 146.05 311.76 148.21 313.47 150.85 314.19 C 157.99 321.66 163.56 330.50 171.15 337.55 C 171.39 337.77 171.86 338.22 172.10 338.45 C 171.54 338.62 170.41 338.98 169.85 339.16 C 165.17 335.71 161.54 331.13 158.08 326.51 C 146.73 332.66 142.07 345.38 132.75 353.73 C 129.16 357.48 124.49 360.05 121.20 364.11 C 112.07 377.55 99.06 387.62 88.67 400.00 L 76.44 400.00 C 81.73 393.93 83.95 385.61 90.76 380.76 C 101.76 371.50 107.81 357.59 120.67 350.68 C 132.23 343.07 132.75 328.17 142.10 318.64 C 144.45 318.52 146.79 318.37 149.15 318.25 Z" />
<path fill="#807d7b" stroke="#807d7b" stroke-width="0.09375" opacity="1.00" d=" M 204.47 379.33 C 221.34 358.59 241.24 339.76 260.12 320.63 C 260.13 321.45 260.15 323.10 260.16 323.93 C 240.00 340.67 224.17 362.11 204.47 379.33 Z" />
<path fill="#3b3b3a" stroke="#3b3b3a" stroke-width="0.09375" opacity="1.00" d=" M 158.08 326.51 C 161.54 331.13 165.17 335.71 169.85 339.16 C 169.55 339.90 169.25 340.64 168.95 341.38 C 169.91 341.45 170.87 341.52 171.83 341.60 C 170.79 348.01 166.00 352.35 161.18 356.18 C 147.97 371.23 132.46 384.25 120.09 400.00 L 88.67 400.00 C 99.06 387.62 112.07 377.55 121.20 364.11 C 124.49 360.05 129.16 357.48 132.75 353.73 C 142.07 345.38 146.73 332.66 158.08 326.51 Z" />
<path fill="#807d7b" stroke="#807d7b" stroke-width="0.09375" opacity="1.00" d=" M 167.40 400.00 C 184.63 382.97 200.58 364.30 219.05 348.76 C 215.44 355.03 209.84 359.77 205.64 365.59 C 203.07 368.80 205.29 373.50 202.67 376.61 C 195.59 384.40 188.89 392.54 181.44 400.00 L 167.40 400.00 Z" />
</svg>
