<?xml version="1.0" encoding="utf-8"?>
<!-- Generator: Adobe Illustrator 24.0.1, SVG Export Plug-In . SVG Version: 6.00 Build 0)  -->
<svg version="1.1" id="Layer_1" xmlns="http://www.w3.org/2000/svg" xmlns:xlink="http://www.w3.org/1999/xlink" x="0px" y="0px"
	 width="283.5px" height="283.5px" viewBox="0 0 283.5 283.5" style="enable-background:new 0 0 283.5 283.5;" xml:space="preserve"
	>
<style type="text/css">
	.st0{fill:#737373;stroke:#737373;stroke-width:9.375000e-02;}
	.st1{fill:#484949;stroke:#484949;stroke-width:9.375000e-02;}
	.st2{fill:#373837;stroke:#373837;stroke-width:9.375000e-02;}
	.st3{fill:#282828;stroke:#282828;stroke-width:9.375000e-02;}
	.st4{fill:#E2E3DE;stroke:#E2E3DE;stroke-width:9.375000e-02;}
	.st5{fill:#1C1C1C;stroke:#1C1C1C;stroke-width:9.375000e-02;}
	.st6{fill:#575757;stroke:#575757;stroke-width:9.375000e-02;}
	.st7{fill:#EE561C;stroke:#EE561C;stroke-width:9.375000e-02;}
	.st8{fill:#FFFFFF;stroke:#FFFFFF;stroke-width:9.375000e-02;}
</style>
<path class="st0" d="M20.8,30.9c3.3,0.1,6.5,0.3,9.7,0.7c-0.2,0.8-0.7,2.3-1,3.1c-2.4,0-5.1,0.2-5.8,3c1.8,0.2,3.5-0.2,5.2-0.7
	L28,38.9c1,0,2.9-0.1,3.9-0.1c-1,1-1.8,2.1-2.4,3.4c1.1,0.3,3.1,1,4.2,1.3c0.4-0.3,1.2-0.9,1.6-1.2c1,1.2,2,2.4,3,3.6l-1.3-0.4
	c-7.1-0.7-10.8-7.9-17.6-9.1c1.5,0.1,3,0.2,4.5,0.2c0.2-0.7,0.7-2,1-2.7c-0.6,0.1-1.8,0.4-2.4,0.6C21.7,33.4,20.4,32.4,20.8,30.9z"
	/>
<path class="st1" d="M161.5,66.1c8.6,0.3,17.3,4.4,21.9,11.8c-0.6,0.2-1.8,0.7-2.4,0.9c-6.7-4.4-14.9-6.4-22.9-5.2
	c-2.8,0.3-5.6-0.4-8.3,0.3c-5.9,1.9-12.2,2.4-17.5,5.8c0.2,0.5,0.6,1.5,0.8,2c-5.8,4.4-9.4,11.1-12,17.8c0.8-0.2,2.3-0.7,3.1-0.9
	c0.2,0.6,0.5,1.8,0.7,2.3c-1.3,0.4-2.6,0.8-3.9,1.2c-0.4-0.9-0.8-1.9-1.2-2.8c-0.7,2.3-1.4,4.6-2.1,6.9c-1.3,4.3-2.4,8.8-4.8,12.7
	c0.4-0.2,1.3-0.6,1.8-0.7c0.2,4.2,0.9,8.4,0.6,12.6c-0.8,3.2-2.2,6.2-2.5,9.5c1.7,0.6,3.3,1.1,5,1.7c1.4,0.5,2.8,1.1,4,2.1
	c3.2,3,8,2.9,11.3,5.8c5.8,5.5,12,10.7,18.1,15.8c10.3,6.1,22.7,4,34,6.3c4,0.6,8-0.2,12-0.6c0,3-0.4,6.1-1.9,8.8
	c-2.4-0.3-4.9-0.6-7.3-0.8c1.3,3.1,2.7,6.2,4.2,9.2c-3.3-1.3-6.5-3-9.7-4.5c-4.9-2.5-10.1,1.4-15.2-0.1c-5.7-2.1-11.3-4.3-16.3-7.8
	c-1.1-0.7-2.3-1.4-3.1-2.5c-1.5-0.4-2.7-1.3-2.6-3c-0.7-0.1-2.1-0.4-2.8-0.6l0.2-1c-2.2-1.2-4.2-2.9-6.2-4.4c-2.7-2.3-5.3-4.8-8.2-7
	c0.8,0.2,2.5,0.5,3.4,0.7c-5.2-5.7-12.6-8.7-19.1-12.9c-0.5-0.3-1.5-0.8-2.1-1.1c-0.4-0.9-0.8-1.8-1.2-2.7c0.9-1.1,1.9-2.1,2.8-3.2
	c-0.8-1.6-2.1-3.1-2.5-4.8c0.8-7.5,0.2-15.3,2.7-22.5c2.9-7.4,4.5-15.6,10.2-21.4c0.3,0.1,1,0.2,1.3,0.2c0.2-3,1.6-5.7,3.6-7.9
	c4.1-4.6,9.4-7.8,15.3-9.4c0.2-0.7,0.4-1.4,0.7-2.1c-0.9-1.2-1.8-2.3-2.7-3.5C147.6,66.3,154.5,65.8,161.5,66.1 M167.1,180.6
	c1.3,1.4,2.7,3.1,4.8,2.9c1.1-1,1.6-2.5,2.3-3.7C171.7,179.5,169.3,179.9,167.1,180.6z"/>
<path class="st0" d="M13,31c2.1,0.1,4.3-0.7,6.3,0.4c0.3,0.5,0.9,1.6,1.2,2.1c-0.5,0.2-1.6,0.6-2.1,0.9c-0.1,0.5-0.4,1.4-0.5,1.9
	c-1-0.1-2-0.2-3-0.4l0.2-0.4l-0.4-0.1l-0.3,0.4c-0.2,0.1-0.5,0.2-0.7,0.2c-1.1-0.4-2.2-0.9-3.3-1.3c-0.5,0.7-1.4,2.2-1.9,3l-0.2,0
	c1.3-4-4.6-3.5-6.9-4.9C4.7,30.5,9.1,31.3,13,31z"/>
<path class="st1" d="M22.3,34.5c0.6-0.1,1.8-0.4,2.4-0.6c-0.2,0.7-0.7,2-1,2.7c-1.5,0-3-0.1-4.5-0.2l-1.4-0.1
	c0.1-0.5,0.4-1.4,0.5-1.9C19.7,34.6,21,34.6,22.3,34.5z"/>
<path class="st2" d="M158.2,73.6c7.9-1.2,16.2,0.8,22.9,5.2c0.6-0.2,1.8-0.7,2.4-0.9l0.2-0.1c2.2,3.9,4.3,8,5.1,12.5
	c-0.9,0.1-1.8,0.3-2.7,0.5c-2.3-5.2-6.4-9.2-10.6-12.8c-0.5,1.1-1,2.3-1.5,3.4c-4.6-4.2-11.2-5.1-17.2-4.8c-8,0.3-16.7,0.5-23.5,5.2
	c-0.2-0.5-0.6-1.5-0.8-2c5.3-3.4,11.6-4,17.5-5.8C152.6,73.2,155.4,73.9,158.2,73.6z"/>
<path class="st3" d="M14.7,35.4l0.4,0.1l-0.2,0.4l-0.5-0.1L14.7,35.4z"/>
<path class="st4" d="M17.8,36.3l1.4,0.1c6.8,1.2,10.6,8.4,17.6,9.1c0,0.6,0.1,1.7,0.2,2.2c1.4-1.4,5.5-1.9,5,1.1l0,0.5l0.4,0.2
	c2.4,1.5,5.2,2.4,7.9,3.2c-0.2,0.7-0.6,2-0.8,2.7c2.5,0.7,5,1.4,7.5,2.2c-0.4,0.7-1.2,2.1-1.6,2.8c-1.8-0.7-3.6-1.3-5.3-2
	c1.3,1.4,3,2.8,2.9,4.9C45,58.3,37.6,52.3,30.3,46.3c-2,0.2-4,0.4-6,0.5l0.5,1.1c0.3,0.8,0.7,1.6,1.2,2.3l0.3,0.5l0.7,1.1
	c-1-0.1-3-0.2-3.9-0.3c0.2-0.8,0.6-2.3,0.8-3c-2.8-1-5.5-2-8.4-2.4c0.9-1,1.7-2.1,2.6-3.1c3.9,0.7,7.6,2,11.4,3.2
	c-1.8-1.5-3.6-2.9-5.4-4.4c-3.1,0.2-6.2,0.3-9.3,0.2c-0.3-0.1-1-0.4-1.4-0.5c2.7,0,0.7-3.2-0.5-0.8c-2.6,2.2-6.2-0.1-8.3-2
	c1.2-0.4,2.5-0.7,3.7-0.9l0.2,0c2.4,0.6,4.9,1.1,7.4,1.1c-1.4-0.5-4.2-1.4-5.6-1.8c0.9-0.2,2.6-0.7,3.4-0.9c0.2-0.1,0.5-0.2,0.7-0.2
	l0.5,0.1C15.8,36,16.8,36.1,17.8,36.3 M14.4,36.6c1,1.3,2.1,2.6,3.2,3.9c1.9,0,3.8,0.1,5.7,0.1C20.3,39.2,17.9,36.2,14.4,36.6z"/>
<path class="st0" d="M118.1,81.9c5.1-7.8,13.6-12.9,22.6-14.8c0.9,1.2,1.8,2.3,2.7,3.5c-0.2,0.7-0.4,1.4-0.7,2.1
	c-5.9,1.6-11.2,4.9-15.3,9.4C124.4,81.9,121.2,81.9,118.1,81.9z"/>
<path class="st5" d="M10.3,34.7c1.1,0.4,2.2,0.8,3.3,1.3c-0.9,0.2-2.6,0.7-3.4,0.9c1.4,0.5,4.2,1.4,5.6,1.8c-2.5,0.1-5-0.5-7.4-1.1
	C8.8,37,9.8,35.5,10.3,34.7z"/>
<path class="st2" d="M14.4,36.6c3.5-0.4,5.9,2.6,8.9,4c-1.9-0.1-3.8-0.1-5.7-0.1C16.5,39.2,15.4,37.9,14.4,36.6z"/>
<path class="st5" d="M175.4,77.9c4.2,3.6,8.4,7.6,10.6,12.8c-2.3,0.4-4.5,1-6.7,1.5c-0.1-0.4-0.4-1.4-0.5-1.8
	c-1.3-3.2-2.7-6.4-4.9-9.1C174.4,80.1,174.9,79,175.4,77.9z"/>
<path class="st1" d="M23.9,41.7c1.8,1.4,3.6,2.9,5.4,4.4c-3.8-1.2-7.5-2.5-11.4-3.2c-0.8-0.2-2.5-0.7-3.4-1
	C17.7,42.1,20.8,42,23.9,41.7z"/>
<path class="st0" d="M12.7,40.6c1.2-2.4,3.2,0.8,0.5,0.8L12.7,40.6z"/>
<path class="st0" d="M42,48.8c0.1,0.2,0.3,0.6,0.4,0.8L42,49.3L42,48.8z"/>
<path class="st6" d="M24.3,46.8c2-0.2,4-0.3,6-0.5c7.3,6,14.7,12,22.6,17.2c0.1-2.1-1.5-3.5-2.9-4.9c1.8,0.7,3.6,1.3,5.3,2
	c3,4.3,8,6.8,12.6,9.1c0.4-1.4,0.8-2.8,1.1-4.2c-2.5-1.5-5.1-3-8.1-3.5c4.6,0.8,9.2,1.5,13.8,2.5c-0.2,0.8-0.4,2.5-0.6,3.3
	c-0.9-0.5-2.8-1.4-3.8-1.9c-0.4,0.6-1.3,1.9-1.7,2.5c1.1,0.4,3.4,1.3,4.6,1.7c-2.1-0.2-4.1-0.4-6.2-0.5c0.9,0.9,1.8,1.9,2.8,2.8
	c-5.4,0.6-10.8,1-16.1,1.8c0-0.6-0.1-1.8-0.1-2.4c2.2,0,4.4,0.3,6.5-0.7l0.7-0.3c1.1-2.5-4.1-3.1-2.8-0.2c-1.6,0-3.3-0.1-4.9-0.1
	c1.3-0.5,2.6-1,3.9-1.5c-2.9-0.4-5.7-0.9-8.6-1.3c-1.9,0.5-3.7,1-5.6,1.2c-0.5-3.5,1.6-5.1,4.8-5.7c-2.4-0.2-4.8-0.6-7.2-1.1
	c-0.2-0.4-0.6-1.2-0.8-1.6c0,0-0.1-0.1-0.1-0.1l-0.1,0c-0.6,0.2-1.8,0.7-2.4,1c0.4-0.9,1.1-2.7,1.4-3.6c-1.2-0.2-3.7-0.7-5-0.9
	c2.7-1.6,5.8-0.2,8.7-0.5c-5.1-1.7-10-4-15.4-4.7c2.8-1.2,5.9-0.3,8.8-0.3c-3.5-1.3-6.9-2.9-10.6-3.6L24.3,46.8z"/>
<path class="st4" d="M196.8,91.3c3.4-0.7,6.5,1.5,9.6,2.4c4.3,1.8,9.2,2.9,12.7,6.2c-0.9,1.1-1.9,2.3-2.8,3.4
	c-4.7-1.2-9.5-2.5-14.4-2.6c-0.9,1.1-1.7,2.1-2.6,3.2c-6.9-0.8-14.1-4.9-16.3-11.7C187.6,91.6,192.2,91.9,196.8,91.3z"/>
<path class="st7" d="M188.7,90.2c2.5,1.2,5.3,1,8,1.1c-4.6,0.5-9.2,0.3-13.7,1c2.2,6.9,9.4,11,16.3,11.7c0.9-1.1,1.7-2.1,2.6-3.2
	c4.9,0,9.6,1.4,14.4,2.6c0.9-1.1,1.9-2.3,2.8-3.4c0.1,0.3,0.3,1,0.4,1.4c1.7,4.9,6.9,7,10.9,9.6c-0.6,2.9-1,5.9-0.6,8.9
	c-0.3,0.3-0.9,0.9-1.2,1.2c-0.2-1.9-0.3-3.7-0.5-5.6c-5.4-0.8-11,0.9-16.1-1.3c-0.8-2.7-3.8-2.7-6-3.4c-0.7,1-1.2,2.1-1.8,3.1
	c-0.1,0.8-0.2,2.4-0.2,3.1c0.1,0.6,0.2,1.7,0.2,2.3l-1.1,1.4c1.1,1.2,2.2,2.4,3.4,3.5c0.4,0.4,1.3,1.1,1.7,1.4
	c-8.8,0.7-18,2-26.6-0.4c0.7,0.5,1.4,0.9,2.1,1.4c-2.5-0.3-5-0.5-7.6-0.8c-1,1.8-2.1,3.7-3.2,5.5c-2.4-1.2-4.7-2.8-6.7-4.6
	c0.2-0.8,0.6-2.3,0.8-3c-1.2-0.7-2.5-1.4-3.7-2.1c0.7-4.6,3.5-8.8,3.3-13.5c-4.7-1.1-8-4.8-12.5-6.1c0.8-2.2,1.9-4.4,3.1-6.5
	c3.1,0.1,6.3-0.1,9.3-0.7c1.4,0.1,2.7,0.3,4,0.5c2.6-1,5.3-1.7,8-2.5c0.1-0.6,0.3-1.7,0.4-2.3c0.1,0.5,0.4,1.4,0.5,1.8
	c2.2-0.5,4.5-1.1,6.7-1.5C186.9,90.5,187.8,90.4,188.7,90.2 M185.3,119.6c-0.1,1-0.1,2.1-0.2,3.1c3.3-0.6,8.8,1.5,8.5-3.7
	C190.9,119.4,188.1,119.7,185.3,119.6z"/>
<path class="st0" d="M26,50.2c0.1,0.1,0.2,0.4,0.3,0.5L26,50.2z"/>
<path class="st4" d="M219.4,101.4c5.2,1.3,10.5,2.9,14.8,6.2c3.7,2.6,9.1,2.3,12,6.1c-4.2-1.4-8.5-2.2-12.8-3
	c-0.5-0.9-0.9-1.8-1.4-2.7c-0.4,0.9-1.1,2.8-1.4,3.7l-0.3-0.7C226.3,108.4,221.1,106.3,219.4,101.4z"/>
<path class="st0" d="M32.5,54.8C33,55.6,33,55.6,32.5,54.8z"/>
<path class="st0" d="M55.4,60.5C57.2,61,59,62,61,62c2.9,0.5,5.5,2,8.1,3.5c-0.4,1.4-0.7,2.8-1.1,4.2C63.4,67.3,58.4,64.9,55.4,60.5
	z"/>
<path class="st5" d="M232.1,107.9c0.4,0.9,0.9,1.8,1.4,2.7c-0.6,2.5-1.3,5-2,7.4c-0.3-2.1-0.6-4.3-0.8-6.4
	C231,110.7,231.7,108.9,232.1,107.9z"/>
<path class="st4" d="M39.4,60.5c0,0,0.1,0.1,0.1,0.1L39.4,60.5L39.4,60.5z"/>
<path class="st6" d="M77.1,71c2.8-0.1,5.6,0.3,8.3,0.9c0,1.4,0,2.8,0,4.2c-1.8-1.2-3.8-2.1-6-1.8C78.6,73.2,77.8,72.1,77.1,71z"/>
<path class="st6" d="M118.1,81.9c3.1,0,6.2,0,9.4,0.2c-2,2.2-3.5,4.9-3.6,7.9c-0.3,0-1-0.2-1.3-0.2c-5.7,5.9-7.4,14-10.2,21.4
	c-2.6,7.3-2,15-2.7,22.5c0.4,1.8,1.6,3.2,2.5,4.8c-0.9,1.1-1.9,2.1-2.8,3.2c0.4,0.9,0.8,1.8,1.2,2.7l-1-0.6c-1.6-1-3.4-2-4.5-3.5
	c-1.4-2.8,1-5.5,1.1-8.3c0.2-4,0.4-8,0.6-12c-0.6,0-1.7,0.1-2.3,0.1c2.9-0.3,2.4-3.5,2.3-5.5c-1.5-0.3-2.9-0.7-4.4-1.1l-1.3-0.5
	c1.8-0.3,3.5-0.7,5.3-1.1c0.2-0.7,0.7-2.2,0.9-2.9c-2.9,0.2-5.7,0.9-7.3,3.6c0.2-1.4,0.5-2.9,0.6-4.3c-0.3-0.4-0.8-1.2-1.1-1.6
	c2.4,0.1,4.9,0.1,7.3,0.2c-0.5-0.3-1.5-1.1-2-1.4c1.4-3-5.4-2.7-3.3,0c-0.7,0-2.2,0-2.9,0c0.4-0.6,1.1-1.7,1.5-2.3
	c-0.9-0.2-2.7-0.7-3.7-0.9c1.5,0.1,3,0.1,4.5,0.2c0.1-1,0.2-2,0.3-3.1c0.6,0.5,1.2,1.1,2,0.8c-0.2-0.8-0.7-2.3-1-3.1
	c2.2,1.4,4.5,2.8,6.7,4.2c-0.5,2.7-1,5.4-1.3,8.2c1.7-4.6,2.6-9.4,3.8-14.2C112.7,90.5,115.4,86.2,118.1,81.9z"/>
<path class="st0" d="M73.3,70.1c1.3,0.2,2.5,0.6,3.8,0.9c0.7,1.1,1.5,2.2,2.3,3.3c1.7,2.6,4.8,3.9,7.8,4.5c1.3,1.2,2.5,2.5,3.6,3.9
	c3.8,6.1,11.9,3.9,17.6,6.4c-0.2,1.4-0.4,2.8-0.6,4.2c-2.3-2.4-5.7-2.2-8.1,0c0.7-0.1,2.1-0.4,2.8-0.5c0,1.7,0.5,2,1.6,0.8
	c1.8,1.2,3.7,2.2,5.6,3.1c0.5-0.3,1.4-0.8,1.8-1.1c-1.2,4.7-2.1,9.6-3.8,14.2c0.3-2.7,0.7-5.5,1.3-8.2c-2.2-1.4-4.4-2.8-6.7-4.2
	c0.2,0.8,0.7,2.3,1,3.1c-0.8,0.4-1.4-0.3-2-0.8c-4.1-2.4-8.8,1.4-12.7-1.1c1.3-0.3,2.6-0.7,3.9-1c-0.6-0.2-1.9-0.5-2.6-0.7L89.5,96
	l2.1,0.4c0.5,0,1.4,0.1,1.8,0.1c3.6,0.7,5.4-2.4,6.3-5.4c-0.9,0.6-1.9,1.2-2.8,1.8c-1.7-1.2-3.4-2.4-5.1-3.6c-2.9-1.8-4-4.9-4.4-8.1
	l-0.2-0.8c-0.5-0.1-1.5-0.3-2-0.4c-0.2,0-0.5-0.1-0.6-0.1c-0.5-0.1-1.4-0.1-1.9-0.2c-6.1,1.6-12.5,1.4-18.6,2.6
	c-2.1,0.2-4.1-0.8-6.1-1.5c1.8-0.4,4.4,0.9,5.1-1.6c-2.8-1-5.7-1.8-8.7-2.3c3.8-1.7,8-1.1,11.9,0l-0.7,1.2c-1.2-0.9-2.4-0.8-3.3,0.3
	c0.7,0.1,2.2,0.3,3,0.4c0.7-0.2,2-0.5,2.6-0.7c0.7,0.3,2.2,0.9,3,1.2c0.7,0,2.1,0,2.7-0.1c0.4-1,0.9-1.9,1.3-2.9
	c-1.7-1.3-3.4-2.5-5.1-3.9c-0.9-0.9-1.9-1.9-2.8-2.8C69.2,69.8,71.2,69.9,73.3,70.1z"/>
<path class="st6" d="M233.4,110.7c4.3,0.8,8.6,1.6,12.8,3l1.2,0.9l-1.2,1.1l-0.3,0.2c-1.7,1.9-4,4.4-2.9,7.2
	c4.1,1.3,8.3,3.5,10.4,7.4c0.7,4-1.4,7.8-4,10.8c-1.3,0-2.5,0.1-3.8,0.2c-0.5,0-1.6,0.1-2.2,0.2c-0.6-0.3-1.7-0.9-2.2-1.2
	c0.8,0.1,2.4,0.3,3.2,0.4c-0.6-1.2-1.2-2.3-1.8-3.5c1.6,0.3,3.2,0.5,4.7,0.8c0.4-1.7,0.9-3.5,1.3-5.3c-3.9-2.2-8.1-4.3-12.7-3.3
	c1-0.9,2-1.7,3-2.5c-0.9-0.6-1.8-1.2-2.7-1.8c0.5-0.5,1.6-1.4,2.1-1.9c-2.7,0.1-5.3-0.3-7.9-1.2c0.3-1.3,0.7-2.7,1-4.1
	C232.1,115.6,232.8,113.2,233.4,110.7z"/>
<path class="st4" d="M150.9,100.1c2.3-6.4,9.9-6.2,15.5-5.4c-3.1,0.6-6.2,0.8-9.3,0.7c-1.2,2.1-2.2,4.2-3.1,6.5l-0.5,0.1
	c-0.6-0.3-1.7-0.9-2.3-1.3L150.9,100.1z"/>
<path class="st2" d="M230.3,111l0.3,0.7c0.2,2.1,0.5,4.3,0.8,6.4c-0.3,1.4-0.7,2.7-1,4.1l-0.7-2.2C229.4,117,229.8,114,230.3,111z"
	/>
<path class="st1" d="M245.9,115.9l0.3-0.2c0.2,2.2-0.3,5-1.6,6.9C243.2,120.9,244.7,117.6,245.9,115.9z"/>
<path class="st3" d="M58,70.7c-1.3-2.9,3.9-2.3,2.8,0.2l-0.7,0.3C59.6,71.1,58.5,70.8,58,70.7z"/>
<path class="st4" d="M48.4,67.9c2.9,0.4,5.7,0.9,8.6,1.3c-1.3,0.5-2.6,1-3.9,1.5c1.6,0,3.3,0,4.9,0.1c0.5,0.1,1.6,0.4,2.1,0.5
	c-2,1-4.3,0.7-6.5,0.7c0,0.6,0.1,1.8,0.1,2.4c-0.2,0.8-0.6,2.3-0.8,3c0-1.2,0.1-2.3,0.1-3.5c-2.2-0.5-4.4-1-6.6-1.5
	C48.1,71.5,51.7,69.1,48.4,67.9z"/>
<path class="st1" d="M53.8,74.3c5.3-0.8,10.7-1.2,16.1-1.8c1.6,1.4,3.4,2.6,5.1,3.9c-0.4,1-0.9,1.9-1.3,2.9c-0.7,0-2.1,0-2.7,0.1
	c0.5-1.8-1.9-2-3-1.2c-0.6,0.2-2,0.5-2.6,0.7l0.4-0.6l0.7-1.2c-3.9-1.1-8-1.7-11.9,0L53,77.3C53.2,76.6,53.6,75,53.8,74.3z"/>
<path class="st6" d="M87.1,78.8c3.2,0.3,6.3,0.8,9.4,1.4c-0.2,1.4-0.4,2.8-0.6,4.3c-1.4-1.5-3.2-2.1-5.3-1.8
	C89.6,81.2,88.4,79.9,87.1,78.8z"/>
<path class="st6" d="M82.7,79.7c0.5,0.1,1.4,0.1,1.9,0.2l0.2,0.5c0.5,1.5,1.4,1.8,2.6,0.9c0.3,3.2,1.5,6.4,4.4,8.1
	c-1.7,0.4-3.5,0.8-5.2,1.1c-2.2,0.3-4.4,0.6-6.5,1c1.1,0.9,2.2,1.9,3.3,2.8c-0.5,0.3-1.4,0.8-1.9,1.1c-0.3-0.5-0.9-1.4-1.2-1.8
	c-0.4,0.3-1.3,1-1.7,1.4c-1.1,0-2.2,0-3.3,0.1c0.2-1,0.5-2.9,0.7-3.9c0.1-0.5,0.2-1.5,0.3-2.1c1.7,0,3.4,0,5.1,0
	c0.2-0.3,0.5-0.9,0.7-1.2c1-2-2.4-2-2.8-0.4c-1.4,0.1-2.8,0.2-4.3,0.2c1.3-0.6,2.6-1.2,3.9-1.8c-2.4-0.5-4.8-1-7.3-1
	c-2.9-0.2-8.7,3.4-7.5-2.4C70.3,81.1,76.7,81.3,82.7,79.7z"/>
<path class="st4" d="M84.6,79.9c0.2,0,0.5,0.1,0.6,0.1l-0.4,0.4L84.6,79.9z"/>
<path class="st2" d="M85.3,79.9c0.5,0.1,1.5,0.3,2,0.4l0.2,0.8c-1.2,0.9-2.1,0.6-2.6-0.9L85.3,79.9z"/>
<path class="st4" d="M206,110.8c2.2,0.8,5.3,0.7,6,3.4c-0.8-0.5-2.5-1.5-3.3-2c-1.6,0.2-3,1.1-4.5,1.6
	C204.8,112.8,205.3,111.7,206,110.8z"/>
<path class="st6" d="M212,114.2c5.1,2.2,10.7,0.5,16.1,1.3c0.1,1.9,0.3,3.7,0.5,5.6c-0.3,0.5-1,1.6-1.3,2.2
	c-1.1,0.2-2.2,0.4-3.3,0.5c-0.3,0.6-1,1.6-1.3,2.2c-4.7,1.7-9.7-1.9-14.6-0.4c-0.4-0.4-1.2-1.1-1.7-1.4c0.8-2,1.4-4.1,1.8-6.2
	c-0.8-0.2-2.5-0.6-3.3-0.8l-0.9-0.2c0.1-0.8,0.2-2.4,0.2-3.1c1.5-0.6,2.9-1.4,4.5-1.6C209.5,112.7,211.2,113.7,212,114.2
	 M217.8,118.3c-0.4,0-1.2-0.1-1.7-0.1c-0.1,1.2-0.2,2.3-0.2,3.5l-0.3,0.5c0.8,0.2,2.4,0.5,3.3,0.7c1-1.5,1.9-3.1,2.5-4.9
	C220.1,118.1,218.9,118.2,217.8,118.3 M220.3,123.8C220.7,124.5,220.7,124.5,220.3,123.8z"/>
<path class="st3" d="M67.9,78.1c1-0.8,3.5-0.7,3,1.2C70.2,79,68.7,78.4,67.9,78.1z"/>
<path class="st3" d="M62.3,78.4c1-1.1,2.1-1.2,3.3-0.3l-0.4,0.6C64.6,78.7,63.1,78.5,62.3,78.4z"/>
<path class="st5" d="M217.8,118.3c1.2-0.1,2.3-0.2,3.5-0.3c-0.6,1.7-1.4,3.4-2.5,4.9c-0.8-0.2-2.4-0.6-3.3-0.7l0.3-0.5
	c0.3-0.4,0.8-1.4,1.1-1.8c1.1-0.2,2.1-0.3,3.1-0.5C219.5,119.1,218.4,118.6,217.8,118.3z"/>
<path class="st3" d="M124.3,98.6c8.3-3.1,17.6-1.5,25.5,2c-3.6,1.4-7.2,3-10,5.9c-1.5,1.3-2.4,3.2-3.5,4.9c-1.4-0.2-2.8-0.3-4.2-0.5
	c0.9,0.9,1.8,1.8,2.7,2.7c-2.5,7-3.7,14.3-4.5,21.7c-7.8-4.5-4.5-14.4-4.9-21.7c0.4-4.7-5.1-5.1-7.8-7.4c0.7-2.3,1.4-4.6,2.1-6.9
	c0.4,0.9,0.8,1.9,1.2,2.8c1.3-0.4,2.6-0.8,3.9-1.2C124.8,100.4,124.4,99.2,124.3,98.6z"/>
<path class="st0" d="M153.5,102l0.5-0.1c4.5,1.3,7.9,5.1,12.5,6.1c0.2,4.8-2.6,8.9-3.3,13.5c-0.6,2.1-1.4,4.2-2.2,6.3
	c1.7,1.2,3.3,2.4,4.9,3.6c-0.6-0.2-1.8-0.5-2.4-0.7c-1-0.4-2-0.8-3-1.2c-0.4,1.8-0.7,3.6-1.1,5.4c0.3,0.2,1,0.8,1.4,1
	c1.1,0.9,2.2,1.9,3.4,2.8c-2,5.8-4.8,11.9-3.3,18.1c-1.4,2.8-4.4,2.5-7,1.9c-7.2-7.1-16.9-11.8-21.6-21.3c-0.6-0.8-1.3-1.5-1.9-2.2
	c0.7-7.4,2-14.7,4.5-21.7c-0.9-0.9-1.8-1.8-2.7-2.7c1.4,0.2,2.8,0.3,4.2,0.5c1-1.7,1.9-3.6,3.5-4.9c2.3-1.2,4.5-2.6,6.9-3.8
	C149,102.7,151.3,103,153.5,102 M141.1,116.5c-0.7,2.3-1.7,4.7,0.5,6.5c0.5-1.6,0.9-3.3,1.3-4.9
	C142.4,117.7,141.6,116.9,141.1,116.5 M137.7,130.4c-1.1,1-1,3.2,0.2,4.2C139.7,134.6,139.6,130.2,137.7,130.4z"/>
<path class="st8" d="M216.1,118.2c0.4,0,1.3,0.1,1.7,0.1c0.6,0.3,1.8,0.7,2.3,1c-1,0.2-2.1,0.4-3.1,0.5c-0.3,0.5-0.8,1.4-1.1,1.8
	C215.9,120.5,216,119.3,216.1,118.2z"/>
<path class="st4" d="M228.6,121.1c0.3-0.3,0.9-0.9,1.2-1.2c-0.3,0.8-0.8,2.3-1.1,3c-4,1.4-7.2,4.7-8,9c-0.4,2.2-2.4,3.2-4.1,4.2
	c-3.4-1-7-2-10.6-1.4c-8.3,0.5-16.5,1.4-24.8,1.1c-7-0.8-12.9-5-18.6-8.9c0.2-1.8,0.5-3.6,0.7-5.4c1.2,0.7,2.5,1.4,3.7,2.1
	c-0.2,0.8-0.6,2.3-0.8,3c2,1.8,4.3,3.4,6.7,4.6c1.1-1.8,2.2-3.6,3.2-5.5c2.5,0.3,5,0.6,7.6,0.8c-0.7-0.5-1.4-1-2.1-1.4
	c8.7,2.5,17.8,1.1,26.6,0.4c4.9-1.5,9.8,2.1,14.6,0.4c0.3-0.6,1-1.6,1.3-2.2c1.1-0.2,2.2-0.4,3.3-0.5
	C227.6,122.7,228.3,121.7,228.6,121.1z"/>
<path class="st5" d="M229.7,119.9l0.7,2.2c-0.4,2.4-1.2,4.7-2.1,6.9c0.8,1,2.2,0,3.2,0.3l0,1.6c-3.6,3.1-9.7,3.2-11.1,8.5
	c-3.5-0.8-7-2.5-10.8-2c-7.6,0.7-15.3,0.5-22.8,1.8c-2.4,0.3-3.4,2.6-4.6,4.4c0-0.4,0-1.3,0-1.8c-2.7,0.3-5.5,0.5-8.2,0.7
	c0.9-1.1,1.9-2.2,2.9-3.3c-0.3-1.2-0.6-2.5-0.9-3.7c1.6,0.1,3.3,0.1,4.9,0.2c8.3,0.4,16.6-0.6,24.8-1.1c3.6-0.6,7.2,0.4,10.6,1.4
	c1.7-1,3.7-2,4.1-4.2c4.3-1.2,7.4-4.5,8-9C228.9,122.2,229.5,120.7,229.7,119.9z"/>
<path class="st3" d="M230.4,122.2c2.5,0.9,5.2,1.3,7.9,1.2c-0.5,0.5-1.6,1.4-2.1,1.9c0.9,0.6,1.8,1.2,2.7,1.8c-1,0.8-2,1.7-3,2.5
	c4.6-1.1,8.8,1,12.7,3.3c-0.4,1.8-0.9,3.5-1.3,5.3c-1.6-0.3-3.2-0.5-4.7-0.8c0.6,1.2,1.2,2.3,1.8,3.5c-0.8-0.1-2.4-0.3-3.2-0.4
	c-3.8-1-6.6-3.7-9.5-6.2c0-1.1-0.1-2.1-0.1-3.2l0-1.6c-1-0.3-2.5,0.7-3.2-0.3C229.2,126.8,230,124.6,230.4,122.2 M235.3,126.7
	c-1.2,0.8-2,3.6-0.6,4.3C235.7,130.1,236.9,127.2,235.3,126.7 M241.9,131.2c-1.6,1.3,0.8,3.5,2.2,2.4
	C245.7,132.4,243.4,130,241.9,131.2z"/>
<path class="st0" d="M203.9,116.9l0.9,0.2c-0.2,0.5-0.5,1.5-0.7,2C204.1,118.7,204,117.5,203.9,116.9z"/>
<path class="st5" d="M204.9,117.2c0.8,0.2,2.5,0.6,3.3,0.8c-0.4,2.1-0.9,4.2-1.8,6.2c-1.2-1.1-2.3-2.3-3.4-3.5l1.1-1.4
	C204.3,118.7,204.7,117.7,204.9,117.2z"/>
<path class="st0" d="M220.7,131.9c0.8-4.3,4-7.5,8-9C228,127.5,225,130.7,220.7,131.9z"/>
<path class="st0" d="M71.6,84.7c2.5,0,4.9,0.5,7.3,1c-1.3,0.6-2.6,1.2-3.9,1.8c0.3,0.3,0.9,1,1.2,1.3c-0.1,0.5-0.2,1.5-0.3,2.1
	c-2.9-0.7-6-1.1-8.8-2.3c1.2-0.4,2.4-0.8,3.6-1.2C71,86.8,71.4,85.4,71.6,84.7z"/>
<path class="st5" d="M79.3,87.3c0.3-1.7,3.8-1.6,2.8,0.4C81.4,87.6,80,87.4,79.3,87.3z"/>
<path class="st1" d="M91.8,89.3c1.7,1.2,3.4,2.4,5.1,3.6c0.9-0.6,1.9-1.2,2.8-1.8c-0.8,3-2.6,6.1-6.3,5.4c-0.5-1.8-1.1-1.8-1.8-0.1
	L89.5,96c-0.4-0.3-1.3-1.1-1.8-1.4l1.4-0.4c0.2,0,0.5,0,0.7,0c-1.2-1.2-2.3-2.4-3.3-3.7C88.3,90.1,90.1,89.7,91.8,89.3z"/>
<path class="st5" d="M235.3,126.7c1.6,0.6,0.4,3.4-0.6,4.3C233.3,130.2,234.1,127.4,235.3,126.7z"/>
<path class="st4" d="M79.3,87.3c0.7,0.1,2.1,0.3,2.8,0.4c-0.2,0.3-0.5,0.9-0.7,1.2c-1.7,0.1-3.4,0.1-5.1,0c-0.3-0.3-0.9-1-1.2-1.3
	C76.5,87.5,77.9,87.4,79.3,87.3z"/>
<path class="st2" d="M102.4,92.7c0.4,0.2,1.2,0.6,1.6,0.8C102.9,94.7,102.3,94.4,102.4,92.7z"/>
<path class="st3" d="M220.3,123.8C220.7,124.5,220.7,124.5,220.3,123.8z"/>
<path class="st2" d="M80.1,91.4c2.2-0.4,4.3-0.7,6.5-1c1,1.3,2.1,2.5,3.3,3.7c-0.2,0-0.5,0-0.7,0c-1.9-0.1-3.9-0.3-5.8,0.1
	C82.3,93.2,81.2,92.3,80.1,91.4z"/>
<path class="st6" d="M241.9,131.2c1.4-1.2,3.8,1.2,2.2,2.4C242.7,134.7,240.4,132.5,241.9,131.2z"/>
<path class="st5" d="M185.3,119.6c2.8,0.1,5.6-0.2,8.4-0.6c0.3,5.3-5.3,3.1-8.5,3.7C185.2,121.6,185.2,120.6,185.3,119.6 M188.6,120
	C186.2,122.8,192,121.2,188.6,120z"/>
<path class="st4" d="M83.4,94.2c1.9-0.3,3.9-0.2,5.8-0.1l-1.4,0.4c-0.5,0.3-1.4,0.9-1.9,1.2c1.2,0.6,2.5,0.9,3.9,1
	c0.7,0.2,1.9,0.5,2.6,0.7c-1.3,0.3-2.6,0.7-3.9,1c-0.4,0.1-1.3,0.3-1.8,0.4c0,0.6,0.1,2,0.2,2.6c-1.9-0.3-3.8-0.7-5.7-1.1
	c0.7-1,1.4-2.1,2.1-3.1c-1.6-0.8-3.1-1.6-4.7-2.4c0.4-0.3,1.3-1,1.7-1.4c0.3,0.5,0.9,1.4,1.2,1.8C81.9,95,82.9,94.4,83.4,94.2
	 M84.5,95.2C85,96,85,96,84.5,95.2z"/>
<path class="st5" d="M91.6,96.4c0.8-1.7,1.4-1.7,1.8,0.1C93,96.4,92,96.4,91.6,96.4z"/>
<path class="st0" d="M188.6,120C192,121.2,186.2,122.8,188.6,120z"/>
<path class="st4" d="M220.5,139.5c1.4-5.3,7.5-5.4,11.1-8.5c0,1.1,0,2.1,0.1,3.2c2.9,2.5,5.7,5.2,9.5,6.2c0.6,0.3,1.7,0.9,2.2,1.2
	c0.5,0,1.6-0.1,2.2-0.2c-1.3,3.9-0.4,8-0.8,12c-0.2-0.3-0.7-1-0.9-1.3c-0.6-1.4-1.1-2.9-1.8-4.3c-1.9-2.6-4.1-6.6-8-5.4
	c-1.6,0.5-3.1,1.1-4.7,1.6c-1.5,0.5-2.9,1.2-4.3,2c-0.4,0.5-1.2,1.6-1.6,2.2c-0.2-0.4-0.7-1.2-1-1.6c-1.7,1.1-3.4,2.2-5.1,3.4
	c-1.1,2.4-2.6,4.6-4.5,6.5c1.2,0.8,2.5,1.5,3.7,2.3c-3.9,2.6-8.8,4.6-10.2,9.6c-3.3,0.3-6.6,1.1-9.9,1.8c-7.8,0-15.6-1.1-23.4-1.9
	c-3.2-0.2-5.5-2.5-7.6-4.7c0.1-2.2,0.1-4.3,0.1-6.5c-0.7-0.3-2-1-2.7-1.3c0.5-1.5,1-3,1.5-4.5c0.6,0,1.8,0,2.3,0
	c1.4-2.8,2.8-5.7,4.3-8.4c1-0.1,2-0.2,3-0.2c2.7-0.2,5.5-0.4,8.2-0.7c0,0.4,0,1.3,0,1.8c1.2-1.7,2.2-4.1,4.6-4.4
	c7.5-1.3,15.2-1.1,22.8-1.8C213.4,137,216.9,138.7,220.5,139.5z"/>
<path class="st3" d="M85.9,95.8c0.5-0.3,1.4-0.9,1.9-1.2c0.4,0.3,1.3,1.1,1.8,1.4l0.2,0.8C88.4,96.7,87.1,96.4,85.9,95.8z"/>
<path class="st3" d="M84.5,95.2C85,96,85,96,84.5,95.2z"/>
<path class="st1" d="M88.4,98.4c3.9,2.5,8.6-1.3,12.7,1.1c-0.1,1-0.2,2-0.3,3.1c-1.5-0.1-3-0.1-4.5-0.2c-1.4-0.1-2.7-0.1-4.1,0
	c-1.7,0.7-3.4,1.6-5.3,0.9c0-0.5-0.1-1.4-0.1-1.9c0-0.6-0.1-2-0.2-2.6C87.1,98.7,88,98.5,88.4,98.4z"/>
<path class="st5" d="M117.7,106.3c2.8,2.3,8.2,2.7,7.8,7.4c0.4,7.3-2.9,17.2,4.9,21.7c0.7,0.7,1.3,1.4,1.9,2.2
	c-0.7,1.3-1.5,2.6-2.2,4c1.5,1.8,3,3.6,4.6,5.3c2.5,2.7,5.2,5.2,8.1,7.6c3.9,3.1,7.8,6,12,8.5c-0.3-1.3-0.6-2.7-0.9-4.1
	c2.6,0.6,5.5,0.8,7-1.9c0.6-0.3,1.7-0.8,2.2-1.1c0.7,0.3,2,1,2.7,1.3c0,2.2,0,4.3-0.1,6.5c2.1,2.1,4.5,4.4,7.6,4.7
	c7.8,0.8,15.6,2,23.4,1.9c3.3-0.6,6.5-1.4,9.9-1.8c2.4-0.4,4.7-1.3,6.9-2.3c-0.6,2.7-1.1,5.5-1.7,8.2c1.6,0.4,3.1,0.8,4.7,1.1
	c2.6,3.9,2.6,8.5,2.4,13c-1.6-0.4-3.2-1-4.7-1.6c-1.4-0.9-2.8-2-4.2-2.9c0.6-2.4,1.2-4.7,1.8-7.1c-1.7,0-3.5,0-5.2,0
	c-0.6,2.7-0.9,5.5-0.7,8.3c-0.4,0-1.1,0.1-1.5,0.2c-0.1-1.8-0.3-3.6-0.4-5.4c-1.8,1.7-4.8,3-4.6,5.9c0.1,3.8,4.2,5.3,6.9,7.1
	c-4.9-0.6-9.5-2.1-14-4c-1.5-3-2.9-6.1-4.2-9.2c2.4,0.2,4.9,0.5,7.3,0.8c1.5-2.7,1.9-5.8,1.9-8.8c-4,0.4-8,1.2-12,0.6
	c-11.3-2.3-23.7-0.3-34-6.3c-6.1-5.2-12.3-10.3-18.1-15.8c-4.1-7.5-9.5-14.2-15.6-20.1c-1.6,3.7-1.6,7.7,1.7,10.5
	c-0.3,0.5-1,1.4-1.3,1.8c-1.7-0.6-3.3-1.1-5-1.7c0.3-3.3,1.8-6.3,2.5-9.5c0.3-4.2-0.4-8.4-0.6-12.6c-0.4,0.2-1.3,0.6-1.8,0.7
	C115.3,115.1,116.4,110.7,117.7,106.3z"/>
<path class="st3" d="M101.4,105.7c-2.1-2.7,4.7-3,3.3,0C103.8,105.7,102.2,105.7,101.4,105.7z"/>
<path class="st0" d="M92.3,102.4c1.4-0.1,2.7,0,4.1,0c0.9,0.2,2.7,0.7,3.7,0.9c-0.4,0.6-1.1,1.7-1.5,2.3c0.2,0.3,0.7,0.9,0.9,1.2
	c0.3,0.4,0.8,1.2,1.1,1.6c-0.2,1.4-0.4,2.9-0.6,4.3l1,0.4l1.3,0.5c-2.4,2.1-4.5-1.4-3.7-3.5c-2.8-0.5-5.5-1.1-8.3-1.9
	c0.6-0.2,1.8-0.5,2.3-0.7C93,106,94.6,103.2,92.3,102.4z"/>
<path class="st4" d="M101.4,105.7c0.8,0,2.4,0,3.3,0c0.5,0.4,1.5,1.1,2,1.4c-2.4-0.1-4.9-0.1-7.3-0.2c-0.2-0.3-0.7-0.9-0.9-1.2
	C99.2,105.7,100.6,105.7,101.4,105.7z"/>
<path class="st5" d="M141.1,116.5c0.4,0.4,1.3,1.2,1.8,1.6c-0.4,1.7-0.8,3.3-1.3,4.9C139.4,121.2,140.4,118.7,141.1,116.5z"/>
<path class="st2" d="M161,127.9c0.8-2.1,1.6-4.2,2.2-6.3c-0.2,1.8-0.4,3.6-0.7,5.4c5.7,3.8,11.6,8.1,18.6,8.9
	c-1.6-0.1-3.3-0.1-4.9-0.2c0.3,1.2,0.7,2.5,0.9,3.7c-1,1-2,2.1-2.9,3.3c-1,0.1-2,0.1-3,0.2c-1.5,2.7-2.9,5.6-4.3,8.4
	c-0.6,0-1.8,0-2.3,0c-0.5,1.5-1,3-1.5,4.5c-0.6,0.3-1.7,0.8-2.2,1.1c-1.6-6.2,1.3-12.3,3.3-18.1c-1.1-1-2.2-1.9-3.4-2.8
	c1.5,0.6,2.9,1.1,4.4,1.6c0.1-2,0.2-3.9,0.3-5.9c-0.4,1.1-1.3,3.4-1.7,4.5c-0.1-1.8-0.2-3.6-0.3-5.4c0.6,0.2,1.8,0.5,2.4,0.7
	C164.3,130.2,162.6,129,161,127.9z"/>
<path class="st5" d="M234.1,142.4c3.8-1.2,6.1,2.9,8,5.4l-1.1,2C238.5,147.5,237,144.2,234.1,142.4z"/>
<path class="st2" d="M99.8,112.8c1.6-2.7,4.4-3.4,7.3-3.6c-0.2,0.7-0.7,2.2-0.9,2.9c-1.8,0.4-3.5,0.7-5.3,1.1L99.8,112.8z"/>
<path class="st7" d="M229.5,144c1.5-0.5,3.1-1.1,4.7-1.6c2.9,1.9,4.4,5.1,6.9,7.4c-0.1,0.1-0.3,0.4-0.4,0.6
	c-2.3-0.5-4.5-1.2-6.8-1.6C232.4,147.2,230.9,145.6,229.5,144z"/>
<path class="st3" d="M225.2,146c1.4-0.8,2.8-1.5,4.3-2c1.5,1.6,2.9,3.2,4.4,4.8C230.5,149.6,227.6,148.2,225.2,146z"/>
<path class="st1" d="M242.1,147.8c0.7,1.4,1.2,2.9,1.8,4.3c0.2,0.3,0.7,1,0.9,1.3c3.2,3.3,6.8,6.1,9.6,9.8c-1.1,0-3.1,0-4.2,0
	c3.7,5,7,10.2,9.7,15.8c4.3,7.1,8.4,14.4,11.2,22.2c1.3,0.2,2.6,0.5,3.9,0.7l0.8,0.1c1.6,4.6,4.5,8.7,5.1,13.6
	c0.3,7-3.7,13.1-6.4,19.2c-1.1,2.8-4.4,3.1-6.9,3.5c-4.4,0.5-8.8,0.2-13.1-0.6c-4.6-3-9-6.5-12.9-10.4c-3.2-5.8-8.8-9.7-13.1-14.5
	c-3.9-4.3-7.8-8.5-12-12.6c0.8-1.9,1.1-3.8,1.2-5.8c-0.9-0.3-2.7-0.9-3.6-1.2c-0.2,0.8-0.7,2.5-0.9,3.4c-1.2-1.4-2.5-3-4.4-3.5
	c0.5-0.4,1.4-1.1,1.9-1.5c-0.4-2-0.8-3.9-1.2-5.9c1.5,0.3,3,0.6,4.5,0.9c1.6,0.6,3.1,1.2,4.7,1.6c0.3,0,0.9,0,1.2,0
	c0.2,3.9,0.8,7.8,2.4,11.4c3,5.9,8.7,9.7,13,14.5c5.7,6.2,12.2,11.6,18,17.6c2.5,1.9,5.7,2.7,8.2,4.7c0.4-0.4,1.2-1.1,1.5-1.4
	c-0.7-2.1-1.5-4.2-2.2-6.3c0.8-0.9,1.5-1.8,2.3-2.7c0.8,0.8,1.5,1.5,2.3,2.3c0.9-2.8,1.9-5.6,1.7-8.6c0.9-1.6,1.7-3.3,2.6-4.9
	c-0.6-0.7-1.8-2-2.3-2.6c-0.7,0.7-1.4,1.4-2.1,2.1c-4-7.8-8.8-15.2-13.1-22.8c-1-1.6-1.7-3.7-3.9-3.7c0.1-1.2,0.1-2.5,0.2-3.7
	c0.2-1.5-0.5-2.4-2.1-2.6c-0.3-0.5-0.9-1.4-1.2-1.9c0.8-1.3,1.7-2.5,2.6-3.8c-6-4.4-13-7.8-20.6-7c-0.6,1.9-1.1,3.8-1.6,5.7
	c0.7,0.2,2,0.5,2.7,0.6c-4,0.6-7.9-0.5-11.9,0.2c-1.6-0.3-3.1-0.7-4.7-1.1c0.6-2.7,1.1-5.4,1.7-8.2c0.5-1.3,1.2-2.6,1.8-3.8
	c1.5,0.8,3,1.7,4.5,2.5c0.5-1.7,0.9-3.4,1.4-5.1c1.9,2.3,3.9,4.5,6.3,6.1c-0.1-4.9-1.9-11.3-7-13c1-1.5,2.1-3.1,3.1-4.6
	c0.4-0.5,1.2-1.6,1.6-2.2c2.4,2.3,5.3,3.6,8.7,2.8c2.3,0.4,4.5,1.1,6.8,1.6c0.1-0.1,0.3-0.4,0.4-0.6L242.1,147.8 M234.2,150.9
	c2.4,4.6,7.5,6.6,10.7,10.5c3.3,2.7,3.9,7.1,6,10.6c1,1.6,1.6,3.4,2,5.2c0.6,0.1,1.3,0.2,1.9,0.3c0.2,1.1,0.3,2.2,0.5,3.4
	c3.4,3.7,5.6,8.1,8.7,12c-0.9-4.9-3.9-9.1-5.8-13.7c-2.6-6.5-8-11.6-9.1-18.7C245.9,155.1,239.5,153.3,234.2,150.9 M240.5,161.2
	c-1,2.5-0.9,5.5,2.2,6.4c0.4-1.9,0.8-3.8,1.1-5.7C243,161.8,241.3,161.4,240.5,161.2 M247.2,229.1c-0.8,1.5,1.2,3.8,2.7,3.6
	C251.1,231.2,249.1,228.3,247.2,229.1z"/>
<path class="st3" d="M160.5,129.6c1,0.4,2,0.8,3,1.2c0.1,1.8,0.2,3.6,0.3,5.4c0.4-1.1,1.3-3.4,1.7-4.5c-0.1,2-0.2,3.9-0.3,5.9
	c-1.5-0.5-2.9-1-4.4-1.6c-0.3-0.2-1-0.8-1.4-1C159.8,133.2,160.1,131.4,160.5,129.6z"/>
<path class="st0" d="M222.6,146.6c0.2,0.4,0.7,1.2,1,1.6c-1.1,1.5-2.1,3.1-3.1,4.6c5.1,1.8,6.9,8.1,7,13c-2.4-1.7-4.5-3.9-6.3-6.1
	c-1-1.1-2-2.3-3-3.4c-0.9,2-1.8,4-2.8,6c-0.6,1.3-1.3,2.5-1.8,3.8c-2.2,1-4.5,1.9-6.9,2.3c1.4-5,6.2-7,10.2-9.6
	c-1.2-0.8-2.5-1.5-3.7-2.3c1.9-1.9,3.4-4.1,4.5-6.5C219.2,148.8,220.9,147.7,222.6,146.6z"/>
<path class="st0" d="M234.2,150.9c5.4,2.4,11.7,4.2,14.9,9.6c1.2,7.1,6.6,12.2,9.1,18.7c1.9,4.6,4.9,8.7,5.8,13.7
	c-3.1-3.9-5.3-8.4-8.7-12c-0.2-1.1-0.3-2.2-0.5-3.4c-0.6-0.1-1.3-0.2-1.9-0.3c-0.4-1.8-1-3.6-2-5.2c-2.2-3.5-2.8-7.9-6-10.6
	C241.6,157.5,236.5,155.5,234.2,150.9z"/>
<path class="st5" d="M137.7,130.4c1.9-0.2,2,4.1,0.2,4.2C136.7,133.6,136.6,131.5,137.7,130.4z"/>
<path class="st7" d="M250.2,163.2c1.1,0,3.1,0,4.2,0c6.8,11.5,17.2,20.5,23.4,32.3c-1.1,2.1-2.2,4.1-2.8,6.4
	c-1.3-0.2-2.6-0.5-3.9-0.7c-2.8-7.8-6.9-15.1-11.2-22.2C257.2,173.4,253.9,168.1,250.2,163.2z"/>
<path class="st5" d="M240.5,161.2c0.8,0.2,2.5,0.5,3.3,0.7c-0.4,1.9-0.7,3.8-1.1,5.7C239.6,166.7,239.5,163.8,240.5,161.2z"/>
<path class="st3" d="M117.3,129.8c6.1,6,11.5,12.6,15.6,20.1c-3.3-2.9-8.1-2.8-11.3-5.8c-1.2-0.9-2.6-1.5-4-2.1
	c0.3-0.5,1-1.4,1.3-1.8C115.7,137.4,115.7,133.5,117.3,129.8z"/>
<path class="st5" d="M218.1,156.2c1,1.1,2,2.2,3,3.4c-0.5,1.7-0.9,3.4-1.4,5.1c-1.5-0.8-3-1.7-4.5-2.5
	C216.2,160.3,217.1,158.3,218.1,156.2z"/>
<path class="st6" d="M132.3,137.6c4.6,9.4,14.4,14.1,21.6,21.3c0.3,1.3,0.6,2.7,0.9,4.1c-4.2-2.6-8.2-5.5-12-8.5
	c0.9-0.1,2.6-0.4,3.4-0.5c-3.5-2.7-6.7-7.6-11.5-7.1c-1.6-1.7-3.1-3.5-4.6-5.3C130.8,140.2,131.6,138.9,132.3,137.6z"/>
<path class="st2" d="M227.2,168.9c7.6-0.8,14.6,2.6,20.6,7c-0.9,1.3-1.7,2.5-2.6,3.8c-1.7-2.9-3.9-5.6-7.1-6.8
	c-1.4,0.9-2.8,1.7-4.2,2.6c-1.9-0.1-3.8-0.2-5.7-0.3c-0.7-0.2-2-0.5-2.7-0.6C226.1,172.7,226.6,170.8,227.2,168.9z"/>
<path class="st0" d="M134.7,146.8c4.8-0.5,8.1,4.4,11.5,7.1c-0.9,0.1-2.6,0.4-3.4,0.5C139.9,152,137.2,149.5,134.7,146.8z"/>
<path class="st7" d="M238.1,172.8c3.2,1.3,5.4,4,7.1,6.8c0.3,0.5,0.9,1.4,1.2,1.9c-0.1,1.6,0.6,2.4,2.1,2.6
	c-0.1,1.2-0.2,2.5-0.2,3.7c-1.5,0.8-3.2,0.7-4.9,0.6c-0.9-4.2-2.1-8.4-3.8-12.4c-0.2,3.2-0.3,6.5-0.5,9.8l-1,0.7
	c-1.1-0.2-3.4-0.5-4.6-0.7c0.2-0.8,0.5-2.3,0.7-3.1c-0.7,1.5-1.4,2.9-2.1,4.4c-1.3,0.1-2.6,0.3-3.9,0.5c-2.7,0.3-5.4,0.7-8.2,0.7
	c-0.3,0-0.9,0-1.2,0c0.2-4.4,0.2-9.1-2.4-13c3.9-0.8,7.9,0.4,11.9-0.2c1.9,0.1,3.8,0.2,5.7,0.3C235.4,174.6,236.7,173.7,238.1,172.8
	z"/>
<path class="st4" d="M109.4,144l1,0.6c0.5,0.3,1.6,0.8,2.1,1.1c-0.4,0.5-1.3,1.6-1.7,2.1c0.4,0.8,0.9,1.7,1.3,2.5
	c-2.3-0.3-4.6-0.7-6.9-1.3C106.5,147.2,107.9,145.5,109.4,144z"/>
<path class="st0" d="M112.5,145.6c6.4,4.2,13.8,7.2,19.1,12.9c-0.8-0.2-2.5-0.5-3.4-0.7c-4.7-3.8-9.8-7.2-16.1-7.6
	c-0.4-0.8-0.9-1.7-1.3-2.5C111.2,147.2,112.1,146.1,112.5,145.6z"/>
<path class="st2" d="M246.5,181.5c1.6,0.3,2.2,1.2,2.1,2.6C247.1,184,246.4,183.1,246.5,181.5z"/>
<path class="st2" d="M206.4,176.7c1.7,0,3.5,0,5.2,0c-0.6,2.3-1.2,4.7-1.8,7.1c1.4,1,2.8,2,4.2,2.9c-1.5-0.3-3-0.7-4.5-0.9
	c0.4,2,0.8,3.9,1.2,5.9c-0.5,0.4-1.4,1.1-1.9,1.5c-0.7-0.1-2.1-0.4-2.8-0.5c-2.7-1.9-6.8-3.3-6.9-7.1c-0.2-2.8,2.8-4.2,4.6-5.9
	c0.1,1.8,0.3,3.6,0.4,5.4c0.4,0,1.1-0.1,1.5-0.2c0.7-0.1,2-0.2,2.7-0.3c0.4-1.7,0.8-3.3,1.3-5C208.6,178.7,207.5,177.7,206.4,176.7z
	"/>
<path class="st6" d="M232.1,187.2c0.7-1.5,1.4-2.9,2.1-4.4c-0.2,0.8-0.5,2.3-0.7,3.1c1.1,0.2,3.4,0.5,4.6,0.7
	c-1.7,1.2-3.6,2.1-5.5,2.9c-1.4-0.7-2.9-1.3-4.4-1.8C229.5,187.5,230.8,187.3,232.1,187.2z"/>
<path class="st1" d="M205.7,185c-0.1-2.8,0.1-5.5,0.7-8.3c1.1,1,2.1,2,3.2,2.9c-0.4,1.7-0.8,3.3-1.3,5
	C207.7,184.8,206.4,184.9,205.7,185z"/>
<path class="st1" d="M238.1,186.6l1-0.7c-1.1,5.2-0.2,10.3,1.8,15.1c-2.7-0.9-4.9-2.8-7.4-4.2c-3-0.2-5.9,0.1-8.9,0
	c0.6-2.4,1.1-4.7,1.7-7.1c1.7,0.7,3.4,1.4,5.1,2.1c0.3-0.6,0.8-1.7,1.1-2.2C234.5,188.7,236.4,187.8,238.1,186.6z"/>
<path class="st2" d="M220,188.4c2.7-0.1,5.4-0.5,8.2-0.7c1.5,0.6,3,1.2,4.4,1.8c-0.3,0.6-0.8,1.7-1.1,2.2c-1.7-0.7-3.4-1.4-5.1-2.1
	c-0.6,2.4-1.2,4.7-1.7,7.1c3,0.2,5.9-0.2,8.9,0c2.4,1.5,4.7,3.3,7.4,4.2l1,0.4c7.4,8,14,16.7,21.3,24.8c-0.8,0.9-1.5,1.8-2.3,2.7
	c0.7,2.1,1.5,4.2,2.2,6.3c-0.4,0.4-1.2,1.1-1.5,1.4c-2.5-2-5.7-2.7-8.2-4.7c2.2-0.2,4.4-0.5,6.6-0.9c-1.1-2.9-3-5.4-5.1-7.7
	c-1.8-2.3-3.2-5.1-5.8-6.6c-6.6-4.3-9.8-12-14.9-17.7c-3.9-0.7-7.9,0.2-11.8,0.8C220.8,196.2,220.2,192.3,220,188.4z"/>
<path class="st5" d="M167.1,180.6c2.3-0.8,4.7-1.1,7.1-0.8c-0.7,1.3-1.2,2.7-2.3,3.7C169.7,183.8,168.3,182.1,167.1,180.6z"/>
<path class="st4" d="M150.9,176.3c5,3.4,10.6,5.7,16.3,7.8c9.2,3.6,18.3,7.5,28,9.5c9.8,2.9,19.2,8.7,25,17.3
	c-1.9-0.3-3.6-1.3-5-2.6c-6.1-5.2-13.1-9.3-20.8-11.6c-16-1.2-29.9-10.2-43.2-18.5C151.2,177.7,151,176.8,150.9,176.3z"/>
<path class="st0" d="M167.3,184c5.1,1.5,10.3-2.4,15.2,0.1c3.2,1.5,6.4,3.2,9.7,4.5c4.5,2,9.1,3.4,14,4c0.7,0.1,2.1,0.4,2.8,0.5
	c1.9,0.5,3.2,2,4.4,3.5c1.1,1.2,2.1,2.4,3.3,3.6c4.1,4,8.1,8.3,12,12.6c4.3,4.9,9.9,8.7,13.1,14.5c-7.7-4.7-14.5-10.7-21.4-16.5
	c-5.8-8.6-15.2-14.4-25-17.3C185.6,191.5,176.4,187.7,167.3,184z"/>
<path class="st5" d="M214.2,193.3c0.9,0.3,2.7,0.9,3.6,1.2c-0.1,2-0.4,4-1.2,5.8c-1.1-1.2-2.2-2.4-3.3-3.6
	C213.5,195.8,214,194.1,214.2,193.3z"/>
<path class="st3" d="M222.4,199.8c3.9-0.6,7.8-1.5,11.8-0.8c5.1,5.7,8.4,13.4,14.9,17.7c-0.8-0.1-2.4-0.4-3.3-0.5
	c2.4,2.8,4.6,8.2,9.1,7.1c2.1,2.3,4,4.7,5.1,7.7c-2.2,0.4-4.4,0.7-6.6,0.9c-5.9-6-12.3-11.4-18-17.6
	C231,209.4,225.3,205.7,222.4,199.8z"/>
<path class="st5" d="M265.3,214.4c0.7-0.7,1.4-1.4,2.1-2.1c0.6,0.7,1.8,2,2.3,2.6c-0.9,1.6-1.7,3.3-2.6,4.9
	C266.6,218,266,216.2,265.3,214.4z"/>
<path class="st5" d="M245.8,216.2c0.8,0.1,2.4,0.4,3.3,0.5c2.6,1.6,4.1,4.3,5.8,6.6C250.4,224.4,248.2,219,245.8,216.2z"/>
<path class="st5" d="M247.2,229.1c1.8-0.8,3.9,2.1,2.7,3.6C248.4,233,246.4,230.6,247.2,229.1z"/>
<path class="st4" d="M254.6,237.8c4.3,0.8,8.7,1.1,13.1,0.6c0.1,0.6,0.5,1.9,0.6,2.5C263.3,243.1,258.6,240.7,254.6,237.8z"/>
</svg>
