<?xml version="1.0" encoding="UTF-8" ?>
<!DOCTYPE svg PUBLIC "-//W3C//DTD SVG 1.1//EN" "http://www.w3.org/Graphics/SVG/1.1/DTD/svg11.dtd">
<svg width="388pt" height="388pt" viewBox="0 0 388 388" version="1.1" xmlns="http://www.w3.org/2000/svg">
<path fill="#77a864" stroke="#77a864" stroke-width="0.09375" opacity="1.00" d=" M 67.90 17.28 C 87.55 33.71 107.34 49.97 127.17 66.19 C 120.29 69.57 113.10 72.25 106.30 75.77 C 120.71 108.25 135.07 140.75 149.56 173.19 C 142.71 176.55 135.57 179.25 128.73 182.63 C 113.98 150.17 99.84 117.42 85.18 84.91 C 78.22 87.97 71.33 91.18 64.33 94.15 C 65.38 68.52 66.63 42.91 67.90 17.28 Z" />
<path fill="#403f41" stroke="#403f41" stroke-width="0.09375" opacity="1.00" d=" M 207.10 80.07 C 228.71 66.30 249.93 51.92 271.47 38.03 C 269.64 63.62 268.59 89.26 266.39 114.80 C 260.03 110.71 253.30 107.26 246.91 103.24 C 230.46 131.38 213.94 159.50 197.86 187.86 C 191.77 183.16 185.63 178.18 178.06 176.11 C 194.17 147.92 210.67 119.96 226.88 91.83 C 220.41 87.70 213.55 84.22 207.10 80.07 Z" />
<path fill="#d15b49" stroke="#d15b49" stroke-width="0.09375" opacity="1.00" d=" M 305.39 172.18 C 329.30 180.93 353.22 189.65 377.17 198.30 C 356.80 213.34 334.49 226.22 313.54 240.66 C 312.24 233.16 311.77 225.55 310.76 218.01 C 277.90 221.24 245.16 225.82 212.28 228.90 C 212.83 221.33 211.82 213.73 209.37 206.56 C 242.13 202.41 275.00 198.95 307.81 195.11 C 307.60 187.42 306.36 179.80 305.39 172.18 Z" />
<path fill="#5996e5" stroke="#5996e5" stroke-width="0.09375" opacity="1.00" d=" M 155.35 185.49 C 174.21 181.76 194.11 194.28 199.31 212.69 C 204.94 230.40 195.78 251.17 178.89 258.92 C 167.10 264.68 152.24 263.97 141.16 256.86 C 128.80 249.27 121.41 234.37 123.08 219.93 C 124.47 202.99 138.46 187.83 155.35 185.49 Z" />
<path fill="#5996e5" stroke="#5996e5" stroke-width="0.09375" opacity="1.00" d=" M 138.87 268.98 C 160.07 279.45 187.72 273.60 202.13 254.62 C 231.19 298.92 259.60 343.67 288.63 388.00 L 120.64 388.00 C 126.82 348.34 132.70 308.64 138.87 268.98 Z" />
</svg>
