<?xml version="1.0" encoding="UTF-8" ?>
<!DOCTYPE svg PUBLIC "-//W3C//DTD SVG 1.1//EN" "http://www.w3.org/Graphics/SVG/1.1/DTD/svg11.dtd">
<svg width="512pt" height="512pt" viewBox="0 0 512 512" version="1.1" xmlns="http://www.w3.org/2000/svg">
<path fill="#3c4752" stroke="#3c4752" stroke-width="0.09375" opacity="1.00" d=" M 256.07 32.91 C 256.16 26.01 264.88 21.50 270.56 25.45 C 309.47 49.20 348.35 72.99 387.23 96.78 C 393.58 99.98 393.72 110.05 387.42 113.38 C 348.50 137.12 309.64 160.97 270.71 184.70 C 265.26 188.56 256.65 184.73 256.14 178.02 C 255.72 165.00 256.19 151.95 255.93 138.92 C 223.47 138.64 191.17 150.49 166.28 171.26 C 137.32 195.02 118.58 230.73 115.61 268.08 C 93.13 268.71 70.57 268.32 48.07 268.27 C 50.88 205.16 84.90 144.68 136.83 108.86 C 171.39 84.35 213.66 71.50 255.93 71.30 C 256.14 58.51 255.81 45.71 256.07 32.91 Z" />
<path fill="#3c4752" stroke="#3c4752" stroke-width="0.09375" opacity="1.00" d=" M 396.87 279.01 C 396.77 261.82 411.77 246.45 428.92 246.02 C 446.14 244.75 462.57 258.76 464.09 275.95 C 465.95 336.43 438.94 396.70 393.30 436.29 C 358.71 466.94 313.58 485.38 267.41 487.62 C 267.20 465.16 267.32 442.70 267.35 420.24 C 304.77 417.06 340.59 398.54 364.44 369.47 C 385.38 344.34 397.10 311.74 396.87 279.01 Z" />
<path fill="#2f79bd" stroke="#2f79bd" stroke-width="0.09375" opacity="1.00" d=" M 47.80 279.80 C 70.22 279.63 92.64 279.65 115.05 279.79 C 114.77 330.86 144.68 380.48 189.96 404.06 C 210.17 414.92 233.06 420.42 255.97 420.66 C 256.02 443.09 256.06 465.53 255.95 487.96 C 191.80 488.57 128.74 456.98 90.21 405.80 C 62.71 370.00 47.52 324.95 47.80 279.80 Z" />
</svg>
