<?xml version="1.0" encoding="UTF-8" ?>
<!DOCTYPE svg PUBLIC "-//W3C//DTD SVG 1.1//EN" "http://www.w3.org/Graphics/SVG/1.1/DTD/svg11.dtd">
<svg width="512pt" height="512pt" viewBox="0 0 512 512" version="1.1" xmlns="http://www.w3.org/2000/svg">
<path fill="#000000" stroke="#000000" stroke-width="0.09375" opacity="1.00" d=" M 0.00 0.00 L 0.75 0.00 C 12.39 6.86 23.83 14.14 35.87 20.27 C 56.57 32.78 77.96 44.14 98.46 56.99 C 86.29 65.32 73.18 72.15 60.83 80.20 C 73.42 101.77 86.61 123.00 99.70 144.28 C 111.69 164.27 123.73 184.23 136.06 204.00 C 217.03 203.99 297.99 204.02 378.96 203.99 C 403.34 163.25 427.51 122.36 451.22 81.23 C 438.73 73.08 425.38 66.35 412.90 58.20 C 432.05 46.89 451.17 35.52 470.25 24.07 C 472.48 22.73 474.72 21.40 476.99 20.10 C 488.29 13.76 499.35 6.98 510.27 0.00 L 511.04 0.00 C 510.20 38.02 508.50 76.02 507.92 114.05 C 505.57 112.75 503.25 111.41 500.95 110.05 C 490.20 104.09 479.94 97.29 469.02 91.64 C 446.44 128.71 424.66 166.29 402.69 203.73 C 406.79 203.84 410.89 203.94 415.01 204.05 C 414.99 220.36 415.00 236.67 415.00 252.99 C 414.98 270.28 414.99 287.58 415.06 304.88 C 415.08 331.83 414.73 358.79 415.23 385.74 C 427.67 399.39 439.18 413.87 451.90 427.28 C 462.38 419.09 471.83 409.72 482.06 401.24 C 483.31 400.16 484.56 399.08 485.83 398.02 C 487.38 405.43 489.12 412.80 490.75 420.19 C 492.51 429.60 494.80 438.89 496.79 448.24 C 499.35 461.49 502.49 474.63 505.09 487.87 C 506.70 495.24 508.39 502.61 510.00 509.99 C 504.63 508.04 499.36 505.91 493.91 504.23 C 463.63 492.66 433.00 481.99 402.76 470.32 C 413.53 460.19 425.49 451.29 436.05 440.97 C 424.88 425.96 411.30 412.87 399.80 398.09 C 311.31 398.07 222.78 397.67 134.31 398.28 C 117.56 412.68 102.28 428.99 85.68 443.68 C 83.73 445.64 79.99 448.72 83.78 451.16 C 90.71 456.94 95.68 467.03 104.89 469.18 C 104.35 469.42 103.27 469.92 102.73 470.16 C 105.70 473.79 108.81 477.32 111.96 480.80 C 100.88 483.72 89.86 486.86 78.76 489.69 C 53.10 496.20 27.64 503.53 1.95 509.94 C 7.17 493.72 12.51 477.53 17.21 461.14 C 17.89 459.11 18.64 457.11 19.25 455.06 C 25.21 437.46 30.27 419.58 36.20 401.98 C 47.31 412.05 57.19 423.33 67.67 434.04 C 79.09 421.91 91.79 411.09 103.48 399.24 C 100.21 334.41 102.62 269.11 102.25 204.14 C 104.71 204.03 109.63 203.82 112.09 203.71 C 104.06 189.91 95.57 176.37 87.25 162.74 C 72.85 138.67 57.93 114.90 43.68 90.73 C 34.52 95.75 25.67 101.30 16.77 106.76 C 12.85 109.14 8.90 111.48 5.04 113.94 C 2.99 79.76 2.94 45.46 0.00 11.35 L 0.00 0.00 M 119.00 218.00 C 119.01 250.07 118.98 282.13 119.02 314.20 C 119.11 314.79 119.30 315.96 119.39 316.54 C 118.54 339.02 119.21 361.51 119.00 384.00 C 213.33 384.00 307.67 384.00 402.00 384.00 C 402.00 328.67 402.00 273.33 402.00 218.00 C 307.67 218.00 213.33 218.00 119.00 218.00 Z" />
<path fill="#2d6dae" stroke="#2d6dae" stroke-width="0.09375" opacity="1.00" d=" M 0.75 0.00 L 428.16 0.00 C 428.06 1.77 427.85 5.32 427.74 7.10 C 423.59 5.04 419.06 4.17 414.52 3.50 C 409.72 10.75 400.47 13.30 395.33 20.37 C 322.31 19.36 249.26 20.54 176.24 19.79 C 166.04 17.89 155.74 16.42 145.38 15.88 C 145.46 17.65 145.53 19.42 145.44 21.19 C 109.02 18.63 72.38 20.42 35.87 20.27 C 23.83 14.14 12.39 6.86 0.75 0.00 Z" />
<path fill="#75cbe7" stroke="#75cbe7" stroke-width="0.09375" opacity="1.00" d=" M 428.16 0.00 L 436.16 0.00 C 438.40 3.97 441.66 7.17 444.32 10.83 C 445.21 9.22 446.12 7.62 447.05 6.02 C 447.67 6.11 448.91 6.28 449.52 6.36 C 452.65 13.87 460.66 16.39 466.79 20.78 C 467.99 21.82 469.12 22.94 470.25 24.07 C 451.17 35.52 432.05 46.89 412.90 58.20 C 425.38 66.35 438.73 73.08 451.22 81.23 C 427.51 122.36 403.34 163.25 378.96 203.99 C 297.99 204.02 217.03 203.99 136.06 204.00 C 123.73 184.23 111.69 164.27 99.70 144.28 C 104.04 133.71 103.38 122.08 110.17 112.14 C 111.23 112.40 112.30 112.67 113.36 112.95 C 116.34 91.40 128.36 72.78 135.67 52.62 C 136.67 41.46 141.96 31.62 145.44 21.19 C 145.53 19.42 145.46 17.65 145.38 15.88 C 155.74 16.42 166.04 17.89 176.24 19.79 C 185.95 21.45 195.64 23.73 204.25 28.72 C 205.30 37.63 213.78 42.09 219.45 47.89 C 225.64 47.62 232.26 48.98 238.14 46.42 C 250.90 60.09 272.93 55.94 284.21 42.74 C 299.93 56.80 323.87 44.25 335.04 30.16 C 337.92 32.23 340.87 34.19 343.82 36.15 C 343.58 72.14 335.65 109.34 351.12 143.74 C 354.42 137.61 350.52 130.55 350.79 124.01 C 351.82 123.28 352.85 122.56 353.89 121.84 C 352.45 118.67 351.33 115.31 351.25 111.80 C 352.87 111.52 354.51 111.26 356.14 110.97 C 354.43 88.97 365.65 68.95 374.35 49.35 C 377.02 43.40 378.38 36.05 384.22 32.24 C 382.76 24.33 392.23 25.78 395.33 20.37 C 400.47 13.30 409.72 10.75 414.52 3.50 C 419.06 4.17 423.59 5.04 427.74 7.10 C 427.85 5.32 428.06 1.77 428.16 0.00 Z" />
<path fill="#2d6dae" stroke="#2d6dae" stroke-width="0.09375" opacity="1.00" d=" M 436.16 0.00 L 510.27 0.00 C 499.35 6.98 488.29 13.76 476.99 20.10 C 473.56 20.29 470.18 20.34 466.79 20.78 C 460.66 16.39 452.65 13.87 449.52 6.36 C 448.91 6.28 447.67 6.11 447.05 6.02 C 446.12 7.62 445.21 9.22 444.32 10.83 C 441.66 7.17 438.40 3.97 436.16 0.00 Z" />
<path fill="#2d6dae" stroke="#2d6dae" stroke-width="0.09375" opacity="1.00" d=" M 511.04 0.00 L 512.00 0.00 L 512.00 469.62 C 511.59 469.08 510.76 468.01 510.35 467.47 C 510.43 465.82 510.54 464.17 510.63 462.53 C 501.36 456.24 503.71 444.59 502.04 435.12 C 501.25 435.05 499.67 434.90 498.88 434.82 C 498.15 439.28 497.39 443.75 496.79 448.24 C 494.80 438.89 492.51 429.60 490.75 420.19 C 490.81 347.12 491.85 273.98 490.26 200.95 C 491.12 200.51 491.99 200.09 492.86 199.67 C 502.98 170.78 504.40 140.17 500.95 110.05 C 503.25 111.41 505.57 112.75 507.92 114.05 C 508.50 76.02 510.20 38.02 511.04 0.00 Z" />
<path fill="#2d6dae" stroke="#2d6dae" stroke-width="0.09375" opacity="1.00" d=" M 0.00 11.35 C 2.94 45.46 2.99 79.76 5.04 113.94 C 8.90 111.48 12.85 109.14 16.77 106.76 C 17.61 161.15 16.23 215.57 17.48 269.96 C 12.11 280.66 1.05 288.56 0.00 301.29 L 0.00 11.35 Z" />
<path fill="#75cbe7" stroke="#75cbe7" stroke-width="0.09375" opacity="1.00" d=" M 402.69 203.73 C 424.66 166.29 446.44 128.71 469.02 91.64 C 479.94 97.29 490.20 104.09 500.95 110.05 C 504.40 140.17 502.98 170.78 492.86 199.67 C 491.99 200.09 491.12 200.51 490.26 200.95 C 484.61 213.20 475.87 223.70 471.01 236.33 C 469.60 235.51 468.20 234.68 466.81 233.84 C 461.91 239.29 455.35 243.68 452.51 250.68 C 451.74 250.55 450.97 250.42 450.21 250.29 C 449.27 251.33 448.34 252.37 447.42 253.42 C 441.68 254.25 435.87 255.28 431.42 259.33 C 426.50 257.61 422.16 254.64 417.77 251.92 C 416.84 252.27 415.92 252.63 415.00 252.99 C 415.00 236.67 414.99 220.36 415.01 204.05 C 410.89 203.94 406.79 203.84 402.69 203.73 Z" />
<path fill="#75cbe7" stroke="#75cbe7" stroke-width="0.09375" opacity="1.00" d=" M 87.25 162.74 C 95.57 176.37 104.06 189.91 112.09 203.71 C 109.63 203.82 104.71 204.03 102.25 204.14 C 102.62 269.11 100.21 334.41 103.48 399.24 C 91.79 411.09 79.09 421.91 67.67 434.04 C 57.19 423.33 47.31 412.05 36.20 401.98 C 30.27 419.58 25.21 437.46 19.25 455.06 C 18.88 452.00 18.15 449.01 17.64 445.99 C 13.82 399.59 7.44 352.60 0.00 307.07 L 0.00 301.29 C 1.05 288.56 12.11 280.66 17.48 269.96 C 19.50 265.39 23.53 262.30 26.97 258.87 C 27.61 259.57 28.25 260.28 28.89 260.99 C 41.32 237.68 57.41 217.11 71.25 194.85 C 83.38 189.21 79.74 172.27 87.25 162.74 Z" />
<path fill="#292933" stroke="#292933" stroke-width="0.09375" opacity="1.00" d=" M 119.00 218.00 C 213.33 218.00 307.67 218.00 402.00 218.00 C 402.00 273.33 402.00 328.67 402.00 384.00 C 307.67 384.00 213.33 384.00 119.00 384.00 C 119.21 361.51 118.54 339.02 119.39 316.54 C 123.53 333.59 127.40 350.70 131.16 367.84 C 155.67 368.68 180.20 368.13 204.73 368.60 C 217.04 370.69 226.57 360.78 237.97 358.24 C 259.92 370.52 287.07 366.42 310.67 374.23 C 328.43 372.14 345.11 380.00 362.80 378.94 C 368.77 378.80 376.12 384.81 381.34 379.57 C 385.44 379.67 389.54 379.84 393.66 379.98 C 395.99 376.30 398.19 372.52 400.86 369.06 C 398.01 365.37 395.99 361.18 394.39 356.83 C 393.17 358.77 392.05 360.77 390.92 362.76 C 387.30 361.87 384.30 359.51 384.04 355.55 C 381.69 354.26 379.42 352.83 377.12 351.46 C 379.16 350.19 381.26 348.99 383.40 347.88 C 383.56 344.77 384.12 341.70 384.83 338.68 C 382.14 337.68 379.31 337.13 376.48 336.69 C 375.48 334.58 374.50 332.46 373.53 330.35 C 367.57 330.11 361.95 332.23 356.42 334.18 C 356.88 332.07 357.19 329.86 357.61 327.78 C 354.88 326.37 352.31 324.71 349.74 323.05 C 350.47 322.11 351.21 321.17 351.95 320.23 C 348.22 317.94 344.71 315.09 340.36 314.07 C 334.57 308.03 327.36 302.59 324.68 294.33 C 327.39 293.88 330.02 293.41 332.77 293.07 C 343.53 306.09 364.58 300.16 377.64 293.28 C 394.17 282.66 399.46 260.90 391.84 243.41 C 385.24 240.58 379.52 236.45 378.37 228.69 C 365.69 217.66 344.90 217.20 331.27 227.26 C 320.07 236.42 312.20 249.81 311.10 264.38 C 303.21 254.58 306.28 241.33 306.86 229.90 C 296.17 229.50 286.05 237.50 275.05 233.47 C 248.59 243.97 225.44 221.07 198.66 223.92 C 182.23 261.80 150.81 289.65 119.02 314.20 C 118.98 282.13 119.01 250.07 119.00 218.00 Z" />
<path fill="#fead00" stroke="#fead00" stroke-width="0.09375" opacity="1.00" d=" M 331.27 227.26 C 344.90 217.20 365.69 217.66 378.37 228.69 C 379.52 236.45 385.24 240.58 391.84 243.41 C 399.46 260.90 394.17 282.66 377.64 293.28 C 364.58 300.16 343.53 306.09 332.77 293.07 C 330.02 293.41 327.39 293.88 324.68 294.33 C 327.36 302.59 334.57 308.03 340.36 314.07 C 344.71 315.09 348.22 317.94 351.95 320.23 C 351.21 321.17 350.47 322.11 349.74 323.05 C 352.31 324.71 354.88 326.37 357.61 327.78 C 357.19 329.86 356.88 332.07 356.42 334.18 C 361.95 332.23 367.57 330.11 373.53 330.35 C 374.50 332.46 375.48 334.58 376.48 336.69 C 379.31 337.13 382.14 337.68 384.83 338.68 C 384.12 341.70 383.56 344.77 383.40 347.88 C 381.26 348.99 379.16 350.19 377.12 351.46 C 379.42 352.83 381.69 354.26 384.04 355.55 C 384.30 359.51 387.30 361.87 390.92 362.76 C 392.05 360.77 393.17 358.77 394.39 356.83 C 395.99 361.18 398.01 365.37 400.86 369.06 C 398.19 372.52 395.99 376.30 393.66 379.98 C 389.54 379.84 385.44 379.67 381.34 379.57 C 376.12 384.81 368.77 378.80 362.80 378.94 C 345.11 380.00 328.43 372.14 310.67 374.23 C 287.07 366.42 259.92 370.52 237.97 358.24 C 226.57 360.78 217.04 370.69 204.73 368.60 C 180.20 368.13 155.67 368.68 131.16 367.84 C 127.40 350.70 123.53 333.59 119.39 316.54 C 119.30 315.96 119.11 314.79 119.02 314.20 C 150.81 289.65 182.23 261.80 198.66 223.92 C 225.44 221.07 248.59 243.97 275.05 233.47 C 286.05 237.50 296.17 229.50 306.86 229.90 C 306.28 241.33 303.21 254.58 311.10 264.38 C 312.20 249.81 320.07 236.42 331.27 227.26 Z" />
<path fill="#75cbe7" stroke="#75cbe7" stroke-width="0.09375" opacity="1.00" d=" M 415.06 304.88 C 415.48 305.26 416.33 306.02 416.76 306.40 C 416.69 309.20 416.69 312.02 416.84 314.83 C 418.65 314.90 422.28 315.05 424.09 315.12 C 424.03 316.77 423.91 320.06 423.85 321.70 C 422.63 322.51 421.41 323.31 420.20 324.12 C 420.40 325.54 420.80 328.37 421.00 329.79 C 427.32 328.06 426.66 335.48 429.21 338.85 C 430.83 339.01 434.09 339.32 435.72 339.47 C 436.69 347.48 434.15 355.14 433.61 363.04 C 438.25 359.21 443.06 355.05 448.93 353.36 C 449.76 351.60 450.53 349.82 451.30 348.04 C 454.11 349.26 456.70 350.91 459.03 352.90 C 460.44 351.69 462.07 350.79 463.56 349.69 C 465.61 356.84 467.54 364.04 469.83 371.13 C 471.53 370.30 473.23 369.49 474.94 368.69 C 475.35 370.10 475.75 371.52 476.14 372.94 C 477.39 372.18 478.64 371.42 479.91 370.67 C 481.20 372.59 482.47 374.51 483.78 376.41 C 482.71 384.64 480.26 392.92 482.06 401.24 C 471.83 409.72 462.38 419.09 451.90 427.28 C 439.18 413.87 427.67 399.39 415.23 385.74 C 414.73 358.79 415.08 331.83 415.06 304.88 Z" />
<path fill="#2d6dae" stroke="#2d6dae" stroke-width="0.09375" opacity="1.00" d=" M 0.00 307.07 C 7.44 352.60 13.82 399.59 17.64 445.99 C 17.48 451.02 17.33 456.09 17.21 461.14 C 12.51 477.53 7.17 493.72 1.95 509.94 C 27.64 503.53 53.10 496.20 78.76 489.69 C 180.27 490.11 281.80 490.39 383.30 489.56 C 387.14 489.60 391.01 489.46 394.85 489.86 C 402.21 504.43 424.95 499.17 438.59 503.21 C 439.52 501.68 440.45 500.16 441.39 498.65 C 443.62 500.46 445.61 502.55 447.52 504.71 C 451.67 504.95 455.85 505.30 460.01 505.45 C 460.29 507.63 460.61 509.81 460.98 512.00 L 0.00 512.00 L 0.00 307.07 Z" />
<path fill="#75cbe7" stroke="#75cbe7" stroke-width="0.09375" opacity="1.00" d=" M 134.31 398.28 C 222.78 397.67 311.31 398.07 399.80 398.09 C 411.30 412.87 424.88 425.96 436.05 440.97 C 425.49 451.29 413.53 460.19 402.76 470.32 C 433.00 481.99 463.63 492.66 493.91 504.23 C 488.89 504.80 483.06 507.14 478.81 503.14 C 477.25 503.48 475.69 503.83 474.15 504.18 C 473.76 506.79 473.50 509.44 472.80 512.00 L 460.98 512.00 C 460.61 509.81 460.29 507.63 460.01 505.45 C 455.85 505.30 451.67 504.95 447.52 504.71 C 445.61 502.55 443.62 500.46 441.39 498.65 C 440.45 500.16 439.52 501.68 438.59 503.21 C 424.95 499.17 402.21 504.43 394.85 489.86 C 391.01 489.46 387.14 489.60 383.30 489.56 C 372.14 486.58 360.60 489.22 349.27 488.79 C 336.92 486.46 327.78 474.96 314.69 475.22 C 298.37 474.58 283.45 467.03 267.43 464.57 C 249.01 461.01 227.38 455.92 219.11 436.86 C 215.36 438.47 211.43 439.57 207.46 440.48 C 195.27 452.71 181.65 465.04 165.74 472.32 C 152.59 469.26 139.00 469.88 125.64 471.67 C 118.31 474.13 112.07 464.18 104.89 469.18 C 95.68 467.03 90.71 456.94 83.78 451.16 C 79.99 448.72 83.73 445.64 85.68 443.68 C 102.28 428.99 117.56 412.68 134.31 398.28 Z" />
<path fill="#75cbe7" stroke="#75cbe7" stroke-width="0.09375" opacity="1.00" d=" M 498.88 434.82 C 499.67 434.90 501.25 435.05 502.04 435.12 C 503.71 444.59 501.36 456.24 510.63 462.53 C 510.54 464.17 510.43 465.82 510.35 467.47 C 510.76 468.01 511.59 469.08 512.00 469.62 L 512.00 475.03 C 510.67 475.39 509.34 475.75 508.01 476.11 C 507.49 480.36 507.25 484.63 506.93 488.92 C 506.47 488.66 505.55 488.13 505.09 487.87 C 502.49 474.63 499.35 461.49 496.79 448.24 C 497.39 443.75 498.15 439.28 498.88 434.82 Z" />
<path fill="#2d6dae" stroke="#2d6dae" stroke-width="0.09375" opacity="1.00" d=" M 508.01 476.11 C 509.34 475.75 510.67 475.39 512.00 475.03 L 512.00 512.00 L 472.80 512.00 C 473.50 509.44 473.76 506.79 474.15 504.18 C 475.69 503.83 477.25 503.48 478.81 503.14 C 483.06 507.14 488.89 504.80 493.91 504.23 C 499.36 505.91 504.63 508.04 510.00 509.99 C 508.39 502.61 506.70 495.24 505.09 487.87 C 505.55 488.13 506.47 488.66 506.93 488.92 C 507.25 484.63 507.49 480.36 508.01 476.11 Z" />
</svg>
