<?xml version="1.0" encoding="UTF-8" ?>
<!DOCTYPE svg PUBLIC "-//W3C//DTD SVG 1.1//EN" "http://www.w3.org/Graphics/SVG/1.1/DTD/svg11.dtd">
<svg width="166pt" height="166pt" viewBox="0 0 166 166" version="1.1" xmlns="http://www.w3.org/2000/svg">
<path fill="#5e5f5f" stroke="#5e5f5f" stroke-width="0.09375" opacity="1.00" d=" M 47.83 17.84 C 48.54 14.04 52.34 11.51 56.01 11.18 C 57.88 12.79 59.75 14.39 61.43 16.20 C 66.88 16.22 72.33 16.23 77.77 16.20 C 79.47 14.27 81.47 12.66 83.48 11.07 C 87.00 11.86 90.78 14.13 91.34 18.00 C 92.06 22.54 87.11 26.69 82.77 25.37 C 80.59 24.84 79.22 22.94 77.79 21.38 C 76.28 21.36 74.77 21.35 73.26 21.35 C 73.22 27.09 73.24 32.83 73.24 38.57 C 88.49 38.50 103.75 38.54 119.00 38.53 C 125.11 38.30 130.97 43.73 130.74 49.94 C 130.77 80.64 130.75 111.35 130.75 142.06 C 131.10 148.32 125.30 154.01 119.05 153.63 C 98.01 153.61 76.97 153.69 55.93 153.59 C 52.13 153.65 49.20 149.68 50.01 146.04 C 51.69 144.05 54.63 145.94 56.88 145.52 C 73.61 144.13 90.34 142.47 107.05 140.80 C 109.49 140.77 111.07 138.36 110.72 136.07 C 110.72 109.36 110.74 82.66 110.71 55.95 C 111.01 53.67 109.31 51.46 106.95 51.43 C 95.71 50.41 84.46 49.54 73.22 48.57 C 73.23 49.50 73.24 51.35 73.25 52.28 C 72.55 52.43 71.14 52.71 70.44 52.85 C 71.44 53.98 72.53 55.03 73.66 56.05 C 72.56 56.71 71.48 57.41 70.44 58.16 C 71.29 58.59 73.00 59.43 73.85 59.85 C 72.77 60.63 71.65 61.34 70.57 62.12 C 73.11 62.57 73.43 64.62 73.42 66.77 C 70.81 66.43 67.56 67.83 65.46 65.75 C 69.34 65.33 67.86 63.11 65.70 61.66 C 71.77 60.91 62.19 57.00 68.35 55.99 C 67.57 55.36 66.81 54.72 66.06 54.06 C 66.06 52.05 66.04 50.04 66.04 48.02 C 60.67 47.37 55.26 46.98 49.85 47.24 C 49.70 43.95 50.56 40.04 54.11 38.89 C 58.02 38.11 62.06 38.67 66.02 38.56 C 66.07 32.84 66.05 27.11 66.03 21.39 C 64.51 21.39 62.98 21.37 61.46 21.37 C 59.96 22.97 58.53 24.95 56.25 25.43 C 51.84 26.61 47.10 22.38 47.83 17.84 Z" />
<path fill="#d2e057" stroke="#d2e057" stroke-width="0.09375" opacity="1.00" d=" M 56.25 70.36 C 67.95 69.03 80.17 69.54 91.30 73.67 C 94.45 75.00 98.49 77.07 98.51 81.00 C 97.40 84.86 93.33 86.58 89.92 87.91 C 77.43 92.04 63.83 92.19 50.96 89.89 C 44.90 88.58 37.91 86.86 34.52 81.11 C 34.56 78.73 36.77 76.94 38.54 75.58 C 43.88 72.37 50.15 71.14 56.25 70.36 Z" />
<path fill="#d2e057" stroke="#d2e057" stroke-width="0.09375" opacity="1.00" d=" M 34.50 91.38 C 41.71 95.39 49.55 98.42 57.92 98.80 C 71.56 99.77 86.86 99.62 98.32 91.12 C 98.90 95.74 98.61 100.42 98.62 105.06 C 98.77 108.78 94.97 110.79 92.09 112.17 C 80.68 116.78 67.99 117.03 55.90 115.80 C 48.19 114.64 39.29 113.25 34.38 106.47 C 34.42 101.44 34.28 96.41 34.50 91.38 Z" />
<path fill="#d2e057" stroke="#d2e057" stroke-width="0.09375" opacity="1.00" d=" M 34.49 116.15 C 34.85 116.07 35.57 115.92 35.93 115.84 C 43.68 121.58 53.64 122.89 63.01 123.36 C 75.09 123.57 88.30 122.90 98.35 115.38 C 98.82 120.44 98.76 125.57 98.50 130.64 C 97.12 134.77 92.44 136.30 88.71 137.65 C 75.90 141.46 62.09 141.51 49.05 138.81 C 43.67 137.39 37.33 135.79 34.50 130.47 C 34.26 125.71 34.31 120.92 34.49 116.15 Z" />
</svg>
